<svg width="757" height="804" viewBox="0 0 757 804" fill="none" xmlns="http://www.w3.org/2000/svg">
<rect width="757" height="804" fill="white"/>
<g clip-path="url(#clip0_451_2171)">
<path d="M414.96 118.11C376.93 157.45 357.04 160.3 308.86 182.06C269.47 199.85 230.46 234.44 217.16 277.54C182.11 391.07 337.91 405.27 411.48 386.73C463.27 373.68 484 343.63 497.11 293.77C502.21 274.38 503.7 253.41 512.1 234.95C521.13 215.13 539.61 205.47 548.81 188.07C593.41 103.7 465.66 65.6601 414.96 118.1V118.11Z" fill="#407BFF"/>
<path opacity="0.9" d="M414.96 118.11C376.93 157.45 357.04 160.3 308.86 182.06C269.47 199.85 230.46 234.44 217.16 277.54C182.11 391.07 337.91 405.27 411.48 386.73C463.27 373.68 484 343.63 497.11 293.77C502.21 274.38 503.7 253.41 512.1 234.95C521.13 215.13 539.61 205.47 548.81 188.07C593.41 103.7 465.66 65.6601 414.96 118.1V118.11Z" fill="white"/>
<path d="M380 447.61C487.083 447.61 573.89 442.542 573.89 436.29C573.89 430.038 487.083 424.97 380 424.97C272.918 424.97 186.11 430.038 186.11 436.29C186.11 442.542 272.918 447.61 380 447.61Z" fill="#F5F5F5"/>
<path d="M468.8 346.62H188.58C185.13 346.62 182.3 343.79 182.3 340.34V153.78H475.08V340.34C475.08 343.79 472.25 346.62 468.8 346.62Z" fill="#407BFF"/>
<path d="M473.3 159.15H184.08V324.48H473.3V159.15Z" fill="white"/>
<path d="M217.83 205.66C228.07 205.66 236.41 213.99 236.41 224.24C236.41 234.49 228.08 242.82 217.83 242.82C207.58 242.82 199.25 234.49 199.25 224.24C199.25 213.99 207.58 205.66 217.83 205.66ZM217.83 204.66C207.02 204.66 198.25 213.43 198.25 224.24C198.25 235.05 207.02 243.82 217.83 243.82C228.64 243.82 237.41 235.05 237.41 224.24C237.41 213.43 228.64 204.66 217.83 204.66Z" fill="#407BFF"/>
<path opacity="0.4" d="M232.04 231.94C229.31 236.98 223.98 240.4 217.83 240.4C211.68 240.4 206.35 236.97 203.62 231.94C207.69 229.22 212.57 227.64 217.83 227.64C223.09 227.64 227.97 229.23 232.04 231.94Z" fill="#407BFF"/>
<path opacity="0.4" d="M217.83 225.91C221.806 225.91 225.03 222.686 225.03 218.71C225.03 214.734 221.806 211.51 217.83 211.51C213.853 211.51 210.63 214.734 210.63 218.71C210.63 222.686 213.853 225.91 217.83 225.91Z" fill="#407BFF"/>
<path opacity="0.4" d="M449.06 234.31H258.47C252.91 234.31 248.4 229.8 248.4 224.24C248.4 218.68 252.91 214.17 258.47 214.17H449.06C454.62 214.17 459.13 218.68 459.13 224.24C459.13 229.8 454.62 234.31 449.06 234.31Z" fill="#407BFF"/>
<path d="M217.83 258.99C228.07 258.99 236.41 267.32 236.41 277.57C236.41 287.82 228.08 296.15 217.83 296.15C207.58 296.15 199.25 287.82 199.25 277.57C199.25 267.32 207.58 258.99 217.83 258.99ZM217.83 257.99C207.02 257.99 198.25 266.76 198.25 277.57C198.25 288.38 207.02 297.15 217.83 297.15C228.64 297.15 237.41 288.38 237.41 277.57C237.41 266.76 228.64 257.99 217.83 257.99Z" fill="#407BFF"/>
<path opacity="0.4" d="M232.04 285.27C229.31 290.31 223.98 293.73 217.83 293.73C211.68 293.73 206.35 290.3 203.62 285.27C207.69 282.55 212.57 280.97 217.83 280.97C223.09 280.97 227.97 282.56 232.04 285.27Z" fill="#407BFF"/>
<path opacity="0.4" d="M217.83 279.24C221.806 279.24 225.03 276.017 225.03 272.04C225.03 268.064 221.806 264.84 217.83 264.84C213.853 264.84 210.63 268.064 210.63 272.04C210.63 276.017 213.853 279.24 217.83 279.24Z" fill="#407BFF"/>
<path opacity="0.4" d="M449.07 267.51H258.47C252.914 267.51 248.41 272.014 248.41 277.57V277.58C248.41 283.136 252.914 287.64 258.47 287.64H449.07C454.626 287.64 459.13 283.136 459.13 277.58V277.57C459.13 272.014 454.626 267.51 449.07 267.51Z" fill="#407BFF"/>
<path opacity="0.1" d="M402.12 287.35C402.12 293.48 402.72 299.58 403.91 305.57C392.75 312.19 385.52 324.38 385.52 337.8C385.52 340.84 385.88 343.79 386.57 346.62H468.8C472.25 346.62 475.08 343.8 475.08 340.34V196.38C433.38 205.64 402.12 242.91 402.12 287.35Z" fill="black"/>
<path d="M554.137 350.111C586.625 317.623 586.625 264.95 554.137 232.462C521.65 199.975 468.977 199.975 436.489 232.462C404.001 264.95 404.001 317.623 436.489 350.111C468.977 382.599 521.65 382.599 554.137 350.111Z" fill="#407BFF"/>
<path d="M549.328 344.8C578.946 315.183 578.946 267.164 549.328 237.546C519.711 207.929 471.692 207.929 442.074 237.546C412.457 267.164 412.457 315.183 442.074 344.8C471.692 374.418 519.711 374.418 549.328 344.8Z" fill="white"/>
<path d="M491.856 351.564C491.677 351.751 491.478 351.918 491.263 352.063C490.24 352.658 489.182 353.192 488.095 353.66C485.453 355.076 483.681 357.704 481.12 359.288C479.178 360.407 476.971 360.982 474.73 360.953C473.479 360.967 472.237 360.752 471.063 360.319C470.645 360.189 470.248 359.998 469.884 359.753C469.527 359.492 469.27 359.116 469.156 358.688C469.094 358.451 469.063 358.206 469.062 357.96C469.062 357.516 468.698 356.612 469.736 356.06L472.223 354.671C472.843 354.325 473.444 353.945 474.022 353.532C475.788 352.184 478.188 350.985 480.088 349.306C481.113 348.396 482.07 347.406 483.007 346.401C483.944 345.397 485.858 345.62 487.051 345.222C487.861 344.989 488.645 344.673 489.39 344.278C490.064 343.867 490.657 343.294 491.364 342.93C491.586 342.8 491.842 342.739 492.099 342.755C492.389 342.816 492.409 343.254 492.416 343.355C492.45 344.09 492.416 344.892 492.551 345.62C492.713 346.607 492.812 347.605 492.847 348.605C492.895 349.14 492.831 349.679 492.661 350.188C492.49 350.697 492.217 351.166 491.856 351.564Z" fill="#FA5D82"/>
<path opacity="0.3" d="M491.856 351.564C491.677 351.751 491.478 351.918 491.263 352.063C490.24 352.658 489.182 353.192 488.095 353.66C485.453 355.076 483.681 357.704 481.12 359.288C479.178 360.407 476.971 360.982 474.73 360.953C473.479 360.967 472.237 360.752 471.063 360.319C470.645 360.189 470.248 359.998 469.884 359.753C469.527 359.492 469.27 359.116 469.156 358.688C469.094 358.451 469.063 358.206 469.062 357.96C469.062 357.516 468.698 356.612 469.736 356.06L472.223 354.671C472.843 354.325 473.444 353.945 474.022 353.532C475.788 352.184 478.188 350.985 480.088 349.306C481.113 348.396 482.07 347.406 483.007 346.401C483.944 345.397 485.858 345.62 487.051 345.222C487.861 344.989 488.645 344.673 489.39 344.278C490.064 343.867 490.657 343.294 491.364 342.93C491.586 342.8 491.842 342.739 492.099 342.755C492.389 342.816 492.409 343.254 492.416 343.355C492.45 344.09 492.416 344.892 492.551 345.62C492.713 346.607 492.812 347.605 492.847 348.605C492.895 349.14 492.831 349.679 492.661 350.188C492.49 350.697 492.217 351.166 491.856 351.564Z" fill="black"/>
<path d="M518.675 358.507C519.558 357.833 519.693 356.289 519.686 355.285C519.689 353.794 519.583 352.305 519.369 350.83C519.14 349.313 519.14 345.829 519.133 345.62C519.484 345.997 519.726 347.999 520.171 351.376C520.636 354.874 521.405 356.289 521.903 359.288C522.449 362.551 522.254 364.64 521.229 366.851C518.924 371.764 514.907 370.706 513.344 367.134C512.205 364.539 511.935 362.2 511.962 358.918C511.996 354.874 512.151 352.993 511.928 350.425C511.732 348.983 511.653 347.527 511.692 346.071L511.908 347.365C511.908 347.365 512.825 350.567 513.067 351.928C513.31 353.29 513.445 354.537 513.593 355.851C513.721 356.977 513.95 357.826 515.002 358.426C515.619 358.774 516.315 358.962 517.024 358.972C517.61 358.998 518.189 358.835 518.675 358.507Z" fill="#FA5D82"/>
<path opacity="0.3" d="M518.675 358.507C519.558 357.833 519.693 356.289 519.686 355.285C519.689 353.794 519.583 352.305 519.369 350.83C519.14 349.313 519.14 345.829 519.133 345.62C519.484 345.997 519.726 347.999 520.171 351.376C520.636 354.874 521.405 356.289 521.903 359.288C522.449 362.551 522.254 364.64 521.229 366.851C518.924 371.764 514.907 370.706 513.344 367.134C512.205 364.539 511.935 362.2 511.962 358.918C511.996 354.874 512.151 352.993 511.928 350.425C511.732 348.983 511.653 347.527 511.692 346.071L511.908 347.365C511.908 347.365 512.825 350.567 513.067 351.928C513.31 353.29 513.445 354.537 513.593 355.851C513.721 356.977 513.95 357.826 515.002 358.426C515.619 358.774 516.315 358.962 517.024 358.972C517.61 358.998 518.189 358.835 518.675 358.507Z" fill="black"/>
<path d="M519.126 345.518C519.052 343.883 519.082 342.244 519.214 340.612C519.807 332.409 520.838 320.917 520.562 313.079C520.252 303.96 519.214 301.203 519.146 299.444C519.146 299.444 520.751 285.795 519.753 265.899C519.234 255.654 514.907 251.826 514.098 247.283L488.237 244.931C486.956 256.389 484.483 284.845 484.361 298.783C484.307 305.227 483.916 335.604 483.687 339.129C483.458 342.654 483.283 343.847 482.541 344.885C480.614 347.669 477.251 350.823 474.042 353.512C473.786 354.793 476.374 355.783 478.329 355.406C479.156 355.193 479.938 354.83 480.634 354.334C483.146 352.578 485.523 350.636 487.745 348.524C490.407 345.768 491.937 345.66 492.072 342.984C492.072 342.654 492.517 340.571 492.921 338.738C493.454 336.305 497.504 317.709 498.313 312.412C498.778 308.892 498.807 305.329 498.401 301.803L502.135 287.271C502.135 287.271 502.532 291.187 504.035 300.428C505.457 309.19 510.917 340.686 511.523 345.181C513.289 355.258 512.75 358.479 513.815 360.771C515.325 364.04 520.023 361.411 519.881 357.199C519.787 353.687 519.18 346.86 519.126 345.518Z" fill="#FFA8A7"/>
<path d="M502.135 287.271L499.85 270.253C499.85 270.253 491.378 267.894 488.433 264.861C488.433 264.861 489.909 269.471 497.795 271.79L500.457 287.204L498.435 301.675L502.135 287.271Z" fill="#F28F8F"/>
<path d="M494.587 216.151C490.543 216.912 488.609 218.597 488.083 223.511C487.557 228.424 489.04 238.467 489.04 238.467L495.584 238.069L494.587 216.151Z" fill="#FA5D82"/>
<path opacity="0.3" d="M494.587 216.151C490.543 216.912 488.609 218.597 488.083 223.511C487.557 228.424 489.04 238.467 489.04 238.467L495.584 238.069L494.587 216.151Z" fill="black"/>
<path d="M476.166 252.156C476.941 248.375 485.077 240.934 487.395 238.608L494.809 238.042L482.145 252.055L476.166 252.156Z" fill="#FFA8A7"/>
<path d="M488.648 197.69C488.552 197.84 488.513 198.02 488.537 198.197C488.561 198.374 488.646 198.537 488.779 198.656C488.911 198.776 489.082 198.845 489.261 198.85C489.439 198.856 489.614 198.798 489.754 198.687C489.876 198.578 489.969 198.441 490.026 198.287C490.082 198.133 490.1 197.967 490.077 197.805C490.022 197.481 489.898 197.173 489.713 196.901C489.14 195.971 488.311 195.189 487.92 194.165C487.714 193.561 487.646 192.918 487.719 192.284C487.793 191.65 488.006 191.04 488.345 190.498C489.032 189.414 490.004 188.539 491.156 187.971C491.9 187.586 492.731 187.401 493.568 187.432C494.136 186.98 494.728 186.559 495.341 186.171C499.513 183.563 509.549 181.898 512.05 189.703C518.021 191.617 518.035 200.487 514.658 204.976C512.67 207.631 510.749 209.694 510.425 211.662L492.901 199.894C491.949 200.569 490.777 200.861 489.619 200.709C489.131 200.657 488.665 200.476 488.271 200.184C488.077 200.04 487.921 199.851 487.816 199.634C487.71 199.417 487.658 199.178 487.664 198.937C487.705 198.465 488.17 197.744 488.648 197.69Z" fill="#263238"/>
<path d="M514.139 199.267C513.927 199.036 513.665 198.858 513.373 198.746C513.08 198.633 512.766 198.591 512.454 198.621C512.142 198.651 511.842 198.753 511.576 198.919C511.311 199.085 511.087 199.31 510.924 199.577C510.648 199.941 510.553 200.723 510.048 201.181C509.872 201.321 509.655 201.397 509.431 201.397C509.207 201.397 508.99 201.321 508.814 201.181C508.376 200.851 508.43 199.833 507.891 198.384C507.378 196.926 506.681 195.54 505.815 194.259C505.08 193.215 504.117 192.076 502.843 191.712C499.965 190.896 498.017 193.235 497.275 193.309C496.534 193.383 494.404 190.755 492.753 192.446C491.102 194.138 490.812 195.345 491.405 201.694C492.018 208.279 493.333 210.355 495.098 211.628C496.136 212.377 497.889 212.579 500.281 212.019L500.221 215.639C499.548 216.475 499.131 217.489 499.023 218.557C498.914 219.625 499.117 220.702 499.607 221.658C501.719 221.262 503.762 220.563 505.673 219.582C509.926 217.202 510.391 214.19 510.391 214.19L510.54 205.697C510.999 205.878 511.503 205.915 511.984 205.805C512.465 205.694 512.901 205.44 513.236 205.077C514.981 203.284 515.527 200.71 514.139 199.267Z" fill="#FFA8A7"/>
<path d="M512.366 204.491C512.376 204.604 512.353 204.719 512.298 204.819C512.243 204.92 512.16 205.002 512.058 205.055C511.957 205.108 511.842 205.13 511.728 205.118C511.615 205.106 511.507 205.061 511.419 204.988C511.331 204.915 511.266 204.817 511.234 204.708C511.201 204.598 511.201 204.481 511.235 204.372C511.268 204.262 511.334 204.165 511.422 204.093C511.511 204.02 511.619 203.976 511.733 203.965C511.886 203.952 512.039 203.999 512.157 204.098C512.276 204.196 512.351 204.337 512.366 204.491Z" fill="#FA5D82"/>
<path d="M507.642 197.71C507.956 198.259 508.061 198.903 507.939 199.523C507.748 200.004 507.494 200.457 507.184 200.871C506.902 201.279 506.698 201.736 506.584 202.219C506.508 202.466 506.487 202.726 506.52 202.982C506.554 203.238 506.642 203.484 506.779 203.703C506.915 203.922 507.098 204.11 507.313 204.252C507.528 204.395 507.771 204.49 508.026 204.531C507.853 204.405 507.727 204.223 507.671 204.016C507.615 203.809 507.631 203.589 507.716 203.392C507.905 203.003 508.209 202.681 508.586 202.468C509.062 202.22 509.513 201.927 509.934 201.592C510.682 200.918 510.689 199.961 510.931 199.631L507.642 197.71Z" fill="#263238"/>
<path d="M500.113 199.766C500.138 200.053 500.27 200.319 500.482 200.514C500.694 200.709 500.971 200.817 501.259 200.817C501.555 200.876 501.862 200.833 502.13 200.696C502.399 200.559 502.614 200.336 502.741 200.062C502.741 199.752 502.162 200.312 501.319 200.191C500.477 200.069 500.153 199.348 500.113 199.766Z" fill="#263238"/>
<path d="M500.76 200.77C500.758 200.878 500.787 200.985 500.845 201.076C500.903 201.168 500.987 201.24 501.086 201.283C501.185 201.327 501.295 201.34 501.402 201.321C501.508 201.302 501.607 201.252 501.685 201.177C501.763 201.102 501.817 201.005 501.84 200.899C501.863 200.794 501.854 200.683 501.814 200.583C501.774 200.482 501.705 200.396 501.616 200.334C501.527 200.273 501.421 200.239 501.313 200.238C501.17 200.238 501.032 200.293 500.929 200.392C500.826 200.492 500.766 200.627 500.76 200.77Z" fill="#263238"/>
<path d="M492.848 199.988C492.897 200.272 493.05 200.527 493.276 200.705C493.503 200.883 493.787 200.971 494.074 200.952C494.374 200.985 494.677 200.917 494.933 200.758C495.19 200.6 495.386 200.359 495.49 200.076C495.49 199.766 494.93 200.372 494.088 200.318C493.245 200.264 492.854 199.57 492.848 199.988Z" fill="#263238"/>
<path d="M493.71 200.844C493.707 200.949 493.734 201.053 493.789 201.143C493.844 201.233 493.924 201.304 494.019 201.349C494.114 201.394 494.22 201.41 494.324 201.396C494.428 201.382 494.525 201.337 494.604 201.268C494.684 201.199 494.741 201.108 494.769 201.007C494.797 200.905 494.795 200.798 494.763 200.698C494.731 200.598 494.671 200.509 494.589 200.443C494.507 200.377 494.408 200.336 494.304 200.325C494.23 200.318 494.156 200.326 494.085 200.348C494.015 200.371 493.95 200.407 493.894 200.456C493.839 200.505 493.794 200.564 493.762 200.631C493.73 200.698 493.713 200.771 493.71 200.844Z" fill="#263238"/>
<path d="M492.456 198.472L494.478 197.34C494.411 197.203 494.316 197.081 494.2 196.982C494.084 196.883 493.949 196.809 493.803 196.764C493.657 196.719 493.504 196.705 493.352 196.722C493.2 196.738 493.054 196.786 492.921 196.861C492.654 197.02 492.457 197.276 492.37 197.575C492.284 197.874 492.315 198.195 492.456 198.472Z" fill="#263238"/>
<path d="M501.36 197.454L503.477 198.431C503.548 198.297 503.591 198.149 503.603 197.997C503.616 197.845 503.596 197.693 503.547 197.549C503.498 197.405 503.419 197.272 503.317 197.16C503.214 197.047 503.09 196.957 502.951 196.894C502.664 196.768 502.34 196.756 502.045 196.86C501.75 196.964 501.505 197.176 501.36 197.454Z" fill="#263238"/>
<path d="M500.592 205.798L498.273 206.708C498.336 206.871 498.431 207.019 498.554 207.142C498.677 207.266 498.825 207.362 498.987 207.426C499.149 207.489 499.323 207.518 499.497 207.511C499.671 207.503 499.842 207.459 499.998 207.382C500.143 207.319 500.274 207.228 500.383 207.114C500.492 206.999 500.577 206.864 500.632 206.716C500.688 206.568 500.713 206.411 500.706 206.253C500.699 206.095 500.66 205.941 500.592 205.798Z" fill="#B16668"/>
<path d="M499.324 207.47C499.337 207.146 499.471 206.839 499.7 206.61C499.928 206.38 500.234 206.244 500.558 206.229H500.679C500.702 206.464 500.648 206.701 500.527 206.903C500.406 207.106 500.223 207.264 500.005 207.355C499.791 207.449 499.557 207.488 499.324 207.47Z" fill="#F28F8F"/>
<path d="M498.152 198.512L498.051 204.221L494.876 203.587L498.152 198.512Z" fill="#F28F8F"/>
<path d="M500.275 212.012C501.832 211.702 504.542 211.055 506.436 209.7C507.402 208.816 508.183 207.748 508.734 206.56C508.734 206.56 508.41 209.532 506.981 210.732C505.553 211.931 500.241 213.306 500.241 213.306L500.275 212.012Z" fill="#F28F8F"/>
<path d="M489.74 236.802C489.828 240.085 489.377 249.487 489.377 249.487C499.291 256.443 516.768 251.219 516.768 251.219C515.939 248.746 515.197 246.926 515.42 244.634L518.608 231.929C515.6 227.494 514.304 222.117 514.962 216.798C510.877 216.124 510.345 215.618 510.378 214.169L500.235 213.994C500.235 214.587 500.161 215.167 499.042 215.437C497.62 215.774 495.099 216.164 495.099 216.164C493.522 217.459 491.729 219.406 489.363 223.268C486.492 227.959 485.804 233.244 489.74 236.802Z" fill="#FFA8A7"/>
<path d="M482.361 247.903C484.046 241.763 488.723 236.903 488.723 236.903C488.723 236.903 483.688 233.041 485.751 227.124C487.813 221.206 494.587 216.151 494.587 216.151L496.515 215.848C493.94 219.892 492.228 225.284 496.454 228.35C504.232 226.133 510.77 221.826 512.96 216.394L514.982 216.798L518.939 232.873C518.939 232.873 517.725 241.136 517.26 242.983C516.986 243.911 516.898 244.884 517.001 245.847C517.104 246.809 517.396 247.741 517.86 248.591C518.952 250.815 521.594 255.196 523.023 262.482C524.452 269.768 527.835 296.916 527.829 297.287C527.825 297.52 527.776 297.75 527.683 297.963C527.591 298.177 527.458 298.371 527.29 298.533C527.123 298.695 526.926 298.822 526.709 298.908C526.493 298.994 526.262 299.036 526.029 299.033C525.625 299.025 525.237 298.877 524.93 298.615C525.072 298.878 525.144 299.172 525.139 299.471C525.132 299.823 525.019 300.165 524.816 300.453C524.614 300.741 524.329 300.962 524 301.088C523.671 301.214 523.312 301.239 522.969 301.16C522.625 301.081 522.313 300.901 522.073 300.644C522.13 300.82 522.157 301.004 522.154 301.19C522.15 301.422 522.101 301.652 522.008 301.865C521.916 302.078 521.782 302.271 521.615 302.433C521.448 302.594 521.25 302.721 521.034 302.806C520.817 302.891 520.586 302.933 520.354 302.928C520.084 302.925 519.819 302.858 519.579 302.734C519.339 302.61 519.131 302.432 518.972 302.214C518.972 302.275 518.972 302.329 518.972 302.389C518.984 302.796 518.855 303.195 518.607 303.518C518.358 303.841 518.006 304.068 517.609 304.161C517.213 304.253 516.796 304.206 516.431 304.027C516.065 303.848 515.772 303.548 515.602 303.178C515.582 303.572 515.432 303.948 515.174 304.246C514.916 304.545 514.566 304.749 514.18 304.826C513.793 304.904 513.391 304.85 513.039 304.673C512.686 304.497 512.402 304.208 512.232 303.852C512.197 304.259 512.022 304.642 511.736 304.934C511.45 305.227 511.072 305.411 510.665 305.456C510.259 305.5 509.849 305.402 509.507 305.179C509.165 304.955 508.911 304.619 508.788 304.229C508.7 304.61 508.487 304.951 508.184 305.198C507.881 305.445 507.504 305.585 507.113 305.595C506.722 305.605 506.339 305.485 506.024 305.253C505.709 305.022 505.479 304.693 505.371 304.317C505.286 304.703 505.073 305.05 504.767 305.301C504.462 305.552 504.08 305.693 503.685 305.702C503.289 305.71 502.902 305.586 502.586 305.348C502.27 305.11 502.042 304.773 501.94 304.391C501.822 304.783 501.571 305.122 501.231 305.349C500.89 305.575 500.481 305.676 500.074 305.634C499.667 305.592 499.287 305.409 499 305.117C498.714 304.825 498.538 304.442 498.503 304.034C498.368 304.42 498.104 304.747 497.754 304.96C497.405 305.173 496.993 305.258 496.588 305.201C496.183 305.144 495.811 304.948 495.534 304.646C495.258 304.345 495.094 303.957 495.072 303.549C494.898 303.91 494.607 304.202 494.246 304.376C493.885 304.551 493.475 304.598 493.084 304.509C492.693 304.421 492.343 304.202 492.092 303.889C491.841 303.577 491.704 303.188 491.702 302.787C491.509 303.129 491.207 303.397 490.844 303.548C490.481 303.699 490.078 303.725 489.699 303.621C489.32 303.517 488.987 303.29 488.751 302.975C488.516 302.661 488.392 302.277 488.4 301.884C488.396 301.814 488.396 301.744 488.4 301.675C488.143 302.014 487.773 302.25 487.358 302.338C486.942 302.427 486.508 302.362 486.136 302.156C485.764 301.951 485.478 301.618 485.332 301.218C485.186 300.819 485.188 300.38 485.34 299.983C485.011 300.284 484.579 300.446 484.133 300.435C483.809 300.429 483.493 300.335 483.219 300.162C482.945 299.989 482.724 299.744 482.58 299.454C482.436 299.164 482.374 298.84 482.402 298.517C482.43 298.194 482.546 297.885 482.738 297.624C482.476 297.836 482.16 297.969 481.825 298.007C481.49 298.045 481.152 297.987 480.849 297.839C480.547 297.691 480.293 297.459 480.118 297.172C479.942 296.884 479.853 296.552 479.86 296.215C479.575 296.392 479.245 296.483 478.91 296.478C478.672 296.482 478.436 296.437 478.216 296.346C477.996 296.255 477.798 296.119 477.633 295.948C477.467 295.777 477.339 295.573 477.257 295.35C477.174 295.127 477.138 294.889 477.151 294.652C478.344 285.115 478.62 273.306 480.204 261.437C480.905 256.052 480.669 254.043 482.361 247.903Z" fill="#FA5D82"/>
<path opacity="0.15" d="M497.674 238.069C494.803 236.512 492.12 235.494 488.75 236.876C488.75 236.876 485.461 234.355 485.292 230.264C485.596 232.475 487.665 235.077 491.722 234.74C496.38 234.349 497.357 236.141 500.444 237.57C503.531 238.999 510.156 240.307 512.32 235.07C512.259 238.608 509.914 240.421 506.827 240.792C503.74 241.163 500.518 239.646 497.674 238.069Z" fill="black"/>
<path opacity="0.15" d="M494.977 263.681C496.615 262.967 498.482 263.007 500.174 262.441C501.175 262.071 502.135 261.599 503.039 261.032C503.669 260.718 504.255 260.324 504.784 259.86C505.067 259.57 505.391 259.138 504.784 259.037C504.349 259.019 503.914 259.042 503.483 259.105C502.612 259.126 501.747 258.956 500.949 258.606C499.783 258.087 499.318 257.359 499.453 256.921C499.561 256.584 500.383 256.806 501.805 256.618C503.632 256.382 506.098 255.189 508.073 255.472C508.64 255.587 509.227 255.565 509.783 255.407C510.34 255.25 510.851 254.963 511.275 254.569C513.583 252.636 515.729 250.517 517.691 248.233C517.745 248.348 517.786 248.456 517.84 248.577C519.23 251.126 520.422 253.778 521.405 256.51C518.507 258.586 515.339 260.877 513.587 262.428C510.54 265.124 507.898 267.146 505.856 267.88C505.431 268.006 504.991 268.078 504.548 268.096C503.679 268.177 502.805 268.197 501.933 268.157C500.787 268.157 499.554 268.035 498.691 267.28C498.49 267.055 498.247 266.87 497.977 266.734C497.756 266.679 497.53 266.652 497.303 266.654C496.83 266.595 496.399 266.353 496.103 265.98C495.997 265.803 495.873 265.638 495.732 265.488C495.321 265.103 494.614 265.184 494.216 264.814C494.15 264.752 494.106 264.672 494.088 264.584C494.083 264.491 494.109 264.399 494.162 264.322C494.364 264.031 494.648 263.808 494.977 263.681ZM480.931 261.706C481.471 257.629 480.77 255.121 481.444 251.448C481.941 251.89 482.478 252.285 483.048 252.628C483.533 252.958 484.153 253.16 484.625 253.504C485.867 254.754 487.411 255.662 489.107 256.139C489.265 256.177 489.403 256.27 489.498 256.402C489.633 256.645 489.451 256.941 489.248 257.116C488.93 257.356 488.563 257.525 488.174 257.611C487.784 257.697 487.381 257.698 486.991 257.615C486.213 257.442 485.453 257.199 484.719 256.887C484.632 256.854 484.517 256.827 484.45 256.887C484.426 256.926 484.414 256.97 484.414 257.015C484.414 257.06 484.426 257.105 484.45 257.143C485.043 259.32 486.647 261.127 488.399 262.488C489.286 263.042 490.141 263.645 490.96 264.295C491.225 264.516 491.418 264.812 491.513 265.144C491.543 265.233 491.543 265.331 491.513 265.42C491.468 265.495 491.399 265.552 491.318 265.582C490.799 265.818 490.172 265.494 489.653 265.71C489.466 265.801 489.29 265.911 489.127 266.04C488.928 266.163 488.706 266.246 488.475 266.283C488.243 266.32 488.007 266.311 487.779 266.256C487.561 266.182 487.335 266.133 487.105 266.108C486.794 266.138 486.491 266.229 486.215 266.377C485.056 266.815 483.991 266.377 482.906 265.966L482.798 265.926C482.273 265.771 481.772 265.544 481.309 265.252C481.033 265.045 480.784 264.805 480.567 264.537C480.702 263.567 480.823 262.63 480.952 261.693L480.931 261.706Z" fill="black"/>
<path d="M489.302 263.621C489.33 263.708 489.33 263.803 489.302 263.89C489.257 263.969 489.185 264.028 489.1 264.059C488.588 264.288 487.961 263.964 487.435 264.18C487.251 264.271 487.077 264.382 486.916 264.51C486.718 264.635 486.496 264.719 486.265 264.757C486.033 264.795 485.797 264.787 485.568 264.733C485.35 264.656 485.124 264.604 484.894 264.578C484.593 264.613 484.301 264.702 484.032 264.841C482.872 265.279 481.808 264.841 480.729 264.43C480.689 264.423 480.65 264.41 480.615 264.389C480.088 264.237 479.586 264.01 479.125 263.715C478.751 263.427 478.417 263.089 478.134 262.711C477.671 262.22 477.252 261.69 476.881 261.127C476.583 260.503 476.357 259.847 476.207 259.172C475.849 257.856 475.699 256.491 475.762 255.128C475.836 253.571 476.072 250.956 477.649 250.12C478.208 249.817 479.213 249.339 479.745 249.891C480.082 250.336 480.467 250.742 480.891 251.105C481.383 251.442 481.996 251.644 482.475 251.981C483.221 252.646 484.021 253.248 484.867 253.78C485.545 254.098 486.241 254.377 486.95 254.616C487.108 254.654 487.247 254.747 487.341 254.879C487.476 255.122 487.301 255.418 487.092 255.593C486.774 255.835 486.408 256.005 486.018 256.092C485.628 256.18 485.224 256.182 484.834 256.099C484.059 255.923 483.301 255.679 482.569 255.371C482.475 255.337 482.36 255.31 482.3 255.371C482.276 255.408 482.264 255.452 482.264 255.496C482.264 255.54 482.276 255.583 482.3 255.62C482.995 257.783 484.368 259.664 486.215 260.985C487.097 261.544 487.95 262.146 488.77 262.792C489.025 263.01 489.21 263.298 489.302 263.621Z" fill="#FFA8A7"/>
<path d="M481.463 251.435C481.29 251.344 481.131 251.228 480.992 251.091C480.872 250.96 480.784 250.803 480.735 250.633C480.646 250.257 480.634 249.867 480.702 249.487C480.569 249.659 480.478 249.859 480.436 250.072C480.394 250.284 480.402 250.504 480.459 250.713C480.52 250.93 480.652 251.119 480.835 251.25C481.017 251.381 481.239 251.446 481.463 251.435Z" fill="#F28F8F"/>
<path d="M521.149 242.976C520.124 244.183 515.413 249.905 511.807 252.709C511.383 253.102 510.872 253.39 510.316 253.548C509.759 253.706 509.173 253.73 508.606 253.619C506.631 253.335 504.164 254.528 502.338 254.764C500.915 254.946 500.093 254.724 499.985 255.061C499.85 255.499 500.316 256.227 501.482 256.746C502.279 257.099 503.144 257.269 504.016 257.245C504.446 257.182 504.882 257.159 505.317 257.177C505.937 257.278 505.613 257.716 505.317 258C504.789 258.466 504.202 258.861 503.571 259.172C502.667 259.741 501.707 260.216 500.706 260.588C499.015 261.147 497.148 261.113 495.51 261.828C495.182 261.941 494.897 262.153 494.694 262.434C494.64 262.511 494.614 262.604 494.62 262.697C494.638 262.783 494.683 262.861 494.748 262.92C495.146 263.317 495.854 263.236 496.265 263.594C496.404 263.746 496.528 263.91 496.635 264.086C496.781 264.272 496.962 264.427 497.168 264.543C497.374 264.659 497.601 264.732 497.835 264.76C498.062 264.765 498.288 264.792 498.509 264.841C498.778 264.978 499.02 265.163 499.224 265.387C500.086 266.141 501.32 266.236 502.466 266.269C503.338 266.303 504.211 266.283 505.081 266.209C505.524 266.186 505.963 266.111 506.388 265.986C508.41 265.265 511.073 263.257 514.119 260.54C517.166 257.824 524.633 252.897 527.269 250.741C531.555 247.29 532.519 246.299 531.313 242.369C530.504 239.748 526.635 228.64 524.573 223.996C521.681 217.378 518.669 217.897 514.955 216.818C514.004 218.523 513.607 225.398 515.352 229.665C518.251 236.391 521.149 242.976 521.149 242.976Z" fill="#FFA8A7"/>
<path d="M514.968 216.798C516.599 217.074 520.421 217.755 521.749 219.015C523.838 220.99 524.903 223.639 526.575 228.148C528.246 232.657 530.834 240.893 530.834 240.893C530.834 240.893 527.464 239.35 521.149 242.976L515.615 230.736C515.615 230.736 511.962 223.652 514.968 216.798Z" fill="#FA5D82"/>
<path opacity="0.3" d="M514.968 216.798C516.599 217.074 520.421 217.755 521.749 219.015C523.838 220.99 524.903 223.639 526.575 228.148C528.246 232.657 530.834 240.893 530.834 240.893C530.834 240.893 527.464 239.35 521.149 242.976L515.615 230.736C515.615 230.736 511.962 223.652 514.968 216.798Z" fill="black"/>
<path d="M450.084 338.15C452.513 323.186 442.351 309.086 427.387 306.657C412.422 304.228 398.322 314.389 395.893 329.354C393.464 344.318 403.626 358.418 418.59 360.847C433.555 363.276 447.655 353.115 450.084 338.15Z" fill="#263238"/>
<path d="M438.06 331.17H425.54V318.65C425.54 317.24 424.38 316.08 422.97 316.08C421.56 316.08 420.4 317.24 420.4 318.65V331.17H407.88C406.47 331.17 405.31 332.33 405.31 333.74C405.31 335.15 406.47 336.31 407.88 336.31H420.4V348.83C420.4 350.24 421.56 351.4 422.97 351.4C424.38 351.4 425.54 350.24 425.54 348.83V336.31H438.06C439.47 336.31 440.63 335.15 440.63 333.74C440.63 332.33 439.47 331.17 438.06 331.17Z" fill="white"/>
<path d="M494.77 236.81C494.85 236.82 496.31 237.05 497.04 238.67C497.11 238.82 497.26 238.92 497.42 238.91C497.48 238.91 497.53 238.9 497.58 238.87C497.79 238.77 497.88 238.53 497.78 238.32C496.84 236.26 494.94 236 494.86 235.99C494.64 235.96 494.43 236.12 494.4 236.35C494.37 236.58 494.53 236.78 494.76 236.81H494.77Z" fill="#263238"/>
</g>
<path d="M292.481 175.993C292.105 175.51 291.391 175.465 290.959 175.898L289.408 177.449C288.682 178.174 288.416 179.201 288.733 180.103C290.005 183.722 292.088 187.12 294.984 190.016C297.88 192.912 301.278 194.995 304.897 196.267C305.799 196.584 306.826 196.318 307.551 195.592L309.102 194.041C309.535 193.609 309.49 192.895 309.007 192.519L305.548 189.829C305.301 189.637 304.98 189.569 304.677 189.645L301.393 190.466C300.501 190.689 299.558 190.427 298.908 189.777L295.223 186.092C294.573 185.442 294.311 184.499 294.534 183.607L295.355 180.323C295.431 180.02 295.363 179.699 295.171 179.452L292.481 175.993ZM289.827 174.767C290.94 173.653 292.777 173.768 293.744 175.01L296.434 178.47C296.928 179.105 297.103 179.931 296.907 180.711L296.087 183.995C296 184.342 296.101 184.708 296.354 184.961L300.039 188.646C300.292 188.899 300.658 189 301.005 188.913L304.289 188.093C305.069 187.897 305.895 188.072 306.53 188.566L309.99 191.256C311.232 192.223 311.347 194.06 310.233 195.173L308.682 196.724C307.573 197.833 305.913 198.321 304.367 197.777C300.526 196.427 296.922 194.216 293.853 191.147C290.784 188.078 288.573 184.474 287.223 180.633C286.679 179.087 287.167 177.427 288.276 176.317L289.827 174.767Z" fill="#039855"/>
<path d="M303.5 174.75C303.5 174.336 303.836 174 304.25 174H310.25C310.664 174 311 174.336 311 174.75V180.75C311 181.164 310.664 181.5 310.25 181.5C309.836 181.5 309.5 181.164 309.5 180.75V176.561L303.28 182.78C302.987 183.073 302.513 183.073 302.22 182.78C301.927 182.487 301.927 182.013 302.22 181.72L308.439 175.5H304.25C303.836 175.5 303.5 175.164 303.5 174.75Z" fill="#039855"/>
<path d="M335 177C333.343 177 332 178.343 332 180V192L332 192.015C332.008 193.665 333.348 195 335 195H343.25C343.664 195 344 194.664 344 194.25C344 193.836 343.664 193.5 343.25 193.5H335C334.306 193.5 333.722 193.028 333.551 192.388L342.011 187.181L344 188.375L354.5 182.075V186.75C354.5 187.164 354.836 187.5 355.25 187.5C355.664 187.5 356 187.164 356 186.75V180C356 178.343 354.657 177 353 177H335ZM340.562 186.312L333.5 190.658V182.075L340.562 186.312ZM333.5 180.325V180C333.5 179.172 334.172 178.5 335 178.5H353C353.828 178.5 354.5 179.172 354.5 180V180.325L344 186.625L333.5 180.325Z" fill="#F79009"/>
<path d="M350.75 198C353.649 198 356 195.649 356 192.75C356 189.851 353.649 187.5 350.75 187.5C347.851 187.5 345.5 189.851 345.5 192.75C345.5 195.649 347.851 198 350.75 198ZM351.5 190.5V192.75C351.5 193.164 351.164 193.5 350.75 193.5C350.336 193.5 350 193.164 350 192.75V190.5C350 190.086 350.336 189.75 350.75 189.75C351.164 189.75 351.5 190.086 351.5 190.5ZM351.5 195C351.5 195.414 351.164 195.75 350.75 195.75C350.336 195.75 350 195.414 350 195C350 194.586 350.336 194.25 350.75 194.25C351.164 194.25 351.5 194.586 351.5 195Z" fill="#F79009"/>
<defs>
<clipPath id="clip0_451_2171">
<rect width="500" height="372.61" fill="white" transform="translate(130 75)"/>
</clipPath>
</defs>
</svg>
