<svg width="159" height="42" viewBox="0 0 159 42" fill="none" xmlns="http://www.w3.org/2000/svg">
<path d="M20.1918 4.77185L23.4962 3.56494C22.3551 3.85781 21.2493 4.26183 20.1918 4.77185ZM33.8484 38.0328C34.3188 37.8721 34.7824 37.6914 35.237 37.4908L33.8484 38.0328ZM19.5066 36.8796C20.3559 37.3356 21.2404 37.7207 22.1517 38.0328L19.5066 36.8796Z" fill="#FA5D82"/>
<path d="M40.7281 8.27191C37.3287 4.87248 32.8083 3 28 3C26.46 3 24.9495 3.19238 23.4962 3.56543L20.1918 4.77233C20.1904 4.77233 20.188 4.77302 20.1873 4.77474C18.3864 5.64301 16.7266 6.81757 15.2719 8.27225C11.8725 11.6713 10 16.1916 10 21C10 25.8083 11.8725 30.328 15.2719 33.7281C16.5411 34.9973 17.9672 36.0541 19.5066 36.8797L22.1517 38.033C24.009 38.6693 25.9792 39 28 39C30.0208 39 31.9914 38.6689 33.8483 38.033L35.237 37.4909C35.2394 37.4909 35.2407 37.4902 35.2432 37.4885C37.2633 36.6006 39.1213 35.3349 40.7284 33.7281C44.1279 30.328 46.0003 25.8083 46.0003 21C46.0003 16.1916 44.1275 11.6713 40.7281 8.27191ZM21.1973 26.7527C20.4685 27.7603 19.8149 28.8495 19.3025 29.9811C18.4982 31.7586 18.3527 33.48 18.8011 35.1339C14.1865 32.1209 11.1305 26.9103 11.1305 21C11.1305 14.6757 14.6287 9.15291 19.7912 6.26591C19.4753 7.45905 19.1669 8.65322 18.8988 9.856C17.9634 14.0614 18.9208 17.9189 21.2741 21.4536C22.4831 23.2703 22.4886 24.9693 21.1973 26.7527ZM30.7783 29.7581C30.2249 28.9879 29.4819 28.4262 28.6694 27.952C27.534 27.2902 26.3808 26.6584 25.2668 25.9636C24.3421 25.3861 23.6838 24.5595 23.3988 23.4919C22.9143 21.6776 23.8954 20.0223 25.7318 19.4737C27.715 18.8811 29.2571 19.7766 30.1867 21.3882C30.1936 21.4002 30.186 21.4212 30.1829 21.4742C29.5459 20.67 28.7523 20.1551 27.7677 19.9879C26.6424 19.7965 25.6075 20.0061 24.849 20.9264C24.1019 21.8332 24.1367 23.0738 24.8731 24.1141C25.4747 24.9645 26.2903 25.5833 27.1255 26.1773C27.8988 26.7269 28.7113 27.2266 29.4533 27.8161C30.4437 28.6038 31.2246 29.564 31.524 30.8387C31.5385 30.8982 31.5392 30.9608 31.5443 31.0128C31.2924 30.5947 31.0642 30.1559 30.7783 29.7581ZM32.9463 28.6991C32.8183 28.8447 32.6779 29.0113 32.5341 29.1988C32.3214 29.4945 32.1294 29.8093 31.9174 30.1063H31.9167C31.9084 30.1077 31.9002 30.1101 31.8919 30.1115C32.0344 29.81 32.1634 29.501 32.32 29.2071C32.3314 29.1861 32.3434 29.1665 32.3548 29.1462L32.3579 29.1386L32.8627 28.0329C32.8627 28.0329 32.8634 28.0291 32.8665 28.0222C32.8755 27.9906 32.8854 27.9582 32.8958 27.9265C32.8989 27.9169 32.902 27.9076 32.9047 27.8973C32.9763 27.6326 33.0991 27.0125 32.9009 26.3579C32.8775 26.2877 32.8527 26.2179 32.8256 26.1484C32.8242 26.1432 32.8218 26.137 32.8187 26.1312L32.8053 26.1033C32.871 26.297 32.9161 26.4966 32.9274 26.7062C32.9622 27.3184 32.6913 27.7503 32.1352 28.0102C31.5426 28.2844 30.9376 28.2559 30.3291 28.0893C29.7758 27.9372 29.2905 27.6681 28.9082 27.2255C28.649 26.9261 28.5004 26.5789 28.4687 26.1921C28.4384 25.8507 28.3015 25.5836 28.033 25.3771C27.3885 24.8819 27.3503 23.9885 27.9759 23.4716C28.3218 23.1846 28.7478 23.122 29.1811 23.2651C29.6161 23.409 29.848 23.7356 29.9403 24.1788C29.965 24.301 30.0149 24.4246 30.0834 24.5278C30.3044 24.8503 30.217 25.1579 29.8529 25.3056C29.7692 25.3386 29.6877 25.3758 29.6034 25.4126C29.996 25.4721 30.3632 25.5241 30.7273 25.5867C30.8178 25.6012 30.8805 25.5881 30.9338 25.5145C31.0167 25.405 31.0952 25.2914 31.1929 25.1965C31.2518 25.14 31.3399 25.0956 31.419 25.0881C31.5419 25.0746 31.576 25.1476 31.5798 25.2705C31.5918 25.6156 31.3371 25.8025 31.1441 26.0241C31.0942 26.0806 30.9871 26.1009 30.9028 26.1115C30.5532 26.1604 30.2025 26.1989 29.8491 26.2692C29.8959 26.2767 29.9441 26.2919 29.9902 26.2919C30.3144 26.2932 30.6368 26.297 30.9603 26.2905C31.1193 26.2867 31.2459 26.2069 31.3471 26.0847C31.4173 26.0018 31.4865 25.9174 31.5598 25.8269C31.6328 26.0568 31.7009 26.274 31.7701 26.4911C31.7814 26.488 31.7911 26.486 31.8017 26.4829C31.7797 26.2802 31.7422 26.0775 31.7384 25.8755C31.7339 25.6545 31.7498 25.4336 31.7739 25.215C31.7828 25.129 31.8244 25.0433 31.8664 24.9669C31.9525 24.8155 32.1046 24.7408 32.2591 24.7522C32.2591 24.7522 32.2615 24.7522 32.2622 24.7522C32.2901 24.7553 32.3179 24.7597 32.3458 24.7673C32.4384 24.7876 32.5984 24.8282 32.777 24.9067C32.777 24.9067 33.456 25.31 33.7389 26.1346C33.8339 26.4113 33.8838 26.7344 33.849 27.1068C33.9079 27.0366 33.9674 26.9674 34.0263 26.8972C34.7627 26.031 35.5264 25.1824 36.0412 24.1534C36.3585 23.5188 36.5719 22.8652 36.3554 22.1415C36.1066 21.3125 35.3288 20.6889 34.4754 20.545C32.6225 20.2336 30.8127 21.4505 30.1433 23.4238C30.1178 23.4985 30.092 23.5721 30.049 23.6409C30.1364 23.0205 30.3257 22.432 30.6437 21.8937C31.365 20.6734 32.446 19.9934 33.8449 19.7931C34.8594 19.6482 35.779 19.8488 36.5344 20.5588C37.4494 21.4181 37.6394 22.4826 37.288 23.6568C36.9738 24.7092 36.2456 25.4807 35.4844 26.2227C34.6378 27.0476 33.764 27.8464 32.9463 28.6991ZM30.4558 24.9036C30.6217 24.8341 30.8478 24.9225 30.9149 25.0836C30.9662 25.2058 30.9142 25.3224 30.7869 25.3737C30.6179 25.4408 30.3956 25.3472 30.3316 25.1824C30.2841 25.0619 30.3316 24.9559 30.4558 24.9036ZM34.8291 36.4244C34.453 36.0552 34.0731 35.688 33.6911 35.3239C34.3191 34.9305 35.0787 34.2099 35.0787 34.2099C37.9595 31.9365 39.6895 28.9848 39.6516 25.0698C39.6131 20.9859 37.4023 18.3687 34.0283 16.6057C34.5332 15.6348 35.0904 14.7703 35.4438 13.8295C35.9015 12.6122 35.4603 11.777 34.2634 11.2463C34.0607 11.1558 33.8428 11.097 33.6288 11.0367C31.2394 10.3567 29.5789 8.91098 28.6976 6.54432C28.3878 5.71287 27.9484 4.92892 27.5316 4.1367C27.6868 4.13292 27.8431 4.13051 27.9997 4.13051C37.3018 4.13051 44.8691 11.6975 44.8691 21C44.8695 27.8722 40.7388 33.7983 34.8291 36.4244Z" fill="#FA5D82"/>
<path d="M67.3889 32H64.1213V22.9766H54.9065V32H51.6252V12.0117H54.9065V20.1875H64.1213V12.0117H67.3889V32ZM75.5647 16.8652V32H72.3518V16.8652H75.5647ZM73.9788 11.0684C74.4709 11.0684 74.8948 11.2005 75.2502 11.4648C75.6148 11.7292 75.7971 12.1849 75.7971 12.832C75.7971 13.4701 75.6148 13.9258 75.2502 14.1992C74.8948 14.4635 74.4709 14.5957 73.9788 14.5957C73.4683 14.5957 73.0354 14.4635 72.6799 14.1992C72.3336 13.9258 72.1604 13.4701 72.1604 12.832C72.1604 12.1849 72.3336 11.7292 72.6799 11.4648C73.0354 11.2005 73.4683 11.0684 73.9788 11.0684ZM89.1272 32L83.3713 15.3066H83.2483C83.2756 15.6803 83.3075 16.1908 83.344 16.8379C83.3805 17.485 83.4124 18.1777 83.4397 18.916C83.467 19.6543 83.4807 20.3607 83.4807 21.0352V32H80.5002V12.0117H85.1077L90.6448 27.9668H90.7268L96.4553 12.0117H101.049V32H97.9182V20.8711C97.9182 20.2604 97.9273 19.5996 97.9456 18.8887C97.9729 18.1777 98.0002 17.5033 98.0276 16.8652C98.064 16.2272 98.0914 15.7168 98.1096 15.334H98.0002L92.0256 32H89.1272ZM119.178 16.8652V32H116.649L116.211 29.9629H116.033C115.714 30.4824 115.309 30.9154 114.817 31.2617C114.324 31.599 113.778 31.8496 113.176 32.0137C112.574 32.1868 111.941 32.2734 111.276 32.2734C110.136 32.2734 109.161 32.082 108.35 31.6992C107.548 31.3073 106.933 30.7057 106.504 29.8945C106.076 29.0833 105.862 28.0352 105.862 26.75V16.8652H109.088V26.1484C109.088 27.3242 109.325 28.2038 109.799 28.7871C110.282 29.3704 111.03 29.6621 112.041 29.6621C113.017 29.6621 113.791 29.4616 114.365 29.0605C114.94 28.6595 115.345 28.0671 115.582 27.2832C115.828 26.4993 115.951 25.5378 115.951 24.3984V16.8652H119.178ZM140.889 16.5781C142.584 16.5781 143.86 17.0156 144.717 17.8906C145.583 18.7656 146.016 20.1693 146.016 22.1016V32H142.803V22.6758C142.803 21.5273 142.58 20.6615 142.133 20.0781C141.686 19.4948 141.007 19.2031 140.096 19.2031C138.82 19.2031 137.899 19.6133 137.334 20.4336C136.778 21.2448 136.5 22.4251 136.5 23.9746V32H133.287V22.6758C133.287 21.9102 133.187 21.2721 132.987 20.7617C132.795 20.2422 132.499 19.8548 132.098 19.5996C131.697 19.3353 131.191 19.2031 130.58 19.2031C129.696 19.2031 128.99 19.4036 128.461 19.8047C127.942 20.2057 127.568 20.7982 127.34 21.582C127.112 22.3568 126.998 23.3092 126.998 24.4395V32H123.785V16.8652H126.287L126.739 18.9023H126.916C127.226 18.3737 127.609 17.9408 128.065 17.6035C128.53 17.2572 129.045 17.002 129.61 16.8379C130.175 16.6647 130.763 16.5781 131.373 16.5781C132.503 16.5781 133.456 16.7786 134.231 17.1797C135.005 17.5716 135.584 18.1732 135.967 18.9844H136.213C136.687 18.1641 137.348 17.5579 138.196 17.166C139.043 16.7741 139.941 16.5781 140.889 16.5781Z" fill="#303030"/>
</svg>
