<svg width="68" height="90" viewBox="0 0 68 90" fill="none" xmlns="http://www.w3.org/2000/svg">
<path opacity="0.8" d="M34.0119 44.868C31.0349 44.868 28.1779 44.2678 25.561 43.1874C22.8241 42.0591 20.3993 40.4265 18.3826 38.3858C16.3659 36.3691 14.7093 33.9203 13.581 31.2074C12.5006 28.5905 11.9004 25.7335 11.9004 22.7565C11.9004 19.7795 12.5006 16.9225 13.581 14.3056C14.7093 11.5687 16.3419 9.1439 18.3826 7.12722C20.3993 5.11053 22.8481 3.45397 25.561 2.32559C28.1779 1.24522 31.0349 0.645019 34.0119 0.64502V44.868Z" fill="#FA5D82"/>
<path opacity="0.8" d="M49.6413 38.3858C47.5796 40.4445 45.1321 42.0762 42.4388 43.1874C39.8219 44.2678 36.989 44.868 34.036 44.868H34.012V0.64502H34.084C37.037 0.64502 39.8699 1.24522 42.4628 2.32559C45.1998 3.45397 47.6246 5.08652 49.6653 7.12722C51.682 9.1439 53.3385 11.5927 54.4669 14.3297C55.5473 16.9465 56.1475 19.8035 56.1475 22.7805C56.1475 25.7575 55.5473 28.6145 54.4669 31.2314C53.2905 33.9203 51.6579 36.3691 49.6413 38.3858Z" fill="#3A78CF"/>
<path d="M34.012 44.3877H34.036L44.0714 44.3157L45.824 44.9399L47.9127 45.6841L49.017 46.0923C50.5056 46.6205 51.85 47.1967 53.0744 47.8209C54.3228 48.4691 55.5233 49.1893 56.6516 49.9816C57.804 50.7979 58.8844 51.7102 59.8687 52.6705C60.8531 53.6548 61.7414 54.6872 62.5336 55.8156C63.3259 56.9199 64.0221 58.0963 64.6223 59.3448C65.1985 60.5452 65.7027 61.8416 66.1108 63.2101C66.495 64.5065 66.8071 65.851 67.0472 67.2194C67.7434 71.5649 67.4793 75.9104 67.4793 80.2559V89.3309H34.012V44.3877Z" fill="#3A78CF"/>
<path d="M9.64376 89.3551H0.568683V80.28C0.568683 76.2467 0.280585 71.5411 0.928805 67.5797C1.16889 66.1392 1.505 64.7228 1.98516 63.3543C2.44132 61.9858 3.01751 60.6414 3.68974 59.3689C4.38598 58.0485 5.15424 56.8241 5.99452 55.6957C6.83481 54.5673 7.79513 53.4869 8.8755 52.4546C9.90785 51.4703 11.0122 50.5339 12.2366 49.6937C13.437 48.8534 14.6855 48.1091 15.9819 47.4849C17.2783 46.8607 18.6228 46.3325 20.0153 45.9004L21.0716 45.5883L23.0643 44.9881L24.7209 44.4839L34.012 44.4119V89.3791L9.64376 89.3551Z" fill="#FA5D82"/>
</svg>
