<svg width="183" height="58" viewBox="0 0 183 58" fill="none" xmlns="http://www.w3.org/2000/svg">
<rect width="183" height="57.45" rx="10" fill="black"/>
<path d="M17.1083 2.72498H165.892C169.521 2.72498 172.47 5.52258 172.47 8.96498V48.485C172.47 51.9274 169.521 54.725 165.892 54.725H17.1083C13.4791 54.725 10.5298 51.9274 10.5298 48.485V8.96498C10.5298 5.52258 13.4791 2.72498 17.1083 2.72498Z" fill="black"/>
<path d="M45.9767 27.3873C45.9438 23.6641 49.1892 21.8545 49.3318 21.7713C47.4898 19.2337 44.6391 18.8801 43.6414 18.8489C41.2512 18.6097 38.9268 20.2113 37.7097 20.2113C36.4708 20.2113 34.585 18.8801 32.5676 18.9113C29.9691 18.9529 27.524 20.3777 26.1974 22.6033C23.4454 27.1273 25.4957 33.7833 28.138 37.4441C29.4647 39.2329 30.9997 41.2401 33.0281 41.1673C35.0016 41.0945 35.7472 39.9713 38.1264 39.9713C40.4946 39.9713 41.1854 41.1673 43.2466 41.1257C45.3737 41.0945 46.7004 39.3265 47.9832 37.5169C49.5072 35.4681 50.1212 33.4401 50.1431 33.3361C50.0883 33.3153 46.0206 31.8385 45.9767 27.3873Z" fill="white"/>
<path d="M42.0844 16.4466C43.148 15.1882 43.8716 13.4722 43.6743 11.725C42.1393 11.7874 40.2096 12.7338 39.1022 13.9714C38.1264 15.0634 37.2493 16.8418 37.4685 18.5162C39.2009 18.641 40.9771 17.6842 42.0844 16.4466Z" fill="white"/>
<path d="M74.6154 40.9074H71.8525L70.3394 36.3938H65.0766L63.6403 40.9074H60.9541L66.1621 25.5466H69.3855L74.6154 40.9074ZM69.8899 34.501L68.5194 30.497C68.3768 30.081 68.1027 29.1242 67.708 27.6058H67.6532C67.4887 28.261 67.2366 29.2282 66.8857 30.497L65.5371 34.501H69.8899Z" fill="white"/>
<path d="M88.0026 35.2395C88.0026 37.1219 87.4654 38.6091 86.38 39.7011C85.4151 40.6787 84.209 41.1571 82.7837 41.1571C81.2378 41.1571 80.1304 40.6371 79.4506 39.5867V45.4003H76.8521V33.4715C76.8521 32.2859 76.8192 31.0795 76.7534 29.8315H79.034L79.1765 31.5891H79.2204C80.0865 30.2683 81.4022 29.6027 83.1565 29.6027C84.538 29.6027 85.6782 30.1227 86.5992 31.1523C87.5422 32.1923 88.0026 33.5443 88.0026 35.2395ZM85.3603 35.3227C85.3603 34.2411 85.1081 33.3571 84.5928 32.6603C84.0336 31.9323 83.2771 31.5683 82.3342 31.5683C81.6983 31.5683 81.1172 31.7763 80.5909 32.1715C80.0756 32.5771 79.7247 33.0971 79.5712 33.7523C79.4945 34.0539 79.4506 34.3035 79.4506 34.5011V36.3523C79.4506 37.1531 79.7137 37.8395 80.2291 38.3907C80.7444 38.9419 81.4241 39.2227 82.2574 39.2227C83.2332 39.2227 83.9898 38.8587 84.538 38.1515C85.0862 37.4339 85.3603 36.4979 85.3603 35.3227Z" fill="white"/>
<path d="M101.423 35.2395C101.423 37.1219 100.886 38.6091 99.8004 39.7011C98.8355 40.6787 97.6295 41.1571 96.2041 41.1571C94.6582 41.1571 93.5508 40.6371 92.871 39.5867V45.4003H90.2725V33.4715C90.2725 32.2859 90.2396 31.0795 90.1738 29.8315H92.4544L92.5969 31.5891H92.6408C93.5069 30.2683 94.8226 29.6027 96.5769 29.6027C97.9584 29.6027 99.0987 30.1227 100.02 31.1523C100.963 32.1923 101.423 33.5443 101.423 35.2395ZM98.7807 35.3227C98.7807 34.2411 98.5285 33.3571 98.0132 32.6603C97.454 31.9323 96.6975 31.5683 95.7546 31.5683C95.1187 31.5683 94.5376 31.7763 94.0113 32.1715C93.496 32.5771 93.1561 33.0971 92.9916 33.7523C92.9149 34.0539 92.871 34.3035 92.871 34.5011V36.3523C92.871 37.1531 93.1342 37.8395 93.6495 38.3907C94.1648 38.9419 94.8446 39.2227 95.6778 39.2227C96.6536 39.2227 97.4211 38.8587 97.9584 38.1515C98.5176 37.4339 98.7807 36.4979 98.7807 35.3227Z" fill="white"/>
<path d="M116.444 36.6018C116.444 37.9122 115.961 38.973 115.008 39.7946C113.955 40.689 112.486 41.1362 110.6 41.1362C108.857 41.1362 107.464 40.8138 106.412 40.1794L107.015 38.1306C108.155 38.765 109.405 39.0874 110.764 39.0874C111.74 39.0874 112.508 38.8794 113.045 38.4634C113.593 38.0474 113.867 37.4858 113.867 36.789C113.867 36.165 113.637 35.645 113.198 35.2186C112.749 34.7922 112.003 34.397 110.962 34.033C108.1 33.0242 106.686 31.5578 106.686 29.6338C106.686 28.3754 107.19 27.3458 108.188 26.5346C109.186 25.7338 110.512 25.3282 112.168 25.3282C113.637 25.3282 114.865 25.5674 115.841 26.0562L115.183 28.053C114.262 27.585 113.231 27.3458 112.069 27.3458C111.159 27.3458 110.435 27.5642 109.92 27.9802C109.493 28.365 109.273 28.8226 109.273 29.3738C109.273 29.977 109.525 30.4866 110.019 30.8714C110.446 31.2354 111.236 31.6306 112.376 32.057C113.769 32.5874 114.788 33.2114 115.446 33.929C116.115 34.6466 116.444 35.541 116.444 36.6018Z" fill="white"/>
<path d="M125.04 31.6826H122.178V37.0594C122.178 38.4218 122.683 39.1082 123.691 39.1082C124.152 39.1082 124.535 39.0666 124.842 38.9938L124.919 40.8658C124.404 41.0426 123.735 41.1362 122.902 41.1362C121.871 41.1362 121.082 40.8346 120.501 40.2418C119.92 39.649 119.635 38.6506 119.635 37.257V31.6722H117.935V29.8314H119.635V27.8034L122.178 27.0754V29.8314H125.04V31.6826Z" fill="white"/>
<path d="M137.912 35.281C137.912 36.9866 137.396 38.3802 136.377 39.4722C135.302 40.5954 133.877 41.157 132.101 41.157C130.39 41.157 129.02 40.6162 128 39.545C126.98 38.4738 126.476 37.1114 126.476 35.4682C126.476 33.7522 127.002 32.3482 128.044 31.2562C129.097 30.1642 130.511 29.613 132.287 29.613C133.997 29.613 135.379 30.1538 136.421 31.2354C137.418 32.2754 137.912 33.6274 137.912 35.281ZM135.225 35.333C135.225 34.3138 134.995 33.4506 134.535 32.7226C133.987 31.8386 133.208 31.4018 132.199 31.4018C131.158 31.4018 130.357 31.8386 129.82 32.7226C129.349 33.4506 129.129 34.3346 129.129 35.385C129.129 36.4042 129.36 37.2778 129.82 37.9954C130.379 38.8794 131.169 39.3162 132.177 39.3162C133.164 39.3162 133.943 38.869 134.513 37.9746C134.984 37.2258 135.225 36.3522 135.225 35.333Z" fill="white"/>
<path d="M146.354 31.9947C146.102 31.9531 145.828 31.9323 145.531 31.9323C144.621 31.9323 143.909 32.2547 143.415 32.9099C142.988 33.4819 142.769 34.2203 142.769 35.0939V40.9075H140.17V33.3155C140.17 32.0363 140.148 30.8715 140.093 29.8315H142.352L142.451 31.9531H142.527C142.801 31.2251 143.229 30.6323 143.821 30.1955C144.402 29.8003 145.027 29.6027 145.696 29.6027C145.937 29.6027 146.156 29.6235 146.343 29.6443L146.354 31.9947Z" fill="white"/>
<path d="M157.954 34.8442C157.954 35.281 157.921 35.6554 157.855 35.957H150.071C150.104 37.049 150.476 37.8914 151.2 38.4634C151.858 38.973 152.702 39.233 153.744 39.233C154.895 39.233 155.947 39.0562 156.89 38.713L157.296 40.4186C156.189 40.8762 154.884 41.105 153.382 41.105C151.573 41.105 150.147 40.5954 149.117 39.5866C148.086 38.5778 147.571 37.2154 147.571 35.5202C147.571 33.8562 148.053 32.4626 149.018 31.3498C150.027 30.1642 151.386 29.5714 153.097 29.5714C154.774 29.5714 156.057 30.1642 156.912 31.3498C157.603 32.3066 157.954 33.461 157.954 34.8442ZM155.476 34.2098C155.498 33.4818 155.322 32.8474 154.972 32.317C154.522 31.6306 153.831 31.2874 152.91 31.2874C152.066 31.2874 151.375 31.6202 150.849 32.2858C150.421 32.8162 150.158 33.461 150.082 34.1994L155.476 34.2098Z" fill="white"/>
<path d="M68.64 20.0553H67.2804L66.5349 17.8401H63.9473L63.2346 20.0553H61.9189L64.4736 12.5049H66.0524L68.64 20.0553ZM66.3046 16.9041L65.6358 14.9281C65.57 14.7305 65.4384 14.2521 65.2301 13.5033H65.2082C65.1205 13.8257 65.0108 14.2937 64.8244 14.9281L64.1666 16.9041H66.3046Z" fill="white"/>
<path d="M75.0428 14.6057L72.8719 20.0553H71.633L69.5278 14.6057H70.8984L71.8742 17.4865C72.0386 17.9649 72.1812 18.4225 72.2908 18.8593H72.3237C72.4224 18.4641 72.5649 18.0065 72.7403 17.4865L73.7052 14.6057H75.0428Z" fill="white"/>
<path d="M79.6698 20.0553L79.5711 19.4313H79.5382C79.1435 19.9305 78.5843 20.1801 77.8607 20.1801C76.8301 20.1801 76.1064 19.4937 76.1064 18.5785C76.1064 17.2369 77.3344 16.5401 79.4615 16.5401V16.4361C79.4615 15.7185 79.0558 15.3649 78.2664 15.3649C77.6962 15.3649 77.2029 15.5001 76.7643 15.7705L76.5012 14.9801C77.0274 14.6681 77.6962 14.5121 78.4747 14.5121C79.9768 14.5121 80.7333 15.2609 80.7333 16.7689V18.7761C80.7333 19.3273 80.7552 19.7537 80.821 20.0761L79.6698 20.0553ZM79.4944 17.3409C78.08 17.3409 77.3673 17.6633 77.3673 18.4433C77.3673 19.0153 77.7291 19.2961 78.2445 19.2961C78.8913 19.2961 79.4944 18.8281 79.4944 18.1833V17.3409Z" fill="white"/>
<path d="M83.5729 13.7113C83.1453 13.7113 82.8164 13.3993 82.8164 12.9833C82.8164 12.5673 83.1563 12.2657 83.5949 12.2657C84.0334 12.2657 84.3843 12.5673 84.3733 12.9833C84.3733 13.4201 84.0444 13.7113 83.5729 13.7113ZM82.9589 14.6057H84.2308V20.0449H82.9589V14.6057Z" fill="white"/>
<path d="M86.5005 12.1097H87.7723V20.0449H86.5005V12.1097Z" fill="white"/>
<path d="M93.1888 20.0553L93.0902 19.4313H93.0573C92.6626 19.9305 92.1034 20.1801 91.3798 20.1801C90.3491 20.1801 89.6255 19.4937 89.6255 18.5785C89.6255 17.2369 90.8535 16.5401 92.9805 16.5401V16.4361C92.9805 15.7185 92.5748 15.3649 91.7854 15.3649C91.2153 15.3649 90.7219 15.5001 90.2833 15.7705L90.0202 14.9697C90.5465 14.6577 91.2153 14.5017 91.9937 14.5017C93.4958 14.5017 94.2524 15.2505 94.2524 16.7585V18.7657C94.2524 19.3169 94.2743 19.7433 94.3291 20.0657H93.1888V20.0553ZM93.0134 17.3409C91.599 17.3409 90.8864 17.6633 90.8864 18.4433C90.8864 19.0153 91.2482 19.2961 91.7635 19.2961C92.4104 19.2961 93.0134 18.8281 93.0134 18.1833V17.3409Z" fill="white"/>
<path d="M99.4273 20.1801C98.6159 20.1801 98.0129 19.8577 97.6182 19.2129H97.5963L97.5195 20.0553H96.4341C96.467 19.6185 96.4779 19.1297 96.4779 18.5889V12.1097H97.7607V15.4065H97.7827C98.1664 14.8033 98.7694 14.5017 99.6137 14.5017C100.995 14.5017 101.96 15.6249 101.96 17.2577C101.96 18.9425 100.886 20.1801 99.4273 20.1801ZM99.1642 15.4481C98.4296 15.4481 97.7607 16.0513 97.7607 16.8937V17.8505C97.7607 18.5993 98.3638 19.2129 99.1422 19.2129C100.096 19.2129 100.666 18.4745 100.666 17.2993C100.666 16.1969 100.074 15.4481 99.1642 15.4481Z" fill="white"/>
<path d="M103.846 12.1097H105.118V20.0449H103.846V12.1097Z" fill="white"/>
<path d="M112.058 17.6218H108.231C108.253 18.6514 108.977 19.2338 110.04 19.2338C110.611 19.2338 111.126 19.1402 111.586 18.9738L111.784 19.8162C111.247 20.045 110.611 20.149 109.865 20.149C108.067 20.149 107.003 19.0778 107.003 17.4034C107.003 15.7394 108.089 14.481 109.723 14.481C111.181 14.481 112.113 15.5106 112.113 17.0706C112.113 17.289 112.102 17.4762 112.058 17.6218ZM110.896 16.7586C110.896 15.9162 110.446 15.3234 109.635 15.3234C108.9 15.3234 108.33 15.9266 108.242 16.7586H110.896Z" fill="white"/>
<path d="M119.788 20.1801C118.11 20.1801 117.025 18.9945 117.025 17.3825C117.025 15.6977 118.132 14.5017 119.887 14.5017C121.542 14.5017 122.65 15.6353 122.65 17.2889C122.65 18.9841 121.509 20.1801 119.788 20.1801ZM119.843 15.3857C118.922 15.3857 118.33 16.2073 118.33 17.3409C118.33 18.4641 118.933 19.2753 119.832 19.2753C120.731 19.2753 121.334 18.4017 121.334 17.3097C121.323 16.2073 120.742 15.3857 119.843 15.3857Z" fill="white"/>
<path d="M129.502 20.0553H128.23V16.9249C128.23 15.9577 127.836 15.4793 127.068 15.4793C126.311 15.4793 125.796 16.0929 125.796 16.8105V20.0449H124.524V16.1657C124.524 15.6873 124.513 15.1673 124.48 14.6057H125.599L125.654 15.4481H125.687C126.026 14.8657 126.728 14.4913 127.507 14.4913C128.713 14.4913 129.502 15.3649 129.502 16.7897V20.0553Z" fill="white"/>
<path d="M137.846 15.521H136.442V18.1626C136.442 18.8386 136.695 19.1714 137.188 19.1714C137.407 19.1714 137.605 19.1506 137.758 19.1194L137.791 20.0346C137.539 20.1282 137.21 20.1698 136.804 20.1698C135.795 20.1698 135.203 19.6394 135.203 18.2666V15.521H134.37V14.6162H135.203V13.6178L136.453 13.2538V14.6058H137.857V15.521" fill="white"/>
<path d="M144.6 20.0553H143.328V16.9457C143.328 15.9681 142.933 15.4793 142.166 15.4793C141.508 15.4793 140.894 15.9057 140.894 16.7689V20.0449H139.622V12.1097H140.894V15.3753H140.916C141.322 14.7825 141.892 14.4913 142.637 14.4913C143.854 14.4913 144.6 15.3857 144.6 16.8105V20.0553Z" fill="white"/>
<path d="M151.113 17.6218H147.286C147.308 18.6514 148.032 19.2338 149.095 19.2338C149.665 19.2338 150.181 19.1402 150.641 18.9738L150.838 19.8162C150.301 20.045 149.665 20.149 148.92 20.149C147.122 20.149 146.058 19.0778 146.058 17.4034C146.058 15.7394 147.144 14.481 148.777 14.481C150.235 14.481 151.167 15.5106 151.167 17.0706C151.167 17.289 151.156 17.4762 151.113 17.6218ZM149.95 16.7586C149.95 15.9162 149.501 15.3234 148.69 15.3234C147.955 15.3234 147.374 15.9266 147.297 16.7586H149.95Z" fill="white"/>
</svg>
