<svg width="183" height="58" viewBox="0 0 183 58" fill="none" xmlns="http://www.w3.org/2000/svg">
<rect width="183" height="57.4541" rx="10" fill="black"/>
<path fill-rule="evenodd" clip-rule="evenodd" d="M10.675 10.5743C10.2464 11.0268 10 11.7233 10 12.6283V44.8196C10 45.7246 10.2464 46.4211 10.6911 46.8579L10.8072 46.9543L29.1716 28.9168V28.5115L10.7912 10.4779L10.675 10.5743Z" fill="url(#paint0_linear_445_550)"/>
<path fill-rule="evenodd" clip-rule="evenodd" d="M35.2812 34.9529L29.1558 28.9345V28.5135L35.2832 22.4951L35.4154 22.5757L42.6626 26.6208C44.7379 27.7698 44.7379 29.6624 42.6626 30.8272L35.4154 34.8722C35.4134 34.8722 35.2812 34.9529 35.2812 34.9529Z" fill="url(#paint1_linear_445_550)"/>
<path fill-rule="evenodd" clip-rule="evenodd" d="M35.4131 34.8722L29.1554 28.724L10.6748 46.8756C11.3498 47.5878 12.4856 47.6685 13.7556 46.972L35.4131 34.8722Z" fill="url(#paint2_linear_445_550)"/>
<path fill-rule="evenodd" clip-rule="evenodd" d="M35.4131 22.5777L13.7556 10.4936C12.4876 9.78143 11.3498 9.87784 10.6748 10.5901L29.1534 28.724L35.4131 22.5777Z" fill="url(#paint3_linear_445_550)"/>
<path opacity="0.2" fill-rule="evenodd" clip-rule="evenodd" d="M35.2809 34.7424L13.7717 46.7457C12.5698 47.4245 11.4982 47.3773 10.8071 46.7615L10.6909 46.8756L10.8071 46.972C11.4982 47.5858 12.5698 47.635 13.7717 46.9562L35.4292 34.8722L35.2809 34.7424Z" fill="black"/>
<path opacity="0.12" fill-rule="evenodd" clip-rule="evenodd" d="M42.6606 30.6167L35.2651 34.7424L35.3973 34.8723L42.6445 30.8272C43.6821 30.2448 44.1929 29.4854 44.1929 28.724C44.1268 29.4205 43.6 30.0835 42.6606 30.6167Z" fill="black"/>
<path opacity="0.25" fill-rule="evenodd" clip-rule="evenodd" d="M13.7558 10.7042L42.6605 26.8333C43.5999 27.3507 44.1268 28.0295 44.2089 28.7259C44.2089 27.9665 43.6981 27.2051 42.6605 26.6227L13.7558 10.4937C11.6806 9.32894 10 10.2989 10 12.6283V12.8389C10 10.5094 11.6806 9.5552 13.7558 10.7042Z" fill="white"/>
<path fill-rule="evenodd" clip-rule="evenodd" d="M51.2638 27.7028C51.2638 22.5462 55.6766 18.3477 60.9267 18.3477C63.8292 18.3477 65.8944 19.4671 67.4528 20.925L65.618 22.7272C64.5042 21.7002 62.9939 20.9034 60.9247 20.9034C57.0908 20.9034 54.0941 23.9352 54.0941 27.7009C54.0941 31.4666 57.0908 34.5023 60.9227 34.5023C63.4085 34.5023 64.8227 33.5225 65.7301 32.6293C66.4733 31.8994 66.96 30.8507 67.1483 29.4125H60.9267V26.8627H69.6842C69.7764 27.3192 69.8245 27.8661 69.8245 28.4583C69.8245 30.3727 69.2896 32.7474 67.569 34.4374C65.8944 36.1491 63.7591 37.062 60.9247 37.062C55.6726 37.062 51.2598 32.8674 51.2598 27.7068L51.2638 27.7028ZM76.9034 25.0114C73.5122 25.0114 70.7439 27.5454 70.7439 31.0337C70.7439 34.5043 73.5102 37.056 76.9034 37.056C80.2967 37.056 83.0589 34.5003 83.0589 31.0317C83.0589 27.5435 80.2946 25.0094 76.9034 25.0114ZM76.9034 34.6873C75.0465 34.6873 73.4421 33.1822 73.4421 31.0357C73.4421 28.8676 75.0445 27.3841 76.9034 27.3841C78.7603 27.3841 80.3628 28.8656 80.3628 31.0357C80.3628 33.1802 78.7623 34.6873 76.9034 34.6873ZM90.3342 25.0114C86.9429 25.0114 84.1787 27.5454 84.1787 31.0337C84.1787 34.5043 86.9429 37.056 90.3342 37.056C93.7254 37.056 96.4897 34.5003 96.4897 31.0317C96.4897 27.5435 93.7274 25.0094 90.3342 25.0114ZM90.3342 34.6873C88.4773 34.6873 86.8728 33.1822 86.8728 31.0357C86.8728 28.8676 88.4753 27.3841 90.3342 27.3841C92.191 27.3841 93.7955 28.8656 93.7955 31.0357C93.7955 33.1802 92.191 34.6873 90.3342 34.6873ZM106.818 25.3773V26.3571H106.726C106.123 25.6469 104.961 25.0094 103.499 25.0094C100.432 25.0094 97.6174 27.6576 97.6174 31.0593C97.6174 34.4335 100.43 37.06 103.499 37.06C104.961 37.06 106.123 36.4225 106.726 35.6926H106.818V36.5583C106.818 38.8622 105.564 40.0957 103.543 40.0957C101.892 40.0957 100.87 38.931 100.452 37.9532L98.1042 38.9113C98.7772 40.5069 100.568 42.4704 103.541 42.4704C106.697 42.4704 109.37 40.6427 109.37 36.1943V25.3754L106.818 25.3773ZM103.729 34.6873C101.872 34.6873 100.312 33.1566 100.312 31.0593C100.312 28.9384 101.87 27.3861 103.729 27.3861C105.564 27.3861 107.004 28.9364 107.004 31.0593C107.006 33.1566 105.566 34.6873 103.729 34.6873ZM111.23 18.9871H113.927V36.694H111.23V18.9871ZM121.316 34.6873C119.946 34.6873 118.968 34.0695 118.345 32.8634L126.546 29.5286L126.264 28.844C125.755 27.5002 124.197 25.0114 121.014 25.0114C117.855 25.0114 115.229 27.453 115.229 31.0357C115.229 34.4098 117.831 37.058 121.316 37.058C124.128 37.058 125.755 35.3719 126.428 34.3882L124.337 33.0208C123.638 34.0262 122.684 34.6892 121.316 34.6873ZM121.106 27.3389C122.173 27.3389 123.079 27.8642 123.381 28.6157L117.897 30.8527C117.829 28.5252 119.734 27.3389 121.106 27.3389ZM138.376 18.9871H131.93V36.694H134.621V29.987H138.378C141.361 29.987 144.294 27.8661 144.294 24.4861C144.294 21.1119 141.363 18.989 138.382 18.989L138.376 18.9871ZM138.447 27.5218H134.621V21.4503H138.447C140.458 21.4503 141.603 23.0892 141.603 24.4861C141.603 25.8593 140.458 27.5218 138.447 27.5218ZM148.466 36.694V18.9871H145.776V36.694H148.466ZM160.551 36.6626V29.8749C160.551 26.7309 158.159 24.9779 155.072 24.9779C153.127 24.9779 151.11 25.822 150.275 27.6891L152.663 28.6669C153.173 27.6891 154.123 27.3684 155.122 27.3684C156.512 27.3684 157.927 28.1888 157.949 29.6486V29.8316C157.462 29.5581 156.42 29.1469 155.142 29.1469C152.568 29.1469 149.948 30.536 149.948 33.133C149.948 35.5037 152.06 37.0285 154.425 37.0285C156.236 37.0285 157.232 36.2317 157.857 35.2991H157.949V36.6665H160.549L160.551 36.6626ZM154.752 34.6833C153.87 34.6833 152.64 34.2505 152.64 33.1822C152.64 31.8148 154.173 31.2875 155.495 31.2875C156.679 31.2875 157.234 31.5374 157.955 31.8797C157.748 33.4694 156.38 34.6636 154.752 34.6833ZM170.011 25.3655L166.927 33.0405H166.834L163.633 25.3655H160.735L165.534 36.0959L162.796 42.0632H165.603L173 25.3655H170.011Z" fill="white"/>
<defs>
<linearGradient id="paint0_linear_445_550" x1="27.5226" y1="12.2823" x2="-1.82284" y2="20.2431" gradientUnits="userSpaceOnUse">
<stop stop-color="#00A0FF"/>
<stop offset="0.007" stop-color="#00A1FF"/>
<stop offset="0.26" stop-color="#00BEFF"/>
<stop offset="0.512" stop-color="#00D2FF"/>
<stop offset="0.76" stop-color="#00DFFF"/>
<stop offset="1" stop-color="#00E3FF"/>
</linearGradient>
<linearGradient id="paint1_linear_445_550" x1="45.3631" y1="28.7249" x2="9.49579" y2="28.7249" gradientUnits="userSpaceOnUse">
<stop stop-color="#FFE000"/>
<stop offset="0.409" stop-color="#FFBD00"/>
<stop offset="0.775" stop-color="#FFA500"/>
<stop offset="1" stop-color="#FF9C00"/>
</linearGradient>
<linearGradient id="paint2_linear_445_550" x1="32.0103" y1="32.0687" x2="9.01615" y2="71.4707" gradientUnits="userSpaceOnUse">
<stop stop-color="#FF3A44"/>
<stop offset="1" stop-color="#C31162"/>
</linearGradient>
<linearGradient id="paint3_linear_445_550" x1="6.02279" y1="-0.134084" x2="16.281" y2="17.4632" gradientUnits="userSpaceOnUse">
<stop stop-color="#32A071"/>
<stop offset="0.069" stop-color="#2DA771"/>
<stop offset="0.476" stop-color="#15CF74"/>
<stop offset="0.801" stop-color="#06E775"/>
<stop offset="1" stop-color="#00F076"/>
</linearGradient>
</defs>
</svg>
