<svg width="139" height="42" viewBox="0 0 139 42" fill="none" xmlns="http://www.w3.org/2000/svg">
<path d="M10.1918 4.77185L13.4962 3.56494C12.3551 3.85781 11.2493 4.26183 10.1918 4.77185ZM23.8484 38.0328C24.3188 37.8721 24.7824 37.6914 25.237 37.4908L23.8484 38.0328ZM9.50659 36.8796C10.3559 37.3356 11.2404 37.7207 12.1517 38.0328L9.50659 36.8796Z" fill="white"/>
<path d="M30.7281 8.27191C27.3287 4.87248 22.8083 3 18 3C16.46 3 14.9495 3.19238 13.4962 3.56543L10.1918 4.77233C10.1904 4.77233 10.188 4.77302 10.1873 4.77474C8.38639 5.64301 6.7266 6.81757 5.27191 8.27225C1.87248 11.6713 0 16.1916 0 21C0 25.8083 1.87248 30.328 5.27191 33.7281C6.54111 34.9973 7.96723 36.0541 9.50658 36.8797L12.1517 38.033C14.009 38.6693 15.9792 39 18 39C20.0208 39 21.9914 38.6689 23.8483 38.033L25.237 37.4909C25.2394 37.4909 25.2407 37.4902 25.2432 37.4885C27.2633 36.6006 29.1213 35.3349 30.7284 33.7281C34.1279 30.328 36.0003 25.8083 36.0003 21C36.0003 16.1916 34.1275 11.6713 30.7281 8.27191ZM11.1973 26.7527C10.4685 27.7603 9.81493 28.8495 9.3025 29.9811C8.49824 31.7586 8.35267 33.48 8.80109 35.1339C4.18649 32.1209 1.13051 26.9103 1.13051 21C1.13051 14.6757 4.62871 9.15291 9.79118 6.26591C9.47526 7.45905 9.16691 8.65322 8.89882 9.856C7.96344 14.0614 8.92085 17.9189 11.2741 21.4536C12.4831 23.2703 12.4886 24.9693 11.1973 26.7527ZM20.7783 29.7581C20.2249 28.9879 19.4819 28.4262 18.6694 27.952C17.534 27.2902 16.3808 26.6584 15.2668 25.9636C14.3421 25.3861 13.6838 24.5595 13.3988 23.4919C12.9143 21.6776 13.8954 20.0223 15.7318 19.4737C17.715 18.8811 19.2571 19.7766 20.1867 21.3882C20.1936 21.4002 20.186 21.4212 20.1829 21.4742C19.5459 20.67 18.7523 20.1551 17.7677 19.9879C16.6424 19.7965 15.6075 20.0061 14.849 20.9264C14.1019 21.8332 14.1367 23.0738 14.8731 24.1141C15.4747 24.9645 16.2903 25.5833 17.1255 26.1773C17.8988 26.7269 18.7113 27.2266 19.4533 27.8161C20.4437 28.6038 21.2246 29.564 21.524 30.8387C21.5385 30.8982 21.5392 30.9608 21.5443 31.0128C21.2924 30.5947 21.0642 30.1559 20.7783 29.7581ZM22.9463 28.6991C22.8183 28.8447 22.6779 29.0113 22.5341 29.1988C22.3214 29.4945 22.1294 29.8093 21.9174 30.1063H21.9167C21.9084 30.1077 21.9002 30.1101 21.8919 30.1115C22.0344 29.81 22.1634 29.501 22.32 29.2071C22.3314 29.1861 22.3434 29.1665 22.3548 29.1462L22.3579 29.1386L22.8627 28.0329C22.8627 28.0329 22.8634 28.0291 22.8665 28.0222C22.8755 27.9906 22.8854 27.9582 22.8958 27.9265C22.8989 27.9169 22.902 27.9076 22.9047 27.8973C22.9763 27.6326 23.0991 27.0125 22.9009 26.3579C22.8775 26.2877 22.8527 26.2179 22.8256 26.1484C22.8242 26.1432 22.8218 26.137 22.8187 26.1312L22.8053 26.1033C22.871 26.297 22.9161 26.4966 22.9274 26.7062C22.9622 27.3184 22.6913 27.7503 22.1352 28.0102C21.5426 28.2844 20.9376 28.2559 20.3291 28.0893C19.7758 27.9372 19.2905 27.6681 18.9082 27.2255C18.649 26.9261 18.5004 26.5789 18.4687 26.1921C18.4384 25.8507 18.3015 25.5836 18.033 25.3771C17.3885 24.8819 17.3503 23.9885 17.9759 23.4716C18.3218 23.1846 18.7478 23.122 19.1811 23.2651C19.6161 23.409 19.848 23.7356 19.9403 24.1788C19.965 24.301 20.0149 24.4246 20.0834 24.5278C20.3044 24.8503 20.217 25.1579 19.8529 25.3056C19.7692 25.3386 19.6877 25.3758 19.6034 25.4126C19.996 25.4721 20.3632 25.5241 20.7273 25.5867C20.8178 25.6012 20.8805 25.5881 20.9338 25.5145C21.0167 25.405 21.0952 25.2914 21.1929 25.1965C21.2518 25.14 21.3399 25.0956 21.419 25.0881C21.5419 25.0746 21.576 25.1476 21.5798 25.2705C21.5918 25.6156 21.3371 25.8025 21.1441 26.0241C21.0942 26.0806 20.9871 26.1009 20.9028 26.1115C20.5532 26.1604 20.2025 26.1989 19.8491 26.2692C19.8959 26.2767 19.9441 26.2919 19.9902 26.2919C20.3144 26.2932 20.6368 26.297 20.9603 26.2905C21.1193 26.2867 21.2459 26.2069 21.3471 26.0847C21.4173 26.0018 21.4865 25.9174 21.5598 25.8269C21.6328 26.0568 21.7009 26.274 21.7701 26.4911C21.7814 26.488 21.7911 26.486 21.8017 26.4829C21.7797 26.2802 21.7422 26.0775 21.7384 25.8755C21.7339 25.6545 21.7498 25.4336 21.7739 25.215C21.7828 25.129 21.8244 25.0433 21.8664 24.9669C21.9525 24.8155 22.1046 24.7408 22.2591 24.7522C22.2591 24.7522 22.2615 24.7522 22.2622 24.7522C22.2901 24.7553 22.3179 24.7597 22.3458 24.7673C22.4384 24.7876 22.5984 24.8282 22.777 24.9067C22.777 24.9067 23.456 25.31 23.7389 26.1346C23.8339 26.4113 23.8838 26.7344 23.849 27.1068C23.9079 27.0366 23.9674 26.9674 24.0263 26.8972C24.7627 26.031 25.5264 25.1824 26.0412 24.1534C26.3585 23.5188 26.5719 22.8652 26.3554 22.1415C26.1066 21.3125 25.3288 20.6889 24.4754 20.545C22.6225 20.2336 20.8127 21.4505 20.1433 23.4238C20.1178 23.4985 20.092 23.5721 20.049 23.6409C20.1364 23.0205 20.3257 22.432 20.6437 21.8937C21.365 20.6734 22.446 19.9934 23.8449 19.7931C24.8594 19.6482 25.779 19.8488 26.5344 20.5588C27.4494 21.4181 27.6394 22.4826 27.288 23.6568C26.9738 24.7092 26.2456 25.4807 25.4844 26.2227C24.6378 27.0476 23.764 27.8464 22.9463 28.6991ZM20.4558 24.9036C20.6217 24.8341 20.8478 24.9225 20.9149 25.0836C20.9662 25.2058 20.9142 25.3224 20.7869 25.3737C20.6179 25.4408 20.3956 25.3472 20.3316 25.1824C20.2841 25.0619 20.3316 24.9559 20.4558 24.9036ZM24.8291 36.4244C24.453 36.0552 24.0731 35.688 23.6911 35.3239C24.3191 34.9305 25.0787 34.2099 25.0787 34.2099C27.9595 31.9365 29.6895 28.9848 29.6516 25.0698C29.6131 20.9859 27.4023 18.3687 24.0283 16.6057C24.5332 15.6348 25.0904 14.7703 25.4438 13.8295C25.9015 12.6122 25.4603 11.777 24.2634 11.2463C24.0607 11.1558 23.8428 11.097 23.6288 11.0367C21.2394 10.3567 19.5789 8.91098 18.6976 6.54432C18.3878 5.71287 17.9484 4.92892 17.5316 4.1367C17.6868 4.13292 17.8431 4.13051 17.9997 4.13051C27.3018 4.13051 34.8691 11.6975 34.8691 21C34.8695 27.8722 30.7388 33.7983 24.8291 36.4244Z" fill="white"/>
<path d="M57.3889 32H54.1213V22.9766H44.9065V32H41.6252V12.0117H44.9065V20.1875H54.1213V12.0117H57.3889V32ZM65.5647 16.8652V32H62.3518V16.8652H65.5647ZM63.9788 11.0684C64.4709 11.0684 64.8948 11.2005 65.2502 11.4648C65.6148 11.7292 65.7971 12.1849 65.7971 12.832C65.7971 13.4701 65.6148 13.9258 65.2502 14.1992C64.8948 14.4635 64.4709 14.5957 63.9788 14.5957C63.4683 14.5957 63.0354 14.4635 62.6799 14.1992C62.3336 13.9258 62.1604 13.4701 62.1604 12.832C62.1604 12.1849 62.3336 11.7292 62.6799 11.4648C63.0354 11.2005 63.4683 11.0684 63.9788 11.0684ZM79.1272 32L73.3713 15.3066H73.2483C73.2756 15.6803 73.3075 16.1908 73.344 16.8379C73.3805 17.485 73.4124 18.1777 73.4397 18.916C73.467 19.6543 73.4807 20.3607 73.4807 21.0352V32H70.5002V12.0117H75.1077L80.6448 27.9668H80.7268L86.4553 12.0117H91.0491V32H87.9182V20.8711C87.9182 20.2604 87.9273 19.5996 87.9456 18.8887C87.9729 18.1777 88.0002 17.5033 88.0276 16.8652C88.064 16.2272 88.0914 15.7168 88.1096 15.334H88.0002L82.0256 32H79.1272ZM109.178 16.8652V32H106.649L106.211 29.9629H106.033C105.714 30.4824 105.309 30.9154 104.817 31.2617C104.324 31.599 103.778 31.8496 103.176 32.0137C102.574 32.1868 101.941 32.2734 101.276 32.2734C100.136 32.2734 99.1611 32.082 98.3499 31.6992C97.5478 31.3073 96.9325 30.7057 96.5042 29.8945C96.0758 29.0833 95.8616 28.0352 95.8616 26.75V16.8652H99.0881V26.1484C99.0881 27.3242 99.3251 28.2038 99.7991 28.7871C100.282 29.3704 101.03 29.6621 102.041 29.6621C103.017 29.6621 103.791 29.4616 104.365 29.0605C104.94 28.6595 105.345 28.0671 105.582 27.2832C105.828 26.4993 105.951 25.5378 105.951 24.3984V16.8652H109.178ZM130.889 16.5781C132.584 16.5781 133.86 17.0156 134.717 17.8906C135.583 18.7656 136.016 20.1693 136.016 22.1016V32H132.803V22.6758C132.803 21.5273 132.58 20.6615 132.133 20.0781C131.686 19.4948 131.007 19.2031 130.096 19.2031C128.82 19.2031 127.899 19.6133 127.334 20.4336C126.778 21.2448 126.5 22.4251 126.5 23.9746V32H123.287V22.6758C123.287 21.9102 123.187 21.2721 122.987 20.7617C122.795 20.2422 122.499 19.8548 122.098 19.5996C121.697 19.3353 121.191 19.2031 120.58 19.2031C119.696 19.2031 118.99 19.4036 118.461 19.8047C117.942 20.2057 117.568 20.7982 117.34 21.582C117.112 22.3568 116.998 23.3092 116.998 24.4395V32H113.785V16.8652H116.287L116.739 18.9023H116.916C117.226 18.3737 117.609 17.9408 118.065 17.6035C118.53 17.2572 119.045 17.002 119.61 16.8379C120.175 16.6647 120.763 16.5781 121.373 16.5781C122.503 16.5781 123.456 16.7786 124.231 17.1797C125.005 17.5716 125.584 18.1732 125.967 18.9844H126.213C126.687 18.1641 127.348 17.5579 128.196 17.166C129.043 16.7741 129.941 16.5781 130.889 16.5781Z" fill="white"/>
</svg>
