<svg width="177" height="54" viewBox="0 0 177 54" fill="none" xmlns="http://www.w3.org/2000/svg">
<path d="M13.0227 6.26394L17.245 4.7218C15.7869 5.09601 14.374 5.61226 13.0227 6.26394ZM30.4726 48.7637C31.0738 48.5583 31.6661 48.3275 32.247 48.0711L30.4726 48.7637ZM12.1472 47.2901C13.2325 47.8728 14.3626 48.3648 15.527 48.7637L12.1472 47.2901Z" fill="white"/>
<path d="M39.2633 10.7363C34.9196 6.39259 29.1437 4 22.9998 4C21.032 4 19.102 4.24581 17.245 4.72248L13.0227 6.26462C13.0209 6.26462 13.0178 6.2655 13.017 6.2677C10.7158 7.37715 8.59501 8.87796 6.73626 10.7367C2.39259 15.0799 0 20.8558 0 26.9998C0 33.1437 2.39259 38.9187 6.73626 43.2633C8.358 44.885 10.1803 46.2354 12.1472 47.2904L15.527 48.7639C17.9002 49.577 20.4177 49.9996 22.9998 49.9996C25.5819 49.9996 28.0998 49.5765 30.4726 48.7639L32.2469 48.0713C32.25 48.0713 32.2518 48.0705 32.2548 48.0683C34.8361 46.9337 37.2102 45.3164 39.2637 43.2633C43.6074 38.9187 46 33.1437 46 26.9998C46 20.8558 43.607 15.0799 39.2633 10.7363ZM14.3076 34.3503C13.3762 35.6379 12.5412 37.0296 11.8864 38.4755C10.8588 40.7467 10.6728 42.9462 11.2457 45.0596C5.34935 41.2097 1.44452 34.5517 1.44452 26.9998C1.44452 18.9188 5.91441 11.862 12.5108 8.17306C12.1072 9.69762 11.7132 11.2235 11.3706 12.7604C10.1754 18.1339 11.3988 23.0629 14.4056 27.5793C15.9504 29.9007 15.9575 32.0717 14.3076 34.3503ZM26.5497 38.1905C25.8426 37.2064 24.8933 36.4888 23.8551 35.8828C22.4044 35.0372 20.9308 34.2299 19.5074 33.342C18.3259 32.6042 17.4847 31.5479 17.1206 30.1839C16.5014 27.8656 17.7551 25.7505 20.1015 25.0496C22.6357 24.2923 24.6061 25.4365 25.7938 27.4958C25.8026 27.5112 25.793 27.538 25.789 27.6057C24.9751 26.5781 23.961 25.9202 22.703 25.7065C21.265 25.462 19.9428 25.7298 18.9736 26.9057C18.0189 28.0644 18.0633 29.6496 19.0044 30.9789C19.773 32.0655 20.8152 32.8561 21.8824 33.6151C22.8705 34.3174 23.9087 34.9559 24.8568 35.7091C26.1223 36.7157 27.1201 37.9425 27.5026 39.5713C27.5211 39.6474 27.522 39.7274 27.5286 39.7938C27.2067 39.2595 26.9152 38.6989 26.5497 38.1905ZM29.3201 36.8375C29.1565 37.0235 28.9771 37.2363 28.7933 37.476C28.5215 37.8537 28.2761 38.2561 28.0053 38.6355H28.0044C27.9938 38.6373 27.9833 38.6404 27.9727 38.6421C28.1548 38.2569 28.3197 37.8621 28.5197 37.4865C28.5343 37.4597 28.5496 37.4346 28.5642 37.4087L28.5681 37.399L29.2132 35.9862C29.2132 35.9862 29.2141 35.9813 29.218 35.9725C29.2295 35.9321 29.2422 35.8907 29.2554 35.8503C29.2594 35.838 29.2633 35.8261 29.2668 35.8129C29.3583 35.4747 29.5153 34.6823 29.262 33.846C29.2321 33.7563 29.2004 33.667 29.1657 33.5782C29.1639 33.5716 29.1609 33.5637 29.1569 33.5562L29.1398 33.5206C29.2238 33.7681 29.2814 34.0232 29.2959 34.291C29.3403 35.0733 28.9942 35.6251 28.2836 35.9571C27.5264 36.3076 26.7533 36.2711 25.9759 36.0583C25.2688 35.8639 24.6488 35.52 24.1602 34.9545C23.8291 34.572 23.6391 34.1283 23.5987 33.634C23.56 33.1978 23.385 32.8566 23.042 32.5927C22.2184 31.96 22.1696 30.8184 22.969 30.1579C23.4109 29.7912 23.9553 29.7112 24.5089 29.8941C25.0648 30.0779 25.3611 30.4952 25.479 31.0616C25.5107 31.2177 25.5744 31.3756 25.6619 31.5075C25.9442 31.9195 25.8325 32.3126 25.3673 32.5013C25.2604 32.5435 25.1562 32.591 25.0485 32.638C25.5502 32.7141 26.0194 32.7805 26.4847 32.8605C26.6003 32.879 26.6803 32.8623 26.7485 32.7682C26.8545 32.6284 26.9547 32.4832 27.0796 32.3619C27.1548 32.2898 27.2674 32.233 27.3685 32.2234C27.5255 32.2062 27.569 32.2994 27.5739 32.4564C27.5893 32.8975 27.2639 33.1362 27.0172 33.4194C26.9534 33.4916 26.8167 33.5175 26.7089 33.5311C26.2622 33.5936 25.8141 33.6428 25.3625 33.7325C25.4223 33.7422 25.4838 33.7615 25.5428 33.7615C25.957 33.7633 26.369 33.7681 26.7824 33.7598C26.9855 33.755 27.1473 33.6529 27.2766 33.4968C27.3663 33.3909 27.4547 33.2831 27.5484 33.1675C27.6416 33.4612 27.7287 33.7387 27.817 34.0162C27.8316 34.0122 27.8439 34.0096 27.8575 34.0056C27.8294 33.7466 27.7814 33.4876 27.7766 33.2295C27.7709 32.9472 27.7911 32.6649 27.8219 32.3856C27.8333 32.2757 27.8865 32.1662 27.9402 32.0686C28.0501 31.8751 28.2445 31.7797 28.4419 31.7942C28.4419 31.7942 28.445 31.7942 28.4459 31.7942C28.4815 31.7981 28.5171 31.8039 28.5527 31.8135C28.671 31.8395 28.8755 31.8914 29.1037 31.9916C29.1037 31.9916 29.9713 32.507 30.3328 33.5606C30.4541 33.9141 30.5179 34.327 30.4735 34.8028C30.5487 34.7131 30.6247 34.6247 30.6999 34.535C31.641 33.4282 32.6167 32.3439 33.2746 31.029C33.68 30.2182 33.9526 29.3831 33.676 28.4584C33.3581 27.3991 32.3643 26.6023 31.2738 26.4185C28.9063 26.0205 26.5937 27.5754 25.7384 30.0968C25.7059 30.1922 25.6729 30.2863 25.6179 30.3743C25.7296 29.5814 25.9715 28.8295 26.3778 28.1418C27.2995 26.5825 28.6807 25.7136 30.4682 25.4576C31.7645 25.2725 32.9395 25.5289 33.9047 26.436C35.074 27.5341 35.3167 28.8941 34.8677 30.3945C34.4662 31.7392 33.5358 32.7251 32.5631 33.6732C31.4813 34.7272 30.3649 35.7478 29.3201 36.8375ZM26.1377 31.9877C26.3497 31.8988 26.6386 32.0119 26.7243 32.2176C26.7898 32.3738 26.7234 32.5228 26.5607 32.5883C26.3448 32.6741 26.0608 32.5545 25.979 32.3439C25.9183 32.1899 25.979 32.0545 26.1377 31.9877ZM31.7258 46.7086C31.2452 46.2368 30.7597 45.7676 30.2716 45.3023C31.0741 44.7997 32.0446 43.8789 32.0446 43.8789C35.7256 40.974 37.9362 37.2025 37.8878 32.2001C37.8386 26.9818 35.0137 23.6376 30.7026 21.3848C31.3477 20.1443 32.0596 19.0397 32.5112 17.8375C33.096 16.2822 32.5323 15.2149 31.0029 14.5369C30.7439 14.4212 30.4656 14.346 30.192 14.2691C27.139 13.4002 25.0173 11.5528 23.8911 8.52881C23.4954 7.46641 22.9338 6.4647 22.4013 5.45244C22.5996 5.4476 22.7993 5.44452 22.9993 5.44452C34.8853 5.44452 44.5546 15.1134 44.5546 26.9998C44.555 35.7808 39.2769 43.353 31.7258 46.7086Z" fill="white"/>
<path d="M72.6426 41H68.4414V29.3984H56.5938V41H52.375V15.3008H56.5938V25.8125H68.4414V15.3008H72.6426V41ZM83.1543 21.541V41H79.0234V21.541H83.1543ZM81.1152 14.0879C81.748 14.0879 82.293 14.2578 82.75 14.5977C83.2188 14.9375 83.4531 15.5234 83.4531 16.3555C83.4531 17.1758 83.2188 17.7617 82.75 18.1133C82.293 18.4531 81.748 18.623 81.1152 18.623C80.459 18.623 79.9023 18.4531 79.4453 18.1133C79 17.7617 78.7773 17.1758 78.7773 16.3555C78.7773 15.5234 79 14.9375 79.4453 14.5977C79.9023 14.2578 80.459 14.0879 81.1152 14.0879ZM100.592 41L93.1914 19.5371H93.0332C93.0684 20.0176 93.1094 20.6738 93.1562 21.5059C93.2031 22.3379 93.2441 23.2285 93.2793 24.1777C93.3145 25.127 93.332 26.0352 93.332 26.9023V41H89.5V15.3008H95.4238L102.543 35.8145H102.648L110.014 15.3008H115.92V41H111.895V26.6914C111.895 25.9062 111.906 25.0566 111.93 24.1426C111.965 23.2285 112 22.3613 112.035 21.541C112.082 20.7207 112.117 20.0645 112.141 19.5723H112L104.318 41H100.592ZM139.229 21.541V41H135.977L135.414 38.3809H135.186C134.775 39.0488 134.254 39.6055 133.621 40.0508C132.988 40.4844 132.285 40.8066 131.512 41.0176C130.738 41.2402 129.924 41.3516 129.068 41.3516C127.604 41.3516 126.35 41.1055 125.307 40.6133C124.275 40.1094 123.484 39.3359 122.934 38.293C122.383 37.25 122.107 35.9023 122.107 34.25V21.541H126.256V33.4766C126.256 34.9883 126.561 36.1191 127.17 36.8691C127.791 37.6191 128.752 37.9941 130.053 37.9941C131.307 37.9941 132.303 37.7363 133.041 37.2207C133.779 36.7051 134.301 35.9434 134.605 34.9355C134.922 33.9277 135.08 32.6914 135.08 31.2266V21.541H139.229ZM167.143 21.1719C169.322 21.1719 170.963 21.7344 172.064 22.8594C173.178 23.9844 173.734 25.7891 173.734 28.2734V41H169.604V29.0117C169.604 27.5352 169.316 26.4219 168.742 25.6719C168.168 24.9219 167.295 24.5469 166.123 24.5469C164.482 24.5469 163.299 25.0742 162.572 26.1289C161.857 27.1719 161.5 28.6895 161.5 30.6816V41H157.369V29.0117C157.369 28.0273 157.24 27.207 156.982 26.5508C156.736 25.8828 156.355 25.3848 155.84 25.0566C155.324 24.7168 154.674 24.5469 153.889 24.5469C152.752 24.5469 151.844 24.8047 151.164 25.3203C150.496 25.8359 150.016 26.5977 149.723 27.6055C149.43 28.6016 149.283 29.8262 149.283 31.2793V41H145.152V21.541H148.369L148.949 24.1602H149.178C149.576 23.4805 150.068 22.9238 150.654 22.4902C151.252 22.0449 151.914 21.7168 152.641 21.5059C153.367 21.2832 154.123 21.1719 154.908 21.1719C156.361 21.1719 157.586 21.4297 158.582 21.9453C159.578 22.4492 160.322 23.2227 160.814 24.2656H161.131C161.74 23.2109 162.59 22.4316 163.68 21.9277C164.77 21.4238 165.924 21.1719 167.143 21.1719Z" fill="white"/>
</svg>
