<svg width="24" height="24" viewBox="0 0 24 24" fill="none" xmlns="http://www.w3.org/2000/svg">
<mask id="mask0_531_480" style="mask-type:alpha" maskUnits="userSpaceOnUse" x="0" y="0" width="24" height="24">
<rect width="24" height="24" rx="4" fill="#EEEDED"/>
</mask>
<g mask="url(#mask0_531_480)">
<path d="M5.04901 12.0023C5.04901 11.2075 5.18275 10.4451 5.41935 9.73063L1.26535 6.58081C0.43074 8.2626 -0.00267207 10.1196 1.23945e-05 12.0023C1.23945e-05 13.9505 0.454711 15.7883 1.26329 17.4195L5.41524 14.2645C5.17315 13.5355 5.04946 12.7715 5.04901 12.0023Z" fill="#FBBC05"/>
<path d="M12.2918 4.95873C14.008 4.95873 15.5587 5.56411 16.7773 6.55585L20.3225 3.02999C18.1625 1.15704 15.3932 0 12.2918 0C7.47625 0 3.33702 2.7428 1.35474 6.7511L5.45741 9.87097C6.40183 7.0135 9.09497 4.95873 12.2918 4.95873Z" fill="#EA4335"/>
<path d="M12.3448 19.0414C9.13143 19.0414 6.42525 16.9866 5.47523 14.1292L1.35474 17.249C3.34559 21.2573 7.50486 24.0001 12.3448 24.0001C15.3305 24.0001 18.1816 22.9495 20.3225 20.9794L16.4102 17.9815C15.3071 18.6705 13.9172 19.0414 12.3437 19.0414" fill="#34A853"/>
<path d="M24.0001 12.0214C24.0001 11.3227 23.8867 10.5696 23.7187 9.87085H12.1936V14.4412H18.8271C18.4962 16 17.5933 17.1978 16.3019 17.9772L20.2525 20.9031C22.5231 18.8846 24.0001 15.878 24.0001 12.0214Z" fill="#4285F4"/>
</g>
</svg>
