<svg xmlns="http://www.w3.org/2000/svg" width="24" height="24" viewBox="0 0 24 24">
  <g id="icon-social-twitter" transform="translate(-0.051 2)">
    <rect id="bound-box" width="24" height="24" transform="translate(0.051 -2)" fill="#e55353" opacity="0"/>
    <path id="Path_123" data-name="Path 123" d="M22.9,8.377A9.215,9.215,0,0,1,20.26,9.1a4.613,4.613,0,0,0,2.018-2.54,9.19,9.19,0,0,1-2.915,1.113,4.592,4.592,0,0,0-7.818,4.185,13.029,13.029,0,0,1-9.456-4.8,4.6,4.6,0,0,0,1.42,6.128,4.55,4.55,0,0,1-2.079-.574v.058a4.593,4.593,0,0,0,3.68,4.5,4.55,4.55,0,0,1-1.209.16,4.491,4.491,0,0,1-.864-.082,4.59,4.59,0,0,0,4.284,3.185,9.183,9.183,0,0,1-5.7,1.963A9.59,9.59,0,0,1,.531,22.34,12.985,12.985,0,0,0,7.564,24.4,12.965,12.965,0,0,0,20.618,11.347c0-.2,0-.4-.014-.6A9.177,9.177,0,0,0,22.9,8.377" transform="translate(0.52 -5.228)" fill="#1f3556"/>
  </g>
</svg>
