<svg xmlns="http://www.w3.org/2000/svg" width="24" height="24" viewBox="0 0 24 24">
  <g id="icon-social-linkedin" transform="translate(1.586 1)">
    <rect id="bound-box" width="24" height="24" transform="translate(-1.586 -1)" fill="#e55353" opacity="0"/>
    <path id="Path_122" data-name="Path 122" d="M12.833,27.265H8v-14.5h4.833ZM10.418,10.833a2.417,2.417,0,1,1,2.415-2.418A2.417,2.417,0,0,1,10.418,10.833ZM30.232,27.265H25.586V20.208c0-1.682-.032-3.846-2.417-3.846-2.418,0-2.79,1.831-2.79,3.725v7.178H15.733V12.755h4.459v1.982h.064a4.913,4.913,0,0,1,4.4-2.343c4.707,0,5.577,3.006,5.577,6.913Zm0,0" transform="translate(-8.587 -6)" fill="#1f3556"/>
  </g>
</svg>
