<svg width="464" height="464" viewBox="0 0 464 464" fill="none" xmlns="http://www.w3.org/2000/svg">
<rect width="464" height="464" fill="#FFEDD1"/>
<path d="M135.622 339.193C133.022 345.143 130.432 351.093 127.832 357.033C126.432 360.253 125.002 363.563 124.742 367.153C124.642 368.543 124.742 369.973 125.172 371.263C126.512 375.193 130.652 376.833 134.332 376.813C138.002 376.793 141.652 375.603 145.302 375.983C149.472 376.423 161.862 377.133 164.032 376.853C166.152 376.583 168.322 377.053 170.412 376.623C171.562 376.383 172.752 375.793 173.312 374.613C174.012 373.133 173.432 371.203 172.372 370.033C171.312 368.873 169.872 368.303 168.492 367.763C163.822 365.953 159.142 364.143 154.472 362.333C151.842 361.313 148.952 360.023 147.792 357.133C146.922 354.953 147.282 352.393 147.912 350.113C148.542 347.833 149.442 345.603 149.622 343.223C149.672 342.573 149.652 341.883 149.362 341.333C149.112 340.863 148.682 340.553 148.252 340.293C145.882 338.833 143.102 338.273 135.622 339.183V339.193Z" fill="#D67C5C"/>
<path d="M111.152 306.093C123.592 304.973 135.962 303.163 147.552 301.113C141.602 313.973 135.652 326.833 129.332 339.973C137.712 343.613 146.382 346.572 155.112 349.262C164.492 331.402 172.142 312.622 177.912 293.292C178.682 290.732 179.422 288.043 178.942 285.413C178.312 281.913 175.582 279.073 172.432 277.433C169.282 275.793 165.712 275.153 162.202 274.583C147.542 272.183 132.662 270.422 117.842 271.452C113.072 271.782 107.932 272.592 104.602 276.012C102.632 278.042 101.542 280.753 100.742 283.463C99.3821 288.083 98.7621 293.202 100.642 297.632C102.522 302.062 107.512 306.432 111.152 306.102V306.093Z" fill="#271E58"/>
<path d="M47.9622 337.723C42.9922 336.103 37.8423 334.983 32.6423 334.403C31.1123 334.233 29.5323 334.113 28.0723 334.573C24.9323 335.563 23.1523 339.023 22.8723 342.303C22.5923 345.583 23.4822 348.843 23.9422 352.103C24.4922 356.033 24.4423 360.043 23.7723 363.953C23.3923 366.213 22.8022 368.483 23.0822 370.753C23.4222 373.503 24.9822 375.943 26.6522 378.163C28.5022 380.623 30.5323 382.953 32.7223 385.123C33.9323 386.323 35.2523 387.513 36.8923 388.003C38.5323 388.493 40.5522 388.073 41.4422 386.623C42.4322 385.013 41.6822 382.873 40.5522 381.363C39.4222 379.843 37.9223 378.553 37.2123 376.803C35.8223 373.383 37.8622 369.623 39.8322 366.503C41.8122 363.363 43.7922 360.233 45.7622 357.093C47.5822 354.213 49.4222 351.263 50.2022 347.943C50.9822 344.623 50.5122 340.823 47.9522 337.713L47.9622 337.723Z" fill="#EA9A79"/>
<path d="M110.612 287.463C117.622 303.953 123.582 320.883 128.432 338.133C131.532 349.133 134.142 361.063 130.002 371.603C128.872 375.873 124.572 378.693 120.222 379.413C115.872 380.133 111.432 379.163 107.132 378.173C85.4222 373.173 63.7822 367.463 43.7622 358.853C44.4322 351.333 45.1022 343.823 46.0922 335.493C64.2222 341.943 82.9322 346.733 102.902 350.323C96.5422 344.773 90.9322 338.413 85.7122 331.783C79.8122 324.293 74.2822 316.273 71.4822 307.153C68.6822 298.033 68.9322 287.593 74.0622 279.553C74.4522 278.943 74.8922 278.323 75.5222 277.963C76.1422 277.603 76.8822 277.533 77.6022 277.493C88.5722 277.013 98.1322 284.663 110.622 287.473L110.612 287.463Z" fill="#3D327B"/>
<path d="M160.612 242.473C174.762 252.583 191.762 257.763 208.312 262.503C214.952 259.733 220.772 255.043 224.882 249.143C206.222 247.343 188.052 240.753 172.582 230.183C168.512 233.413 164.432 236.653 160.612 242.483V242.473Z" fill="#EA9A79"/>
<path d="M283.112 335.542C285.442 340.322 287.822 345.402 287.372 350.692C286.942 355.742 284.012 360.172 281.162 364.362C279.332 367.062 277.422 369.832 274.652 371.552C272.652 372.792 270.272 373.442 268.552 375.042C266.832 376.642 266.192 379.822 268.112 381.172C268.822 381.662 269.712 381.802 270.572 381.882C280.372 382.852 290.532 379.462 297.782 372.792C299.862 370.882 301.702 368.722 303.422 366.472C306.972 361.822 310.112 356.382 309.852 350.542C309.592 344.742 306.062 339.672 302.662 334.972C301.082 332.792 299.362 330.492 296.862 329.502C294.242 328.472 291.212 329.092 288.762 330.482C286.312 331.862 284.342 333.932 283.122 335.542H283.112Z" fill="#8E3F35"/>
<path d="M264.232 262.462C259.322 267.892 257.302 275.482 257.452 282.802C257.602 290.122 259.752 297.252 262.302 304.122C267.132 317.102 273.472 329.482 281.142 341.232C286.802 338.392 292.472 335.552 298.132 332.702C293.832 311.972 283.592 293.032 273.292 274.532C270.952 270.332 268.562 266.072 264.222 262.462H264.232Z" fill="#041F38"/>
<path d="M181.372 281.023C175.822 279.923 170.022 280.703 164.682 282.583C162.312 283.413 160.002 284.473 158.042 286.053C152.462 290.543 150.792 298.703 152.562 305.643C154.332 312.583 158.992 318.463 164.232 323.343C170.432 329.123 177.552 333.803 184.762 338.273C195.182 344.723 205.852 350.773 216.612 356.743C215.162 360.283 213.702 363.813 212.212 367.333C211.792 368.323 211.352 369.343 210.532 370.033C209.822 370.623 208.912 370.903 208.032 371.203C205.672 372.013 203.402 373.093 201.282 374.413C199.762 375.363 198.122 376.973 198.722 378.663C199.272 380.223 201.272 380.583 202.912 380.683C204.992 380.813 207.072 380.953 209.152 381.083C211.422 381.233 213.782 381.363 215.902 380.543C218.152 379.673 219.862 377.833 221.492 376.053C224.492 372.773 227.482 369.493 230.482 366.213C231.682 364.903 232.892 363.563 233.682 361.973C235.632 358.013 234.522 353.103 232.062 349.443C229.602 345.783 225.972 343.103 222.442 340.443C211.532 332.223 200.942 323.563 190.702 314.503C189.062 313.053 187.402 311.553 186.292 309.663C185.132 307.693 184.632 305.403 184.192 303.163C183.332 298.763 182.642 294.333 182.112 289.883C181.852 287.633 181.702 285.113 181.392 281.003L181.372 281.023Z" fill="#6D6F39"/>
<path d="M236.062 244.092C232.992 242.122 228.972 242.522 225.452 243.512C210.292 247.772 198.672 262.392 198.372 277.932C190.422 276.582 181.752 277.432 175.182 282.102C168.612 286.772 164.882 295.862 167.732 303.162C171.142 310.722 176.722 317.142 183.032 322.522C189.342 327.902 196.402 332.312 203.152 336.612C217.342 345.302 231.862 353.442 246.002 360.712C246.782 361.002 247.252 361.842 247.342 362.672C247.432 363.502 247.212 364.332 246.982 365.132C245.952 368.752 244.722 372.312 243.282 375.792C242.622 377.382 241.882 379.022 240.572 380.142C239.142 381.362 237.222 381.832 235.612 382.812C234.002 383.792 232.632 385.742 233.382 387.472C234.022 388.942 235.832 389.452 237.432 389.582C240.582 389.842 243.732 389.312 246.822 388.652C248.572 388.282 250.332 387.852 251.892 386.972C253.682 385.962 255.082 384.402 256.422 382.842C260.372 378.212 263.982 373.292 267.222 368.142C267.962 366.962 268.692 365.752 269.062 364.412C269.462 362.952 269.422 361.392 269.142 359.902C268.772 357.932 268.012 356.042 267.272 354.662C259.402 346.542 251.152 338.782 242.632 331.512C246.532 332.872 250.922 332.462 254.742 330.882C258.562 329.302 261.852 326.632 264.622 323.562C270.342 317.212 273.982 309.012 274.852 300.622C276.742 285.642 276.592 270.402 274.542 256.282C273.632 254.082 271.362 252.822 269.262 251.722C264.102 249.042 258.912 246.342 253.352 244.642C247.792 242.942 241.772 242.302 236.062 244.112V244.092Z" fill="#919356"/>
<path d="M245.422 333.772C232.672 323.542 219.422 313.932 205.732 304.992C220.462 313.252 234.342 323.022 245.422 333.772Z" fill="#4C1A26"/>
<path d="M197.373 277.642C204.673 279.552 211.663 282.472 218.633 285.372C227.983 289.272 237.343 293.172 246.693 297.072C250.473 298.652 254.263 300.232 257.913 302.102C243.463 294.912 228.773 288.182 213.893 281.932C210.633 280.562 207.333 279.212 203.883 278.462C201.413 277.932 198.883 277.712 197.383 277.642H197.373Z" fill="#4C1A26"/>
<path d="M269.852 198.483C262.762 196.643 253.922 203.843 250.852 208.963C249.972 210.423 249.172 211.953 247.992 213.183C246.402 214.843 244.252 215.813 242.222 216.883C239.422 218.353 236.702 220.103 234.632 222.503C230.402 227.403 229.502 234.913 232.442 240.673C233.452 242.653 234.952 244.483 236.872 245.183C241.152 247.503 246.112 248.563 250.502 247.853C256.442 249.593 262.242 251.823 267.532 254.453C270.562 255.303 273.642 255.953 276.762 256.403C276.962 256.433 277.182 256.453 277.362 256.353C277.522 256.253 277.602 256.073 277.672 255.903C280.572 249.093 281.642 241.513 280.722 234.163C280.502 232.383 280.162 230.613 279.642 228.903C279.082 227.073 278.312 225.303 277.542 223.553C274.132 215.743 275.912 207.753 269.862 198.483H269.852Z" fill="#F797B3"/>
<path d="M299.473 342.923C302.463 347.003 305.603 351.703 304.773 356.693C304.343 359.283 302.873 361.563 301.413 363.743C298.193 368.573 294.643 373.513 289.463 376.113C287.183 377.263 284.623 377.923 282.623 379.513C280.623 381.103 279.373 384.103 280.783 386.233C282.043 388.133 284.683 388.393 286.963 388.473C290.563 388.593 294.173 388.713 297.773 388.833C300.563 388.923 303.443 389.003 306.023 387.943C308.053 387.113 309.733 385.643 311.343 384.153C316.683 379.193 321.573 373.743 325.913 367.883C328.453 364.453 330.913 360.593 330.863 356.333C330.813 351.723 327.873 347.713 325.063 344.063C321.763 339.773 318.473 335.483 315.173 331.193C309.583 335.573 304.003 339.963 299.463 342.943L299.473 342.923Z" fill="#B2604D"/>
<path d="M296.542 346.613C301.372 343.943 306.202 341.273 311.042 338.603C315.852 335.943 320.742 333.233 324.572 329.473C314.242 311.083 304.652 292.293 296.732 273.503C318.502 275.553 340.252 279.333 362.082 278.183C369.062 277.813 376.122 276.913 382.552 274.153C388.972 271.393 394.752 266.583 397.442 260.133C400.092 253.793 399.542 246.513 397.542 239.943C387.392 239.993 377.252 239.483 367.122 238.983C349.802 238.113 332.472 237.253 315.152 236.383C302.572 235.753 289.292 235.273 278.142 240.853C271.662 243.463 266.192 248.503 263.062 254.743C259.932 260.983 259.162 268.383 260.632 274.833C265.952 288.673 272.952 301.803 279.932 314.883C285.112 324.593 290.292 334.303 296.562 346.603L296.542 346.613Z" fill="#103359"/>
<path d="M238.752 154.193C237.452 155.793 236.142 157.413 234.472 158.603C232.972 159.673 231.222 160.383 229.762 161.503C228.302 162.623 227.092 164.373 227.362 166.203C227.562 167.573 228.542 168.693 229.542 169.643C230.202 170.273 230.962 170.903 231.872 170.963C232.582 171.013 233.282 170.703 233.852 170.273C236.382 168.343 236.442 164.543 237.882 161.603C238.512 159.443 238.852 157.203 238.752 154.183V154.193Z" fill="#75303D"/>
<path d="M283.862 168.942C285.742 166.712 288.842 165.382 291.682 166.102C294.512 166.812 296.722 169.842 296.062 172.692C298.322 173.552 299.302 176.712 297.932 178.702C297.622 179.152 297.192 179.602 297.212 180.162C297.222 180.492 297.402 180.792 297.552 181.092C298.342 182.702 298.192 184.732 297.192 186.222C296.192 187.712 294.362 188.592 292.572 188.472C292.122 188.442 291.632 188.352 291.242 188.602C290.912 188.812 290.762 189.222 290.612 189.582C289.502 192.182 286.742 193.972 283.922 193.922C281.102 193.872 278.392 191.992 277.372 189.362C277.172 188.842 277.012 188.272 276.622 187.872C276.222 187.472 275.632 187.312 275.122 187.072C273.252 186.202 272.212 184.092 272.052 182.042C271.892 179.992 272.472 177.952 273.102 175.992C273.892 173.482 274.802 170.922 276.542 168.952C278.282 166.972 281.042 165.692 283.882 168.962L283.862 168.942Z" fill="#16123F"/>
<mask id="mask0_462_5684" style="mask-type:luminance" maskUnits="userSpaceOnUse" x="272" y="165" width="27" height="29">
<path d="M283.862 168.942C285.742 166.712 288.842 165.382 291.682 166.102C294.512 166.812 296.722 169.842 296.062 172.692C298.322 173.552 299.302 176.712 297.932 178.702C297.622 179.152 297.192 179.602 297.212 180.162C297.222 180.492 297.402 180.792 297.552 181.092C298.342 182.702 298.192 184.732 297.192 186.222C296.192 187.712 294.362 188.592 292.572 188.472C292.122 188.442 291.632 188.352 291.242 188.602C290.912 188.812 290.762 189.222 290.612 189.582C289.502 192.182 286.742 193.972 283.922 193.922C281.102 193.872 278.392 191.992 277.372 189.362C277.172 188.842 277.012 188.272 276.622 187.872C276.222 187.472 275.632 187.312 275.122 187.072C273.252 186.202 272.212 184.092 272.052 182.042C271.892 179.992 272.472 177.952 273.102 175.992C273.892 173.482 274.802 170.922 276.542 168.952C278.282 166.972 281.042 165.692 283.882 168.962L283.862 168.942Z" fill="white"/>
</mask>
<g mask="url(#mask0_462_5684)">
<path d="M289.782 194.222C290.432 192.132 290.812 189.912 290.442 187.762C290.072 185.612 288.882 183.522 286.972 182.462C289.132 182.762 290.782 184.752 291.222 186.892C291.662 189.022 291.102 191.252 289.782 194.232V194.222Z" fill="black"/>
<path d="M299.122 183.572C297.512 180.722 294.792 178.522 291.662 177.552C293.002 177.662 294.372 177.812 295.562 178.432C297.792 179.582 298.922 182.092 299.122 183.582V183.572Z" fill="black"/>
</g>
<path d="M238.472 156.643C235.342 151.883 235.962 145.003 239.872 140.873C242.202 138.413 245.852 136.933 248.902 138.243C250.342 135.623 253.182 133.833 256.162 133.663C259.142 133.493 262.172 134.953 263.102 137.753C268.182 135.333 274.962 137.503 277.692 142.423C278.612 144.083 279.162 146.043 280.632 147.243C281.312 147.803 282.122 148.143 282.902 148.543C285.302 149.763 287.492 151.613 288.512 154.103C289.532 156.593 289.132 159.763 286.762 161.893C288.302 164.153 288.032 167.353 286.502 169.623C284.972 171.893 282.362 173.273 279.682 173.793C280.752 177.583 279.332 181.953 276.232 184.383C273.132 186.813 268.552 187.163 265.132 185.223C263.572 184.343 262.272 183.053 261.062 181.733C253.512 173.543 244.932 166.483 238.472 156.653V156.643Z" fill="#221A4D"/>
<path d="M268.042 169.353C269.032 165.833 268.892 162.003 267.642 158.562C270.062 161.733 270.312 166.383 268.042 169.353Z" fill="black"/>
<path d="M246.772 143.722C239.032 151.152 233.012 160.642 230.912 171.162C230.382 173.832 230.102 176.602 230.612 179.272C231.402 183.402 234.062 187.022 237.432 189.532C240.802 192.042 244.842 193.532 248.762 194.412C250.592 198.972 250.972 203.962 251.372 209.022C254.182 203.932 259.172 200.102 264.812 198.702C267.212 198.102 269.832 197.952 272.262 199.102C270.472 196.382 268.652 193.592 267.842 190.442C267.432 188.832 267.302 187.172 267.222 185.512C267.142 183.572 267.132 181.632 267.372 179.322C268.712 179.302 270.122 179.252 271.252 178.522C272.212 177.902 272.812 176.862 273.232 175.802C273.702 174.592 273.982 173.302 274.032 172.012C274.062 171.282 274.022 170.532 273.712 169.872C273.462 169.352 273.062 168.912 272.622 168.542C271.592 167.682 270.302 167.132 268.872 167.232C267.692 170.692 265.352 173.742 262.312 175.782C263.062 172.232 263.132 168.552 262.562 164.722C261.132 164.862 259.672 164.992 258.272 164.672C256.872 164.352 255.522 163.482 254.992 162.152C254.072 159.842 255.852 157.092 254.862 154.812C254.552 154.092 253.982 153.502 253.362 153.022C251.572 151.622 249.152 150.852 248.012 148.882C247.202 147.472 247.232 145.722 246.762 143.712L246.772 143.722Z" fill="#974956"/>
<mask id="mask1_462_5684" style="mask-type:luminance" maskUnits="userSpaceOnUse" x="230" y="143" width="45" height="67">
<path d="M246.772 143.722C239.032 151.152 233.012 160.642 230.912 171.162C230.382 173.832 230.102 176.602 230.612 179.272C231.402 183.402 234.062 187.022 237.432 189.532C240.802 192.042 244.842 193.532 248.762 194.412C250.592 198.972 250.972 203.962 251.372 209.022C254.182 203.932 259.172 200.102 264.812 198.702C267.212 198.102 269.832 197.952 272.262 199.102C270.472 196.382 268.652 193.592 267.842 190.442C267.432 188.832 267.302 187.172 267.222 185.512C267.142 183.572 267.132 181.632 267.372 179.322C268.712 179.302 270.122 179.252 271.252 178.522C272.212 177.902 272.812 176.862 273.232 175.802C273.702 174.592 273.982 173.302 274.032 172.012C274.062 171.282 274.022 170.532 273.712 169.872C273.462 169.352 273.062 168.912 272.622 168.542C271.592 167.682 270.302 167.132 268.872 167.232C267.692 170.692 265.352 173.742 262.312 175.782C263.062 172.232 263.132 168.552 262.562 164.722C261.132 164.862 259.672 164.992 258.272 164.672C256.872 164.352 255.522 163.482 254.992 162.152C254.072 159.842 255.852 157.092 254.862 154.812C254.552 154.092 253.982 153.502 253.362 153.022C251.572 151.622 249.152 150.852 248.012 148.882C247.202 147.472 247.232 145.722 246.762 143.712L246.772 143.722Z" fill="white"/>
</mask>
<g mask="url(#mask1_462_5684)">
<path d="M240.893 193.202C245.143 194.112 249.553 194.242 253.853 193.572C252.243 194.942 249.943 195.142 247.833 194.932C245.733 194.722 243.653 194.162 240.893 193.192V193.202Z" fill="#4C1A26"/>
<path d="M227.752 174.532C230.692 173.262 234.402 174.082 236.542 176.462C233.702 175.362 230.582 175.002 227.752 174.532Z" fill="black"/>
</g>
<path d="M257.012 176.193C256.242 173.503 254.062 171.323 251.492 170.653C248.162 169.793 244.502 171.513 242.442 174.433C240.772 176.783 240.042 179.943 240.782 182.773C241.522 185.613 243.822 188.003 246.562 188.433C248.022 188.663 249.522 188.353 250.912 187.803C252.952 186.993 254.832 185.643 256.132 183.783C257.432 181.923 257.992 179.603 257.022 176.193H257.012Z" fill="#89374C"/>
<path d="M248.552 160.653C247.562 158.743 246.492 156.883 245.332 155.063C245.112 154.713 244.872 154.353 244.512 154.153C244.152 153.953 243.632 153.973 243.392 154.303C243.172 154.603 243.252 155.033 243.372 155.393C243.932 157.203 244.882 158.883 246.142 160.293C246.482 160.673 246.862 161.043 247.342 161.213C247.822 161.383 248.422 161.293 248.542 160.653H248.552Z" fill="#221A4D"/>
<path d="M268.982 170.472C269.982 170.282 271.082 170.692 271.712 171.502C272.342 172.312 272.492 173.462 272.072 174.392C271.682 173.512 271.232 172.572 270.392 172.102C269.962 171.862 269.452 171.762 269.032 171.492C268.622 171.212 268.322 170.602 268.982 170.482V170.472Z" fill="#4C1A26"/>
<path d="M238.862 162.372C239.582 161.512 240.782 161.022 241.862 161.322C242.942 161.622 243.732 162.832 243.422 163.902C242.332 162.462 240.292 161.832 238.862 162.372Z" fill="black"/>
<path d="M322.092 156.133C320.042 173.253 317.572 190.323 314.662 207.323C314.512 208.183 314.342 209.103 313.722 209.713C313.182 210.253 312.392 210.453 311.652 210.623C299.922 213.393 287.992 215.333 275.982 216.403C276.102 219.753 276.332 223.103 276.692 226.443C283.682 226.673 290.672 226.083 297.652 225.493C310.042 224.453 322.702 223.343 334.072 218.303C334.662 218.043 335.282 217.743 335.632 217.193C335.932 216.713 335.982 216.123 336.012 215.553C336.362 208.203 334.982 200.883 333.412 193.693C331.062 182.953 328.272 172.313 322.112 156.113L322.092 156.133Z" fill="#60A089"/>
<path d="M322.022 153.283C321.392 144.963 331.672 138.163 339.802 135.443C344.412 135.593 349.102 137.623 353.102 140.443C368.902 151.583 380.603 168.473 388.283 186.213C395.963 203.953 399.482 223.303 400.262 242.613C378.992 244.893 358.412 244.603 337.772 240.123C321.722 243.613 305.082 244.403 288.222 242.563C285.902 236.633 284.232 230.443 282.542 223.643C299.612 223.163 316.592 219.783 332.612 213.453C326.222 193.903 323.592 173.883 322.022 153.273V153.283Z" fill="#9BCEBD"/>
<path d="M332.603 213.543C332.803 199.783 332.603 186.013 331.993 172.263C331.183 186.293 331.253 200.383 332.603 213.543Z" fill="#60A089"/>
<path d="M361.392 162.103C363.782 177.803 363.962 193.843 361.952 209.593C361.002 216.993 360.442 223.683 355.422 229.203C350.952 234.123 343.383 237.613 336.562 240.123C341.472 238.583 346.412 236.913 350.772 234.183C355.132 231.453 358.932 227.513 360.572 222.633C361.242 220.653 362.062 216.973 362.352 214.893C364.862 196.593 366.092 179.163 361.402 162.113L361.392 162.103Z" fill="#60A089"/>
<path d="M399.305 291.117L391.905 291.882L402.014 389.711L409.415 388.946L399.305 291.117Z" fill="#041E35"/>
<path d="M322.696 291.239L315.286 290.566L306.39 388.513L313.799 389.186L322.696 291.239Z" fill="#041E35"/>
<path d="M385.392 271.852C393.442 263.852 397.022 252.492 399.872 241.512C405.032 221.632 408.782 201.182 417.482 182.582C418.982 179.382 420.662 176.192 423.252 173.782C425.832 171.382 429.492 169.872 432.932 170.662C436.672 171.522 439.412 174.932 440.482 178.612C441.552 182.292 441.212 186.232 440.662 190.022C439.102 200.682 435.912 211.032 432.622 221.292C424.672 246.072 416.082 270.652 406.432 293.052C403.242 297.282 398.192 299.812 393.022 300.972C387.852 302.132 382.492 302.062 377.192 301.992C359.272 301.742 341.362 301.502 323.442 301.252C311.832 301.092 299.102 300.512 290.492 292.732C286.412 289.042 283.652 282.762 286.502 278.062C289.202 273.602 295.282 272.892 300.502 272.862C324.822 272.732 349.032 276.882 373.352 276.442C378.222 276.352 382.692 274.552 385.402 271.852H385.392Z" fill="#DC4E58"/>
<path d="M282.272 110.833C278.682 111.323 274.832 110.623 271.982 108.403C269.122 106.183 267.462 102.303 268.372 98.8025C268.582 97.9925 268.922 97.2125 269.452 96.5625C270.012 95.8725 270.762 95.3725 271.562 94.9825C272.822 94.3625 274.212 94.0125 275.792 93.8125C276.032 90.6325 277.012 87.4425 279.032 84.9825C281.052 82.5225 284.222 80.8925 287.392 81.1725C288.262 81.2525 289.132 81.4625 290.012 81.4025C292.912 81.1825 294.632 78.1725 296.902 76.3525C299.212 74.5025 302.422 73.8325 305.272 74.6025C308.122 75.3725 310.562 77.5725 312.002 81.1825C313.722 79.7525 315.732 78.5925 317.942 78.2625C320.782 77.8425 323.752 78.8925 325.852 80.8425C327.952 82.7925 329.202 85.5725 329.502 88.4325C329.642 89.7825 329.602 91.2325 330.302 92.3925C330.882 93.3525 331.872 93.9625 332.702 94.7225C335.492 97.2625 336.302 101.423 335.722 105.143C335.132 108.863 333.352 112.283 330.942 115.673C331.452 117.263 332.372 118.673 333.122 120.163C333.872 121.653 334.482 123.303 334.272 124.953C334.062 126.603 332.822 128.223 331.162 128.383C329.882 128.503 328.692 127.783 327.652 127.013C324.532 124.693 321.912 121.723 319.992 118.333C319.612 117.653 318.702 120.923 318.092 120.453C317.682 120.133 316.112 119.673 315.622 119.493C310.612 117.663 306.982 112.733 301.782 111.543C299.202 110.953 296.612 110.353 293.972 110.173C292.402 110.063 290.822 110.093 289.252 110.133C287.222 110.173 285.222 110.443 282.272 110.853V110.833Z" fill="#041E35"/>
<path d="M319.012 108.273C316.372 105.133 314.432 101.393 313.402 97.4126C315.822 101.243 318.242 105.083 319.012 108.273Z" fill="black"/>
<path d="M282.182 115.333C281.162 119.183 280.582 123.153 280.452 127.133C280.392 129.153 280.452 131.213 281.162 133.103C281.872 134.993 283.352 136.683 285.302 137.203C287.502 137.783 289.782 136.803 291.842 135.843C290.152 130.873 288.002 126.053 285.422 121.473" fill="#8E3F35"/>
<path d="M332.082 127.423C329.482 124.323 327.772 120.593 326.212 116.563C328.102 116.603 329.842 115.233 330.602 113.493C331.362 111.753 331.272 109.753 330.762 107.923C329.892 104.783 327.602 101.873 324.442 101.053C321.292 100.233 317.452 102.123 316.872 105.453C317.872 108.243 318.872 111.033 319.882 113.823C320.182 114.663 320.492 115.573 320.222 116.423C319.742 117.953 317.612 118.373 316.192 117.643C314.772 116.913 313.912 115.443 313.122 114.053C312.232 112.483 311.352 110.913 309.422 109.433C307.572 110.333 305.622 111.263 303.562 111.133C300.192 110.923 297.732 108.043 295.352 105.653C295.172 105.473 294.982 105.293 294.742 105.203C293.962 104.933 293.322 105.813 292.802 106.453C291.732 107.743 290.052 108.403 288.382 108.563C286.712 108.723 285.032 108.453 283.382 108.173C282.302 107.993 281.152 107.783 280.242 106.873C280.942 115.633 283.482 124.253 287.652 131.993C290.542 137.353 294.422 142.483 299.912 145.103C305.402 147.723 312.762 147.143 316.042 143.143C318.462 146.333 320.902 149.573 322.172 153.563C326.852 153.493 331.202 150.843 334.342 147.363C337.482 143.893 339.612 139.633 341.632 135.523C337.882 133.833 334.942 130.853 332.072 127.423H332.082Z" fill="#B2604D"/>
<path d="M316.642 122.753C314.782 120.543 311.762 119.413 308.982 119.893C305.382 120.503 302.542 123.693 301.742 127.313C301.092 130.243 301.682 133.523 303.582 135.893C305.472 138.253 308.702 139.523 311.552 138.753C313.072 138.343 314.402 137.413 315.522 136.303C317.172 134.673 318.442 132.593 318.932 130.293C319.432 127.993 319.012 125.553 316.652 122.753H316.642Z" fill="#A04747"/>
<path d="M288.092 116.013C286.912 115.893 285.732 115.772 284.552 115.662C284.172 115.622 283.722 115.603 283.452 115.883C283.172 116.163 283.212 116.653 283.452 116.983C283.692 117.313 284.052 117.493 284.422 117.653C286.242 118.453 288.332 118.752 290.252 118.222C290.712 118.092 291.182 117.902 291.452 117.502C291.722 117.112 291.692 116.483 291.272 116.243C291.092 116.143 290.872 116.133 290.662 116.123C289.822 116.093 288.972 116.103 288.102 116.013H288.092Z" fill="#041E35"/>
<path d="M288.422 124.283C288.122 123.533 288.212 122.793 288.622 122.633C289.032 122.473 289.602 122.943 289.902 123.693C290.202 124.443 290.112 125.183 289.702 125.343C289.292 125.503 288.722 125.033 288.422 124.283Z" fill="black"/>
<path d="M315.252 144.093C316.952 142.013 318.472 139.793 319.802 137.453C319.152 140.243 317.462 142.783 315.252 144.093Z" fill="#772A24"/>
<path d="M319.922 106.572C320.842 105.512 322.112 104.692 323.512 104.562C324.912 104.432 326.412 105.072 327.092 106.302C325.772 105.612 324.102 105.952 322.842 106.742C322.322 107.062 321.812 107.472 321.202 107.512C320.592 107.552 319.912 106.972 319.932 106.582L319.922 106.572Z" fill="#8E3F35"/>
<mask id="mask2_462_5684" style="mask-type:luminance" maskUnits="userSpaceOnUse" x="280" y="100" width="62" height="54">
<path d="M332.082 127.423C329.482 124.323 327.772 120.593 326.212 116.563C328.102 116.603 329.842 115.233 330.602 113.493C331.362 111.753 331.272 109.753 330.762 107.923C329.892 104.783 327.602 101.873 324.442 101.053C321.292 100.233 317.452 102.123 316.872 105.453C317.872 108.243 318.872 111.033 319.882 113.823C320.182 114.663 320.492 115.573 320.222 116.423C319.742 117.953 317.612 118.373 316.192 117.643C314.772 116.913 313.912 115.443 313.122 114.053C312.232 112.483 311.352 110.913 309.422 109.433C307.572 110.333 305.622 111.263 303.562 111.133C300.192 110.923 297.732 108.043 295.352 105.653C295.172 105.473 294.982 105.293 294.742 105.203C293.962 104.933 293.322 105.813 292.802 106.453C291.732 107.743 290.052 108.403 288.382 108.563C286.712 108.723 285.032 108.453 283.382 108.173C282.302 107.993 281.152 107.783 280.242 106.873C280.942 115.633 283.482 124.253 287.652 131.993C290.542 137.353 294.422 142.483 299.912 145.103C305.402 147.723 312.762 147.143 316.042 143.143C318.462 146.333 320.902 149.573 322.172 153.563C326.852 153.493 331.202 150.843 334.342 147.363C337.482 143.893 339.612 139.633 341.632 135.523C337.882 133.833 334.942 130.853 332.072 127.423H332.082Z" fill="white"/>
</mask>
<g mask="url(#mask2_462_5684)">
<path d="M291.492 140.523C294.382 140.093 297.172 139.043 299.622 137.463C298.452 138.573 297.212 139.643 295.782 140.393C294.352 141.143 292.692 141.553 291.492 140.523Z" fill="black"/>
</g>
<path d="M127.902 255.443C131.462 259.883 136.462 262.993 141.742 265.113C147.022 267.233 152.622 268.443 158.182 269.633C164.452 270.983 170.722 272.323 176.042 273.103C182.632 274.573 189.752 271.303 196.162 273.443C197.482 273.883 198.962 275.163 198.332 276.403C198.022 277.023 197.292 277.303 196.612 277.453C194.482 277.903 192.272 277.563 190.102 277.563C184.062 277.563 178.362 280.213 172.432 281.373C167.872 282.263 163.182 282.273 158.532 282.273C153.322 282.273 148.102 282.273 142.892 282.283C137.982 282.283 133.022 282.283 128.222 281.253C121.632 279.843 114.162 275.923 110.922 270.013C110.592 269.403 111.342 269.013 111.312 268.323C111.262 267.243 111.862 266.243 112.512 265.373C114.742 262.373 117.752 259.943 127.922 255.443H127.902Z" fill="#EA9A79"/>
<path d="M111.562 194.643C103.822 193.143 95.4724 196.713 90.7324 203.023C86.0024 209.333 84.8424 218.003 86.6924 225.303C81.4724 244.053 76.2424 262.813 71.1924 281.893C88.9624 293.383 112.922 291.653 131.392 281.783C131.512 282.973 131.422 280.863 131.392 281.783C122.882 280.803 116.082 276.733 111.642 270.653C118.982 268.703 125.542 263.923 129.372 257.403C131.362 259.603 133.942 261.293 136.462 262.573C137.692 259.383 139.102 255.923 140.572 252.893C145.412 251.313 149.012 246.493 149.142 241.403C149.182 239.733 148.892 238.073 148.722 236.573C148.552 236.153 148.402 235.723 148.422 235.243C153.302 239.313 158.462 243.033 163.792 246.433C168.632 242.263 172.682 237.173 175.932 231.353C172.662 228.653 169.392 225.953 166.392 222.963C159.042 215.643 153.142 206.513 144.072 201.483C142.052 200.363 139.642 199.463 137.252 200.383C128.482 200.453 120.482 196.373 111.562 194.643Z" fill="#8E4768"/>
<mask id="mask3_462_5684" style="mask-type:luminance" maskUnits="userSpaceOnUse" x="71" y="194" width="105" height="98">
<path d="M111.562 194.643C103.822 193.143 95.4724 196.713 90.7324 203.023C86.0024 209.333 84.8424 218.003 86.6924 225.303C81.4724 244.053 76.2424 262.813 71.1924 281.893C88.9624 293.383 112.972 294.463 131.442 284.593C131.472 283.673 131.512 282.973 131.392 281.783C122.882 280.803 116.082 276.733 111.642 270.653C118.982 268.703 125.542 263.923 129.372 257.403C131.362 259.603 133.942 261.293 136.462 262.573C137.692 259.383 139.102 255.923 140.572 252.893C145.412 251.313 149.012 246.493 149.142 241.403C149.182 239.733 148.892 238.073 148.722 236.573C148.552 236.153 148.402 235.723 148.422 235.243C153.302 239.313 158.462 243.033 163.792 246.433C168.632 242.263 172.682 237.173 175.932 231.353C172.662 228.653 169.392 225.953 166.392 222.963C159.042 215.643 153.142 206.513 144.072 201.483C142.052 200.363 139.642 199.463 137.252 200.383C128.482 200.453 120.482 196.373 111.562 194.643Z" fill="white"/>
</mask>
<g mask="url(#mask3_462_5684)">
<path d="M149.562 238.623C146.892 233.393 145.482 227.533 145.492 221.663C146.582 227.373 147.912 233.023 149.562 238.623Z" fill="#70284C"/>
<path d="M86.7624 225.113C90.7024 236.783 95.9124 248.013 102.272 258.563C104.992 263.083 107.992 267.543 112.072 270.883C105.552 263.183 100.172 254.523 96.2524 245.763C92.6724 239.043 89.6124 232.053 86.7524 225.113H86.7624Z" fill="#70284C"/>
<path d="M129.132 257.283C122.072 245.663 114.892 233.753 112.042 220.463C116.032 233.863 122.892 246.183 129.132 257.283Z" fill="#70284C"/>
<path d="M121.812 244.243C123.183 245.463 125.182 245.943 126.952 245.473C126.882 245.743 126.562 245.843 126.292 245.903C125.602 246.043 124.902 246.163 124.202 246.113C123.502 246.063 122.793 245.813 121.812 244.253V244.243Z" fill="#70284C"/>
<path d="M145.442 251.493C144.212 251.943 142.962 252.373 141.652 252.403C139.592 252.453 137.662 251.513 135.712 250.843C136.812 251.963 138.302 252.713 139.862 252.933C141.422 253.153 143.052 252.843 145.442 251.493Z" fill="#70284C"/>
</g>
<path d="M123.292 138.743C120.302 136.073 115.372 136.673 112.252 139.173C109.132 141.683 107.502 145.613 106.532 149.493C105.562 153.383 105.122 157.413 103.752 161.173C102.682 164.113 101.072 166.813 99.8821 169.703C98.6921 172.593 97.9421 175.813 98.6921 178.843C99.1321 180.593 100.262 182.373 102.022 182.753C104.042 183.193 106.002 181.643 107.562 179.933C107.372 181.223 107.242 182.723 108.152 183.663C109.202 184.743 111.042 184.413 112.322 183.623C113.872 182.663 115.032 181.193 116.042 179.683C119.182 175.003 121.202 169.673 123.052 164.353C124.482 160.253 125.852 156.093 126.472 151.783C127.132 147.203 126.872 141.923 123.282 138.723L123.292 138.743Z" fill="#9B392C"/>
<mask id="mask4_462_5684" style="mask-type:luminance" maskUnits="userSpaceOnUse" x="98" y="136" width="29" height="49">
<path d="M123.292 138.743C120.302 136.073 115.372 136.673 112.252 139.173C109.132 141.683 107.502 145.613 106.532 149.493C105.562 153.383 105.122 157.413 103.752 161.173C102.682 164.113 101.072 166.813 99.8821 169.703C98.6921 172.593 97.9421 175.813 98.6921 178.843C99.1321 180.593 100.262 182.373 102.022 182.753C104.042 183.193 106.002 181.643 107.562 179.933C107.372 181.223 107.242 182.723 108.152 183.663C109.202 184.743 111.042 184.413 112.322 183.623C113.872 182.663 115.032 181.193 116.042 179.683C119.182 175.003 121.202 169.673 123.052 164.353C124.482 160.253 125.852 156.093 126.472 151.783C127.132 147.203 126.872 141.923 123.282 138.723L123.292 138.743Z" fill="white"/>
</mask>
<g mask="url(#mask4_462_5684)">
<path d="M102.232 186.373C104.792 184.103 106.572 181.073 107.802 177.883C109.032 174.693 109.752 171.333 110.472 167.993C109.892 172.153 109.952 176.533 108.132 180.323C107.052 182.563 105.372 184.453 102.232 186.373Z" fill="#771C15"/>
</g>
<path d="M119.602 181.883C122.902 175.593 122.712 168.123 122.452 161.023C124.322 164.033 127.482 166.083 130.842 167.183C134.212 168.283 137.792 168.523 141.342 168.553C147.672 168.613 154.092 168.023 160.012 165.773C162.212 164.933 164.382 163.843 166.002 162.133C168.612 159.383 169.472 155.393 169.562 151.603C169.632 148.893 169.342 146.103 168.092 143.703C165.892 139.463 160.612 137.073 155.942 138.083C152.922 134.553 148.362 132.553 143.742 132.013C139.122 131.483 134.432 132.313 130.002 133.713C127.512 134.503 125.062 135.473 122.822 136.823C120.542 138.193 118.492 139.943 116.742 141.943C112.302 146.993 109.752 153.673 109.702 160.403C109.652 167.133 112.092 173.853 116.462 178.973C117.482 180.163 118.732 181.343 119.592 181.873L119.602 181.883Z" fill="#B85945"/>
<path d="M162.792 159.973C163.342 158.693 163.442 157.243 163.282 155.853C163.122 154.463 162.732 153.113 162.342 151.773C163.132 153.223 163.942 154.733 164.022 156.383C164.092 157.863 163.542 159.303 162.792 159.973Z" fill="#771A13"/>
<path d="M123.722 162.933C125.022 162.823 126.232 162.153 127.202 161.273C128.172 160.393 128.922 159.303 129.632 158.203C131.452 155.413 133.122 152.473 134.002 149.253C133.302 151.993 132.522 154.743 131.212 157.243C129.902 159.743 127.992 162.013 123.732 162.933H123.722Z" fill="#771A13"/>
<path d="M136.952 193.553C140.302 195.133 144.402 194.513 147.602 192.653C150.802 190.793 153.252 187.853 155.282 184.753C160.502 176.813 163.502 167.413 163.662 157.703C163.122 158.533 162.062 158.993 161.082 158.833C160.402 158.723 159.792 158.343 159.262 157.903C157.312 156.253 156.352 153.743 155.002 150.953C154.012 152.273 152.932 153.633 151.412 154.253C150.222 154.743 148.892 154.723 147.632 154.503C144.792 154.023 142.132 152.553 139.772 150.433C138.522 152.803 137.142 155.113 135.652 157.353C134.962 158.383 134.242 159.403 133.312 160.213C131.602 161.693 129.212 162.343 126.872 161.973C126.532 159.763 125.082 157.673 122.982 156.913C120.882 156.153 118.222 156.973 117.202 158.963C116.902 159.543 116.742 160.173 116.622 160.813C116.372 162.153 116.292 163.543 116.652 164.853C117.012 166.163 117.822 167.393 118.902 167.933C119.052 173.633 119.192 179.353 118.672 185.023C118.482 187.133 118.182 189.263 117.332 191.203C116.852 192.283 116.152 193.333 115.102 193.863C113.792 194.523 112.222 194.243 110.792 194.473C111.722 198.753 113.882 202.913 117.432 205.483C119.302 206.843 121.482 207.713 123.692 208.363C125.312 208.843 126.992 209.213 128.672 209.093C130.342 208.983 131.952 208.393 133.402 207.573C136.382 205.883 138.732 203.123 140.062 199.903C139.162 199.823 138.282 199.583 137.472 199.193C136.912 198.933 136.342 198.543 136.192 197.943C136.102 197.613 136.162 197.263 136.222 196.923C136.422 195.773 136.622 194.623 136.962 193.563L136.952 193.553Z" fill="#EA9A79"/>
<path d="M153.312 181.773C153.632 183.423 153.452 185.173 152.822 186.733C153.602 185.843 153.892 184.623 153.942 183.443C153.972 182.763 153.872 181.973 153.322 181.773H153.312Z" fill="#C1776B"/>
<path d="M118.782 160.813C119.542 159.833 120.842 159.313 122.072 159.493C123.302 159.673 124.392 160.553 124.842 161.713C124.922 161.933 124.992 162.163 124.942 162.393C124.902 162.623 124.722 162.833 124.492 162.863C124.132 162.903 123.892 162.523 123.692 162.213C122.722 160.703 120.542 160.113 118.782 160.813Z" fill="#AD5A47"/>
<path d="M149.252 159.173C146.212 157.393 142.072 157.753 139.392 160.033C139.222 160.183 139.042 160.393 139.132 160.603C139.222 160.813 139.522 160.823 139.752 160.793C141.842 160.553 143.962 160.603 146.032 160.953C146.592 161.043 147.162 161.163 147.732 161.123C148.302 161.083 148.882 160.863 149.222 160.403C149.562 159.943 149.532 159.343 149.252 159.183V159.173Z" fill="#B85945"/>
<path d="M162.402 165.673C161.682 163.813 160.212 162.253 158.402 161.403C157.812 161.123 157.132 160.913 156.502 161.093C155.872 161.273 155.352 161.963 155.572 162.583C155.742 163.043 156.222 163.293 156.662 163.503C158.372 164.303 160.072 165.103 162.392 165.673H162.402Z" fill="#B85945"/>
<path d="M142.202 168.293C142.362 167.503 142.892 166.943 143.402 167.043C143.912 167.143 144.192 167.863 144.032 168.653C143.872 169.443 143.342 170.003 142.832 169.903C142.322 169.803 142.042 169.083 142.202 168.293Z" fill="black"/>
<path d="M156.022 171.483C156.182 170.693 156.712 170.133 157.222 170.233C157.732 170.333 158.012 171.053 157.852 171.843C157.692 172.633 157.162 173.193 156.652 173.093C156.142 172.993 155.862 172.273 156.022 171.483Z" fill="black"/>
<path d="M151.642 167.993C152.352 170.093 152.822 172.273 153.062 174.483C153.162 175.383 153.212 176.313 153.012 177.193C152.812 178.083 152.322 178.933 151.542 179.403C150.462 180.053 149.092 179.833 147.852 179.603C148.452 180.203 149.352 180.453 150.202 180.393C151.052 180.323 151.852 179.973 152.562 179.493C152.932 179.243 153.272 178.953 153.522 178.583C153.802 178.163 153.922 177.653 153.992 177.153C154.372 174.413 153.322 171.693 152.292 169.123C152.092 168.623 151.892 168.113 151.652 168.013L151.642 167.993Z" fill="#AD5A47"/>
<path d="M143.482 179.373C142.262 179.673 141.112 180.293 140.202 181.153C139.302 182.003 138.632 183.073 137.972 184.123C138.382 182.933 138.852 181.743 139.642 180.763C140.422 179.783 141.562 179.013 143.492 179.373H143.482Z" fill="#C1776B"/>
<path d="M142.742 182.053C143.532 183.653 145.072 184.863 146.812 185.243C148.552 185.633 150.462 185.193 151.852 184.073C150.922 185.303 149.432 186.083 147.892 186.143C146.352 186.203 144.802 185.543 143.782 184.393C143.302 183.853 142.922 183.143 142.742 182.033V182.053Z" fill="black"/>
<path d="M133.452 171.123C131.212 169.613 128.002 169.863 125.892 171.553C123.782 173.243 122.832 176.183 123.332 178.843C123.832 181.503 125.682 183.813 128.072 185.093C129.632 185.933 131.532 186.353 133.192 185.723C134.522 185.213 135.542 184.093 136.242 182.853C138.392 179.023 137.492 173.843 133.462 171.123H133.452Z" fill="#DB736B"/>
<mask id="mask5_462_5684" style="mask-type:luminance" maskUnits="userSpaceOnUse" x="110" y="150" width="54" height="60">
<path d="M136.952 193.553C140.302 195.133 144.402 194.513 147.602 192.653C150.802 190.793 153.252 187.853 155.282 184.753C160.502 176.813 163.502 167.413 163.662 157.703C163.122 158.533 162.062 158.993 161.082 158.833C160.402 158.723 159.792 158.343 159.262 157.903C157.312 156.253 156.352 153.743 155.002 150.953C154.012 152.273 152.932 153.633 151.412 154.253C150.222 154.743 148.892 154.723 147.632 154.503C144.792 154.023 142.132 152.553 139.772 150.433C138.522 152.803 137.142 155.113 135.652 157.353C134.962 158.383 134.242 159.403 133.312 160.213C131.602 161.693 129.212 162.343 126.872 161.973C126.532 159.763 125.082 157.673 122.982 156.913C120.882 156.153 118.222 156.973 117.202 158.963C116.902 159.543 116.742 160.173 116.622 160.813C116.372 162.153 116.292 163.543 116.652 164.853C117.012 166.163 117.822 167.393 118.902 167.933C119.052 173.633 119.192 179.353 118.672 185.023C118.482 187.133 118.182 189.263 117.332 191.203C116.852 192.283 116.152 193.333 115.102 193.863C113.792 194.523 112.222 194.243 110.792 194.473C111.722 198.753 113.882 202.913 117.432 205.483C119.302 206.843 121.482 207.713 123.692 208.363C125.312 208.843 126.992 209.213 128.672 209.093C130.342 208.983 131.952 208.393 133.402 207.573C136.382 205.883 138.732 203.123 140.062 199.903C139.162 199.823 138.282 199.583 137.472 199.193C136.912 198.933 136.342 198.543 136.192 197.943C136.102 197.613 136.162 197.263 136.222 196.923C136.422 195.773 136.622 194.623 136.962 193.563L136.952 193.553Z" fill="white"/>
</mask>
<g mask="url(#mask5_462_5684)">
<path d="M138.352 194.263C135.022 192.533 131.882 190.433 129.012 188.013C131.482 191.383 135.252 193.763 138.352 194.263Z" fill="#AD5A47"/>
</g>
<path d="M266.292 237.702C260.482 237.132 254.822 235.122 249.962 231.882C248.152 230.682 246.262 228.882 246.892 226.602C245.412 225.712 244.292 224.242 243.812 222.582C243.472 221.382 243.622 219.802 245.102 218.972C244.522 218.252 243.942 217.502 243.652 216.632C243.362 215.762 243.422 214.702 244.042 214.022C244.352 213.682 244.762 213.462 245.712 213.242C245.352 212.162 244.332 211.222 244.512 210.092C244.702 208.892 246.232 208.322 247.392 208.682C248.552 209.042 249.392 210.022 250.172 210.952C251.242 212.232 252.302 213.502 254.062 214.432C253.162 214.032 252.622 212.942 252.872 211.982C253.122 211.022 254.102 210.322 255.092 210.402C255.822 210.462 256.462 210.892 257.052 211.302C260.112 213.442 263.072 215.712 265.932 218.102C267.072 219.052 268.202 220.042 269.002 221.292C270.302 223.312 270.602 225.842 270.312 228.232C270.022 230.612 269.192 232.892 268.372 235.152C267.992 236.202 267.122 237.482 266.292 237.702Z" fill="#B2604D"/>
<mask id="mask6_462_5684" style="mask-type:luminance" maskUnits="userSpaceOnUse" x="243" y="208" width="28" height="30">
<path d="M266.292 237.702C260.482 237.132 254.822 235.122 249.962 231.882C248.152 230.682 246.262 228.882 246.892 226.602C245.412 225.712 244.292 224.242 243.812 222.582C243.472 221.382 243.622 219.802 245.102 218.972C244.522 218.252 243.942 217.502 243.652 216.632C243.362 215.762 243.422 214.702 244.042 214.022C244.352 213.682 244.762 213.462 245.712 213.242C245.352 212.162 244.332 211.222 244.512 210.092C244.702 208.892 246.232 208.322 247.392 208.682C248.552 209.042 249.392 210.022 250.172 210.952C251.242 212.232 252.302 213.502 254.062 214.432C253.162 214.032 252.622 212.942 252.872 211.982C253.122 211.022 254.102 210.322 255.092 210.402C255.822 210.462 256.462 210.892 257.052 211.302C260.112 213.442 263.072 215.712 265.932 218.102C267.072 219.052 268.202 220.042 269.002 221.292C270.302 223.312 270.602 225.842 270.312 228.232C270.022 230.612 269.192 232.892 268.372 235.152C267.992 236.202 267.122 237.482 266.292 237.702Z" fill="white"/>
</mask>
<g mask="url(#mask6_462_5684)">
<path d="M243.303 224.012C246.113 226.872 249.693 228.972 253.573 230.012C250.213 228.262 246.973 226.272 243.303 224.012Z" fill="#772A24"/>
<path d="M242.562 216.692C245.622 220.412 249.572 223.382 253.992 225.302C250.152 222.772 246.513 219.922 242.562 216.692Z" fill="#772A24"/>
<path d="M243.422 211.032C246.612 214.882 250.062 218.742 254.592 220.872C250.962 217.742 247.522 214.382 243.422 211.032Z" fill="#772A24"/>
<path d="M252.062 212.272C253.523 214.792 255.033 217.372 257.283 219.232C255.883 216.662 254.193 214.242 252.062 212.272Z" fill="#772A24"/>
</g>
<path d="M283.982 269.023C280.082 271.083 275.982 272.723 271.892 274.363C268.202 275.843 264.502 277.323 260.812 278.803C250.992 282.733 241.142 286.673 230.912 289.353C225.172 287.343 219.392 285.483 213.612 283.623C212.742 283.343 211.852 283.053 211.162 282.443C210.472 281.833 210.052 280.843 210.392 279.993C209.842 279.483 209.792 278.593 210.112 277.913C210.442 277.243 211.072 276.763 211.742 276.433C215.172 274.733 219.202 276.363 222.922 277.283C226.612 278.193 230.482 278.363 234.142 277.583C239.172 276.263 243.332 272.843 247.482 269.703C252.772 265.693 258.302 262.003 264.032 258.643C266.792 257.023 269.672 255.423 272.412 253.513C266.022 241.493 261.122 228.663 257.882 215.443C257.182 212.573 256.552 209.563 257.272 206.703C258.362 202.353 262.522 199.213 266.932 198.423C268.392 198.163 269.932 198.123 271.322 198.623C272.512 199.053 273.542 199.843 274.472 200.703C279.362 205.203 282.092 211.553 284.342 217.803C287.032 225.263 289.252 232.893 290.982 240.633C292.302 246.523 293.342 252.553 292.532 258.743C292.202 260.953 291.102 263.003 289.652 264.703C288.192 266.403 286.382 267.743 283.982 269.003V269.023Z" fill="#974956"/>
<mask id="mask7_462_5684" style="mask-type:luminance" maskUnits="userSpaceOnUse" x="209" y="198" width="84" height="92">
<path d="M283.982 269.023C280.082 271.083 275.982 272.723 271.892 274.363C268.202 275.843 264.502 277.323 260.812 278.803C250.992 282.733 241.142 286.673 230.912 289.353C225.172 287.343 219.392 285.483 213.612 283.623C212.742 283.343 211.852 283.053 211.162 282.443C210.472 281.833 210.052 280.843 210.392 279.993C209.842 279.483 209.792 278.593 210.112 277.913C210.442 277.243 211.072 276.763 211.742 276.433C215.172 274.733 219.202 276.363 222.922 277.283C226.612 278.193 230.482 278.363 234.142 277.583C239.172 276.263 243.332 272.843 247.482 269.703C252.772 265.693 258.302 262.003 264.032 258.643C266.792 257.023 269.672 255.423 272.412 253.513C266.022 241.493 261.122 228.663 257.882 215.443C257.182 212.573 256.552 209.563 257.272 206.703C258.362 202.353 262.522 199.213 266.932 198.423C268.392 198.163 269.932 198.123 271.322 198.623C272.512 199.053 273.542 199.843 274.472 200.703C279.362 205.203 282.092 211.553 284.342 217.803C287.032 225.263 289.252 232.893 290.982 240.633C292.302 246.523 293.342 252.553 292.532 258.743C292.202 260.953 291.102 263.003 289.652 264.703C288.192 266.403 286.382 267.743 283.982 269.003V269.023Z" fill="white"/>
</mask>
<g mask="url(#mask7_462_5684)">
<path d="M223.192 280.393C220.662 279.593 218.072 278.783 215.422 278.923C212.772 279.063 210.022 280.363 208.902 282.763C210.282 280.843 212.692 279.873 215.052 279.683C217.412 279.493 219.762 279.983 223.202 280.383L223.192 280.393Z" fill="#75303D"/>
<path d="M222.612 278.463C220.082 277.663 217.492 276.853 214.842 276.993C212.192 277.133 209.442 278.433 208.322 280.833C209.702 278.913 212.112 277.943 214.472 277.753C216.832 277.563 219.182 278.053 222.622 278.453L222.612 278.463Z" fill="#75303D"/>
</g>
</svg>
