<svg width="464" height="464" viewBox="0 0 464 464" fill="none" xmlns="http://www.w3.org/2000/svg">
<rect width="464" height="464" fill="#E1F4FF"/>
<path d="M304.052 151.562C301.362 148.762 299.452 143.532 298.522 140.222L294.312 150.362C295.692 151.992 296.342 154.312 295.872 156.182C295.852 156.272 295.722 157.972 292.922 159.712C292.922 159.712 293.432 169.972 299.542 168.512C305.652 167.052 308.972 154.892 308.972 154.892L309.412 151.442C309.412 151.442 306.542 153.782 304.052 151.572V151.562Z" fill="#FFC3BD"/>
<path opacity="0.1" d="M295.342 147.883L294.312 150.373C295.122 151.323 295.662 152.512 295.892 153.702C298.692 150.392 299.002 145.062 299.002 145.062L295.342 147.883Z" fill="black"/>
<path d="M250.982 197.222C250.982 197.222 267.472 197.902 274.792 195.892C282.122 193.882 288.332 181.082 288.332 181.082L279.982 176.472L271.682 188.822L250.992 192.132L245.052 187.902C245.052 187.902 233.042 185.342 233.042 186.892C233.042 188.442 239.232 189.722 239.232 189.722C239.232 189.722 239.592 197.102 242.142 197.322C244.692 197.542 250.982 197.212 250.982 197.212V197.222Z" fill="#FFC3BD"/>
<path d="M291.342 161.942C291.342 161.942 284.202 162.942 279.532 171.592C274.862 180.242 278.842 180.582 282.802 183.032C286.752 185.482 288.732 186.002 290.552 180.692C292.372 175.382 295.962 161.412 291.342 161.942Z" fill="#62A61E"/>
<path opacity="0.1" d="M291.322 178.272L288.682 172.872L284.232 172.532C284.232 172.532 283.842 178.732 284.462 183.992C287.352 185.502 289.022 185.212 290.562 180.702C290.792 180.022 291.062 179.192 291.332 178.282L291.322 178.272Z" fill="black"/>
<path d="M277.102 127.503C277.102 127.503 271.902 129.343 275.332 134.643C278.762 139.943 271.842 143.523 283.482 144.993C295.132 146.453 283.892 125.383 283.892 125.383L277.092 127.513L277.102 127.503Z" fill="#263238"/>
<path opacity="0.3" d="M277.102 127.503C277.102 127.503 271.902 129.343 275.332 134.643C278.762 139.943 271.842 143.523 283.482 144.993C295.132 146.453 283.892 125.383 283.892 125.383L277.092 127.513L277.102 127.503Z" fill="black"/>
<path d="M321.892 160.702C320.152 149.382 313.562 149.582 307.132 152.112C307.582 156.382 307.592 161.822 301.432 165.202C295.882 168.252 293.712 163.242 293.592 158.982C287.782 162.292 282.912 166.542 284.502 174.942C285.412 179.752 289.652 185.022 293.992 191.712C299.182 199.702 304.522 208.792 304.522 208.792L334.182 193.692C334.182 193.692 323.772 172.992 321.882 160.712L321.892 160.702Z" fill="#62A61E"/>
<path opacity="0.2" d="M321.892 160.702C321.632 159.032 321.272 157.622 320.822 156.422L316.332 155.662L313.992 159.392C313.992 159.392 318.942 168.112 325.522 173.622C323.872 169.082 322.482 164.502 321.902 160.712L321.892 160.702Z" fill="black"/>
<path d="M329.822 157.103C329.822 157.103 340.002 164.063 343.102 166.753C347.732 170.743 360.212 184.223 360.212 184.223L367.852 188.413V193.243L364.242 195.743C363.132 196.513 361.602 196.223 360.842 195.093L356.212 188.163C356.212 188.163 344.772 177.703 340.562 174.723C337.002 172.203 325.462 166.013 325.462 166.013L329.832 157.093L329.822 157.103Z" fill="#FFC3BD"/>
<path d="M311.032 151.053C311.032 151.053 317.582 148.103 323.182 151.053C328.782 154.003 331.232 155.633 330.692 159.193C330.142 162.743 328.102 170.113 324.412 168.883C320.722 167.653 308.992 156.023 311.032 151.053Z" fill="#62A61E"/>
<path d="M300.072 131.782C300.832 139.442 301.322 142.672 298.112 147.182C293.292 153.972 283.722 153.232 280.682 145.952C277.952 139.402 277.172 127.972 284.102 123.752C289.042 120.712 295.512 122.252 298.552 127.192C299.412 128.582 299.932 130.152 300.072 131.782Z" fill="#FFC3BD"/>
<path d="M283.962 137.642C283.642 139.142 283.112 140.592 282.402 141.942C283.112 142.302 283.942 142.322 284.672 142.012L283.972 137.642H283.962Z" fill="#ED893E"/>
<path d="M289.082 132.522C289.082 132.522 289.162 132.452 289.192 132.412C289.272 132.262 289.222 132.082 289.082 131.992C288.082 131.392 286.862 131.312 285.802 131.782C285.652 131.862 285.602 132.042 285.672 132.192C285.752 132.342 285.932 132.402 286.072 132.322C286.952 131.952 287.962 132.022 288.792 132.522C288.882 132.572 289.002 132.572 289.092 132.522H289.082Z" fill="#263238"/>
<path d="M277.632 134.452C277.632 134.452 277.722 134.402 277.762 134.362C278.362 133.622 279.282 133.212 280.232 133.252C280.402 133.272 280.552 133.162 280.572 132.992C280.592 132.822 280.472 132.672 280.302 132.652C279.142 132.582 278.022 133.072 277.282 133.972C277.172 134.092 277.172 134.292 277.302 134.402C277.392 134.482 277.512 134.502 277.622 134.462L277.632 134.452Z" fill="#263238"/>
<path d="M288.162 135.922C288.262 136.532 288.012 137.092 287.602 137.162C287.192 137.232 286.792 136.782 286.702 136.162C286.602 135.542 286.852 134.992 287.252 134.932C287.652 134.862 288.062 135.312 288.162 135.932V135.922Z" fill="#263238"/>
<path d="M281.171 137.042C281.271 137.652 281.022 138.212 280.622 138.272C280.222 138.342 279.812 137.892 279.712 137.272C279.612 136.652 279.861 136.102 280.261 136.042C280.661 135.972 281.081 136.422 281.171 137.042Z" fill="#263238"/>
<path d="M280.442 136.052L278.892 135.862C278.892 135.862 279.842 136.892 280.442 136.052Z" fill="#263238"/>
<path d="M287.432 134.922L285.882 134.732C285.882 134.732 286.832 135.762 287.432 134.922Z" fill="#263238"/>
<path d="M289.652 144.852C290.032 144.662 290.392 144.442 290.732 144.182C290.832 144.112 290.852 143.972 290.782 143.872C290.712 143.772 290.572 143.752 290.472 143.822C288.962 144.992 286.992 145.372 285.152 144.852C285.032 144.812 284.902 144.862 284.862 144.982C284.822 145.102 284.872 145.232 284.992 145.272C286.542 145.742 288.212 145.592 289.652 144.852Z" fill="#263238"/>
<path d="M283.532 127.582C280.552 127.932 272.532 130.222 273.802 122.762C275.072 115.302 289.362 111.572 296.002 116.392C302.642 121.212 307.742 120.852 313.022 116.942C318.302 113.032 320.852 114.572 327.582 118.212C327.582 118.212 323.942 124.492 325.672 128.312C325.672 128.312 321.672 124.312 314.212 128.582C314.212 128.582 322.852 126.282 326.132 132.252C326.132 132.252 325.222 138.842 328.402 142.762C331.582 146.682 328.312 151.322 316.122 146.592C303.932 141.862 302.632 146.202 299.822 144.112C297.012 142.022 294.902 136.362 294.462 132.252C294.152 129.302 292.832 126.472 283.532 127.572V127.582Z" fill="#263238"/>
<path d="M301.122 137.052C300.932 138.532 300.152 139.872 298.972 140.772C297.392 141.962 295.892 140.732 295.722 138.862C295.572 137.192 296.212 134.552 298.092 134.092C299.462 133.802 300.812 134.682 301.112 136.052C301.182 136.382 301.182 136.722 301.122 137.052Z" fill="#FFC3BD"/>
<path d="M341.292 348.962C341.562 355.352 341.742 360.422 341.742 360.422L334.642 361.232C334.642 361.232 333.962 356.912 332.942 350.282L341.292 348.962Z" fill="#FFC3BD"/>
<path d="M331.502 359.693C330.622 359.753 329.702 359.643 329.382 359.283C329.212 359.073 329.202 358.773 329.352 358.553C329.462 358.353 329.642 358.192 329.852 358.122C331.012 357.722 333.582 358.973 333.692 359.033C333.752 359.063 333.792 359.133 333.782 359.203C333.782 359.273 333.722 359.333 333.652 359.353C332.942 359.533 332.222 359.643 331.492 359.693H331.502ZM330.282 358.383C330.172 358.383 330.062 358.413 329.962 358.443C329.822 358.473 329.712 358.573 329.652 358.703C329.542 358.923 329.592 359.023 329.652 359.073C330.012 359.513 331.802 359.413 333.112 359.163C332.232 358.733 331.272 358.463 330.292 358.383H330.282Z" fill="#407BFF"/>
<path d="M333.632 359.353C333.632 359.353 333.582 359.353 333.562 359.353C332.692 359.033 330.882 357.603 330.982 356.793C330.982 356.603 331.112 356.353 331.572 356.283C331.912 356.223 332.252 356.303 332.522 356.513C333.472 357.193 333.782 359.103 333.802 359.183C333.802 359.243 333.782 359.303 333.732 359.343C333.692 359.363 333.652 359.363 333.622 359.353H333.632ZM331.712 356.593H331.612C331.312 356.633 331.302 356.763 331.292 356.803C331.282 357.283 332.472 358.423 333.382 358.883C333.242 358.083 332.872 357.343 332.302 356.773C332.132 356.643 331.922 356.583 331.712 356.603V356.593Z" fill="#407BFF"/>
<path d="M334.322 358.312L342.062 357.822C342.352 357.802 342.622 357.992 342.702 358.272L344.502 364.482C344.662 365.032 344.352 365.612 343.802 365.772C343.732 365.792 343.662 365.802 343.582 365.812C340.792 365.942 338.292 365.952 334.822 366.172C330.722 366.432 331.792 366.862 326.972 367.232C324.072 367.452 323.322 364.192 324.552 363.942C330.142 362.872 330.622 361.132 332.672 358.972C333.122 358.552 333.702 358.312 334.322 358.302V358.312Z" fill="#263238"/>
<path d="M336.972 198.143L335.622 193.293C335.452 192.703 334.792 192.403 334.242 192.683L303.982 207.943C303.452 208.213 303.282 208.883 303.622 209.373L306.692 213.833C306.692 213.833 314.202 264.993 317.312 282.003C320.492 299.343 331.872 351.193 331.872 351.193C331.952 351.573 332.312 351.833 332.702 351.773L341.512 350.343C341.852 350.283 342.112 349.993 342.122 349.643C342.222 345.223 342.152 317.283 339.342 297.513C338.332 290.453 335.962 284.793 335.152 280.903C334.262 276.613 335.642 273.733 336.182 263.393C337.202 243.933 338.432 213.253 336.972 198.133V198.143Z" fill="#263238"/>
<path opacity="0.5" d="M336.182 263.393C336.522 256.883 336.892 249.123 337.172 241.103L328.402 226.303L324.482 217.562L320.782 222.592C320.782 222.592 327.322 250.103 335.912 267.393C336.012 266.193 336.112 264.873 336.192 263.393H336.182Z" fill="black"/>
<path d="M402.772 324.502C406.462 329.732 408.852 333.172 408.852 333.172L403.322 337.692C403.322 337.692 400.412 334.422 395.962 329.412L402.772 324.502Z" fill="#FFC3BD"/>
<path d="M399.432 338.043C398.722 338.563 397.892 338.983 397.432 338.853C397.182 338.763 397.012 338.523 397.012 338.253C396.992 338.023 397.062 337.802 397.202 337.622C397.962 336.652 400.802 336.322 400.922 336.312C400.992 336.312 401.062 336.342 401.092 336.402C401.122 336.462 401.112 336.542 401.062 336.592C400.562 337.122 400.012 337.613 399.432 338.043ZM397.702 337.603C397.612 337.663 397.532 337.743 397.472 337.823C397.372 337.923 397.322 338.062 397.342 338.212C397.362 338.452 397.462 338.513 397.532 338.533C398.072 338.713 399.522 337.653 400.492 336.733C399.512 336.843 398.572 337.143 397.702 337.603Z" fill="#407BFF"/>
<path d="M401.042 336.602C401.042 336.602 401.002 336.632 400.982 336.642C400.072 336.842 397.782 336.622 397.432 335.882C397.332 335.712 397.312 335.442 397.652 335.132C397.902 334.902 398.242 334.782 398.582 334.812C399.752 334.872 401.042 336.302 401.102 336.372C401.142 336.422 401.152 336.482 401.132 336.542C401.112 336.582 401.082 336.602 401.042 336.612V336.602ZM397.932 335.322L397.852 335.372C397.622 335.572 397.682 335.682 397.692 335.722C397.942 336.132 399.562 336.442 400.582 336.342C400.032 335.742 399.322 335.322 398.532 335.152C398.322 335.132 398.112 335.202 397.942 335.332L397.932 335.322Z" fill="#407BFF"/>
<path d="M401.052 335.353L407.292 330.742C407.532 330.572 407.852 330.582 408.072 330.772L412.952 335.022C413.392 335.392 413.442 336.053 413.062 336.483C413.012 336.543 412.962 336.593 412.902 336.633C410.622 338.253 408.532 339.612 405.732 341.682C402.422 344.122 403.552 343.903 399.712 346.823C397.392 348.583 395.002 346.232 395.892 345.372C400.012 341.442 399.472 339.723 400.032 336.803C400.182 336.213 400.542 335.693 401.052 335.353Z" fill="#263238"/>
<path d="M314.812 210.472C314.812 210.472 337.982 263.892 348.932 279.812C358.652 293.942 395.592 330.132 395.592 330.132C396.162 330.742 397.112 330.802 397.742 330.262L402.872 325.902C403.452 325.402 403.592 324.552 403.192 323.902C400.052 318.772 386.782 297.442 375.152 283.572C370.512 278.032 366.042 273.982 363.852 270.932C360.962 266.902 361.632 263.672 359.342 252.482C355.082 231.682 346.792 201.082 334.182 196.182L314.802 210.492L314.812 210.472Z" fill="#263238"/>
<path opacity="0.3" d="M270.082 361.392H175.692C169.162 361.392 164.332 356.092 164.902 349.562L185.642 112.522C186.212 105.992 191.972 100.692 198.502 100.692H292.892C299.422 100.692 304.252 105.992 303.682 112.522L282.942 349.562C282.372 356.092 276.612 361.392 270.082 361.392Z" fill="white"/>
<path d="M292.892 100.702H198.502C191.972 100.702 186.212 106.002 185.642 112.532L164.902 349.572C164.332 356.102 169.162 361.402 175.692 361.402H270.082C276.612 361.402 282.372 356.102 282.942 349.572L303.682 112.532C304.252 106.002 299.422 100.702 292.892 100.702ZM277.692 349.572C277.372 353.202 274.162 356.152 270.542 356.152H176.152C172.522 356.152 169.832 353.202 170.152 349.572L190.892 112.532C191.212 108.902 194.422 105.952 198.042 105.952H292.432C296.062 105.952 298.752 108.902 298.432 112.532L277.692 349.572Z" fill="#0A0B0C"/>
<path opacity="0.6" d="M292.892 100.702H198.502C191.972 100.702 186.212 106.002 185.642 112.532L164.902 349.572C164.332 356.102 169.162 361.402 175.692 361.402H270.082C276.612 361.402 282.372 356.102 282.942 349.572L303.682 112.532C304.252 106.002 299.422 100.702 292.892 100.702ZM277.692 349.572C277.372 353.202 274.162 356.152 270.542 356.152H176.152C172.522 356.152 169.832 353.202 170.152 349.572L190.892 112.532C191.212 108.902 194.422 105.952 198.042 105.952H292.432C296.062 105.952 298.752 108.902 298.432 112.532L277.692 349.572Z" fill="white"/>
<path d="M237.062 346.752H211.102C210.302 346.752 209.592 347.402 209.522 348.212C209.452 349.012 210.042 349.672 210.852 349.672H236.812C237.612 349.672 238.322 349.022 238.392 348.212C238.462 347.412 237.872 346.752 237.062 346.752Z" fill="#353535"/>
<path opacity="0.1" d="M236.422 210.942H208.892C205.082 210.942 202.262 207.852 202.592 204.042L205.002 176.512C205.332 172.702 208.692 169.612 212.512 169.612H240.042C243.852 169.612 246.672 172.702 246.342 176.512L243.932 204.042C243.602 207.852 240.242 210.942 236.422 210.942Z" fill="black"/>
<path d="M233.422 207.942H205.892C202.082 207.942 199.262 204.852 199.592 201.042L202.002 173.512C202.332 169.702 205.692 166.612 209.512 166.612H237.042C240.852 166.612 243.672 169.702 243.342 173.512L240.932 201.042C240.602 204.852 237.242 207.942 233.422 207.942Z" fill="#FA5D82"/>
<path d="M226.092 184.772C226.562 179.442 222.042 175.112 215.992 175.112C209.942 175.112 204.672 179.432 204.202 184.772C203.832 188.992 206.582 192.562 210.742 193.882C210.062 195.112 209.102 196.032 208.122 196.472C208.322 196.582 208.532 196.702 208.752 196.782C210.952 197.582 213.502 196.522 214.732 194.412C220.592 194.212 225.632 189.982 226.092 184.772Z" fill="white"/>
<path d="M238.762 189.402C239.152 185.002 235.412 181.432 230.422 181.432C229.532 181.432 228.662 181.552 227.822 181.762C228.022 182.722 228.102 183.732 228.012 184.772C227.682 188.592 225.352 191.962 222.002 194.072C223.362 195.922 225.652 197.172 228.382 197.342C228.992 198.992 230.802 199.842 232.612 199.232C232.792 199.172 232.962 199.082 233.132 199.002C232.462 198.672 231.882 197.982 231.522 197.072C235.392 196.122 238.432 193.052 238.752 189.412L238.762 189.402Z" fill="white"/>
<path opacity="0.1" d="M223.802 296.162H203.332C200.492 296.162 198.402 293.862 198.642 291.032L200.432 270.562C200.682 267.722 203.182 265.432 206.012 265.432H226.482C229.322 265.432 231.412 267.732 231.172 270.562L229.382 291.032C229.132 293.872 226.632 296.162 223.802 296.162Z" fill="black"/>
<path opacity="0.1" d="M253.843 256.322H228.252C224.712 256.322 222.082 253.452 222.392 249.902L224.633 224.312C224.943 220.772 228.072 217.892 231.612 217.892H257.202C260.742 217.892 263.373 220.762 263.063 224.312L260.822 249.902C260.512 253.442 257.383 256.322 253.843 256.322Z" fill="black"/>
<path d="M250.843 253.322H225.252C221.712 253.322 219.082 250.452 219.392 246.902L221.633 221.312C221.943 217.772 225.072 214.892 228.612 214.892H254.202C257.742 214.892 260.373 217.762 260.063 221.312L257.822 246.902C257.512 250.442 254.383 253.322 250.843 253.322Z" fill="#FA5D82"/>
<path d="M220.802 293.162H200.332C197.492 293.162 195.402 290.862 195.642 288.032L197.432 267.562C197.682 264.722 200.182 262.432 203.012 262.432H223.482C226.322 262.432 228.412 264.732 228.172 267.562L226.382 288.032C226.132 290.872 223.632 293.162 220.802 293.162Z" fill="#FA5D82"/>
<path d="M252.522 223.552H228.782C227.282 223.552 225.952 224.772 225.822 226.272L224.452 241.932C224.322 243.432 225.432 244.652 226.932 244.652H250.672C252.172 244.652 253.502 243.432 253.632 241.932L255.002 226.272C255.132 224.772 254.022 223.552 252.522 223.552ZM234.332 234.092L226.382 241.402L227.662 226.782L234.332 234.092ZM229.112 225.442H251.842L240.352 236.012C239.872 236.452 239.162 236.452 238.762 236.012L229.112 225.442ZM235.552 235.422L237.302 237.342C237.842 237.932 238.582 238.222 239.362 238.222C240.142 238.222 240.932 237.932 241.572 237.342L243.662 235.422L250.362 242.762H227.572L235.552 235.422ZM245.112 234.082L253.062 226.772L251.782 241.392L245.112 234.082Z" fill="white"/>
<path d="M202.522 272.272L208.522 274.722L215.122 270.192L210.162 276.072L213.802 281.212L219.572 266.892L202.522 272.272Z" fill="white"/>
<path d="M208.113 276.082L210.813 279.382H207.933L208.113 276.082Z" fill="white"/>
<path d="M205.722 280.392L205.092 279.982C205.422 279.472 205.692 279.152 205.712 279.132L206.282 279.622C206.282 279.622 206.022 279.922 205.732 280.392H205.722Z" fill="white"/>
<path d="M205.422 285.322C204.752 284.922 204.312 284.382 204.132 283.722L204.852 283.522C204.982 284.002 205.302 284.372 205.802 284.682L205.422 285.322ZM204.792 282.742L204.042 282.682C204.092 282.112 204.282 281.482 204.612 280.812L205.282 281.142C204.992 281.722 204.822 282.262 204.782 282.742H204.792Z" fill="white"/>
<path d="M220.543 287.932L219.803 287.802C219.833 287.602 219.853 287.422 219.853 287.262C219.853 286.882 219.763 286.592 219.583 286.372L220.163 285.892C220.453 286.252 220.603 286.712 220.603 287.262C220.603 287.472 220.583 287.692 220.543 287.932ZM209.913 286.202C209.653 286.202 209.383 286.202 209.133 286.182L209.163 285.432C209.753 285.462 210.353 285.452 210.953 285.432L210.983 286.182C210.623 286.202 210.263 286.202 209.913 286.202ZM211.903 286.122L211.853 285.372C212.463 285.332 213.073 285.272 213.663 285.212L213.733 285.962C213.133 286.022 212.523 286.082 211.903 286.122ZM208.193 286.122C208.093 286.112 207.983 286.102 207.883 286.082C207.303 286.002 206.783 285.882 206.333 285.732L206.573 285.022C206.983 285.162 207.453 285.272 207.983 285.342L208.273 285.382L208.193 286.132V286.122ZM218.993 285.972C218.593 285.812 218.053 285.732 217.333 285.722V284.972C218.153 284.982 218.783 285.082 219.273 285.272L219.003 285.972H218.993ZM214.643 285.882L214.573 285.132C215.213 285.072 215.833 285.022 216.413 284.992L216.453 285.742C215.893 285.772 215.283 285.822 214.653 285.882H214.643Z" fill="white"/>
<path d="M219.922 289.862L219.232 289.562C219.372 289.242 219.492 288.942 219.582 288.662L220.292 288.902C220.192 289.202 220.072 289.522 219.912 289.872L219.922 289.862Z" fill="white"/>
<path opacity="0.1" d="M247.672 164.032H224.642C221.452 164.032 219.092 161.442 219.372 158.252L221.392 135.222C221.672 132.032 224.482 129.442 227.672 129.442H250.702C253.892 129.442 256.252 132.032 255.972 135.222L253.952 158.252C253.672 161.442 250.862 164.032 247.672 164.032Z" fill="black"/>
<path d="M244.672 161.032H221.642C218.452 161.032 216.092 158.442 216.372 155.252L218.392 132.222C218.672 129.032 221.482 126.442 224.672 126.442H247.702C250.892 126.442 253.252 129.032 252.972 132.222L250.952 155.252C250.672 158.442 247.862 161.032 244.672 161.032Z" fill="#FA5D82"/>
<path d="M245.902 148.422C245.482 139.952 239.362 133.242 230.992 132.082C228.752 130.872 225.772 131.502 223.982 133.702C222.002 136.132 223.752 137.672 226.022 139.442C228.292 141.202 230.232 142.522 232.212 140.092C232.982 139.142 233.402 138.042 233.512 136.962C237.262 138.502 240.092 141.592 241.282 145.482C240.192 145.492 239.062 145.822 238.062 146.512C235.482 148.272 236.612 150.332 238.162 152.752C239.712 155.182 241.092 157.062 243.672 155.302C246.012 153.702 246.892 150.772 245.892 148.432L245.902 148.422Z" fill="white"/>
<path d="M236.292 96.7222H251.972C252.742 96.7222 252.852 95.5222 252.082 95.5222H236.402C235.632 95.5222 235.522 96.7222 236.302 96.7222H236.292Z" fill="#407BFF"/>
<path d="M257.722 96.7222H262.232C263.002 96.7222 263.112 95.5222 262.342 95.5222H257.832C257.062 95.5222 256.952 96.7222 257.732 96.7222H257.722Z" fill="#407BFF"/>
<g opacity="0.3">
<path d="M236.292 96.7222H251.972C252.742 96.7222 252.852 95.5222 252.082 95.5222H236.402C235.632 95.5222 235.522 96.7222 236.302 96.7222H236.292Z" fill="white"/>
</g>
<g opacity="0.3">
<path d="M257.722 96.7222H262.232C263.002 96.7222 263.112 95.5222 262.342 95.5222H257.832C257.062 95.5222 256.952 96.7222 257.732 96.7222H257.722Z" fill="white"/>
</g>
<path d="M287.972 218.032C287.512 223.262 287.062 228.482 286.602 233.712C286.532 234.482 287.722 234.592 287.792 233.812C288.252 228.582 288.702 223.362 289.162 218.132C289.232 217.362 288.042 217.252 287.972 218.022V218.032Z" fill="#407BFF"/>
<path d="M286.092 239.452C285.962 240.952 285.832 242.452 285.702 243.962C285.632 244.732 286.822 244.842 286.892 244.062C287.022 242.562 287.152 241.062 287.282 239.552C287.352 238.782 286.162 238.672 286.092 239.452Z" fill="#407BFF"/>
<g opacity="0.3">
<path d="M287.972 218.032C287.512 223.262 287.062 228.482 286.602 233.712C286.532 234.482 287.722 234.592 287.792 233.812C288.252 228.582 288.702 223.362 289.162 218.132C289.232 217.362 288.042 217.252 287.972 218.022V218.032Z" fill="white"/>
</g>
<g opacity="0.3">
<path d="M286.092 239.452C285.962 240.952 285.832 242.452 285.702 243.962C285.632 244.732 286.822 244.842 286.892 244.062C287.022 242.562 287.152 241.062 287.282 239.552C287.352 238.782 286.162 238.672 286.092 239.452Z" fill="white"/>
</g>
<path d="M149.122 148.252C149.122 148.252 143.322 147.452 144.022 150.472C144.532 152.682 146.482 148.342 149.122 148.252Z" fill="#263238"/>
<path d="M144.082 155.112C144.082 155.112 148.862 155.072 149.602 146.352C149.602 146.352 154.162 144.762 156.752 147.602C159.342 150.442 153.392 155.952 156.672 158.802C156.672 158.802 153.392 160.592 144.082 155.112Z" fill="#FF8B7B"/>
<path d="M161.772 124.342C161.772 124.342 167.932 123.022 169.532 127.552C171.132 132.082 160.412 130.092 160.412 130.092L161.772 124.342Z" fill="#263238"/>
<path opacity="0.3" d="M161.772 124.342C161.772 124.342 167.932 123.022 169.532 127.552C171.132 132.082 160.412 130.092 160.412 130.092L161.772 124.342Z" fill="black"/>
<path d="M166.812 135.632C166.912 135.052 167.292 134.632 167.672 134.702C168.052 134.762 168.282 135.292 168.182 135.862C168.082 136.442 167.702 136.862 167.322 136.792C166.942 136.722 166.712 136.202 166.812 135.632Z" fill="#263238"/>
<path d="M167.112 136.722L169.812 141.072C169.812 141.072 168.362 142.112 166.372 141.372L167.122 136.722H167.112Z" fill="#FF5652"/>
<path d="M146.742 132.832C146.402 140.242 146.102 143.372 149.412 147.552C154.682 152.002 163.582 152.632 166.122 145.462C168.412 139.012 168.572 128.012 161.682 124.272C156.762 121.602 150.622 123.432 147.952 128.342C147.202 129.722 146.782 131.262 146.732 132.832H146.742Z" fill="#FF8B7B"/>
<path d="M165.882 133.802C165.992 133.842 166.112 133.822 166.202 133.762C166.892 133.232 167.802 133.062 168.642 133.322C168.822 133.392 169.012 133.302 169.082 133.122C169.152 132.942 169.062 132.752 168.892 132.672C167.842 132.332 166.692 132.532 165.802 133.192C165.642 133.292 165.602 133.502 165.702 133.652C165.702 133.652 165.702 133.652 165.702 133.662C165.742 133.722 165.802 133.772 165.872 133.792L165.882 133.802Z" fill="#263238"/>
<path d="M140.722 156.612C140.722 156.612 142.782 150.922 151.312 154.552C159.842 158.172 160.642 163.182 160.642 163.182L140.712 156.622L140.722 156.612Z" fill="#263238"/>
<path opacity="0.4" d="M140.722 156.612C140.722 156.612 142.782 150.922 151.312 154.552C159.842 158.172 160.642 163.182 160.642 163.182L140.712 156.622L140.722 156.612Z" fill="black"/>
<path d="M144.552 264.452C144.552 264.452 143.332 274.822 142.752 278.252C142.242 281.292 125.772 359.952 125.772 359.952L118.262 358.712C118.262 358.712 117.432 318.842 123.212 292.452C124.392 287.052 126.782 282.522 127.652 278.402C128.352 275.082 127.292 264.852 127.292 264.852L144.552 264.452Z" fill="#FF8B7B"/>
<path d="M113.272 262.762C113.272 262.762 109.782 272.262 108.152 275.202C106.382 278.402 99.6622 287.112 99.6622 287.112L63.8622 337.332L57.0122 333.002C57.0122 333.002 67.3422 305.352 82.9022 282.822C86.6122 277.452 91.9522 273.362 94.8522 268.032C96.5222 264.962 97.9522 254.402 97.9522 254.402L113.282 262.752L113.272 262.762Z" fill="#FF8B7B"/>
<path d="M122.872 166.602C122.872 166.602 114.302 177.532 115.032 182.122C115.762 186.712 129.192 192.302 129.192 192.302L132.602 187.452L123.782 181.012L132.182 171.382L122.882 166.602H122.872Z" fill="#FF8B7B"/>
<path d="M137.042 155.662C135.962 155.162 131.222 153.252 120.972 166.582C120.972 166.582 124.702 171.232 132.702 174.002C132.702 174.002 141.702 157.842 137.052 155.672L137.042 155.662Z" fill="#263238"/>
<path opacity="0.4" d="M132.692 173.992C132.692 173.992 134.182 171.312 135.642 167.982C135.402 162.272 134.702 155.182 132.692 157.732C130.032 161.112 126.352 167.922 125.152 170.202C127.012 171.492 129.512 172.882 132.692 173.992Z" fill="black"/>
<path d="M124.622 199.912C124.622 199.912 138.382 208.052 156.512 209.092L144.952 273.502C144.952 273.502 111.612 273.402 94.1821 256.832C94.1821 256.832 101.132 221.732 124.622 199.912Z" fill="#407BFF"/>
<path d="M123.212 200.102C123.212 200.102 136.562 209.942 157.832 209.272C157.832 209.272 170.042 175.492 162.392 164.072C157.662 157.012 139.502 153.812 134.612 155.822C128.722 158.242 132.132 179.422 123.222 200.102H123.212Z" fill="#263238"/>
<path opacity="0.1" d="M126.412 234.802L111.562 267.272C117.622 269.652 123.982 270.882 127.562 271.662C127.562 271.662 128.062 241.332 126.412 234.802Z" fill="black"/>
<path opacity="0.4" d="M156.782 169.582L154.422 171.322C154.422 171.322 156.462 179.862 163.222 189.712C164.182 184.932 164.882 179.902 164.892 175.382L159.632 170.922L156.782 169.582Z" fill="black"/>
<path d="M170.162 174.472L178.162 185.622L198.262 186.952L201.952 183.882C202.202 183.672 202.502 183.552 202.832 183.522L213.562 182.672C213.892 182.642 214.172 182.922 214.142 183.252L214.082 184.162C214.062 184.432 213.852 184.642 213.582 184.662L208.492 185.062L207.452 190.282C207.332 190.882 206.882 191.352 206.292 191.502L202.312 192.522C202.052 192.592 201.782 192.592 201.532 192.522L198.712 191.802C198.712 191.802 183.042 194.972 175.852 193.702C168.662 192.432 161.572 180.732 161.572 180.732L170.142 174.462L170.162 174.472Z" fill="#FF8B7B"/>
<path d="M160.902 182.932C160.902 182.932 148.022 165.712 155.972 161.702C163.922 157.702 172.282 175.402 172.282 175.402C172.282 175.402 169.012 180.402 160.912 182.922L160.902 182.932Z" fill="#263238"/>
<path d="M127.402 359.502C127.322 359.482 127.262 359.412 127.252 359.332C127.242 359.252 127.282 359.172 127.352 359.132C127.482 359.062 130.432 357.522 131.802 357.952C132.062 358.032 132.272 358.202 132.402 358.432C132.582 358.692 132.572 359.032 132.382 359.282C132.022 359.712 130.952 359.862 129.922 359.822C129.072 359.782 128.232 359.672 127.402 359.492V359.502ZM128.052 359.262C129.582 359.512 131.672 359.572 132.082 359.052C132.142 358.992 132.192 358.872 132.062 358.622C131.992 358.472 131.852 358.372 131.692 358.332C131.572 358.292 131.442 358.272 131.322 358.272C130.182 358.392 129.082 358.732 128.062 359.262H128.052Z" fill="#407BFF"/>
<path d="M127.302 359.482C127.242 359.442 127.212 359.372 127.222 359.302C127.232 359.202 127.542 356.972 128.632 356.142C128.942 355.902 129.342 355.792 129.732 355.852C130.272 355.922 130.432 356.202 130.442 356.432C130.582 357.372 128.522 359.092 127.522 359.492C127.492 359.502 127.462 359.502 127.442 359.492C127.402 359.502 127.352 359.492 127.312 359.482H127.302ZM129.582 356.222C129.332 356.212 129.092 356.292 128.892 356.442C128.252 357.132 127.832 358.002 127.702 358.942C128.752 358.372 130.112 357.022 130.082 356.452C130.072 356.402 130.052 356.262 129.702 356.212H129.592L129.582 356.222Z" fill="#407BFF"/>
<path d="M126.602 358.312L117.562 357.972C117.222 357.962 116.922 358.182 116.832 358.512L114.922 365.802C114.752 366.452 115.132 367.112 115.772 367.282C115.852 367.302 115.942 367.322 116.022 367.322C119.282 367.392 122.182 367.322 126.242 367.472C131.032 367.652 129.792 368.182 135.422 368.472C138.812 368.642 139.572 364.812 138.142 364.572C131.592 363.502 130.982 361.482 128.532 359.032C127.992 358.562 127.302 358.302 126.592 358.302L126.602 358.312Z" fill="#263238"/>
<path d="M64.9819 337.832C64.9219 337.782 64.8919 337.692 64.9219 337.612C64.9519 337.532 65.0219 337.482 65.1019 337.482C65.2519 337.482 68.5819 337.432 69.6019 338.432C69.7919 338.612 69.9119 338.862 69.9219 339.132C69.9619 339.442 69.8019 339.742 69.5219 339.882C69.0119 340.102 67.9819 339.752 67.0819 339.252C66.3419 338.832 65.6319 338.362 64.9819 337.822V337.832ZM65.6619 337.912C66.9219 338.822 68.7519 339.822 69.3519 339.542C69.4319 339.512 69.5319 339.432 69.5219 339.152C69.5219 338.982 69.4519 338.832 69.3219 338.722C69.2319 338.632 69.1319 338.562 69.0119 338.502C67.9419 338.102 66.8019 337.902 65.6619 337.922V337.912Z" fill="#407BFF"/>
<path d="M64.9019 337.772C64.8719 337.712 64.8719 337.632 64.9019 337.572C64.9619 337.482 66.2419 335.642 67.5819 335.392C67.9719 335.312 68.3719 335.392 68.7019 335.632C69.1519 335.942 69.1619 336.262 69.0719 336.472C68.7719 337.372 66.1619 337.982 65.0819 337.892C65.0519 337.892 65.0219 337.882 65.0019 337.862C64.9519 337.862 64.9119 337.832 64.8919 337.792L64.9019 337.772ZM68.4119 335.892C68.1919 335.772 67.9419 335.732 67.7019 335.782C66.8119 336.112 66.0519 336.702 65.5119 337.472C66.7019 337.442 68.5319 336.842 68.7519 336.322C68.7619 336.272 68.8119 336.132 68.5219 335.942L68.4219 335.892H68.4119Z" fill="#407BFF"/>
<path d="M64.8021 336.402L56.8821 332.022C56.5821 331.852 56.2121 331.922 55.9821 332.172L50.9921 337.822C50.5421 338.322 50.5921 339.082 51.0821 339.532C51.1421 339.592 51.2121 339.642 51.2921 339.682C54.1721 341.212 56.8021 342.452 60.3521 344.422C64.5421 346.742 63.2021 346.652 68.0921 349.452C71.0421 351.132 73.4521 348.062 72.2821 347.192C66.9221 343.282 67.2821 341.212 66.2021 337.912C65.9421 337.252 65.4421 336.702 64.8021 336.382V336.402Z" fill="#263238"/>
<path d="M159.222 139.202C159.222 139.202 162.262 138.252 161.112 133.842C161.112 133.842 162.882 130.882 162.602 129.252C162.602 129.252 171.582 124.072 166.472 118.372C161.362 112.682 152.002 116.492 147.872 123.762C147.872 123.762 125.922 130.892 141.202 144.322C156.122 157.432 159.232 139.202 159.232 139.202H159.222Z" fill="#263238"/>
<path d="M150.212 126.812C150.212 126.812 146.792 119.282 151.932 113.592C157.072 107.902 148.522 121.602 150.212 126.812Z" fill="#263238"/>
<path d="M159.222 139.202C159.222 139.202 159.322 139.172 159.462 139.102C159.422 133.472 157.292 126.702 148.972 122.082C148.572 122.622 148.192 123.182 147.862 123.762C147.862 123.762 147.232 123.972 146.262 124.372C149.142 127.432 157.042 137.562 148.152 148.632C157.112 151.422 159.212 139.202 159.212 139.202H159.222Z" fill="#FBC400"/>
<path d="M159.622 136.562C160.642 137.682 161.182 139.162 161.112 140.672C161.002 142.682 159.042 143.062 157.482 141.982C156.062 141.002 154.432 138.792 155.312 137.022C156.192 135.252 158.352 135.222 159.622 136.572V136.562Z" fill="#FF8B7B"/>
<path d="M167.532 134.712L169.162 134.632C169.162 134.632 168.102 135.642 167.532 134.712Z" fill="#263238"/>
<path opacity="0.2" d="M152.702 149.632C153.112 150.482 154.182 152.272 156.312 153.602C156.642 152.662 157.012 151.722 157.222 150.832C155.702 150.702 154.162 150.302 152.702 149.632Z" fill="black"/>
</svg>
