<svg width="923" height="604" viewBox="0 0 923 604" fill="none" xmlns="http://www.w3.org/2000/svg">
<g opacity="0.45">
<path d="M18.1787 147.054C18.1787 147.054 18.3805 147.054 18.4093 147.054H123.133C139.607 147.054 144.694 146.521 161.139 147.011C161.327 136.864 158.502 127.308 153.645 122.177C149.652 117.969 142.792 115.677 137.2 117.147C130.109 119.021 125.295 123.777 120.697 127.294C119.068 113.313 113.303 100.587 107.091 97.8053C96.4114 93.0202 85.2415 100.601 80.2258 107.981C76.0893 114.049 73.8265 121.269 72.9906 128.562C66.2886 121.154 51.2849 115.49 45.8801 127.251C43.7614 131.863 43.9344 137.167 44.1506 142.254C35.3588 139.891 25.5437 141.735 18.1787 147.068V147.054Z" fill="#D2DEF9"/>
</g>
<g opacity="0.45">
<path d="M789.394 56.4838C787.376 48.2829 768.308 36.3059 758.118 43.5267C754.991 27.9032 752.065 18.1602 741.846 10.4637C731.628 2.7673 714.577 12.8274 711.839 33.899C709.1 25.2369 695.178 13.5625 683.993 23.4064C673.645 32.5153 672.607 47.7785 673.688 56.4694H789.394V56.4838Z" fill="#D2DEF9"/>
</g>
<g opacity="0.45">
<path d="M922.05 165.618C918.893 157.849 912.941 153.684 905.893 152.905C897.015 151.911 888.007 157.013 888.007 157.013C888.007 157.013 891.351 144.186 886.81 134.097C883.726 127.207 878.797 120.736 871.965 119.035C864.889 117.277 857.38 120.722 852.104 126.184C846.829 131.647 843.428 138.882 840.401 146.103C838.83 140.986 836.755 135.25 832.128 133.347C827.343 131.373 821.809 134.774 819.301 139.646C816.793 144.517 816.663 150.398 817.009 155.975C811.46 152.646 804.384 151.666 798.82 154.995C795.26 157.128 792.724 161.308 792.19 165.632H922.05V165.618Z" fill="#D2DEF9"/>
</g>
<path d="M279.73 340.963C250.63 330.99 225.22 311.489 206.311 287.247C187.387 263.005 166.056 209.793 169.731 164.911C253.585 189.773 287.613 267.646 292.687 314.891" fill="#D2DEF9"/>
<path d="M169.717 164.897C169.717 164.897 183.524 272.95 280.45 332.619" stroke="white" stroke-width="1.5" stroke-miterlimit="10"/>
<path d="M169.717 164.897C169.717 164.897 226.921 267.386 289.617 329.722" stroke="white" stroke-width="1.5" stroke-miterlimit="10"/>
<path d="M169.717 164.897C169.717 164.897 254.161 231.96 293.537 323.755" stroke="white" stroke-width="1.5" stroke-miterlimit="10"/>
<path d="M280.018 519.452C246.854 531.789 210.318 532.193 176.275 523.156C142.246 514.119 85.7046 479.082 57.4844 433.206C138.484 405.634 235.612 443.093 273.345 484.645" fill="#D2DEF9"/>
<path d="M57.499 433.206C57.499 433.206 145.777 526.586 274.815 510.891" stroke="white" stroke-width="1.5" stroke-linejoin="round"/>
<path d="M57.499 433.206C57.499 433.206 180.887 488.551 281.027 501.205" stroke="white" stroke-width="1.5" stroke-linejoin="round"/>
<path d="M57.499 433.206C57.499 433.206 180.512 433.998 280.364 492.529" stroke="white" stroke-width="1.5" stroke-linejoin="round"/>
<path d="M311.106 292.09C283.044 271.234 263.054 241.155 252.244 208.077C241.435 175 240.08 109.278 262.953 61.2111C329.367 113.544 350.554 214.217 336.386 267.833" fill="#E9F1FF"/>
<path d="M262.939 61.2255C262.939 61.2255 232.989 184.628 315.401 283.183" stroke="white" stroke-width="1.5" stroke-linejoin="round"/>
<path d="M262.938 61.2255C262.938 61.2255 283.405 193.29 326.773 283.111" stroke="white" stroke-width="1.5" stroke-linejoin="round"/>
<path d="M262.938 61.2255C262.938 61.2255 328.43 163.643 333.604 277.893" stroke="white" stroke-width="1.5" stroke-linejoin="round"/>
<path d="M565.35 276.61C593.656 271.22 619.801 256.505 640.57 236.528C661.339 216.552 688.175 170.028 690.726 127.914C609.669 139.847 567.771 207.559 556.803 250.696" fill="#D2DEF9"/>
<path d="M690.739 127.914C690.739 127.914 663.6 226.295 565.795 268.77" stroke="white" stroke-width="1.5" stroke-linejoin="round"/>
<path d="M690.74 127.914C690.74 127.914 624.095 215.37 557.681 264.878" stroke="white" stroke-width="1.5" stroke-linejoin="round"/>
<path d="M690.74 127.914C690.74 127.914 603.528 178.906 554.842 258.811" stroke="white" stroke-width="1.5" stroke-linejoin="round"/>
<path d="M644.575 505.255C685.983 513.125 729.467 507.114 768.439 491.087C807.411 475.06 868.896 426.158 894.969 370.222C778.268 342.953 684.917 412.61 646.838 465.404" fill="#D2DEF9"/>
<path d="M894.983 370.222C894.983 370.222 805.263 489.516 649.374 494.82" stroke="white" stroke-width="1.5" stroke-linejoin="round"/>
<path d="M894.984 370.222C894.984 370.222 772.172 452.274 646.392 475.392" stroke="white" stroke-width="1.5" stroke-linejoin="round"/>
<path d="M894.983 370.222C894.983 370.222 748.938 392.792 639.805 475.392" stroke="white" stroke-width="1.5" stroke-linejoin="round"/>
<path d="M528.77 265.585C564.412 250.249 593.685 222.894 613.834 189.946C633.983 157.013 652.259 86.3903 639.864 28.6526C554.77 68.1437 506.127 171.411 507.684 232.925" fill="#E9F1FF"/>
<path d="M639.864 28.6526C639.864 28.6526 640.613 169.552 526.406 254.847" stroke="white" stroke-width="1.5" stroke-linejoin="round"/>
<path d="M639.865 28.6526C639.865 28.6526 583.972 165.992 514.156 251.878" stroke="white" stroke-width="1.5" stroke-linejoin="round"/>
<path d="M639.863 28.6526C639.863 28.6526 542.937 122.466 508.102 244.484" stroke="white" stroke-width="1.5" stroke-linejoin="round"/>
<path d="M274.282 465.101C254.984 468.099 222.151 472.581 203.991 460.475C193.96 453.773 192.115 441.392 188.195 430.482C181.478 411.831 167.685 400.863 149.395 397.664C142.074 396.381 134.334 393.095 130.817 386.09C125.6 375.684 132.014 362.295 127.819 351.37C125.571 345.504 120.671 341.353 116.65 336.683C106.892 325.398 104.471 308.693 104.471 308.693C104.471 308.693 116.26 312.426 129.462 308.304C137.937 305.667 147.133 304.009 156.04 305.422C163.001 306.531 168.219 310.163 172.816 315.698C178.221 322.213 182.775 327.127 190.587 329.837C202.651 334.017 232.543 323.913 235.829 341.223C236.723 345.936 235.613 351.038 237.789 355.448C241.724 363.433 251.251 359.383 257.751 361.415C267.739 364.543 278.649 371.721 282.93 381.089C293.134 403.443 292.659 434.229 286.922 458.5" fill="#E9F1FF"/>
<path d="M105.682 309.01C138.226 344.192 187.489 357.394 219.226 393.412C228.753 404.221 236.363 416.746 245.342 428.074C254.321 439.389 265.13 449.78 278.347 454.248" stroke="white" stroke-width="1.5" stroke-linejoin="round"/>
<path d="M128.296 376.39C145.303 378.221 171.131 377.832 196.771 372.974C196.771 372.974 190.502 339.969 185.212 327.344" stroke="white" stroke-width="1.5" stroke-linejoin="round"/>
<path d="M128.856 365.393C147.564 366.748 163.26 365.638 185.081 364.745" stroke="white" stroke-width="1.5" stroke-linejoin="round"/>
<path d="M126.161 348.574C126.161 348.574 142.073 349.107 156.529 347.147" stroke="white" stroke-width="1.5" stroke-linejoin="round"/>
<path d="M110.495 327.271C110.61 327.502 115.597 328.093 127.041 327.92" stroke="white" stroke-width="1.5" stroke-linejoin="round"/>
<path d="M150.087 343.241C150.217 343.313 142.636 319.878 136.712 306.531" stroke="white" stroke-width="1.5" stroke-linejoin="round"/>
<path d="M180.643 361.877C180.527 361.805 173.134 324.735 165.841 309.241" stroke="white" stroke-width="1.5" stroke-linejoin="round"/>
<path d="M165.956 403.371C166.533 403.688 198.572 405.821 224.876 400.244" stroke="white" stroke-width="1.5" stroke-linejoin="round"/>
<path d="M216.89 390.832C216.89 390.832 213.618 351.197 208.502 330.947" stroke="white" stroke-width="1.5" stroke-linejoin="round"/>
<path d="M242.314 356.645C246.047 381.074 246.552 429.559 246.552 429.559C246.552 429.559 205.273 435.151 188.18 430.467" stroke="white" stroke-width="1.5" stroke-linejoin="round"/>
<path d="M264.209 446.783C264.209 446.783 265.679 391.884 262.45 363.159" stroke="white" stroke-width="1.5" stroke-linejoin="round"/>
<path d="M191.223 441.363C191.223 441.363 224.487 446.047 252.52 436.391" stroke="white" stroke-width="1.5" stroke-linejoin="round"/>
<path d="M271.04 451.149C271.04 451.149 280.61 407.825 273.591 369.775" stroke="white" stroke-width="1.5" stroke-linejoin="round"/>
<path d="M540.054 229.192C548.832 206.507 563.101 184.08 554.323 159.031C549.48 145.18 534.664 139.357 523.336 131.877C503.936 119.093 495.274 99.6213 496.701 76.6184C497.277 67.4231 495.677 57.2044 488.673 51.1943C478.252 42.2727 461.216 46.7407 449.931 38.9434C443.878 34.7493 440.505 27.7879 436.311 21.7345C426.164 7.09109 407.788 0 407.788 0C407.788 0 408.768 15.2343 400.409 30.2381C395.047 39.8658 390.608 50.6178 389.743 61.7877C389.066 70.5218 391.776 77.757 396.806 84.7184C402.729 92.9049 407.068 99.6357 407.976 109.797C409.388 125.478 389.57 159.261 408.393 167.549C413.51 169.797 419.635 169.725 424.06 173.458C432.074 180.218 424.81 190.782 425.329 199.17C426.121 212.07 431.281 227.102 440.765 234.626C463.393 252.57 498.618 259.647 527.876 258.695" fill="#E9F1FF"/>
<path d="M407.816 1.55658C438.876 49.8106 440.245 112.895 472.487 160.371C482.158 174.611 494.322 186.977 504.728 200.684C515.134 214.39 523.984 230.086 525.382 247.252" stroke="white" stroke-width="1.5" stroke-linejoin="round"/>
<path d="M455.437 128.014C455.437 128.014 419.563 112.204 406.649 102.648" stroke="white" stroke-width="1.5" stroke-linejoin="round"/>
<path d="M465.641 43.6852C461.995 66.7312 456.374 85.5111 449.312 111.771" stroke="white" stroke-width="1.5" stroke-linejoin="round"/>
<path d="M447.222 36.2338C447.222 36.2338 443.402 55.6766 437.176 72.7414" stroke="white" stroke-width="1.5" stroke-linejoin="round"/>
<path d="M427.288 11.9338C427.519 12.1356 426.798 18.3331 423.426 32.1838" stroke="white" stroke-width="1.5" stroke-linejoin="round"/>
<path d="M434.51 63.9639C434.567 64.1369 409.965 49.1187 396.388 38.6118" stroke="white" stroke-width="1.5" stroke-linejoin="round"/>
<path d="M447.25 105.689C447.207 105.545 407.024 87.3559 391.372 74.6438" stroke="white" stroke-width="1.5" stroke-linejoin="round"/>
<path d="M495.835 63.964C492.333 77.2814 485.631 111.771 465.641 146.146" stroke="white" stroke-width="1.5" stroke-linejoin="round"/>
<path d="M470.195 156.869C470.195 156.869 425.933 143.061 404.285 131.805" stroke="white" stroke-width="1.5" stroke-linejoin="round"/>
<path d="M520.828 228.212C520.828 228.212 457.873 216.365 426.021 205.31" stroke="white" stroke-width="1.5" stroke-linejoin="round"/>
<path d="M534.91 138.262C534.91 138.262 531.019 179.8 512.225 211.45" stroke="white" stroke-width="1.5" stroke-linejoin="round"/>
<path d="M666.715 427.57C691.75 422.728 719.624 422.915 736.991 401.166C746.59 389.146 743.52 372.744 743.838 358.504C744.385 334.161 756.852 315.612 778.082 304.067C786.571 299.455 794.758 292.335 796.185 282.779C798.318 268.554 784.842 255.914 785.49 241.544C785.836 233.833 790.146 226.944 793.187 219.853C800.537 202.687 796.603 182.409 796.603 182.409C796.603 182.409 783.617 191.762 765.63 192.699C754.085 193.305 742.065 195.351 731.659 200.799C723.53 205.065 718.601 211.494 715.228 219.839C711.25 229.654 707.69 237.264 699.172 243.735C686.028 253.723 644.98 254.948 648.108 276.279C648.958 282.087 652.446 287.478 651.581 293.488C650.039 304.37 636.606 303.793 629.443 308.924C618.432 316.822 607.939 329.765 606.556 342.391C603.226 372.484 616.558 407.724 633.709 433.177" fill="#E9F1FF"/>
<path d="M795.262 183.302C769.708 237.768 714.435 274.132 690.222 329.217C682.958 345.749 678.749 363.433 672.364 380.325C665.979 397.202 656.971 413.806 642.501 424.616" stroke="white" stroke-width="1.5" stroke-linejoin="round"/>
<path d="M795.291 270.543C775.07 279.954 743.074 290.605 709.463 296.039C709.463 296.039 703.525 255.366 704.822 238.575" stroke="white" stroke-width="1.5" stroke-linejoin="round"/>
<path d="M790.059 258.133C767.56 267.732 747.743 273.195 720.474 281.554" stroke="white" stroke-width="1.5" stroke-linejoin="round"/>
<path d="M786.413 237.624C786.413 237.624 767.013 245.075 748.392 249.025" stroke="white" stroke-width="1.5" stroke-linejoin="round"/>
<path d="M796.891 206.377C796.847 206.694 790.938 209.505 776.756 214.232" stroke="white" stroke-width="1.5" stroke-linejoin="round"/>
<path d="M754.689 241.775C754.574 241.919 754.199 211.695 755.972 193.78" stroke="white" stroke-width="1.5" stroke-linejoin="round"/>
<path d="M724.74 276.337C724.841 276.207 718.615 230.389 721.18 209.418" stroke="white" stroke-width="1.5" stroke-linejoin="round"/>
<path d="M760.037 317.788C759.461 318.393 720.849 334.622 686.1 339.508" stroke="white" stroke-width="1.5" stroke-linejoin="round"/>
<path d="M692.052 325.239C692.052 325.239 679.657 278.225 677.596 252.729" stroke="white" stroke-width="1.5" stroke-linejoin="round"/>
<path d="M646.537 296.832C652.057 326.537 671.515 382.559 671.515 382.559C671.515 382.559 724.727 371.259 743.852 358.533" stroke="white" stroke-width="1.5" stroke-linejoin="round"/>
<path d="M656.884 409.943C656.884 409.943 632.339 347.421 624.427 312.974" stroke="white" stroke-width="1.5" stroke-linejoin="round"/>
<path d="M744.63 372.355C744.63 372.355 705.557 392.043 666.988 392.965" stroke="white" stroke-width="1.5" stroke-linejoin="round"/>
<path d="M650.255 417.899C650.255 417.899 620.507 372.167 613.416 325.369" stroke="white" stroke-width="1.5" stroke-linejoin="round"/>
<path d="M565.162 325.311C568.578 332.474 582.414 362.655 585.83 369.803C574.732 373.349 564.557 377.947 553.675 382.112C549.063 388.309 559.368 376.059 559.844 369.328" fill="#F777BA"/>
<path d="M588.986 379.749L582.702 381.91C582.457 381.262 581.953 379.374 581.592 378.869C580.411 379.273 577.946 380.339 577.658 380.584C577.427 380.786 577.182 381.593 576.966 382.386C576.692 383.438 575.928 384.245 574.963 384.591L550 393.21C546.915 394.277 545.128 390.673 547.794 387.733C550.216 385.067 555.476 379.287 555.736 379.129C566.012 376.679 581.607 369.213 583.581 364.658C586.896 366.46 588.986 379.676 588.972 379.763L588.986 379.749Z" fill="#0B0B3A"/>
<path d="M562.422 243.504C562.984 259.819 561.255 292.536 563.474 306.416C564.872 315.15 580.597 358.576 580.597 358.576L559.857 369.342C559.857 369.342 542.086 341.886 531.954 309.414C525.396 288.371 524.877 265.21 524.877 246.156" fill="#F777BA"/>
<path d="M616.568 291.614C622.391 296.99 646.446 319.892 652.269 325.268C643.275 332.676 635.536 340.718 626.974 348.617C625 356.082 630.016 340.877 627.969 334.463" fill="#F777BA"/>
<path d="M658.885 333.325L653.855 337.663C653.393 337.158 652.226 335.588 651.693 335.242C650.741 336.063 648.853 337.966 648.68 338.297C648.536 338.571 648.608 339.421 648.709 340.228C648.839 341.309 648.45 342.347 647.672 343.01L627.681 360.277C625.216 362.41 622.219 359.729 623.602 356.01C624.856 352.638 627.609 345.316 627.796 345.071C636.43 338.989 648.133 326.262 648.291 321.304C652.039 321.737 658.87 333.253 658.899 333.339L658.885 333.325Z" fill="#0B0B3A"/>
<path d="M596.334 212.747C596.334 212.747 595.066 260.8 601.682 273.05C609.479 287.492 634.773 309.14 634.773 309.14L627.956 334.463C627.956 334.463 592.429 314.631 573.894 290.793C559.812 272.69 559.149 215.529 559.149 215.529" fill="#F777BA"/>
<path d="M594.374 172.579C619.41 191.892 617.363 269.202 617.363 269.202C617.363 269.202 589.532 276.51 566.803 276.51C544.074 276.51 520.394 272.906 520.394 272.906C521.777 206.434 533.567 189.154 540.211 177.782" fill="#18277A"/>
<path d="M547.663 67.0483C547.663 67.0483 553.313 83.4933 552.405 87.3271C551.497 91.161 539.03 90.0944 535.859 89.9359C535.585 81.562 538.381 69.8156 538.381 69.8156" fill="#212237"/>
<path d="M549.565 86.4047L550.891 95.5712C550.891 95.5712 557.55 99.8662 563.157 97.6034C569.052 95.2109 568.734 91.9968 568.734 91.9968L561.658 75.2059" fill="#F777BA"/>
<path d="M540.21 70.3057C540.11 82.1098 542.214 91.3628 550.011 90.7575C558.226 90.1233 564.323 83.3781 561.383 74.1683C558.299 64.4973 540.902 63.4884 540.225 70.3057H540.21Z" fill="#F777BA"/>
<path d="M550.3 91.4348C554.307 90.7718 559.149 88.6675 561.268 83.2195" stroke="#CC328A" stroke-width="0.75" stroke-linejoin="round"/>
<path d="M560.072 73.6781V73.7788C560.072 73.7788 560.173 73.8506 560.173 73.7788V73.6781C560.173 73.6781 560.072 73.6062 560.072 73.6781Z" fill="#FF855A"/>
<path d="M552.462 69.4408C545.789 71.2136 541.062 70.9686 536.666 69.3399C537.372 65.3476 539.808 59.6401 547.259 59.4816C552.405 54.7542 558.458 56.4117 560.13 56.9593C564.483 58.3718 567.351 61.0238 569.671 64.944C573.447 71.3001 574.226 80.9278 574.168 86.2606C568.36 87.846 563.488 88.6819 559.755 88.8981C559.914 88.8981 557.464 72.9287 552.491 69.4552L552.462 69.4408Z" fill="#212237"/>
<path d="M556.368 77.3246C556.296 77.0076 556.498 76.0275 557.42 75.4654C559.063 74.4709 560.634 76.431 560.793 78.2038C560.893 79.328 560.692 80.2504 560.13 81.2593C559.38 82.5853 558.126 83.1186 557.117 81.8935" fill="#F777BA"/>
<path d="M546.351 76.6041C546.351 76.6041 544.982 81.1153 545.515 82.0953C546.048 83.0898 548.599 82.4845 548.599 82.4845" stroke="#CC328A" stroke-width="0.5" stroke-linejoin="round"/>
<path d="M546.222 84.5743L553.356 83.551C553.356 83.551 553.068 87.4712 549.119 87.7595C546.294 87.9757 546.222 84.5743 546.222 84.5743Z" fill="white"/>
<path d="M543.167 76.0851C543.123 76.4454 543.08 76.8058 543.08 77.1805C543.08 77.9155 544.233 77.9155 544.219 77.1805C544.219 76.8058 544.175 76.4454 544.118 76.0851C544.046 75.6095 543.224 75.6095 543.167 76.0851Z" fill="#00276F"/>
<path d="M544.939 73.9664C544.939 73.9664 543.483 72.8566 542.272 74.4132" stroke="#00276F" stroke-width="0.5" stroke-linecap="round" stroke-linejoin="round"/>
<path d="M551.468 75.7825C551.439 76.0995 551.439 76.4166 551.468 76.7481C551.511 77.4832 552.664 77.4688 552.607 76.7481C552.578 76.3878 552.534 76.0131 552.448 75.6528C552.318 75.0762 551.511 75.2636 551.468 75.7825Z" fill="#00276F"/>
<path d="M550.444 73.2315C550.444 73.2315 551.958 72.1793 554.264 73.6494" stroke="#00276F" stroke-width="0.5" stroke-linecap="round" stroke-linejoin="round"/>
<path d="M543.396 135.567C520.739 167.03 474.489 195.308 474.489 195.308L464.947 183.23C464.947 183.23 499.61 154.174 520.437 120.823" fill="#F777BA"/>
<path d="M469.012 180.03C464.775 183.734 450.535 192.483 450.852 193.593C451.169 194.703 456.213 191.676 456.285 192.627C456.357 193.578 448.949 198.724 449.569 199.762C450.405 201.16 457.698 195.495 457.698 195.495C457.698 195.495 450.059 202.082 451.154 203.12C451.933 203.855 458.015 199.084 460.595 197.542C458.044 199.56 454.325 203.293 455.147 204.028C455.968 204.763 460.177 201.606 463.549 199.344C461.589 200.943 458.202 204.028 458.923 204.748C459.644 205.469 470.496 198.464 480.427 191.503" fill="#F777BA"/>
<path d="M458.114 192.497C458.114 192.497 463.62 192.627 465.94 191.474" stroke="#CC328A" stroke-width="0.75" stroke-linejoin="round"/>
<path d="M548.267 95.6578C538.38 93.885 529.545 100.947 525.682 107.102C517.914 119.468 513.662 129.24 513.662 129.24L536.953 143.278L550.213 101.596" fill="#FF9357"/>
<path d="M548.267 95.6578C552.879 96.5081 553.989 98.1512 557.261 97.1135C563.141 95.2542 567.623 92.2563 567.623 92.2563C563.775 92.5158 580.206 95.4992 592.774 108.773C596.997 123.302 597.487 137.758 598.712 176.153C567.422 186.271 540.196 177.767 540.196 177.767C540.196 177.767 536.65 161.034 532.572 148.625C526.907 137.21 529.372 124.411 535.699 113.948C535.901 107.592 548.267 95.6434 548.267 95.6434V95.6578Z" fill="#FF9357"/>
<path d="M567.192 88.3073L556.512 97.3585L563.343 104.623L570.42 93.8706L567.192 88.3073Z" fill="white"/>
<path d="M556.513 97.3585L550.474 92.6166L548.269 95.6577L551.18 104.406L556.513 97.3585Z" fill="white"/>
<path d="M529.416 135.653C529.042 128.245 533.423 116.744 533.423 116.744" stroke="#A52F2D" stroke-width="0.75" stroke-miterlimit="10"/>
<path d="M646.003 578.458C645.557 578.458 645.11 578.443 644.663 578.414L491.196 567.562C480.862 566.827 473.035 557.819 473.77 547.485L476.97 502.315C477.172 499.476 479.478 497.328 482.346 497.328C483.715 497.328 485.027 497.861 486.05 498.812C490.763 503.266 496.514 505.846 502.668 506.278C503.288 506.322 503.908 506.336 504.513 506.336C520.064 506.336 533.238 492.413 534.506 474.657C535.818 456.079 523.682 440.023 507.439 438.87C506.819 438.826 506.214 438.812 505.594 438.812C500.088 438.812 494.669 440.585 489.927 443.929C488.99 444.592 487.924 444.937 486.814 444.937C485.315 444.937 483.874 444.303 482.851 443.208C481.842 442.127 481.337 440.7 481.452 439.187L484.652 394.003C485.344 384.202 493.574 376.534 503.389 376.534C503.836 376.534 504.282 376.549 504.729 376.578L551.412 379.878C553.589 380.037 555.376 381.406 556.111 383.452C556.831 385.499 556.298 387.675 554.713 389.146C549.452 394.031 546.296 400.431 545.82 407.19C544.667 423.434 558.849 437.717 577.442 439.028C578.364 439.086 579.287 439.129 580.209 439.129C597.648 439.129 612.148 427.195 613.229 411.961C613.704 405.216 611.485 398.427 606.974 392.85C605.662 391.235 605.403 389.059 606.311 387.185C607.219 385.297 609.063 384.115 611.153 384.115C611.283 384.115 611.427 384.115 611.557 384.115L658.24 387.416C668.574 388.151 676.4 397.159 675.665 407.493L664.812 560.961C664.12 570.761 655.891 578.429 646.075 578.429L646.003 578.458Z" fill="#83A3FC"/>
<path d="M503.36 377.615C503.778 377.615 504.21 377.63 504.628 377.658L551.311 380.959C555.044 381.218 556.687 385.816 553.948 388.367C548.659 393.282 545.243 399.782 544.724 407.118C543.528 423.981 558.128 438.754 577.34 440.109C578.292 440.181 579.243 440.21 580.18 440.21C598.153 440.21 613.142 428.06 614.28 412.033C614.799 404.697 612.32 397.764 607.78 392.172C605.489 389.347 607.564 385.196 611.11 385.196C611.211 385.196 611.326 385.196 611.441 385.196L658.124 388.497C667.882 389.189 675.232 397.663 674.555 407.421L663.702 560.888C663.039 570.228 655.256 577.362 646.046 577.362C645.628 577.362 645.21 577.348 644.778 577.319L491.31 566.466C481.553 565.774 474.202 557.3 474.88 547.542L478.079 502.358C478.252 499.922 480.27 498.366 482.375 498.366C483.412 498.366 484.464 498.74 485.329 499.562C490.042 504.001 495.995 506.855 502.624 507.33C503.273 507.374 503.907 507.402 504.556 507.402C520.597 507.402 534.318 493.191 535.615 474.714C536.97 455.502 524.402 438.971 507.539 437.774C506.891 437.731 506.256 437.702 505.622 437.702C499.699 437.702 494.107 439.648 489.336 443.02C488.543 443.583 487.678 443.828 486.842 443.828C484.508 443.828 482.36 441.896 482.547 439.23L485.747 394.046C486.41 384.706 494.179 377.572 503.403 377.572M503.403 375.41C493.026 375.41 484.32 383.524 483.585 393.887L480.386 439.071C480.256 440.887 480.861 442.603 482.072 443.9C483.297 445.211 485.041 445.975 486.828 445.975C488.168 445.975 489.451 445.557 490.575 444.764C495.13 441.55 500.333 439.835 505.622 439.835C506.213 439.835 506.804 439.85 507.381 439.893C523.033 441.003 534.722 456.54 533.453 474.512C532.243 491.707 519.545 505.183 504.541 505.183C503.95 505.183 503.36 505.168 502.769 505.125C496.859 504.707 491.339 502.228 486.814 497.948C485.589 496.795 484.018 496.16 482.375 496.16C478.944 496.16 476.163 498.74 475.932 502.156L472.732 547.34C471.954 558.28 480.227 567.807 491.166 568.57L644.634 579.423C645.109 579.452 645.585 579.466 646.061 579.466C656.438 579.466 665.143 571.352 665.878 560.989L676.731 407.522C677.509 396.582 669.236 387.056 658.297 386.292L611.614 382.991C611.456 382.991 611.297 382.977 611.138 382.977C608.631 382.977 606.411 384.389 605.33 386.666C604.249 388.929 604.566 391.538 606.137 393.469C610.548 398.903 612.623 405.245 612.162 411.817C611.124 426.489 597.1 437.976 580.223 437.976C579.329 437.976 578.436 437.947 577.542 437.875C568.779 437.255 560.766 433.681 554.972 427.829C549.25 422.05 546.396 414.714 546.929 407.19C547.391 400.618 550.345 394.622 555.476 389.866C557.379 388.093 558.027 385.47 557.163 383.02C556.298 380.555 554.136 378.912 551.527 378.725L504.844 375.424C504.368 375.396 503.893 375.381 503.417 375.381L503.403 375.41Z" fill="white"/>
<mask id="mask0_470_7084" style="mask-type:luminance" maskUnits="userSpaceOnUse" x="474" y="377" width="201" height="201">
<path d="M611.413 385.211C607.68 384.951 605.402 389.261 607.766 392.172C612.306 397.779 614.785 404.711 614.266 412.033C613.07 428.896 596.539 441.464 577.326 440.109C558.114 438.754 543.514 423.981 544.71 407.118C545.229 399.782 548.659 393.268 553.934 388.367C556.673 385.816 555.03 381.233 551.297 380.959L504.614 377.658C494.856 376.967 486.382 384.317 485.69 394.089L482.49 439.273C482.231 442.905 486.309 445.154 489.278 443.064C494.568 439.331 500.866 437.342 507.482 437.818C524.345 439.014 536.913 455.545 535.558 474.758C534.203 493.97 519.43 508.57 502.567 507.374C495.937 506.898 489.985 504.059 485.272 499.605C482.62 497.112 478.282 498.769 478.022 502.401L474.822 547.585C474.131 557.343 481.481 565.818 491.253 566.509L644.721 577.362C654.478 578.054 662.953 570.704 663.645 560.932L674.497 407.464C675.189 397.707 667.839 389.232 658.067 388.54L611.384 385.24L611.413 385.211Z" fill="white"/>
</mask>
<g mask="url(#mask0_470_7084)">
<g style="mix-blend-mode:screen" opacity="0.19">
<path d="M630.472 701.109C678.769 697.334 714.861 655.121 711.085 606.824C707.309 558.527 665.096 522.435 616.799 526.21C568.502 529.986 532.41 572.199 536.186 620.496C539.962 668.793 582.175 704.885 630.472 701.109Z" stroke="#91ABE5" stroke-width="11" stroke-miterlimit="10"/>
<path d="M622.05 667.024C652.656 667.024 677.467 642.213 677.467 611.607C677.467 581.001 652.656 556.19 622.05 556.19C591.444 556.19 566.633 581.001 566.633 611.607C566.633 642.213 591.444 667.024 622.05 667.024Z" stroke="#91ABE5" stroke-width="11" stroke-miterlimit="10"/>
<path d="M631.205 641.687C646.673 637.505 655.822 621.575 651.64 606.107C647.458 590.639 631.528 581.491 616.06 585.673C600.592 589.855 591.443 605.785 595.625 621.253C599.808 636.721 615.737 645.87 631.205 641.687Z" stroke="#91ABE5" stroke-width="11" stroke-miterlimit="10"/>
</g>
</g>
<path d="M427.735 373.493C426.943 373.493 426.15 373.436 425.372 373.349L378.732 367.483C376.57 367.209 374.841 365.739 374.235 363.635C373.63 361.545 374.307 359.383 375.979 358.014C381.615 353.402 385.189 347.118 386.039 340.301C387.019 332.503 384.468 324.735 378.876 318.408C373.241 312.051 365.184 307.929 356.205 306.791C354.591 306.589 352.962 306.488 351.348 306.488C334.73 306.488 320.821 317.399 318.991 331.869C318.141 338.686 320.043 345.662 324.352 351.528C325.578 353.186 325.75 355.275 324.828 357.106C323.906 358.936 322.075 360.075 320.057 360.075C319.827 360.075 319.596 360.061 319.351 360.032L272.711 354.166C267.725 353.546 263.285 351.009 260.216 347.046C257.131 343.082 255.791 338.153 256.411 333.166L275.594 180.52C276.776 171.138 284.775 164.061 294.23 164.061C295.022 164.061 295.815 164.104 296.593 164.205L449.239 183.388C454.226 184.008 458.665 186.545 461.735 190.508C464.82 194.472 466.174 199.401 465.54 204.388L459.775 250.264C459.429 253.002 457.166 254.977 454.399 254.977C452.857 254.977 451.445 254.328 450.407 253.146C445.809 247.871 439.914 244.643 433.342 243.821C432.261 243.692 431.166 243.62 430.085 243.62C414.995 243.62 401.994 256.533 399.832 273.656C397.512 292.133 408.754 308.823 424.911 310.855C425.992 310.985 427.072 311.057 428.153 311.057C433.601 311.057 439.006 309.327 443.748 306.041C444.656 305.422 445.694 305.09 446.76 305.09C448.303 305.09 449.787 305.768 450.81 306.935C451.834 308.102 452.295 309.587 452.093 311.158L446.328 357.034C445.146 366.417 437.133 373.493 427.692 373.493H427.735Z" fill="#FFC7CA"/>
<path d="M294.229 165.127C294.964 165.127 295.714 165.171 296.463 165.272L449.109 184.455C458.823 185.68 465.698 194.53 464.473 204.244L458.708 250.12C458.42 252.455 456.431 253.896 454.413 253.896C453.274 253.896 452.121 253.435 451.242 252.44C446.673 247.194 440.548 243.634 433.485 242.755C432.347 242.611 431.208 242.539 430.084 242.539C414.662 242.539 400.999 255.726 398.765 273.526C396.358 292.623 408.018 309.832 424.78 311.936C425.919 312.08 427.043 312.152 428.167 312.152C434.004 312.152 439.582 310.264 444.382 306.949C445.145 306.416 445.967 306.186 446.774 306.186C449.181 306.186 451.386 308.29 451.04 311.028L445.275 356.904C444.151 365.869 436.512 372.412 427.72 372.412C426.985 372.412 426.236 372.369 425.486 372.268L378.847 366.402C375.114 365.927 373.73 361.228 376.641 358.835C382.306 354.195 386.168 347.81 387.091 340.416C389.195 323.639 375.416 308.102 356.319 305.695C354.633 305.479 352.976 305.378 351.333 305.378C334.311 305.378 319.826 316.419 317.909 331.711C316.987 339.104 319.134 346.253 323.473 352.134C325.591 355.002 323.444 358.951 320.042 358.951C319.855 358.951 319.668 358.951 319.48 358.922L272.84 353.056C263.126 351.831 256.251 342.981 257.476 333.267L276.66 180.621C277.784 171.656 285.423 165.113 294.215 165.113M294.215 162.951C284.227 162.951 275.752 170.431 274.512 180.347L255.329 332.993C253.96 343.875 261.699 353.834 272.581 355.203L319.221 361.069C319.495 361.098 319.783 361.127 320.057 361.127C322.492 361.127 324.683 359.758 325.793 357.567C326.888 355.391 326.672 352.825 325.231 350.865C321.08 345.23 319.25 338.528 320.071 331.984C321.83 318.047 335.262 307.54 351.347 307.54C352.904 307.54 354.489 307.641 356.06 307.843C373.946 310.091 386.918 324.576 384.958 340.142C384.136 346.671 380.706 352.724 375.287 357.149C373.269 358.807 372.462 361.387 373.182 363.909C373.903 366.431 375.978 368.204 378.587 368.535L425.227 374.401C426.063 374.502 426.899 374.56 427.735 374.56C437.723 374.56 446.198 367.08 447.437 357.164L453.202 311.288C453.433 309.414 452.885 307.612 451.66 306.214C450.421 304.802 448.648 303.995 446.789 303.995C445.506 303.995 444.252 304.384 443.171 305.133C438.602 308.29 433.413 309.962 428.182 309.962C427.144 309.962 426.106 309.89 425.068 309.76C417.588 308.823 410.944 304.6 406.389 297.855C401.763 291.038 399.832 282.476 400.927 273.757C403.017 257.168 415.556 244.657 430.098 244.657C431.136 244.657 432.188 244.729 433.226 244.859C439.524 245.652 445.203 248.751 449.613 253.824C450.853 255.251 452.554 256.029 454.413 256.029C457.685 256.029 460.452 253.593 460.855 250.365L466.621 204.489C467.284 199.214 465.857 194.011 462.599 189.817C459.342 185.622 454.643 182.942 449.383 182.293L296.737 163.11C295.915 163.009 295.065 162.951 294.229 162.951H294.215Z" fill="white"/>
<mask id="mask1_470_7084" style="mask-type:luminance" maskUnits="userSpaceOnUse" x="257" y="165" width="208" height="208">
<path d="M424.809 311.922C408.033 309.818 396.387 292.623 398.794 273.512C401.201 254.415 416.738 240.636 433.515 242.74C440.563 243.62 446.702 247.18 451.271 252.426C453.693 255.208 458.276 253.781 458.737 250.12L464.502 204.244C465.727 194.53 458.838 185.68 449.138 184.455L296.492 165.272C286.778 164.047 277.929 170.936 276.703 180.636L257.52 333.282C256.295 342.996 263.184 351.845 272.884 353.07L319.524 358.936C323.257 359.412 325.75 355.189 323.531 352.148C319.192 346.253 317.03 339.104 317.967 331.725C320.072 314.949 337.266 303.303 356.377 305.71C375.474 308.117 389.253 323.654 387.149 340.43C386.226 347.824 382.364 354.209 376.699 358.85C373.788 361.228 375.172 365.941 378.905 366.417L425.544 372.283C435.259 373.508 444.108 366.618 445.333 356.919L451.098 311.043C451.56 307.382 447.466 304.86 444.44 306.949C438.718 310.899 431.9 312.83 424.838 311.951L424.809 311.922Z" fill="white"/>
</mask>
<g mask="url(#mask1_470_7084)">
<g opacity="0.25">
<path d="M276.099 270.168C324.543 270.168 363.815 230.896 363.815 182.452C363.815 134.007 324.543 94.7354 276.099 94.7354C227.655 94.7354 188.383 134.007 188.383 182.452C188.383 230.896 227.655 270.168 276.099 270.168Z" stroke="white" stroke-width="11" stroke-miterlimit="10"/>
<path d="M274.254 240.391C307.264 240.391 334.024 213.631 334.024 180.621C334.024 147.611 307.264 120.851 274.254 120.851C241.244 120.851 214.484 147.611 214.484 180.621C214.484 213.631 241.244 240.391 274.254 240.391Z" stroke="white" stroke-width="11" stroke-miterlimit="10"/>
<path d="M276.099 211.465C292.122 211.465 305.112 198.475 305.112 182.452C305.112 166.428 292.122 153.439 276.099 153.439C260.075 153.439 247.086 166.428 247.086 182.452C247.086 198.475 260.075 211.465 276.099 211.465Z" stroke="white" stroke-width="11" stroke-miterlimit="10"/>
</g>
</g>
<path d="M567.395 421.574C557.825 421.473 548.846 418.101 542.13 412.076C535.37 406.023 531.695 398.009 531.781 389.52C531.853 382.069 534.923 374.862 540.415 369.227C541.496 368.117 541.467 366.719 541.078 365.782C540.688 364.831 539.708 363.822 538.137 363.793L491.08 363.303C486.064 363.246 481.351 361.242 477.849 357.654C474.332 354.065 472.429 349.323 472.487 344.307L472.963 298.777C472.963 297.667 472.473 296.918 472.055 296.486C471.435 295.866 470.599 295.506 469.734 295.506C469.014 295.506 468.336 295.751 467.76 296.226C462.312 300.709 455.884 303.072 449.153 303.072H448.865C440.375 302.986 432.434 299.138 426.525 292.263C420.644 285.417 417.459 276.38 417.56 266.81C417.762 247.165 432.016 231.196 449.326 231.196H449.628C456.46 231.268 462.946 233.776 468.379 238.431C468.97 238.935 469.662 239.195 470.412 239.195C471.954 239.195 473.626 237.97 473.655 235.995L474.13 190.465C474.231 180.203 482.663 171.858 492.924 171.858L646.968 173.458C651.984 173.516 656.697 175.519 660.199 179.108C663.716 182.697 665.619 187.438 665.561 192.454L663.961 346.296C663.86 356.558 655.429 364.903 645.167 364.903L597.907 364.413C596.322 364.413 595.327 365.408 594.924 366.345C594.405 367.541 594.621 368.838 595.515 369.789C600.891 375.54 603.802 382.804 603.73 390.255C603.557 407.522 587.472 421.574 567.885 421.574H567.453H567.395Z" fill="#B5C8F7"/>
<path d="M492.853 172.939C492.853 172.939 492.982 172.939 493.04 172.939L646.882 174.539C656.668 174.64 664.523 182.653 664.423 192.44L662.823 346.282C662.722 356.011 654.809 363.822 645.109 363.822C645.052 363.822 644.98 363.822 644.922 363.822L597.85 363.332C597.85 363.332 597.821 363.332 597.807 363.332C594.074 363.332 592.099 367.8 594.665 370.539C599.68 375.9 602.664 382.79 602.577 390.255C602.404 407.032 586.882 420.508 567.814 420.508C567.669 420.508 567.54 420.508 567.396 420.508C548.14 420.306 532.675 406.441 532.848 389.535C532.92 382.069 536.048 375.252 541.179 369.991C543.802 367.296 541.899 362.756 538.138 362.727L491.08 362.237C481.294 362.136 473.439 354.122 473.539 344.336L474.015 298.806C474.044 296.241 471.925 294.453 469.691 294.453C468.783 294.453 467.846 294.756 467.025 295.419C461.98 299.57 455.797 302.02 449.11 302.02C449.009 302.02 448.922 302.02 448.822 302.02C431.915 301.847 418.382 286.094 418.583 266.839C418.785 247.698 432.492 232.291 449.268 232.291C449.369 232.291 449.456 232.291 449.557 232.291C456.345 232.363 462.586 234.943 467.616 239.267C468.437 239.973 469.403 240.29 470.354 240.29C472.559 240.29 474.649 238.561 474.678 236.024L475.154 190.494C475.255 180.765 483.167 172.954 492.867 172.954M492.867 170.792C482.014 170.792 473.107 179.612 472.992 190.465L472.516 235.995C472.516 237.336 471.406 238.128 470.354 238.128C469.864 238.128 469.417 237.955 469.028 237.624C463.407 232.796 456.677 230.201 449.585 230.129H449.283C431.382 230.129 416.652 246.589 416.436 266.81C416.22 287.218 430.748 303.98 448.822 304.168H449.124C456.1 304.168 462.773 301.718 468.409 297.077C468.798 296.76 469.23 296.601 469.706 296.601C470.282 296.601 470.844 296.846 471.262 297.264C471.536 297.552 471.868 298.042 471.868 298.777L471.392 344.307C471.277 355.275 480.097 364.283 491.065 364.399L538.123 364.889C539.435 364.889 539.954 365.898 540.069 366.2C540.199 366.503 540.53 367.555 539.637 368.478C533.958 374.315 530.773 381.781 530.701 389.506C530.513 407.58 546.973 422.439 567.381 422.655H567.828C588.006 422.655 604.566 408.127 604.754 390.27C604.84 382.544 601.813 375.007 596.25 369.054C595.371 368.117 595.731 367.065 595.861 366.777C595.991 366.474 596.524 365.494 597.821 365.494L644.908 365.984H645.124C655.977 365.984 664.884 357.164 664.999 346.311L666.599 192.468C666.714 181.5 657.894 172.492 646.925 172.377L493.083 170.777H492.867V170.792Z" fill="white"/>
<mask id="mask2_470_7084" style="mask-type:luminance" maskUnits="userSpaceOnUse" x="418" y="172" width="247" height="249">
<path d="M646.881 174.539L493.039 172.939C483.253 172.838 475.239 180.693 475.138 190.48L474.663 236.01C474.619 239.642 470.367 241.616 467.615 239.253C462.585 234.929 456.344 232.349 449.555 232.277C432.649 232.104 418.784 247.569 418.582 266.824C418.381 286.08 431.929 301.833 448.82 302.006C455.609 302.078 461.907 299.613 467.024 295.405C469.82 293.099 474.043 295.16 474.014 298.792L473.538 344.322C473.437 354.108 481.292 362.122 491.079 362.223L538.136 362.713C541.898 362.756 543.801 367.281 541.178 369.977C536.047 375.237 532.933 382.055 532.847 389.52C532.674 406.427 548.139 420.292 567.394 420.493C586.65 420.695 602.403 407.147 602.576 390.255C602.648 382.775 599.679 375.9 594.663 370.539C592.098 367.786 594.087 363.289 597.849 363.332L644.921 363.822C654.707 363.923 662.721 356.068 662.822 346.282L664.421 192.44C664.522 182.653 656.667 174.64 646.881 174.539Z" fill="white"/>
</mask>
<g mask="url(#mask2_470_7084)">
<path d="M423.326 201.304C421.063 201.678 418.93 200.165 418.555 197.902C418.18 195.639 419.694 193.506 421.956 193.131C424.219 192.757 426.352 194.27 426.727 196.533C427.102 198.796 425.588 200.929 423.326 201.304Z" fill="white"/>
<path d="M461.88 194.803C459.618 195.178 457.484 193.665 457.11 191.402C456.735 189.139 458.248 187.006 460.511 186.631C462.774 186.257 464.907 187.77 465.282 190.033C465.656 192.296 464.143 194.429 461.88 194.803Z" fill="white"/>
<path d="M500.434 188.303C498.171 188.678 496.038 187.165 495.663 184.902C495.289 182.639 496.802 180.506 499.065 180.131C501.328 179.756 503.461 181.27 503.835 183.533C504.21 185.795 502.697 187.929 500.434 188.303Z" fill="white"/>
<path d="M538.989 181.803C536.726 182.178 534.593 180.665 534.218 178.402C533.843 176.139 535.357 174.006 537.619 173.631C539.882 173.256 542.015 174.77 542.39 177.033C542.765 179.295 541.252 181.428 538.989 181.803Z" fill="white"/>
<path d="M577.542 175.289C575.28 175.663 573.147 174.15 572.772 171.887C572.397 169.624 573.91 167.491 576.173 167.117C578.436 166.742 580.569 168.255 580.944 170.518C581.319 172.781 579.805 174.914 577.542 175.289Z" fill="white"/>
<path d="M428.672 232.954C426.409 233.329 424.276 231.816 423.902 229.553C423.527 227.29 425.04 225.157 427.303 224.782C429.566 224.407 431.699 225.921 432.074 228.184C432.448 230.446 430.935 232.579 428.672 232.954Z" fill="white"/>
<path d="M467.227 226.454C464.964 226.829 462.831 225.315 462.456 223.053C462.082 220.79 463.595 218.657 465.858 218.282C468.121 217.907 470.254 219.421 470.628 221.683C471.003 223.946 469.49 226.079 467.227 226.454Z" fill="white"/>
<path d="M505.782 219.954C503.519 220.329 501.386 218.815 501.011 216.552C500.636 214.29 502.15 212.156 504.412 211.782C506.675 211.407 508.808 212.92 509.183 215.183C509.558 217.446 508.044 219.579 505.782 219.954Z" fill="white"/>
<path d="M544.336 213.454C542.074 213.828 539.94 212.315 539.566 210.052C539.191 207.789 540.704 205.656 542.967 205.282C545.23 204.907 547.363 206.42 547.738 208.683C548.113 210.946 546.599 213.079 544.336 213.454Z" fill="white"/>
<path d="M582.89 206.953C580.627 207.328 578.494 205.815 578.119 203.552C577.745 201.289 579.258 199.156 581.521 198.781C583.784 198.407 585.917 199.92 586.291 202.183C586.666 204.446 585.153 206.579 582.89 206.953Z" fill="white"/>
<path d="M621.445 200.439C619.182 200.814 617.049 199.3 616.674 197.037C616.299 194.775 617.813 192.642 620.076 192.267C622.338 191.892 624.471 193.405 624.846 195.668C625.221 197.931 623.708 200.064 621.445 200.439Z" fill="white"/>
<path d="M659.998 193.939C657.736 194.313 655.603 192.8 655.228 190.537C654.853 188.274 656.367 186.141 658.629 185.767C660.892 185.392 663.025 186.905 663.4 189.168C663.775 191.431 662.261 193.564 659.998 193.939Z" fill="white"/>
<path d="M434.006 264.619C431.743 264.994 429.61 263.48 429.236 261.218C428.861 258.955 430.374 256.822 432.637 256.447C434.9 256.072 437.033 257.586 437.408 259.848C437.782 262.111 436.269 264.244 434.006 264.619Z" fill="white"/>
<path d="M472.56 258.105C470.297 258.479 468.164 256.966 467.789 254.703C467.415 252.44 468.928 250.307 471.191 249.932C473.454 249.558 475.587 251.071 475.961 253.334C476.336 255.597 474.823 257.73 472.56 258.105Z" fill="white"/>
<path d="M511.115 251.604C508.852 251.979 506.719 250.466 506.344 248.203C505.969 245.94 507.483 243.807 509.745 243.432C512.008 243.057 514.141 244.571 514.516 246.834C514.891 249.096 513.377 251.23 511.115 251.604Z" fill="white"/>
<path d="M549.668 245.104C547.406 245.479 545.272 243.966 544.898 241.703C544.523 239.44 546.036 237.307 548.299 236.932C550.562 236.557 552.695 238.071 553.07 240.333C553.445 242.596 551.931 244.729 549.668 245.104Z" fill="white"/>
<path d="M588.223 238.604C585.96 238.979 583.827 237.465 583.452 235.202C583.078 232.94 584.591 230.807 586.854 230.432C589.117 230.057 591.25 231.57 591.625 233.833C591.999 236.096 590.486 238.229 588.223 238.604Z" fill="white"/>
<path d="M626.777 232.104C624.514 232.479 622.381 230.965 622.006 228.703C621.631 226.44 623.145 224.307 625.408 223.932C627.67 223.557 629.804 225.07 630.178 227.333C630.553 229.596 629.04 231.729 626.777 232.104Z" fill="white"/>
<path d="M665.331 225.589C663.069 225.964 660.936 224.451 660.561 222.188C660.186 219.925 661.699 217.792 663.962 217.417C666.225 217.043 668.358 218.556 668.733 220.819C669.108 223.081 667.594 225.215 665.331 225.589Z" fill="white"/>
<path d="M439.339 296.27C437.076 296.644 434.943 295.131 434.569 292.868C434.194 290.605 435.707 288.472 437.97 288.097C440.233 287.723 442.366 289.236 442.741 291.499C443.115 293.762 441.602 295.895 439.339 296.27Z" fill="white"/>
<path d="M477.893 289.769C475.63 290.144 473.497 288.631 473.122 286.368C472.748 284.105 474.261 281.972 476.524 281.597C478.787 281.223 480.92 282.736 481.294 284.999C481.669 287.262 480.156 289.395 477.893 289.769Z" fill="white"/>
<path d="M516.448 283.255C514.185 283.63 512.052 282.116 511.677 279.854C511.302 277.591 512.816 275.458 515.078 275.083C517.341 274.708 519.474 276.222 519.849 278.484C520.224 280.747 518.711 282.88 516.448 283.255Z" fill="white"/>
<path d="M555.001 276.755C552.739 277.129 550.606 275.616 550.231 273.353C549.856 271.091 551.369 268.957 553.632 268.583C555.895 268.208 558.028 269.721 558.403 271.984C558.778 274.247 557.264 276.38 555.001 276.755Z" fill="white"/>
<path d="M593.555 270.255C591.292 270.629 589.159 269.116 588.784 266.853C588.41 264.59 589.923 262.457 592.186 262.082C594.449 261.708 596.582 263.221 596.957 265.484C597.331 267.747 595.818 269.88 593.555 270.255Z" fill="white"/>
<path d="M632.111 263.754C629.848 264.129 627.715 262.616 627.34 260.353C626.965 258.09 628.479 255.957 630.742 255.582C633.004 255.208 635.137 256.721 635.512 258.984C635.887 261.247 634.374 263.38 632.111 263.754Z" fill="white"/>
<path d="M444.686 327.92C442.423 328.295 440.29 326.782 439.915 324.519C439.541 322.256 441.054 320.123 443.317 319.748C445.58 319.373 447.713 320.887 448.087 323.15C448.462 325.412 446.949 327.545 444.686 327.92Z" fill="white"/>
<path d="M483.24 321.42C480.977 321.795 478.844 320.281 478.469 318.019C478.094 315.756 479.608 313.623 481.87 313.248C484.133 312.873 486.266 314.386 486.641 316.649C487.016 318.912 485.502 321.045 483.24 321.42Z" fill="white"/>
<path d="M521.795 314.92C519.533 315.295 517.399 313.781 517.025 311.518C516.65 309.256 518.163 307.122 520.426 306.748C522.689 306.373 524.822 307.886 525.197 310.149C525.572 312.412 524.058 314.545 521.795 314.92Z" fill="white"/>
<path d="M560.349 308.405C558.086 308.78 555.953 307.267 555.578 305.004C555.204 302.741 556.717 300.608 558.98 300.233C561.243 299.858 563.376 301.372 563.751 303.635C564.125 305.897 562.612 308.031 560.349 308.405Z" fill="white"/>
<path d="M598.904 301.905C596.641 302.28 594.508 300.766 594.133 298.504C593.758 296.241 595.272 294.108 597.535 293.733C599.797 293.358 601.93 294.872 602.305 297.134C602.68 299.397 601.167 301.53 598.904 301.905Z" fill="white"/>
<path d="M637.457 295.405C635.195 295.78 633.062 294.266 632.687 292.003C632.312 289.741 633.825 287.607 636.088 287.233C638.351 286.858 640.484 288.371 640.859 290.634C641.234 292.897 639.72 295.03 637.457 295.405Z" fill="white"/>
<path d="M450.018 359.571C447.755 359.945 445.622 358.432 445.247 356.169C444.873 353.906 446.386 351.773 448.649 351.398C450.912 351.024 453.045 352.537 453.419 354.8C453.794 357.063 452.281 359.196 450.018 359.571Z" fill="white"/>
<path d="M488.573 353.07C486.31 353.445 484.177 351.932 483.802 349.669C483.427 347.406 484.941 345.273 487.203 344.898C489.466 344.524 491.599 346.037 491.974 348.3C492.349 350.563 490.836 352.696 488.573 353.07Z" fill="white"/>
<path d="M527.126 346.57C524.864 346.945 522.731 345.432 522.356 343.169C521.981 340.906 523.494 338.773 525.757 338.398C528.02 338.023 530.153 339.537 530.528 341.8C530.903 344.062 529.389 346.195 527.126 346.57Z" fill="white"/>
<path d="M565.68 340.07C563.417 340.445 561.284 338.931 560.909 336.669C560.535 334.406 562.048 332.273 564.311 331.898C566.574 331.523 568.707 333.037 569.082 335.299C569.456 337.562 567.943 339.695 565.68 340.07Z" fill="white"/>
<path d="M604.235 333.555C601.972 333.93 599.839 332.417 599.464 330.154C599.089 327.891 600.603 325.758 602.866 325.383C605.128 325.009 607.261 326.522 607.636 328.785C608.011 331.048 606.498 333.181 604.235 333.555Z" fill="white"/>
<path d="M642.789 327.055C640.526 327.43 638.393 325.917 638.018 323.654C637.643 321.391 639.156 319.258 641.419 318.883C643.682 318.509 645.815 320.022 646.19 322.285C646.565 324.547 645.051 326.681 642.789 327.055Z" fill="white"/>
<path d="M455.367 391.221C453.104 391.596 450.971 390.082 450.596 387.82C450.221 385.557 451.735 383.424 453.997 383.049C456.26 382.674 458.393 384.188 458.768 386.45C459.143 388.713 457.629 390.846 455.367 391.221Z" fill="white"/>
<path d="M493.92 384.721C491.658 385.096 489.524 383.582 489.15 381.319C488.775 379.057 490.288 376.924 492.551 376.549C494.814 376.174 496.947 377.687 497.322 379.95C497.697 382.213 496.183 384.346 493.92 384.721Z" fill="white"/>
<path d="M532.475 378.221C530.212 378.595 528.079 377.082 527.704 374.819C527.33 372.556 528.843 370.423 531.106 370.049C533.369 369.674 535.502 371.187 535.876 373.45C536.251 375.713 534.738 377.846 532.475 378.221Z" fill="white"/>
<path d="M571.029 371.72C568.766 372.095 566.633 370.582 566.258 368.319C565.883 366.056 567.397 363.923 569.66 363.548C571.922 363.174 574.055 364.687 574.43 366.95C574.805 369.213 573.292 371.346 571.029 371.72Z" fill="white"/>
<path d="M609.582 365.22C607.32 365.595 605.187 364.082 604.812 361.819C604.437 359.556 605.95 357.423 608.213 357.048C610.476 356.673 612.609 358.187 612.984 360.45C613.359 362.712 611.845 364.846 609.582 365.22Z" fill="white"/>
<path d="M648.137 358.706C645.874 359.081 643.741 357.567 643.367 355.304C642.992 353.042 644.505 350.908 646.768 350.534C649.031 350.159 651.164 351.672 651.539 353.935C651.913 356.198 650.4 358.331 648.137 358.706Z" fill="white"/>
<path d="M460.698 422.886C458.435 423.261 456.302 421.747 455.927 419.484C455.552 417.222 457.066 415.089 459.328 414.714C461.591 414.339 463.724 415.852 464.099 418.115C464.474 420.378 462.961 422.511 460.698 422.886Z" fill="white"/>
<path d="M499.251 416.371C496.989 416.746 494.856 415.233 494.481 412.97C494.106 410.707 495.619 408.574 497.882 408.199C500.145 407.825 502.278 409.338 502.653 411.601C503.028 413.864 501.514 415.997 499.251 416.371Z" fill="white"/>
<path d="M537.806 409.871C535.543 410.246 533.41 408.733 533.035 406.47C532.661 404.207 534.174 402.074 536.437 401.699C538.7 401.325 540.833 402.838 541.207 405.101C541.582 407.363 540.069 409.497 537.806 409.871Z" fill="white"/>
<path d="M576.36 403.371C574.097 403.746 571.964 402.233 571.589 399.97C571.214 397.707 572.728 395.574 574.991 395.199C577.253 394.824 579.386 396.338 579.761 398.601C580.136 400.863 578.623 402.996 576.36 403.371Z" fill="white"/>
<path d="M614.915 396.871C612.653 397.246 610.52 395.732 610.145 393.47C609.77 391.207 611.283 389.074 613.546 388.699C615.809 388.324 617.942 389.838 618.317 392.1C618.692 394.363 617.178 396.496 614.915 396.871Z" fill="white"/>
<path d="M653.469 390.356C651.206 390.731 649.073 389.218 648.699 386.955C648.324 384.692 649.837 382.559 652.1 382.184C654.363 381.81 656.496 383.323 656.871 385.586C657.245 387.848 655.732 389.982 653.469 390.356Z" fill="white"/>
</g>
<path d="M286.071 577.766C276.111 577.766 267.882 569.969 267.319 560.024L258.715 406.412C258.139 396.064 266.08 387.171 276.428 386.595L323.256 383.972C324.812 383.885 325.749 382.833 326.095 381.867C326.542 380.628 326.253 379.359 325.302 378.451C319.652 373.104 316.323 366.1 315.905 358.735C314.925 341.295 330.231 326.191 350.02 325.081C350.798 325.038 351.562 325.023 352.341 325.023C371.221 325.023 386.758 338.067 387.695 354.714C388.113 362.079 385.577 369.4 380.561 375.353C379.739 376.318 379.566 377.587 380.114 378.74C380.532 379.648 381.512 380.599 383.011 380.599H383.213L430.04 377.961C430.4 377.947 430.761 377.933 431.107 377.933C441.066 377.933 449.31 385.73 449.858 395.675L452.437 441.652C452.538 443.568 454.167 444.707 455.68 444.707C456.257 444.707 457.107 444.549 457.871 443.799C463.175 438.582 469.704 435.613 476.781 435.223C477.314 435.195 477.847 435.18 478.366 435.18C495.272 435.18 509.354 450.184 510.42 469.339C510.953 478.894 508.186 488.075 502.623 495.181C497.031 502.329 489.277 506.524 480.802 506.999C480.269 507.028 479.75 507.042 479.216 507.042C472.716 507.042 466.432 504.808 461.056 500.586C460.494 500.139 459.817 499.908 459.125 499.908C458.231 499.908 457.367 500.283 456.747 500.946C456.315 501.393 455.824 502.171 455.897 503.324L458.476 549.301C458.75 554.316 457.064 559.13 453.72 562.878C450.376 566.625 445.764 568.845 440.749 569.118L287.137 577.723C286.777 577.737 286.416 577.752 286.071 577.752V577.766Z" fill="#9FBFFF"/>
<path d="M352.34 326.09C370.572 326.09 385.691 338.542 386.599 354.757C387.017 362.151 384.394 369.083 379.725 374.646C377.361 377.457 379.407 381.68 382.996 381.68C383.083 381.68 383.169 381.68 383.256 381.68L430.083 379.057C430.414 379.042 430.76 379.028 431.092 379.028C440.417 379.028 448.243 386.321 448.762 395.761L451.342 441.738C451.486 444.203 453.533 445.802 455.666 445.802C456.703 445.802 457.755 445.428 458.606 444.577C463.506 439.763 469.805 436.708 476.809 436.304C477.328 436.276 477.833 436.261 478.337 436.261C494.551 436.261 508.272 450.76 509.324 469.396C510.405 488.623 497.592 504.967 480.715 505.918C480.211 505.947 479.692 505.961 479.187 505.961C472.745 505.961 466.706 503.67 461.69 499.735C460.883 499.101 459.975 498.827 459.096 498.827C456.804 498.827 454.642 500.73 454.786 503.382L457.366 549.358C457.914 559.13 450.434 567.49 440.662 568.037L287.05 576.642C286.719 576.656 286.373 576.671 286.041 576.671C276.716 576.671 268.89 569.378 268.371 559.937L259.767 406.326C259.219 396.554 266.699 388.194 276.471 387.647L323.298 385.024C327.046 384.807 328.747 380.224 326.022 377.644C320.747 372.643 317.375 366.042 316.957 358.648C316.006 341.771 330.822 327.214 350.049 326.133C350.812 326.09 351.562 326.075 352.297 326.075M352.297 323.913C351.504 323.913 350.712 323.942 349.919 323.985C340.104 324.533 331.038 328.425 324.408 334.925C317.706 341.511 314.29 349.972 314.781 358.763C315.213 366.402 318.658 373.666 324.509 379.201C325.446 380.08 325.143 381.147 325.028 381.449C324.913 381.766 324.437 382.775 323.14 382.847L276.313 385.47C265.373 386.09 256.956 395.487 257.576 406.427L266.181 560.038C266.771 570.56 275.477 578.804 286.013 578.804C286.387 578.804 286.762 578.804 287.137 578.775L440.748 570.17C446.052 569.868 450.924 567.533 454.455 563.569C458 559.606 459.773 554.504 459.485 549.214L456.905 503.237C456.862 502.474 457.193 501.955 457.467 501.666C457.885 501.234 458.476 500.975 459.053 500.975C459.514 500.975 459.932 501.133 460.307 501.421C465.884 505.788 472.384 508.109 479.13 508.109C479.677 508.109 480.225 508.095 480.773 508.066C489.565 507.576 497.592 503.223 503.386 495.829C509.108 488.522 511.962 479.082 511.414 469.266C510.305 449.535 495.748 434.085 478.279 434.085C477.732 434.085 477.184 434.099 476.636 434.128C469.3 434.546 462.526 437.616 457.035 443.006C456.53 443.511 455.983 443.612 455.608 443.612C454.614 443.612 453.518 442.905 453.446 441.579L450.866 395.603C450.275 385.081 441.57 376.837 431.034 376.837C430.659 376.837 430.285 376.837 429.91 376.866L383.083 379.489C383.083 379.489 382.996 379.489 382.939 379.489C381.685 379.489 381.151 378.538 381.022 378.25C380.849 377.889 380.546 376.938 381.324 376.016C386.513 369.847 389.136 362.251 388.704 354.613C387.738 337.389 371.74 323.899 352.283 323.899L352.297 323.913Z" fill="white"/>
<mask id="mask3_470_7084" style="mask-type:luminance" maskUnits="userSpaceOnUse" x="259" y="326" width="251" height="251">
<path d="M476.839 436.319C469.834 436.708 463.521 439.764 458.635 444.592C456.012 447.172 451.573 445.413 451.371 441.738L448.791 395.761C448.244 385.989 439.884 378.509 430.112 379.057L383.285 381.68C379.538 381.896 377.333 377.529 379.754 374.646C384.438 369.083 387.047 362.151 386.629 354.757C385.678 337.879 369.334 325.066 350.107 326.147C330.88 327.228 316.064 341.785 317.015 358.663C317.433 366.056 320.806 372.657 326.081 377.659C328.805 380.239 327.104 384.822 323.357 385.038L276.53 387.661C266.758 388.209 259.277 396.568 259.825 406.34L268.43 559.952C268.977 569.724 277.337 577.204 287.109 576.656L440.72 568.052C450.492 567.504 457.972 559.145 457.425 549.373L454.845 503.396C454.643 499.721 458.851 497.487 461.748 499.75C467.153 503.987 473.754 506.322 480.759 505.933C497.636 504.981 510.449 488.637 509.368 469.411C508.287 450.184 493.73 435.368 476.853 436.319H476.839Z" fill="white"/>
</mask>
<g mask="url(#mask3_470_7084)">
<g opacity="0.35">
<path d="M291.792 486C289.573 486.547 287.324 485.207 286.762 482.987C286.214 480.768 287.555 478.519 289.774 477.957C291.994 477.41 294.242 478.75 294.804 480.97C295.352 483.189 294.012 485.438 291.792 486Z" fill="white"/>
<path d="M329.74 476.545C327.521 477.093 325.272 475.752 324.71 473.533C324.163 471.313 325.503 469.065 327.723 468.503C329.942 467.955 332.191 469.295 332.753 471.515C333.315 473.734 331.96 475.983 329.74 476.545Z" fill="white"/>
<path d="M367.675 467.076C365.455 467.623 363.207 466.283 362.645 464.063C362.097 461.844 363.438 459.595 365.657 459.033C367.877 458.486 370.125 459.826 370.687 462.046C371.235 464.265 369.895 466.514 367.675 467.076Z" fill="white"/>
<path d="M405.61 457.607C403.391 458.154 401.143 456.814 400.58 454.594C400.033 452.375 401.373 450.126 403.593 449.564C405.812 449.017 408.061 450.357 408.623 452.576C409.185 454.796 407.83 457.044 405.61 457.607Z" fill="white"/>
<path d="M261.626 526.615C259.407 527.163 257.158 525.822 256.596 523.603C256.048 521.383 257.389 519.135 259.608 518.573C261.828 518.025 264.076 519.365 264.638 521.585C265.186 523.805 263.846 526.053 261.626 526.615Z" fill="white"/>
<path d="M299.575 517.146C297.356 517.693 295.107 516.353 294.545 514.133C293.998 511.914 295.338 509.665 297.558 509.103C299.777 508.556 302.026 509.896 302.588 512.116C303.15 514.335 301.795 516.584 299.575 517.146Z" fill="white"/>
<path d="M337.51 507.691C335.29 508.239 333.042 506.898 332.48 504.679C331.932 502.459 333.273 500.211 335.492 499.649C337.712 499.101 339.96 500.441 340.522 502.661C341.084 504.881 339.729 507.129 337.51 507.691Z" fill="white"/>
<path d="M375.444 498.222C373.224 498.77 370.976 497.429 370.413 495.21C369.866 492.99 371.206 490.742 373.426 490.18C375.645 489.632 377.894 490.972 378.456 493.192C379.003 495.411 377.663 497.66 375.444 498.222Z" fill="white"/>
<path d="M413.379 488.753C411.159 489.3 408.911 487.96 408.349 485.74C407.801 483.521 409.142 481.272 411.361 480.71C413.581 480.163 415.829 481.503 416.391 483.723C416.953 485.942 415.599 488.191 413.379 488.753Z" fill="white"/>
<path d="M269.409 557.761C267.19 558.309 264.941 556.968 264.379 554.749C263.832 552.529 265.172 550.281 267.392 549.719C269.611 549.171 271.86 550.511 272.422 552.731C272.969 554.951 271.629 557.199 269.409 557.761Z" fill="white"/>
<path d="M307.343 548.292C305.123 548.84 302.875 547.499 302.313 545.28C301.765 543.06 303.106 540.812 305.325 540.25C307.545 539.702 309.793 541.042 310.355 543.262C310.903 545.482 309.563 547.73 307.343 548.292Z" fill="white"/>
<path d="M345.277 538.837C343.058 539.385 340.81 538.044 340.247 535.825C339.7 533.605 341.04 531.357 343.26 530.795C345.479 530.247 347.728 531.587 348.29 533.807C348.852 536.027 347.497 538.275 345.277 538.837Z" fill="white"/>
<path d="M383.213 529.368C380.993 529.916 378.745 528.575 378.183 526.356C377.635 524.136 378.976 521.888 381.195 521.326C383.415 520.778 385.663 522.118 386.225 524.338C386.787 526.557 385.433 528.806 383.213 529.368Z" fill="white"/>
<path d="M423.694 517.973C424.867 516.003 424.221 513.455 422.251 512.283C420.281 511.11 417.734 511.756 416.561 513.726C415.388 515.695 416.034 518.243 418.004 519.416C419.974 520.588 422.521 519.942 423.694 517.973Z" fill="white"/>
<path d="M315.112 579.438C312.893 579.986 310.644 578.645 310.082 576.426C309.535 574.206 310.875 571.958 313.095 571.396C315.314 570.848 317.563 572.188 318.125 574.408C318.687 576.627 317.332 578.876 315.112 579.438Z" fill="white"/>
<path d="M353.045 569.983C350.825 570.531 348.577 569.19 348.015 566.971C347.467 564.751 348.808 562.503 351.027 561.941C353.247 561.393 355.495 562.733 356.057 564.953C356.605 567.173 355.265 569.421 353.045 569.983Z" fill="white"/>
<path d="M390.981 560.514C388.761 561.062 386.513 559.721 385.951 557.502C385.403 555.282 386.743 553.034 388.963 552.472C391.182 551.91 393.431 553.264 393.993 555.484C394.555 557.703 393.2 559.952 390.981 560.514Z" fill="white"/>
<path d="M431.47 549.125C432.642 547.155 431.996 544.608 430.027 543.435C428.057 542.262 425.509 542.908 424.336 544.878C423.164 546.848 423.81 549.395 425.779 550.568C427.749 551.741 430.297 551.095 431.47 549.125Z" fill="white"/>
<path d="M436.684 582.191C434.464 582.738 432.216 581.398 431.654 579.178C431.106 576.959 432.446 574.711 434.666 574.148C436.886 573.601 439.134 574.941 439.696 577.161C440.244 579.38 438.903 581.629 436.684 582.191Z" fill="white"/>
</g>
</g>
<path d="M78.324 357.942C78.324 357.942 76.8972 420.911 73.049 442.516C68.7395 466.715 32.6787 515.56 32.6787 515.56L41.0237 523.819L53.3899 529.714C53.3899 529.714 84.9107 499.576 102.682 461.872C118.089 429.17 118.766 361.271 118.766 361.271" fill="#F777BA"/>
<path d="M69.3589 549.877C69.748 548.378 69.921 546.533 69.3877 545.741L56.5315 526.831C44.2518 524.568 33.5287 513.485 33.5287 513.485L22.7767 525.39C22.5029 525.837 22.6326 526.413 23.0794 526.701L66.3466 553.956C67.2114 554.504 69.3445 549.92 69.3589 549.877Z" fill="#00276F"/>
<path d="M59.8754 530.031C58.0593 530.694 56.3154 531.573 54.7012 532.639" stroke="#1A3987" stroke-width="0.75" stroke-linejoin="round"/>
<path d="M61.2584 532.784C59.3271 533.547 58.3903 534.11 56.9346 535.046" stroke="#1A3987" stroke-width="0.75" stroke-linejoin="round"/>
<path d="M62.5273 534.96C61.2301 535.45 59.7168 536.315 58.5205 537.007" stroke="#1A3987" stroke-width="0.75" stroke-linejoin="round"/>
<path d="M24.333 523.458L68.6668 551.376" stroke="#1A3987" stroke-width="0.75" stroke-linejoin="round"/>
<path d="M29.7227 517.708C29.7227 517.708 39.9702 524.525 36.8714 531.357" stroke="#1A3987" stroke-width="0.75" stroke-linejoin="round"/>
<path d="M66.7503 541.864C66.7503 541.864 61.3023 544.112 59.5439 545.625" stroke="#1A3987" stroke-width="0.75" stroke-linejoin="round"/>
<path d="M124.59 384.072C124.59 384.072 126.997 420.883 128.683 449.031C130.355 477.179 133.641 541.446 133.641 541.446L145.82 544.328L159.339 542.08C159.339 542.08 162.841 486.605 162.841 449.838C162.841 413.071 161.371 357.942 161.371 357.942" fill="#F777BA"/>
<path d="M183.307 551.996C182.831 550.526 181.981 548.868 181.102 548.494L160.102 539.442C148.529 544.141 133.539 540.552 133.539 540.552L130.873 556.363C130.873 556.882 131.305 557.314 131.824 557.3L182.961 557.04C183.984 557.04 183.321 552.025 183.307 551.982V551.996Z" fill="#00276F"/>
<path d="M164.642 540.35C163.46 541.878 162.466 543.564 161.688 545.323" stroke="#1A3987" stroke-width="0.75" stroke-linejoin="round"/>
<path d="M167.294 541.936C166.069 543.622 165.593 544.602 164.858 546.159" stroke="#1A3987" stroke-width="0.75" stroke-linejoin="round"/>
<path d="M169.529 543.089C168.708 544.199 167.886 545.741 167.252 546.966" stroke="#1A3987" stroke-width="0.75" stroke-linejoin="round"/>
<path d="M131.133 553.898L183.523 553.625" stroke="#1A3987" stroke-width="0.75" stroke-linejoin="round"/>
<path d="M132.59 546.159C132.59 546.159 144.898 546.404 145.951 553.826" stroke="#1A3987" stroke-width="0.75" stroke-linejoin="round"/>
<path d="M176.793 546.649C176.793 546.649 173.406 551.477 172.729 553.697" stroke="#1A3987" stroke-width="0.75" stroke-linejoin="round"/>
<path d="M123.696 175.894C117.109 174.395 110.825 178.834 107.899 183.403C106.977 184.859 106.256 186.444 105.218 187.813C98.6318 196.533 72.0979 193.823 77.3441 210.989C77.9495 212.964 79.1025 214.78 79.2754 216.841C79.4916 219.421 78.1368 221.828 77.4306 224.307C75.1246 232.363 80.7888 241.789 88.9897 243.533C92.6649 244.311 96.7582 243.793 99.929 245.796C102.884 247.67 104.224 251.215 106.328 254.011C112.05 261.679 123.451 263.178 132.444 259.921C135.846 258.681 139.247 256.649 140.703 253.334C141.524 251.446 141.668 249.284 142.749 247.526C144.839 244.139 149.437 243.562 152.896 241.602C157.868 238.777 160.78 232.133 158.517 226.757C156.197 221.265 151.311 216.221 150.186 210.341C149.567 207.054 150.46 203.624 149.797 200.352C149.307 197.917 147.924 195.683 145.978 194.141C144.638 193.074 143.067 192.353 141.741 191.272C138.959 188.995 138.599 184.931 135.745 182.596C132.891 180.261 129.086 179.497 126.016 177.508" fill="#FFE1AD"/>
<path d="M135.76 216.307C152.493 211.638 177.081 212.603 196.697 193.204C216.313 173.818 224.716 159.045 224.716 159.045L239.835 170.965C239.835 170.965 219.988 209.043 202.304 221.842C179.056 238.662 163.245 241.256 149.884 243.677" fill="#F777BA"/>
<path d="M220.594 165.373C224.73 159.045 234.718 140.914 236.116 141.116C237.514 141.318 234.315 147.659 235.482 147.616C236.664 147.558 242.242 138.132 243.597 138.694C245.413 139.473 239.172 148.827 239.172 148.827C239.172 148.827 240.801 147.155 242.184 148.279C243.164 149.072 241.997 151.897 241.997 151.897C241.997 151.897 243.87 150.037 244.865 150.888C245.859 151.724 244.519 155.082 244.519 155.082C244.519 155.082 245.917 154.318 246.868 155.067C247.82 155.802 242.919 167.088 233.796 181.731" fill="#F777BA"/>
<path d="M234.141 150.066C234.141 150.066 233.881 153.381 234.141 155.601C234.573 159.189 233.478 161.063 233.478 161.063" stroke="#CC328A" stroke-width="0.75" stroke-linejoin="round"/>
<path d="M238.624 149.576C238.235 150.643 237.86 151.709 237.543 152.79C237.384 153.338 237.255 153.871 237.154 154.419C237.053 154.952 236.966 155.529 237.053 155.975C237.139 156.206 237.139 156.235 237.327 156.235C237.485 156.235 237.716 156.163 237.932 156.033C238.364 155.774 238.768 155.413 239.157 155.01C239.907 154.217 240.642 153.352 241.276 152.459C241.434 152.242 241.737 152.199 241.939 152.358C242.141 152.502 242.198 152.761 242.083 152.978C241.564 153.958 241.074 154.952 240.656 155.961C240.454 156.465 240.253 156.984 240.108 157.489C239.964 157.979 239.863 158.541 239.921 158.872C239.993 159.031 239.892 158.959 240.036 158.988C240.166 159.031 240.368 158.959 240.555 158.872C240.959 158.685 241.362 158.325 241.723 157.95C242.458 157.186 243.092 156.264 243.654 155.356C243.784 155.125 244.072 155.053 244.303 155.183C244.504 155.312 244.576 155.572 244.476 155.788C244.043 156.696 243.596 157.618 243.207 158.555C242.832 159.492 242.458 160.458 242.342 161.395C242.314 161.625 242.328 161.87 242.386 162C242.429 162.115 242.53 162.144 242.746 162.115C243.15 162.014 243.567 161.697 243.928 161.366C244.663 160.688 245.311 159.881 245.931 159.06C245.427 159.953 244.865 160.818 244.173 161.611C243.813 161.986 243.452 162.389 242.861 162.605C242.703 162.634 242.544 162.677 242.342 162.634C242.155 162.576 241.953 162.432 241.881 162.274C241.708 161.942 241.723 161.64 241.723 161.366C241.795 160.256 242.126 159.276 242.458 158.281C242.804 157.301 243.178 156.336 243.625 155.384L244.447 155.817C243.856 156.826 243.236 157.763 242.429 158.642C242.025 159.074 241.593 159.492 240.988 159.809C240.685 159.953 240.325 160.097 239.892 160.025C239.705 160.025 239.417 159.925 239.215 159.737C239.027 159.55 238.912 159.29 238.869 159.103C238.725 158.31 238.927 157.763 239.085 157.186C239.258 156.624 239.474 156.091 239.705 155.557C240.166 154.505 240.671 153.496 241.233 152.502L242.04 153.021C241.334 153.943 240.598 154.822 239.734 155.615C239.301 156.004 238.84 156.393 238.278 156.682C238.004 156.826 237.673 156.955 237.269 156.927C237.082 156.898 236.837 156.855 236.678 156.653C236.52 156.48 236.462 156.278 236.433 156.105C236.318 154.779 236.808 153.741 237.197 152.675C237.615 151.608 238.091 150.585 238.638 149.576H238.624Z" fill="#CC328A"/>
<path d="M119.79 177.22C118.997 176.787 117.945 176.917 117.268 176.326C116.144 175.332 116.129 173.631 116.605 172.305C117.369 170.201 120.078 169.278 122.139 169.581C127.068 170.316 126.305 175.044 123.292 176.831" fill="#FFE1AD"/>
<path d="M92.5511 297.105C92.5511 297.105 74.8521 315.972 71.494 341.67C68.1358 367.368 68.0781 409.194 68.0781 409.194C68.0781 409.194 119.042 418.533 165.365 408.199C163.592 386.84 165.365 327.026 149.193 297.105" fill="#2A2A68"/>
<path d="M77.4024 410.577C77.4024 410.577 75.8026 346.037 83.2828 324.259C89.1632 307.151 102.092 290.62 102.092 290.62" stroke="#5565AA" stroke-width="0.75" stroke-miterlimit="10"/>
<path d="M166.099 211.566L172.124 240.348C172.124 240.348 160.32 245.133 148.098 245.825C141.511 245.709 131.537 220.069 135.313 215.126C146.296 211.868 166.099 211.566 166.099 211.566Z" fill="#2E7EFA"/>
<path d="M91.3244 243.879C91.3244 243.879 90.5317 277.619 92.5495 297.106C121 303.404 149.192 297.106 149.192 297.106L151.166 266.464C165.377 251.878 152.91 232.983 152.91 232.983L135.327 215.14L117.729 214.16L91.3388 243.879H91.3244Z" fill="#2E7EFA"/>
<path d="M117.73 214.16C117.73 214.16 102.092 211.681 86.9582 224.119C83.5424 226.93 79.305 232.781 75.8027 239.843L100.189 255.899L114.573 239.843" fill="#2E7EFA"/>
<path d="M157.422 244.6C156.226 240.088 152.896 232.983 152.896 228.645" stroke="#1A3987" stroke-width="0.75" stroke-linejoin="round"/>
<path d="M161.501 211.724L168.39 241.688" stroke="#1A3987" stroke-width="0.75" stroke-linejoin="round"/>
<path d="M77.9219 235.865L95.592 246.848" stroke="#1A3987" stroke-width="0.75" stroke-linejoin="round"/>
<path d="M136.625 182.841C136.625 182.841 143.097 199.646 138.24 204.763C135.717 207.429 126.983 205.944 123.683 203.437C121.247 201.577 118.019 190.393 119.33 188.289C124.36 180.232 136.625 182.855 136.625 182.855V182.841Z" fill="#F777BA"/>
<path d="M118.378 197.628L117.715 214.16C119.026 218.325 133.064 222.289 135.313 215.14L133.915 202.745L118.378 197.643V197.628Z" fill="#F777BA"/>
<path d="M110.941 195.74C110.35 194.184 110.235 192.483 110.249 190.826C110.264 188.721 110.494 186.588 111.2 184.599C112.397 181.212 115.005 178.358 118.248 176.831C121.491 175.303 127.703 173.833 132.748 176.816C135.327 176.557 138.037 177.278 139.954 179.021C141.871 180.765 142.837 183.576 142.13 186.055C137.345 185.507 132.56 184.96 127.775 184.412C126.81 187.006 125.022 189.283 122.731 190.84C120.511 192.353 118.075 194.241 118.998 197.34C119.387 198.623 117.989 198.868 117.989 201.361C115.409 201.087 111.604 197.398 110.999 195.913C110.984 195.856 110.955 195.812 110.941 195.755V195.74Z" fill="#FFE1AD"/>
<path d="M120.569 194.962C119.041 192.598 117.615 192.814 116.735 193.953C115.568 195.466 117.297 198.997 118.191 199.66C120.007 201.001 121.592 201.03 121.881 199.473" fill="#F777BA"/>
<path d="M134.305 206.636C128.093 206.896 123.697 203.422 123.697 203.422" stroke="#CC328A" stroke-width="0.75" stroke-linejoin="round"/>
<path d="M133.078 191.344C133.078 191.344 137.2 194.919 137.099 196.043C136.998 197.167 134.433 197.643 134.433 197.643" stroke="#CC328A" stroke-width="0.5" stroke-linejoin="round"/>
<path d="M137.446 198.608L130.499 200.54C130.499 200.54 132.329 204.013 136.077 202.687C138.743 201.75 137.446 198.608 137.446 198.608Z" fill="white"/>
<path d="M135.989 190.047C136.076 190.35 136.177 190.652 136.292 190.955C136.595 191.705 137.661 191.272 137.33 190.523C137.2 190.235 137.056 189.946 136.883 189.672C136.595 189.197 135.831 189.499 135.975 190.047H135.989Z" fill="#00276F"/>
<path d="M134.361 188.361C134.361 188.361 135.255 186.761 136.97 187.698" stroke="#00276F" stroke-width="0.5" stroke-linecap="round" stroke-linejoin="round"/>
<path d="M128.178 192.987C128.236 193.305 128.323 193.607 128.438 193.91C128.683 194.602 129.793 194.285 129.533 193.607C129.403 193.261 129.259 192.93 129.086 192.598C128.813 192.079 128.077 192.454 128.178 192.973V192.987Z" fill="#00276F"/>
<path d="M129.029 189.903C129.029 189.903 127.227 189.543 125.699 191.82" stroke="#00276F" stroke-width="0.5" stroke-linecap="round" stroke-linejoin="round"/>
<path d="M75.8025 239.843C68.207 255.179 63.4796 277.519 79.5066 284.321C96.2255 291.427 140.055 237.768 140.055 237.768L126.521 226.122L90.3307 249.414" fill="#F777BA"/>
<path d="M90.3309 249.414L79.5068 257.845" stroke="#CC328A" stroke-width="0.75" stroke-linejoin="round"/>
<path d="M140.127 230.605C137.95 230.201 136.509 228.097 136.912 225.906L139.838 210.369L147.736 211.854L144.811 227.391C144.407 229.567 142.303 231.008 140.112 230.605H140.127Z" fill="#2A2A68"/>
<path d="M148.933 215.241L142.562 213.699C138.051 212.603 135.284 208.049 136.379 203.538C137.474 199.026 142.029 196.259 146.54 197.355L152.911 198.897C153.285 198.983 153.516 199.372 153.429 199.747L149.783 214.722C149.696 215.097 149.307 215.327 148.933 215.241Z" fill="#4376CF"/>
<path d="M153.717 207.746C152.621 212.257 150.488 215.616 148.961 215.241C147.433 214.866 147.087 210.903 148.182 206.391C149.278 201.88 151.411 198.522 152.939 198.897C154.466 199.272 154.812 203.235 153.717 207.746Z" fill="#9CD0FF"/>
<path d="M168.736 229.38C168.736 229.38 157.076 219.363 150.172 215.241C148.01 213.482 148.745 209.332 149.336 207.054C150.879 201.203 152.896 200.439 152.896 200.439C162.265 201.087 176.98 196.62 176.98 196.62" fill="#2A2A68"/>
<path d="M169.5 211.537C166.935 221.727 167.209 230.59 170.135 231.326C173.046 232.061 177.499 224.393 180.065 214.203C182.63 204.013 182.357 195.149 179.431 194.414C176.505 193.679 172.066 201.347 169.5 211.537Z" fill="#9CD0FF"/>
<path d="M171.216 211.998C169.039 220.617 169.068 228.054 171.259 228.616C173.45 229.164 176.995 222.635 179.172 214.001C181.348 205.382 181.319 197.945 179.128 197.383C176.938 196.836 173.392 203.365 171.216 211.998Z" fill="#4376CF"/>
<path d="M175.079 216.927C173.09 216.423 171.331 216.596 170.222 216.826C170.481 215.298 170.813 213.67 171.231 212.012C171.649 210.355 172.124 208.769 172.629 207.285C173.508 208.02 174.963 209 176.952 209.504L175.079 216.927Z" fill="#2A2A68"/>
<path d="M174.992 212.949C174.473 215.025 174.502 216.812 175.064 216.956C175.626 217.1 176.506 215.529 177.024 213.468C177.543 211.393 177.515 209.605 176.952 209.461C176.39 209.317 175.511 210.888 174.992 212.949Z" fill="#FFE1AD"/>
<path d="M119.963 230.345C129 224.436 135.327 220.963 136.422 220.501C140.04 218.959 143.96 219.55 146.814 220.718C147.765 221.107 148.688 221.654 149.322 222.476C150.1 223.456 150.417 224.768 150.359 226.022C150.359 226.252 150.316 226.526 150.114 226.656C149.668 226.958 149.25 226.267 148.961 225.791C148.255 224.623 147.073 224.133 145.704 224.133C146.396 224.148 146.699 224.825 147.001 225.459C147.304 226.094 146.958 226.987 146.266 227.088C146.9 227.203 147.434 227.765 147.506 228.414C147.578 229.063 147.203 229.726 146.612 229.999C147.045 230.144 147.261 230.677 147.203 231.138C147.145 231.599 146.872 231.988 146.598 232.363C145.358 233.992 143.816 235.361 142.274 236.687C137.417 240.867 127.371 252.195 127.371 252.195" fill="#F777BA"/>
<path d="M175.049 549.69L134.232 546.649L120.843 548.032L121.117 598.794C121.117 600.077 122.169 601.115 123.451 601.1C124.417 601.1 125.267 600.495 125.613 599.601L136.019 576.959L178.566 582.075" fill="#F777BA"/>
<path d="M121.679 603.392C123.365 602.859 125.253 601.864 125.671 600.884L136.005 576.872C130.643 563.641 134.737 546.505 134.737 546.505L116.663 545.193C116.072 545.193 115.582 545.683 115.582 546.288L115.885 603.003C115.885 604.185 121.607 603.421 121.664 603.406L121.679 603.392Z" fill="#2E7EFA"/>
<path d="M134.981 582.061C133.223 580.721 131.321 579.582 129.303 578.674" stroke="#1A3987" stroke-width="0.75" stroke-linejoin="round"/>
<path d="M133.164 585.088C131.233 583.69 130.123 583.142 128.336 582.306" stroke="#1A3987" stroke-width="0.75" stroke-linejoin="round"/>
<path d="M131.854 587.639C130.586 586.687 128.827 585.765 127.415 585.03" stroke="#1A3987" stroke-width="0.75" stroke-linejoin="round"/>
<path d="M119.487 545.496L119.804 603.637" stroke="#1A3987" stroke-width="0.75" stroke-linejoin="round"/>
<path d="M128.15 546.029C128.15 546.029 128.049 559.49 119.574 560.701" stroke="#1A3987" stroke-width="0.75" stroke-linejoin="round"/>
<path d="M127.789 595.955C127.789 595.955 122.283 592.078 119.732 591.314" stroke="#1A3987" stroke-width="0.75" stroke-linejoin="round"/>
<path d="M246.348 465.923C246.954 467.177 254.549 521.037 259.983 558.611C263.384 582.133 263.817 596.978 229.572 594.168C182.428 590.305 149.581 588.172 149.581 588.172L148.485 545.899L213.271 548.984L204.839 507.158C204.839 507.158 189.173 486.274 200.717 462.348" fill="#816FC2"/>
<path d="M155.492 546.216L157.193 588.158" stroke="#4C3F89" stroke-width="0.75" stroke-miterlimit="10"/>
<path d="M234.992 493.84L246.378 560.009C246.609 561.825 245.124 563.396 243.308 563.281L148.789 557.458" stroke="#4C3F89" stroke-width="0.75" stroke-miterlimit="10"/>
<path d="M295.209 544.184L286.59 585.001L286.229 598.391L338.735 598.117C340.018 598.117 341.056 597.065 341.041 595.782C341.041 594.816 340.436 593.966 339.542 593.62L316.9 583.214L327.594 540.667" fill="#F777BA"/>
<path d="M343.334 597.569C342.8 595.883 341.806 593.995 340.826 593.577L316.814 583.243C303.583 588.604 286.446 584.511 286.446 584.511L283.391 602.585C283.391 603.19 283.881 603.666 284.486 603.666L342.93 603.363C344.112 603.363 343.348 597.641 343.334 597.584V597.569Z" fill="#2E7EFA"/>
<path d="M322.018 584.266C320.677 586.024 319.539 587.927 318.631 589.945" stroke="#1A3987" stroke-width="0.75" stroke-linejoin="round"/>
<path d="M325.029 586.068C323.631 587.999 323.083 589.109 322.247 590.896" stroke="#1A3987" stroke-width="0.75" stroke-linejoin="round"/>
<path d="M327.595 587.394C326.644 588.662 325.721 590.42 324.986 591.833" stroke="#1A3987" stroke-width="0.75" stroke-linejoin="round"/>
<path d="M283.707 599.746L343.592 599.443" stroke="#1A3987" stroke-width="0.75" stroke-linejoin="round"/>
<path d="M285.364 590.896C285.364 590.896 299.431 591.184 300.642 599.659" stroke="#1A3987" stroke-width="0.75" stroke-linejoin="round"/>
<path d="M335.896 591.444C335.896 591.444 332.019 596.949 331.255 599.5" stroke="#1A3987" stroke-width="0.75" stroke-linejoin="round"/>
<path d="M268.185 453.614L271.183 465.389C271.616 467.076 273.129 468.243 274.858 468.243H315.503C325.447 468.243 335.94 468.502 341.619 477.121C346.274 484.184 344.631 495.959 340.754 509.478C337.424 521.08 325.664 573.961 325.664 573.961H283.852L295.656 510.833H247.402C247.402 510.833 216.184 511.092 220.493 479.788" fill="#816FC2"/>
<path d="M284.96 567.432H326.844" stroke="#4C3F89" stroke-width="0.75" stroke-miterlimit="10"/>
<path d="M253.124 510.833H247.402C247.402 510.833 217.496 510.833 217.106 479.788" stroke="#4C3F89" stroke-width="0.75" stroke-miterlimit="10"/>
<path d="M249.809 463.688C249.809 463.688 250.572 498.712 280.032 498.712H302.199C304.952 498.712 307.013 501.248 306.451 503.943L291.822 573.874" stroke="#4C3F89" stroke-width="0.75" stroke-miterlimit="10"/>
<path d="M252.69 478.217C252.921 478.836 265.071 475.435 264.84 463.688" stroke="#4C3F89" stroke-width="0.75" stroke-miterlimit="10"/>
<path d="M227.166 483.175C227.166 483.175 233.536 483.175 239.33 481.488" stroke="#4C3F89" stroke-width="0.75" stroke-miterlimit="10"/>
<path d="M196.553 483.175C196.553 483.175 202.433 483.348 206.887 483.175" stroke="#4C3F89" stroke-width="0.75" stroke-miterlimit="10"/>
<path d="M232.238 336.827C232.238 336.827 246.709 291.931 273.646 255.798L255.227 244.571C226.084 276.178 206.9 329.059 206.9 329.059" fill="#F777BA"/>
<path d="M195.601 413.057C195.601 413.057 189.577 357.668 212.392 311.216L239.33 320.007L232.224 355.521" fill="#FFE1AD"/>
<path d="M210.374 316.448L236.922 325.629" stroke="#D19B4B" stroke-width="0.75" stroke-miterlimit="10"/>
<path d="M269.784 260.973C274.136 254.328 289.875 237.163 289.111 235.721C288.347 234.28 282.726 240.261 282.323 238.964C281.919 237.667 289.947 227.895 288.794 226.67C287.238 224.998 279.556 235.448 279.556 235.448C279.556 235.448 287.396 223.586 285.638 222.534C284.384 221.784 277.985 230.562 275.116 233.603C277.812 229.913 281.444 223.398 280.132 222.649C278.835 221.899 274.338 227.78 270.663 232.104C272.709 229.192 276.14 223.687 274.958 222.937C273.776 222.188 258.83 238.056 247.055 254.184" fill="#F777BA"/>
<path d="M250.053 399.004C250.053 399.004 277.61 409.569 297.831 410.88C324.336 412.61 355.151 402.722 355.151 402.722C355.151 402.722 359.215 380.945 348.607 381.982C335.535 384.361 312.936 386.032 295.943 383.971C285.335 382.689 262.765 370.611 262.765 370.611" fill="#F777BA"/>
<path d="M342.598 383.15C350.467 382.112 372.764 375.338 373.729 376.65C374.695 377.961 366.883 380.44 367.878 381.363C368.872 382.285 381.152 379.287 381.757 380.844C382.593 382.963 369.852 385.369 369.852 385.369C369.852 385.369 383.934 383.424 384.121 385.47C384.251 386.926 373.571 388.901 369.578 390.169C374.075 389.347 381.512 388.872 381.628 390.385C381.728 391.884 374.493 393.383 369.002 394.824C372.519 394.248 378.961 393.527 379.12 394.911C379.278 396.294 361.925 401.166 345.394 405.115" fill="#F777BA"/>
<path d="M221.559 346.988L217.797 365.927C217.797 365.927 228.405 376.664 239.503 366.676L239.373 353.978L221.559 346.988Z" fill="#F777BA"/>
<path d="M241.621 329.145C241.621 329.145 250.672 347.248 245.066 353.244C242.154 356.357 237.888 357.539 234.04 354.642C231.186 352.494 220.247 339.508 221.76 337.044C227.554 327.647 241.607 329.145 241.607 329.145H241.621Z" fill="#F777BA"/>
<path d="M245.224 339.349C245.224 339.349 248.567 342.679 248.567 344.884C248.567 345.864 245.224 346.008 245.224 346.008" fill="#F777BA"/>
<path d="M245.066 347.853L239.185 346.988C238.897 349.222 243.279 354.786 245.066 347.853Z" fill="white"/>
<path d="M240.77 339.047C240.64 339.667 240.77 340.402 241.318 340.762C241.577 340.921 241.909 340.704 241.909 340.416C241.909 339.969 241.692 339.479 241.577 339.047C241.476 338.658 240.842 338.629 240.77 339.047Z" fill="#00276F"/>
<path d="M237.946 337.952C238.566 337.015 239.633 336.381 240.742 336.294C241.218 336.251 241.737 336.323 242.112 336.626" stroke="#00276F" stroke-width="0.5" stroke-linecap="round" stroke-linejoin="round"/>
<path d="M219.656 330.5C220.622 324.072 227.165 322.746 239.33 324.562C240.958 324.807 243.97 323.957 244.59 325.47C245.412 327.473 245.253 331.35 243.178 332.921C241.362 334.291 238.811 333.57 236.793 334.291C233.521 335.472 235.135 338.629 233.391 340.935C230.509 344.783 232.411 350.433 227.655 353.373C224.946 355.045 221.472 354.569 218.344 353.979C217.97 353.906 217.566 353.834 217.264 353.589C216.183 352.753 216.629 349.813 216.312 348.53C215.303 344.452 214.741 340.171 215.102 335.963C215.419 332.316 218.344 330.111 219.685 330.486L219.656 330.5Z" fill="#0B0B3A"/>
<path d="M233.521 341.843C232.887 338.067 230.062 339.378 229.053 340.69C227.698 342.463 229.731 346.556 230.783 347.32C232.916 348.862 234.746 348.876 235.078 347.075" fill="#F777BA"/>
<path d="M239.186 356.544C235.078 355.276 232.513 353.229 232.513 353.229" stroke="#CC328A" stroke-width="0.75" stroke-linejoin="round"/>
<path d="M217.697 360.133C217.697 360.133 201.252 367.094 196.178 393.08C193.93 404.639 198.254 466.787 198.268 466.744C233.868 473.691 272.191 463.429 272.191 463.429C272.191 463.429 267.795 422.915 265.806 407.652C261.194 372.441 236.938 361.257 236.938 361.257L217.711 360.133H217.697Z" fill="#FFE1AD"/>
<path d="M236.923 361.257C236.923 361.257 250.615 363.361 259.407 367.555C268.199 371.749 287.987 381.377 287.987 381.377L277.812 409.511L241.895 398.154" fill="#FFE1AD"/>
<path d="M265.417 405.129L245.239 399.22" stroke="#D19B4B" stroke-width="0.75" stroke-miterlimit="10"/>
<path d="M281.819 378.379L272.177 407.306" stroke="#D19B4B" stroke-width="0.75" stroke-miterlimit="10"/>
<path d="M197.908 462.348C197.908 462.348 232.571 467.595 271.5 459.653" stroke="#D19B4B" stroke-width="0.75" stroke-miterlimit="10"/>
<path d="M750.438 540.509L759.057 581.326L757.674 594.715L706.912 594.442C705.629 594.442 704.591 593.389 704.606 592.107C704.606 591.141 705.211 590.291 706.105 589.945L728.747 579.539L718.053 536.992" fill="#F777BA"/>
<path d="M702.314 593.894C702.848 592.208 703.842 590.32 704.822 589.902L728.834 579.568C742.065 584.929 759.202 580.836 759.202 580.836L760.513 598.91C760.513 599.501 760.023 599.991 759.418 599.991L702.704 599.688C701.522 599.688 702.286 593.966 702.3 593.908L702.314 593.894Z" fill="#18277A"/>
<path d="M723.631 580.591C724.971 582.349 726.11 584.252 727.018 586.27" stroke="#5565AA" stroke-width="0.75" stroke-miterlimit="10"/>
<path d="M720.618 582.393C722.016 584.324 722.564 585.434 723.4 587.221" stroke="#5565AA" stroke-width="0.75" stroke-miterlimit="10"/>
<path d="M718.053 583.719C719.004 584.987 719.926 586.745 720.661 588.158" stroke="#5565AA" stroke-width="0.75" stroke-miterlimit="10"/>
<path d="M760.197 596.07L702.056 595.768" stroke="#5565AA" stroke-width="0.75" stroke-miterlimit="10"/>
<path d="M759.678 587.422C759.678 587.422 746.217 587.523 745.006 595.998" stroke="#5565AA" stroke-width="0.75" stroke-miterlimit="10"/>
<path d="M709.737 587.783C709.737 587.783 713.614 593.289 714.378 595.84" stroke="#5565AA" stroke-width="0.75" stroke-miterlimit="10"/>
<path d="M732.25 392.273C732.25 392.273 699.778 464.899 701.479 490.626C703.078 514.58 721.239 575.244 721.239 575.244L760.182 568.109C760.182 568.109 741.561 493.177 742.526 485.437C743.492 477.683 767.273 424.356 767.273 424.356C767.273 424.356 776.483 411.788 773.326 390.169" fill="#2E7EFA"/>
<path d="M753.667 569.305C753.667 569.305 735.507 493.667 736.473 485.913C737.438 478.159 759.951 425.812 759.951 425.812" stroke="#1A3987" stroke-width="0.75" stroke-linejoin="round"/>
<path d="M758.424 560.96L719.365 568.83" stroke="#1A3987" stroke-width="0.75" stroke-linejoin="round"/>
<path d="M806.734 521.44L824.895 559.433L829.319 572.145L783.242 593.432C782.074 593.966 780.705 593.461 780.157 592.294C779.754 591.415 779.927 590.391 780.604 589.699L796.689 570.66L775.92 531.991" fill="#F777BA"/>
<path d="M778.831 594.874C778.601 593.13 778.702 590.997 779.408 590.19L796.761 570.646C811.015 569.896 824.794 558.914 824.794 558.914L833.643 574.725C833.888 575.272 833.643 575.907 833.11 576.166L781.628 599.947C780.561 600.437 778.817 594.931 778.817 594.888L778.831 594.874Z" fill="#18277A"/>
<path d="M792.509 573.788C794.469 574.811 796.314 576.051 797.986 577.506" stroke="#5565AA" stroke-width="0.75" stroke-miterlimit="10"/>
<path d="M790.534 576.699C792.61 577.852 793.59 578.63 795.103 579.899" stroke="#5565AA" stroke-width="0.75" stroke-miterlimit="10"/>
<path d="M788.775 578.977C790.173 579.726 791.759 580.922 793.013 581.888" stroke="#5565AA" stroke-width="0.75" stroke-miterlimit="10"/>
<path d="M832.187 572.303L779.407 596.676" stroke="#5565AA" stroke-width="0.75" stroke-miterlimit="10"/>
<path d="M828.037 564.693C828.037 564.693 815.887 570.487 818.38 578.674" stroke="#5565AA" stroke-width="0.75" stroke-miterlimit="10"/>
<path d="M782.967 586.183C782.967 586.183 788.818 589.527 790.591 591.501" stroke="#5565AA" stroke-width="0.75" stroke-miterlimit="10"/>
<path d="M757.919 394.478C757.919 394.478 745.538 463.069 751.376 488.176C757.919 516.266 786.082 563.872 786.082 563.872L821.177 546.432C821.177 546.432 790.896 488.565 790.939 476.083C790.968 468.272 797.871 420.133 797.871 420.133C797.871 420.133 804.804 406.181 798.03 385.427" fill="#2E7EFA"/>
<path d="M813.105 550.439C813.105 550.439 782.853 493.883 782.867 477.784C782.867 469.972 787.667 433.551 789.8 421.834C791.933 410.116 796.113 396.582 789.958 387.128" stroke="#1A3987" stroke-width="0.75" stroke-linejoin="round"/>
<path d="M749.891 464.87C751.735 445.601 753.912 419.73 756.852 396.683" stroke="#1A3987" stroke-width="0.75" stroke-linejoin="round"/>
<path d="M777.462 396.683C777.462 396.683 779.84 402.593 792.725 406.023" stroke="#1A3987" stroke-width="0.75" stroke-linejoin="round"/>
<path d="M751.232 398.081C751.232 398.081 749.301 412.22 750.439 414.08C750.958 414.93 755.037 415.708 755.037 415.708" stroke="#1A3987" stroke-width="0.75" stroke-linejoin="round"/>
<path d="M727.364 403.63C727.364 403.63 735.147 403.832 739.615 398.845" stroke="#1A3987" stroke-width="0.75" stroke-linejoin="round"/>
<path d="M818.048 540.321L782.463 557.545" stroke="#1A3987" stroke-width="0.75" stroke-linejoin="round"/>
<path d="M743.058 289.323C743.058 289.323 728.3 293.56 726.167 321.838C724.163 333.44 728.977 397.937 728.977 397.88C764.721 404.048 802.814 392.979 802.814 392.979C802.814 392.979 796.141 352.566 793.604 337.389C787.234 299.282 760.873 291.182 760.873 291.182L743.044 289.323H743.058Z" fill="#18277A"/>
<path d="M749.255 289.582C749.255 289.582 740.564 274.261 727.031 259.2C709.274 239.44 682.481 222.851 682.481 222.851C682.481 222.851 664.35 235.592 672.666 242.25C683.677 249.673 697.758 264.446 708.482 277.807C715.169 286.137 728.703 311.662 728.703 311.662" fill="#F777BA"/>
<path d="M677.768 245.623C671.412 240.867 650.73 230.129 650.961 228.515C651.191 226.901 658.513 230.59 658.455 229.235C658.398 227.881 647.516 221.453 648.165 219.896C649.058 217.792 659.853 224.984 659.853 224.984C659.853 224.984 648.424 216.523 649.721 214.938C650.644 213.814 659.666 219.853 663.399 221.741C659.608 219.19 653.959 214.318 654.939 213.165C655.904 212.027 662.131 216.005 667.074 218.815C664.163 216.783 659.046 212.79 659.897 211.681C660.747 210.571 676.63 218.599 691.605 228.933" fill="#F777BA"/>
<path d="M776.338 336.683C776.338 336.683 763.078 363.058 749.026 377.644C730.592 396.77 701.161 410.217 701.161 410.217C701.161 410.217 683.491 396.856 692.023 390.486C703.294 383.452 721.122 369.458 732.292 356.486C739.268 348.386 750.424 323.063 750.424 323.063" fill="#F777BA"/>
<path d="M697.255 387.301C690.74 391.826 669.698 401.843 669.871 403.457C670.044 405.072 677.481 401.641 677.38 402.996C677.264 404.351 666.167 410.39 666.772 411.961C667.579 414.094 678.619 407.291 678.619 407.291C678.619 407.291 666.902 415.348 668.141 416.991C669.02 418.158 678.245 412.422 682.05 410.664C678.173 413.085 672.35 417.755 673.287 418.937C674.209 420.119 680.579 416.342 685.609 413.719C682.626 415.651 677.38 419.47 678.187 420.609C678.994 421.747 695.122 413.662 709.982 405.446" fill="#F777BA"/>
<path d="M749.876 316.245C746.186 328.655 736.443 349.208 736.443 349.208L762.905 363.159C762.905 363.159 776.554 346.498 781.714 326.493" fill="#18277A"/>
<path d="M762.905 363.159C762.905 363.159 777.722 342.462 780.302 331.278" stroke="#5565AA" stroke-width="0.75" stroke-miterlimit="10"/>
<path d="M736.43 349.207C736.43 349.207 746.274 330.139 748.349 320.901" stroke="#5565AA" stroke-width="0.75" stroke-miterlimit="10"/>
<path d="M725.692 330.24C725.361 319.878 720.374 298.215 705.5 278.412L728.906 259.69C728.906 259.69 749.473 276.149 755.325 290.677" fill="#18277A"/>
<path d="M738.447 259.43C738.447 259.43 732.466 275.991 737.784 281.367C740.552 284.163 748.709 284.653 752.183 281.886C754.763 279.824 758.582 267.098 757.112 264.864C751.534 256.346 738.447 259.43 738.447 259.43Z" fill="#F777BA"/>
<path d="M741.776 267.242C741.776 267.242 738.576 271.148 738.706 272.359C738.836 273.555 741.603 274.002 741.603 274.002" stroke="#CC328A" stroke-width="0.5" stroke-linejoin="round"/>
<path d="M738.39 275.111L745.885 277.014C745.885 277.014 743.997 280.776 739.962 279.45C737.079 278.498 738.39 275.111 738.39 275.111Z" fill="white"/>
<path d="M738.821 265.513C738.634 265.859 738.461 266.204 738.317 266.565C738.043 267.228 739.153 267.545 739.412 266.867C739.542 266.55 739.643 266.219 739.729 265.887C739.859 265.354 739.109 265.008 738.821 265.513Z" fill="#00276F"/>
<path d="M741.473 264.057C741.473 264.057 740.479 262.356 738.648 263.408" stroke="#00276F" stroke-width="0.5" stroke-linecap="round" stroke-linejoin="round"/>
<path d="M747.254 268.496C747.081 268.842 746.937 269.202 746.807 269.577C746.562 270.269 747.686 270.572 747.903 269.88C748.003 269.548 748.09 269.217 748.162 268.885C748.263 268.366 747.528 267.963 747.254 268.511V268.496Z" fill="#00276F"/>
<path d="M747.224 265.57C747.224 265.57 749.155 265.138 750.841 267.545" stroke="#00276F" stroke-width="0.5" stroke-linecap="round" stroke-linejoin="round"/>
<path d="M757.616 274.578L760.887 291.182C760.887 291.182 748.363 300.579 741.43 290.576L741.214 279.724L757.616 274.578Z" fill="#F777BA"/>
<path d="M763.597 271.725C763.741 271.134 763.9 270.543 764.116 269.952C764.62 268.554 765.384 267.314 765.932 265.931C767.027 263.178 766.119 259.747 763.799 257.917C763.381 257.586 762.934 257.312 762.574 256.923C761.752 256.072 761.464 254.862 760.988 253.766C760.599 252.887 760.023 252.022 759.172 251.575C757.212 250.538 754.603 251.95 752.643 250.898C752.225 250.667 751.865 250.35 751.476 250.048C748.665 247.929 745.48 248.419 742.41 249.529C740.983 250.048 740.508 250.61 739.312 251.547C738.014 252.555 736.198 252.498 734.887 253.492C733.518 254.53 733.172 256.447 733.157 258.176C733.157 258.796 733.186 259.445 733.446 260.007C733.791 260.742 734.483 261.246 735.204 261.578C736.962 262.371 738.937 262.068 740.796 261.924C742.612 261.78 744.731 260.511 746.503 261.174C748.233 261.823 748.68 263.956 750.827 264.115C751.663 264.187 752.701 264.028 753.191 264.705C753.753 265.469 753.465 266.738 753.912 267.617C754.33 268.453 755.079 269.202 755.612 269.981C756.693 271.508 758.221 272.56 757.673 274.564C757.299 275.947 755.742 278.181 756.391 279.666C756.809 280.632 758.942 280.617 760.57 279.392C762.242 278.124 762.732 275.702 763.136 273.786C763.28 273.079 763.424 272.402 763.583 271.725H763.597Z" fill="#212237"/>
<path d="M755.945 272.056C757.53 269.49 759.072 269.692 760.038 270.889C761.335 272.488 759.548 276.308 758.611 277.043C756.694 278.513 754.993 278.585 754.647 276.927" fill="#F777BA"/>
<path d="M741.876 283.874C747.828 284.076 752.801 281.223 752.801 281.223" stroke="#CC328A" stroke-width="0.75" stroke-linejoin="round"/>
<path d="M725.403 326.421C725.403 326.421 725.792 310.235 723.947 305.292" stroke="#5565AA" stroke-width="0.75" stroke-miterlimit="10"/>
<path d="M739.83 293.531C739.83 293.531 742.77 298.648 750.741 298.475C759.763 298.273 763.496 292.234 763.496 292.234" stroke="#5565AA" stroke-width="0.75" stroke-miterlimit="10"/>
<path d="M583.135 207.818C582.241 215.471 576.563 233.213 577.672 233.934C578.782 234.655 581.449 227.837 582.256 228.587C583.048 229.336 580.051 239.656 581.377 240.103C583.164 240.708 585.527 230.504 585.527 230.504C585.527 230.504 583.596 241.746 585.311 241.847C586.522 241.919 588.583 233.79 589.534 230.648C588.958 234.179 588.079 239.742 589.347 239.786C590.601 239.829 592.028 235.029 593.094 230.72C592.691 233.473 591.408 238.935 592.575 239.036C593.728 239.137 597.966 226.728 600.661 211.263" fill="#F777BA"/>
<path d="M605.504 130.047C610.996 170.489 598.961 219.075 598.961 219.075L582.257 215.486C582.257 215.486 588.526 171.613 581.464 133.073" fill="#F777BA"/>
<path d="M570.307 94.0146C578.219 94.0146 586.435 96.5801 593.713 102.288C604.854 111.036 607.65 131.2 607.65 131.2L581.304 136.475C581.304 136.475 579.92 119.468 579.704 113.63" fill="#FF9357"/>
<path d="M580.338 136.46C579.516 128.649 577.109 121.644 577.109 121.644" stroke="#A52F2D" stroke-width="0.75" stroke-miterlimit="10"/>
<path d="M786.758 114.079L778.04 82.037L745.998 90.7548L754.715 122.797L786.758 114.079Z" stroke="#91ABE5" stroke-width="1.5" stroke-miterlimit="10"/>
<path d="M36.7979 473.176L38.8389 456.975L22.6372 454.934L20.5962 471.135L36.7979 473.176Z" stroke="#91ABE5" stroke-width="1.5" stroke-miterlimit="10"/>
<path d="M852.799 486.338C853.834 479.161 848.855 472.503 841.678 471.468C834.501 470.432 827.843 475.411 826.808 482.588C825.772 489.765 830.751 496.423 837.928 497.458C845.105 498.494 851.763 493.515 852.799 486.338Z" stroke="#FF9C94" stroke-width="1.5" stroke-miterlimit="10"/>
<path d="M324.048 35.2249C324.048 38.8569 321.108 41.7971 317.476 41.7971C313.844 41.7971 310.903 38.8569 310.903 35.2249C310.903 31.5929 313.844 28.6526 317.476 28.6526C321.108 28.6526 324.048 31.5929 324.048 35.2249Z" stroke="#91ABE5" stroke-width="1.5" stroke-miterlimit="10"/>
<path d="M868.276 324.49C868.276 328.122 865.336 331.062 861.704 331.062C858.072 331.062 855.132 328.122 855.132 324.49C855.132 320.858 858.072 317.918 861.704 317.918C865.336 317.918 868.276 320.858 868.276 324.49Z" stroke="#91ABE5" stroke-width="1.5" stroke-miterlimit="10"/>
<path d="M874.848 459.985C874.848 463.617 871.907 466.557 868.275 466.557C864.643 466.557 861.703 463.617 861.703 459.985C861.703 456.353 864.643 453.412 868.275 453.412C871.907 453.412 874.848 456.353 874.848 459.985Z" stroke="#91ABE5" stroke-width="1.5" stroke-miterlimit="10"/>
<path d="M14.1445 412.336C14.1445 415.968 11.2043 418.908 7.57223 418.908C3.94021 418.908 1 415.968 1 412.336C1 408.704 3.94021 405.764 7.57223 405.764C11.2043 405.764 14.1445 408.704 14.1445 412.336Z" stroke="#FF9C94" stroke-width="1.5" stroke-miterlimit="10"/>
<path d="M172.845 59.4528L173.551 63.8198C173.868 65.7656 175.554 67.178 177.514 67.1348L180.411 67.0771C182.372 67.0339 184.072 68.4464 184.375 70.3921L184.836 73.2602C185.153 75.206 186.84 76.6184 188.8 76.5752L191.711 76.5175C193.671 76.4743 195.372 77.8867 195.675 79.8325L196.136 82.715C196.453 84.6463 198.139 86.0588 200.099 86.03L203.53 85.9579" stroke="#91ABE5" stroke-width="1.5" stroke-miterlimit="10"/>
<path d="M46.9192 346.613L45.55 342.405C44.9447 340.531 43.0566 339.393 41.1253 339.738L38.2715 340.243C36.3402 340.589 34.4521 339.45 33.8468 337.576L32.9532 334.824C32.3479 332.95 30.4598 331.811 28.5285 332.157L25.6603 332.662C23.729 333.008 21.8409 331.869 21.2356 329.995L20.342 327.228C19.7367 325.354 17.8486 324.23 15.9173 324.562L12.5303 325.153" stroke="#91ABE5" stroke-width="1.5" stroke-miterlimit="10"/>
<path d="M720.141 172.651L724.551 172.276C726.511 172.103 728.039 170.518 728.154 168.558L728.313 165.661C728.414 163.701 729.956 162.115 731.916 161.942L734.798 161.697C736.759 161.524 738.286 159.939 738.402 157.979L738.56 155.082C738.661 153.122 740.203 151.536 742.149 151.363L745.046 151.118C747.006 150.945 748.534 149.36 748.635 147.4L748.822 143.969" stroke="#91ABE5" stroke-width="1.5" stroke-miterlimit="10"/>
<path d="M856.284 236.457L852.061 237.811C850.187 238.417 849.049 240.29 849.38 242.236L849.87 245.09C850.202 247.021 849.063 248.909 847.19 249.515L844.422 250.394C842.549 250.999 841.41 252.873 841.742 254.818L842.232 257.687C842.563 259.618 841.424 261.506 839.551 262.111L836.769 263.005C834.896 263.61 833.757 265.484 834.088 267.43L834.679 270.817" stroke="#91ABE5" stroke-width="1.5" stroke-miterlimit="10"/>
<path d="M880.225 428.06L883.9 430.539C885.529 431.635 887.719 431.361 889.031 429.905L890.962 427.743C892.274 426.273 894.464 426.014 896.093 427.109L898.5 428.723C900.129 429.819 902.319 429.545 903.631 428.089L905.577 425.927C906.888 424.471 909.079 424.198 910.708 425.293L913.129 426.922C914.758 428.017 916.948 427.743 918.26 426.287L920.552 423.722" stroke="#91ABE5" stroke-width="1.5" stroke-miterlimit="10"/>
<path d="M841.786 290.677L826.595 300.046" stroke="#FF9C94" stroke-width="1.5" stroke-miterlimit="10"/>
<path d="M688.519 93.7841L674.567 104.911" stroke="#FF9C94" stroke-width="1.5" stroke-miterlimit="10"/>
<path d="M378.168 119.597L360.801 115.519" stroke="#FF9C94" stroke-width="1.5" stroke-miterlimit="10"/>
<path d="M49.1677 195.149L35.9512 183.158" stroke="#FF9C94" stroke-width="1.5" stroke-miterlimit="10"/>
</svg>
