<svg width="464" height="464" viewBox="0 0 464 464" fill="none" xmlns="http://www.w3.org/2000/svg">
<rect width="464" height="464" fill="#F4FFDE"/>
<g opacity="0.45">
<path d="M56.7896 170.831C56.7896 170.831 56.8693 170.831 56.8807 170.831H98.2675C104.778 170.831 106.789 170.62 113.288 170.814C113.362 166.804 112.245 163.028 110.326 161C108.748 159.337 106.037 158.431 103.827 159.012C101.024 159.752 99.1219 161.632 97.3049 163.022C96.6612 157.497 94.3828 152.467 91.9279 151.368C87.7072 149.477 83.2928 152.473 81.3106 155.389C79.6759 157.787 78.7816 160.641 78.4513 163.523C75.8026 160.595 69.8732 158.357 67.7372 163.005C66.8999 164.828 66.9682 166.924 67.0537 168.934C63.5791 168 59.7002 168.729 56.7896 170.837V170.831Z" fill="#D2DEF9"/>
</g>
<g opacity="0.45">
<path d="M361.574 135.038C360.777 131.797 353.241 127.064 349.214 129.917C347.978 123.743 346.822 119.892 342.783 116.851C338.745 113.809 332.007 117.785 330.924 126.112C329.842 122.689 324.34 118.075 319.92 121.966C315.83 125.566 315.42 131.598 315.847 135.032H361.574V135.038Z" fill="#D2DEF9"/>
</g>
<g opacity="0.45">
<path d="M414 178.167C412.752 175.097 410.4 173.451 407.615 173.144C404.106 172.751 400.546 174.767 400.546 174.767C400.546 174.767 401.867 169.698 400.073 165.71C398.854 162.988 396.906 160.43 394.206 159.758C391.41 159.063 388.442 160.425 386.357 162.583C384.273 164.742 382.928 167.601 381.732 170.455C381.111 168.433 380.291 166.166 378.463 165.414C376.572 164.634 374.384 165.978 373.393 167.903C372.402 169.829 372.351 172.153 372.488 174.357C370.295 173.041 367.498 172.654 365.299 173.97C363.892 174.813 362.89 176.464 362.679 178.173H414V178.167Z" fill="#D2DEF9"/>
</g>
<path d="M160.154 247.464C148.654 243.523 138.612 235.816 131.139 226.236C123.66 216.655 115.23 195.626 116.683 177.888C149.822 187.714 163.27 218.489 165.275 237.161" fill="#D2DEF9"/>
<path d="M116.677 177.883C116.677 177.883 122.134 220.585 160.439 244.167" stroke="white" stroke-width="1.5" stroke-miterlimit="10"/>
<path d="M116.677 177.883C116.677 177.883 139.284 218.387 164.062 243.022" stroke="white" stroke-width="1.5" stroke-miterlimit="10"/>
<path d="M116.677 177.883C116.677 177.883 150.05 204.386 165.611 240.664" stroke="white" stroke-width="1.5" stroke-miterlimit="10"/>
<path d="M160.268 318.003C147.162 322.879 132.723 323.039 119.269 319.467C105.821 315.896 83.4754 302.049 72.3228 283.919C104.334 273.022 142.719 287.826 157.631 304.248" fill="#D2DEF9"/>
<path d="M72.3281 283.919C72.3281 283.919 107.216 320.823 158.212 314.62" stroke="white" stroke-width="1.5" stroke-linejoin="round"/>
<path d="M72.3281 283.919C72.3281 283.919 121.091 305.791 160.667 310.792" stroke="white" stroke-width="1.5" stroke-linejoin="round"/>
<path d="M72.3281 283.919C72.3281 283.919 120.943 284.232 160.405 307.363" stroke="white" stroke-width="1.5" stroke-linejoin="round"/>
<path d="M172.554 228.15C161.464 219.908 153.564 208.02 149.292 194.948C145.02 181.876 144.485 155.902 153.524 136.906C179.771 157.588 188.144 197.374 182.545 218.563" fill="#E9F1FF"/>
<path d="M153.518 136.912C153.518 136.912 141.682 185.681 174.252 224.63" stroke="white" stroke-width="1.5" stroke-linejoin="round"/>
<path d="M153.518 136.912C153.518 136.912 161.606 189.104 178.745 224.601" stroke="white" stroke-width="1.5" stroke-linejoin="round"/>
<path d="M153.518 136.912C153.518 136.912 179.4 177.387 181.445 222.539" stroke="white" stroke-width="1.5" stroke-linejoin="round"/>
<path d="M273.031 222.032C284.218 219.902 294.55 214.086 302.758 206.192C310.966 198.297 321.572 179.911 322.58 163.267C290.546 167.983 273.988 194.743 269.653 211.791" fill="#D2DEF9"/>
<path d="M322.586 163.267C322.586 163.267 311.86 202.148 273.208 218.934" stroke="white" stroke-width="1.5" stroke-linejoin="round"/>
<path d="M322.586 163.267C322.586 163.267 296.248 197.83 270.001 217.396" stroke="white" stroke-width="1.5" stroke-linejoin="round"/>
<path d="M322.586 163.267C322.586 163.267 288.119 183.419 268.878 214.998" stroke="white" stroke-width="1.5" stroke-linejoin="round"/>
<path d="M304.341 312.393C320.706 315.503 337.89 313.128 353.292 306.794C368.694 300.46 392.993 281.133 403.297 259.027C357.177 248.251 320.284 275.779 305.236 296.643" fill="#D2DEF9"/>
<path d="M403.303 259.027C403.303 259.027 367.846 306.173 306.238 308.269" stroke="white" stroke-width="1.5" stroke-linejoin="round"/>
<path d="M403.303 259.027C403.303 259.027 354.768 291.454 305.059 300.591" stroke="white" stroke-width="1.5" stroke-linejoin="round"/>
<path d="M403.303 259.027C403.303 259.027 345.586 267.947 302.456 300.591" stroke="white" stroke-width="1.5" stroke-linejoin="round"/>
<path d="M258.575 217.675C272.661 211.614 284.229 200.803 292.192 187.782C300.155 174.767 307.377 146.857 302.479 124.039C268.85 139.646 249.626 180.457 250.241 204.768" fill="#E9F1FF"/>
<path d="M302.479 124.039C302.479 124.039 302.775 179.722 257.641 213.431" stroke="white" stroke-width="1.5" stroke-linejoin="round"/>
<path d="M302.479 124.039C302.479 124.039 280.39 178.316 252.799 212.258" stroke="white" stroke-width="1.5" stroke-linejoin="round"/>
<path d="M302.479 124.039C302.479 124.039 264.173 161.114 250.406 209.336" stroke="white" stroke-width="1.5" stroke-linejoin="round"/>
<path d="M158.001 296.524C150.374 297.709 137.399 299.48 130.222 294.695C126.258 292.047 125.529 287.154 123.979 282.842C121.325 275.472 115.874 271.137 108.646 269.873C105.752 269.366 102.694 268.067 101.304 265.299C99.2419 261.186 101.777 255.895 100.119 251.577C99.2305 249.259 97.2939 247.618 95.7047 245.773C91.8485 241.313 90.8916 234.711 90.8916 234.711C90.8916 234.711 95.5509 236.187 100.768 234.558C104.118 233.515 107.752 232.86 111.272 233.418C114.023 233.857 116.085 235.292 117.902 237.48C120.038 240.054 121.838 241.997 124.925 243.067C129.692 244.719 141.506 240.726 142.805 247.567C143.158 249.43 142.719 251.446 143.579 253.189C145.134 256.345 148.899 254.744 151.468 255.547C155.415 256.783 159.727 259.62 161.419 263.322C165.452 272.157 165.264 284.323 162.997 293.915" fill="#E9F1FF"/>
<path d="M91.3696 234.837C104.231 248.74 123.7 253.958 136.242 268.192C140.007 272.464 143.015 277.414 146.563 281.891C150.112 286.362 154.384 290.469 159.607 292.235" stroke="white" stroke-width="1.5" stroke-linejoin="round"/>
<path d="M100.307 261.465C107.028 262.189 117.235 262.035 127.368 260.115C127.368 260.115 124.89 247.072 122.8 242.082" stroke="white" stroke-width="1.5" stroke-linejoin="round"/>
<path d="M100.529 257.119C107.922 257.655 114.125 257.216 122.749 256.863" stroke="white" stroke-width="1.5" stroke-linejoin="round"/>
<path d="M99.4639 250.472C99.4639 250.472 105.752 250.683 111.465 249.908" stroke="white" stroke-width="1.5" stroke-linejoin="round"/>
<path d="M93.2725 242.053C93.318 242.145 95.2888 242.378 99.8114 242.31" stroke="white" stroke-width="1.5" stroke-linejoin="round"/>
<path d="M108.919 248.365C108.97 248.393 105.974 239.132 103.633 233.857" stroke="white" stroke-width="1.5" stroke-linejoin="round"/>
<path d="M120.995 255.729C120.949 255.701 118.027 241.051 115.145 234.928" stroke="white" stroke-width="1.5" stroke-linejoin="round"/>
<path d="M115.19 272.128C115.418 272.253 128.08 273.096 138.475 270.892" stroke="white" stroke-width="1.5" stroke-linejoin="round"/>
<path d="M135.32 267.173C135.32 267.173 134.027 251.509 132.005 243.506" stroke="white" stroke-width="1.5" stroke-linejoin="round"/>
<path d="M145.368 253.662C146.843 263.317 147.042 282.478 147.042 282.478C147.042 282.478 130.729 284.688 123.974 282.837" stroke="white" stroke-width="1.5" stroke-linejoin="round"/>
<path d="M154.02 289.284C154.02 289.284 154.601 267.588 153.325 256.236" stroke="white" stroke-width="1.5" stroke-linejoin="round"/>
<path d="M125.175 287.143C125.175 287.143 138.322 288.994 149.4 285.177" stroke="white" stroke-width="1.5" stroke-linejoin="round"/>
<path d="M156.719 291.01C156.719 291.01 160.501 273.888 157.727 258.851" stroke="white" stroke-width="1.5" stroke-linejoin="round"/>
<path d="M263.034 203.292C266.503 194.327 272.142 185.464 268.673 175.564C266.76 170.091 260.904 167.789 256.427 164.833C248.76 159.781 245.337 152.086 245.901 142.995C246.129 139.361 245.497 135.323 242.728 132.947C238.61 129.422 231.878 131.187 227.418 128.106C225.025 126.448 223.693 123.697 222.035 121.305C218.025 115.518 210.763 112.715 210.763 112.715C210.763 112.715 211.15 118.736 207.846 124.665C205.728 128.47 203.973 132.72 203.631 137.134C203.364 140.586 204.435 143.445 206.422 146.196C208.763 149.431 210.478 152.091 210.837 156.107C211.395 162.304 203.563 175.656 211.002 178.931C213.024 179.819 215.445 179.791 217.193 181.266C220.36 183.938 217.49 188.113 217.695 191.428C218.008 196.526 220.047 202.466 223.795 205.44C232.738 212.531 246.659 215.328 258.221 214.952" fill="#E9F1FF"/>
<path d="M210.774 113.331C223.049 132.401 223.59 157.332 236.332 176.094C240.154 181.722 244.962 186.609 249.074 192.026C253.186 197.443 256.684 203.646 257.236 210.429" stroke="white" stroke-width="1.5" stroke-linejoin="round"/>
<path d="M229.594 163.307C229.594 163.307 215.417 157.058 210.313 153.282" stroke="white" stroke-width="1.5" stroke-linejoin="round"/>
<path d="M233.626 129.98C232.185 139.088 229.964 146.51 227.173 156.888" stroke="white" stroke-width="1.5" stroke-linejoin="round"/>
<path d="M226.347 127.035C226.347 127.035 224.838 134.719 222.377 141.463" stroke="white" stroke-width="1.5" stroke-linejoin="round"/>
<path d="M218.469 117.432C218.561 117.511 218.276 119.961 216.943 125.434" stroke="white" stroke-width="1.5" stroke-linejoin="round"/>
<path d="M221.323 137.994C221.346 138.062 211.623 132.127 206.257 127.975" stroke="white" stroke-width="1.5" stroke-linejoin="round"/>
<path d="M226.358 154.484C226.341 154.427 210.461 147.239 204.275 142.215" stroke="white" stroke-width="1.5" stroke-linejoin="round"/>
<path d="M245.559 137.994C244.175 143.257 241.527 156.887 233.626 170.472" stroke="white" stroke-width="1.5" stroke-linejoin="round"/>
<path d="M235.426 174.71C235.426 174.71 217.934 169.253 209.378 164.805" stroke="white" stroke-width="1.5" stroke-linejoin="round"/>
<path d="M255.436 202.905C255.436 202.905 230.556 198.223 217.968 193.854" stroke="white" stroke-width="1.5" stroke-linejoin="round"/>
<path d="M261.001 167.357C261.001 167.357 259.463 183.772 252.036 196.281" stroke="white" stroke-width="1.5" stroke-linejoin="round"/>
<path d="M313.091 281.692C322.985 279.778 334.001 279.852 340.864 271.257C344.658 266.506 343.445 260.024 343.57 254.397C343.786 244.776 348.713 237.445 357.103 232.883C360.458 231.06 363.694 228.246 364.258 224.47C365.101 218.848 359.775 213.853 360.031 208.174C360.168 205.127 361.871 202.404 363.073 199.602C365.978 192.818 364.423 184.803 364.423 184.803C364.423 184.803 359.291 188.5 352.182 188.87C347.62 189.11 342.869 189.918 338.757 192.071C335.544 193.758 333.596 196.298 332.263 199.596C330.691 203.475 329.284 206.482 325.918 209.04C320.723 212.987 304.501 213.471 305.737 221.901C306.073 224.197 307.452 226.327 307.11 228.702C306.501 233.003 301.192 232.775 298.361 234.803C294.009 237.924 289.863 243.039 289.316 248.029C288 259.922 293.269 273.848 300.047 283.907" fill="#E9F1FF"/>
<path d="M363.893 185.157C353.794 206.682 331.95 221.053 322.381 242.823C319.51 249.356 317.847 256.345 315.323 263.02C312.8 269.69 309.24 276.252 303.521 280.524" stroke="white" stroke-width="1.5" stroke-linejoin="round"/>
<path d="M363.904 219.634C355.913 223.354 343.268 227.563 329.985 229.71C329.985 229.71 327.638 213.636 328.151 207" stroke="white" stroke-width="1.5" stroke-linejoin="round"/>
<path d="M361.836 214.73C352.945 218.523 345.113 220.682 334.336 223.986" stroke="white" stroke-width="1.5" stroke-linejoin="round"/>
<path d="M360.396 206.625C360.396 206.625 352.729 209.57 345.37 211.13" stroke="white" stroke-width="1.5" stroke-linejoin="round"/>
<path d="M364.536 194.276C364.519 194.401 362.184 195.512 356.579 197.38" stroke="white" stroke-width="1.5" stroke-linejoin="round"/>
<path d="M347.859 208.265C347.813 208.322 347.665 196.378 348.366 189.298" stroke="white" stroke-width="1.5" stroke-linejoin="round"/>
<path d="M336.022 221.924C336.062 221.873 333.601 203.765 334.615 195.478" stroke="white" stroke-width="1.5" stroke-linejoin="round"/>
<path d="M349.972 238.305C349.744 238.545 334.485 244.958 320.752 246.889" stroke="white" stroke-width="1.5" stroke-linejoin="round"/>
<path d="M323.104 241.25C323.104 241.25 318.206 222.67 317.391 212.594" stroke="white" stroke-width="1.5" stroke-linejoin="round"/>
<path d="M305.116 230.023C307.298 241.763 314.987 263.903 314.987 263.903C314.987 263.903 336.017 259.437 343.575 254.408" stroke="white" stroke-width="1.5" stroke-linejoin="round"/>
<path d="M309.206 274.725C309.206 274.725 299.506 250.016 296.379 236.403" stroke="white" stroke-width="1.5" stroke-linejoin="round"/>
<path d="M343.883 259.87C343.883 259.87 328.441 267.651 313.199 268.016" stroke="white" stroke-width="1.5" stroke-linejoin="round"/>
<path d="M306.586 277.87C306.586 277.87 294.829 259.796 292.027 241.302" stroke="white" stroke-width="1.5" stroke-linejoin="round"/>
<path d="M272.957 241.279C274.307 244.11 279.775 256.037 281.125 258.862C276.739 260.263 272.718 262.08 268.417 263.727C266.594 266.176 270.667 261.334 270.855 258.674" fill="#F777BA"/>
<path d="M282.372 262.793L279.889 263.647C279.792 263.391 279.592 262.644 279.45 262.445C278.983 262.605 278.009 263.026 277.895 263.123C277.804 263.203 277.707 263.522 277.622 263.835C277.513 264.251 277.212 264.57 276.83 264.706L266.965 268.113C265.746 268.534 265.039 267.11 266.093 265.948C267.05 264.894 269.129 262.61 269.232 262.548C273.293 261.579 279.456 258.629 280.236 256.829C281.546 257.541 282.372 262.764 282.366 262.798L282.372 262.793Z" fill="#0B0B3A"/>
<path d="M271.875 208.948C272.097 215.396 271.413 228.326 272.29 233.811C272.843 237.263 279.057 254.425 279.057 254.425L270.861 258.68C270.861 258.68 263.838 247.829 259.833 234.996C257.242 226.68 257.037 217.527 257.037 209.997" fill="#F777BA"/>
<path d="M293.274 227.962C295.576 230.086 305.082 239.137 307.383 241.262C303.829 244.189 300.77 247.368 297.387 250.489C296.607 253.44 298.589 247.43 297.78 244.896" fill="#F777BA"/>
<path d="M309.998 244.446L308.01 246.16C307.827 245.961 307.366 245.34 307.155 245.203C306.779 245.528 306.033 246.28 305.965 246.411C305.908 246.519 305.936 246.855 305.976 247.174C306.028 247.601 305.874 248.011 305.566 248.273L297.666 255.097C296.692 255.94 295.507 254.881 296.054 253.411C296.549 252.078 297.637 249.185 297.711 249.088C301.123 246.684 305.748 241.655 305.811 239.695C307.292 239.866 309.992 244.417 310.003 244.451L309.998 244.446Z" fill="#0B0B3A"/>
<path d="M285.277 196.793C285.277 196.793 284.776 215.784 287.39 220.625C290.472 226.333 300.468 234.888 300.468 234.888L297.774 244.896C297.774 244.896 283.734 237.058 276.409 227.637C270.844 220.483 270.582 197.893 270.582 197.893" fill="#F777BA"/>
<path d="M284.502 180.919C294.396 188.551 293.588 219.104 293.588 219.104C293.588 219.104 282.589 221.992 273.606 221.992C264.624 221.992 255.265 220.568 255.265 220.568C255.812 194.298 260.471 187.469 263.097 182.975" fill="#18277A"/>
<path d="M266.042 139.213C266.042 139.213 268.275 145.712 267.916 147.227C267.557 148.742 262.63 148.321 261.377 148.258C261.269 144.949 262.374 140.307 262.374 140.307" fill="#212237"/>
<path d="M266.794 146.863L267.318 150.485C267.318 150.485 269.949 152.183 272.165 151.289C274.495 150.343 274.37 149.073 274.37 149.073L271.573 142.437" fill="#F777BA"/>
<path d="M263.097 140.5C263.057 145.165 263.889 148.822 266.97 148.583C270.217 148.332 272.626 145.667 271.464 142.027C270.245 138.205 263.37 137.806 263.103 140.5H263.097Z" fill="#F777BA"/>
<path d="M267.084 148.85C268.668 148.588 270.582 147.757 271.419 145.604" stroke="#CC328A" stroke-width="0.75" stroke-linejoin="round"/>
<path d="M270.946 141.833V141.873C270.946 141.873 270.986 141.902 270.986 141.873V141.833C270.986 141.833 270.946 141.805 270.946 141.833Z" fill="#FF855A"/>
<path d="M267.939 140.159C265.301 140.859 263.433 140.762 261.696 140.119C261.975 138.541 262.938 136.285 265.882 136.223C267.916 134.354 270.308 135.009 270.969 135.226C272.689 135.784 273.822 136.832 274.74 138.381C276.232 140.893 276.539 144.698 276.517 146.806C274.221 147.432 272.296 147.763 270.821 147.848C270.883 147.848 269.915 141.537 267.95 140.164L267.939 140.159Z" fill="#212237"/>
<path d="M269.482 143.274C269.454 143.149 269.534 142.762 269.898 142.539C270.547 142.146 271.168 142.921 271.231 143.622C271.271 144.066 271.191 144.431 270.969 144.829C270.673 145.353 270.177 145.564 269.779 145.08" fill="#F777BA"/>
<path d="M265.524 142.99C265.524 142.99 264.983 144.772 265.193 145.16C265.404 145.553 266.412 145.313 266.412 145.313" stroke="#CC328A" stroke-width="0.5" stroke-linejoin="round"/>
<path d="M265.472 146.139L268.292 145.735C268.292 145.735 268.178 147.284 266.617 147.398C265.501 147.484 265.472 146.139 265.472 146.139Z" fill="white"/>
<path d="M264.265 142.784C264.248 142.927 264.23 143.069 264.23 143.217C264.23 143.508 264.686 143.508 264.68 143.217C264.68 143.069 264.663 142.927 264.641 142.784C264.612 142.596 264.287 142.596 264.265 142.784Z" fill="#00276F"/>
<path d="M264.965 141.947C264.965 141.947 264.39 141.509 263.912 142.124" stroke="#00276F" stroke-width="0.5" stroke-linecap="round" stroke-linejoin="round"/>
<path d="M267.546 142.665C267.534 142.79 267.534 142.915 267.546 143.046C267.563 143.337 268.018 143.331 267.996 143.046C267.984 142.904 267.967 142.756 267.933 142.613C267.882 142.386 267.563 142.46 267.546 142.665Z" fill="#00276F"/>
<path d="M267.142 141.657C267.142 141.657 267.74 141.241 268.651 141.822" stroke="#00276F" stroke-width="0.5" stroke-linecap="round" stroke-linejoin="round"/>
<path d="M264.356 166.292C255.402 178.726 237.124 189.901 237.124 189.901L233.353 185.128C233.353 185.128 247.052 173.645 255.282 160.465" fill="#F777BA"/>
<path d="M234.959 183.864C233.285 185.328 227.657 188.785 227.782 189.224C227.908 189.662 229.901 188.466 229.93 188.842C229.958 189.218 227.03 191.251 227.275 191.662C227.606 192.214 230.488 189.976 230.488 189.976C230.488 189.976 227.469 192.579 227.902 192.989C228.209 193.279 230.613 191.394 231.633 190.784C230.625 191.582 229.155 193.057 229.48 193.348C229.804 193.638 231.468 192.391 232.8 191.496C232.026 192.129 230.687 193.348 230.972 193.632C231.257 193.917 235.546 191.149 239.47 188.398" fill="#F777BA"/>
<path d="M230.653 188.791C230.653 188.791 232.829 188.842 233.746 188.386" stroke="#CC328A" stroke-width="0.75" stroke-linejoin="round"/>
<path d="M266.281 150.52C262.374 149.819 258.882 152.61 257.356 155.042C254.286 159.929 252.605 163.791 252.605 163.791L261.81 169.339L267.05 152.866" fill="#FF9357"/>
<path d="M266.281 150.52C268.104 150.856 268.543 151.505 269.836 151.095C272.16 150.36 273.931 149.175 273.931 149.175C272.41 149.278 278.904 150.457 283.87 155.703C285.539 161.444 285.733 167.157 286.217 182.331C273.851 186.33 263.092 182.969 263.092 182.969C263.092 182.969 261.69 176.356 260.078 171.452C257.84 166.941 258.814 161.883 261.314 157.748C261.394 155.236 266.281 150.514 266.281 150.514V150.52Z" fill="#FF9357"/>
<path d="M273.76 147.615L269.54 151.192L272.239 154.062L275.036 149.813L273.76 147.615Z" fill="white"/>
<path d="M269.539 151.192L267.153 149.318L266.281 150.519L267.432 153.977L269.539 151.192Z" fill="white"/>
<path d="M258.831 166.326C258.683 163.398 260.414 158.853 260.414 158.853" stroke="#A52F2D" stroke-width="0.75" stroke-miterlimit="10"/>
<path d="M304.905 341.323C304.729 341.323 304.552 341.317 304.376 341.305L243.725 337.016C239.641 336.726 236.548 333.166 236.839 329.082L238.103 311.231C238.183 310.109 239.094 309.26 240.228 309.26C240.769 309.26 241.287 309.471 241.692 309.847C243.554 311.607 245.827 312.626 248.259 312.797C248.504 312.814 248.749 312.82 248.988 312.82C255.134 312.82 260.34 307.318 260.841 300.3C261.36 292.958 256.564 286.613 250.144 286.157C249.9 286.14 249.66 286.134 249.415 286.134C247.24 286.134 245.098 286.835 243.224 288.156C242.854 288.419 242.432 288.555 241.994 288.555C241.401 288.555 240.832 288.305 240.427 287.872C240.028 287.445 239.829 286.881 239.875 286.283L241.139 268.426C241.413 264.552 244.665 261.522 248.544 261.522C248.72 261.522 248.897 261.528 249.074 261.539L267.523 262.844C268.383 262.906 269.089 263.447 269.38 264.256C269.664 265.065 269.454 265.925 268.827 266.506C266.748 268.437 265.501 270.966 265.313 273.638C264.857 280.057 270.462 285.702 277.81 286.22C278.174 286.243 278.539 286.26 278.903 286.26C285.795 286.26 291.526 281.543 291.953 275.523C292.141 272.857 291.264 270.174 289.481 267.97C288.962 267.332 288.86 266.472 289.219 265.732C289.578 264.985 290.307 264.518 291.133 264.518C291.184 264.518 291.241 264.518 291.292 264.518L309.741 265.823C313.825 266.113 316.918 269.673 316.628 273.757L312.339 334.408C312.065 338.281 308.813 341.311 304.934 341.311L304.905 341.323Z" fill="#83A3FC"/>
<path d="M248.533 261.949C248.698 261.949 248.869 261.955 249.034 261.966L267.483 263.271C268.958 263.373 269.608 265.19 268.525 266.198C266.435 268.141 265.085 270.71 264.88 273.609C264.407 280.273 270.177 286.112 277.77 286.647C278.146 286.675 278.522 286.687 278.892 286.687C285.995 286.687 291.919 281.885 292.369 275.551C292.574 272.652 291.594 269.912 289.8 267.702C288.894 266.586 289.714 264.945 291.116 264.945C291.155 264.945 291.201 264.945 291.247 264.945L309.696 266.25C313.552 266.523 316.457 269.872 316.189 273.729L311.9 334.379C311.638 338.07 308.562 340.889 304.923 340.889C304.757 340.889 304.592 340.884 304.421 340.872L243.771 336.583C239.915 336.31 237.01 332.961 237.277 329.105L238.542 311.248C238.61 310.285 239.408 309.67 240.239 309.67C240.649 309.67 241.065 309.818 241.407 310.143C243.27 311.897 245.622 313.025 248.242 313.213C248.498 313.23 248.749 313.241 249.005 313.241C255.345 313.241 260.768 307.625 261.28 300.323C261.816 292.73 256.849 286.197 250.184 285.724C249.928 285.707 249.678 285.696 249.427 285.696C247.086 285.696 244.876 286.465 242.99 287.798C242.677 288.02 242.335 288.116 242.005 288.116C241.082 288.116 240.234 287.353 240.308 286.299L241.572 268.443C241.834 264.752 244.904 261.932 248.55 261.932M248.55 261.078C244.449 261.078 241.008 264.285 240.718 268.38L239.453 286.237C239.402 286.955 239.641 287.632 240.12 288.145C240.604 288.663 241.293 288.965 241.999 288.965C242.529 288.965 243.036 288.8 243.48 288.487C245.28 287.217 247.336 286.539 249.427 286.539C249.66 286.539 249.894 286.544 250.122 286.561C256.308 287 260.927 293.14 260.426 300.243C259.947 307.038 254.929 312.364 249 312.364C248.766 312.364 248.533 312.358 248.299 312.341C245.964 312.176 243.782 311.196 241.994 309.505C241.51 309.049 240.889 308.798 240.239 308.798C238.884 308.798 237.784 309.818 237.693 311.168L236.429 329.025C236.121 333.348 239.391 337.113 243.714 337.415L304.364 341.704C304.552 341.715 304.74 341.721 304.928 341.721C309.029 341.721 312.47 338.514 312.76 334.419L317.049 273.768C317.357 269.445 314.087 265.68 309.764 265.378L291.315 264.074C291.252 264.074 291.19 264.068 291.127 264.068C290.136 264.068 289.259 264.626 288.831 265.526C288.404 266.421 288.53 267.452 289.15 268.215C290.893 270.362 291.714 272.868 291.531 275.466C291.121 281.264 285.579 285.804 278.909 285.804C278.556 285.804 278.203 285.793 277.85 285.764C274.387 285.519 271.22 284.107 268.93 281.794C266.669 279.51 265.541 276.611 265.751 273.637C265.934 271.04 267.101 268.67 269.129 266.791C269.881 266.09 270.137 265.054 269.796 264.085C269.454 263.111 268.599 262.462 267.568 262.388L249.119 261.083C248.931 261.072 248.743 261.066 248.555 261.066L248.55 261.078Z" fill="white"/>
<mask id="mask0_462_3924" style="mask-type:luminance" maskUnits="userSpaceOnUse" x="237" y="261" width="80" height="80">
<path d="M291.235 264.951C289.76 264.848 288.86 266.552 289.794 267.702C291.588 269.918 292.568 272.658 292.363 275.551C291.89 282.215 285.357 287.182 277.764 286.647C270.172 286.111 264.402 280.273 264.874 273.609C265.079 270.71 266.435 268.135 268.52 266.198C269.602 265.19 268.953 263.379 267.477 263.271L249.028 261.966C245.172 261.693 241.823 264.598 241.549 268.46L240.285 286.317C240.182 287.752 241.794 288.64 242.968 287.815C245.058 286.339 247.547 285.553 250.162 285.741C256.826 286.214 261.793 292.747 261.257 300.34C260.722 307.933 254.884 313.703 248.219 313.23C245.599 313.042 243.247 311.92 241.384 310.16C240.336 309.174 238.622 309.829 238.519 311.265L237.255 329.122C236.981 332.978 239.886 336.327 243.748 336.6L304.399 340.889C308.255 341.163 311.604 338.258 311.877 334.396L316.166 273.746C316.44 269.889 313.535 266.54 309.673 266.267L291.224 264.962L291.235 264.951Z" fill="white"/>
</mask>
<g mask="url(#mask0_462_3924)">
<g style="mix-blend-mode:screen" opacity="0.19">
<path d="M298.767 389.794C317.854 388.302 332.118 371.62 330.626 352.533C329.134 333.446 312.451 319.182 293.364 320.674C274.277 322.166 260.013 338.849 261.505 357.936C262.998 377.023 279.68 391.287 298.767 389.794Z" stroke="#91ABE5" stroke-width="11" stroke-miterlimit="10"/>
<path d="M295.439 376.324C307.535 376.324 317.34 366.518 317.34 354.423C317.34 342.327 307.535 332.522 295.439 332.522C283.343 332.522 273.538 342.327 273.538 354.423C273.538 366.518 283.343 376.324 295.439 376.324Z" stroke="#91ABE5" stroke-width="11" stroke-miterlimit="10"/>
<path d="M299.057 366.311C305.17 364.658 308.786 358.363 307.133 352.25C305.48 346.137 299.185 342.521 293.072 344.174C286.959 345.827 283.343 352.122 284.996 358.235C286.649 364.348 292.944 367.964 299.057 366.311Z" stroke="#91ABE5" stroke-width="11" stroke-miterlimit="10"/>
</g>
</g>
<path d="M218.646 260.32C218.333 260.32 218.02 260.298 217.712 260.263L199.28 257.945C198.425 257.837 197.742 257.256 197.503 256.424C197.263 255.598 197.531 254.744 198.192 254.203C200.419 252.38 201.832 249.897 202.168 247.203C202.555 244.121 201.547 241.051 199.337 238.55C197.11 236.039 193.926 234.409 190.377 233.96C189.739 233.88 189.095 233.84 188.458 233.84C181.89 233.84 176.394 238.152 175.67 243.87C175.334 246.565 176.086 249.321 177.789 251.64C178.273 252.295 178.342 253.121 177.977 253.844C177.612 254.567 176.889 255.017 176.092 255.017C176 255.017 175.909 255.012 175.813 255L157.38 252.682C155.41 252.437 153.655 251.435 152.442 249.868C151.223 248.302 150.693 246.354 150.938 244.383L158.52 184.057C158.987 180.349 162.148 177.552 165.884 177.552C166.198 177.552 166.511 177.57 166.819 177.609L227.144 185.191C229.115 185.436 230.87 186.438 232.083 188.005C233.302 189.571 233.837 191.519 233.587 193.49L231.308 211.62C231.171 212.702 230.277 213.483 229.184 213.483C228.574 213.483 228.016 213.226 227.606 212.759C225.789 210.674 223.459 209.399 220.862 209.074C220.435 209.023 220.002 208.994 219.575 208.994C213.611 208.994 208.473 214.098 207.619 220.865C206.702 228.167 211.145 234.763 217.53 235.566C217.957 235.617 218.384 235.646 218.811 235.646C220.964 235.646 223.1 234.962 224.974 233.663C225.333 233.418 225.743 233.287 226.165 233.287C226.774 233.287 227.361 233.555 227.765 234.016C228.17 234.478 228.352 235.065 228.272 235.685L225.994 253.816C225.527 257.524 222.36 260.32 218.629 260.32H218.646Z" fill="#FFC7CA"/>
<path d="M165.884 177.974C166.175 177.974 166.471 177.991 166.767 178.031L227.093 185.612C230.932 186.097 233.649 189.594 233.165 193.433L230.886 211.563C230.772 212.486 229.986 213.055 229.189 213.055C228.739 213.055 228.283 212.873 227.936 212.48C226.13 210.407 223.709 209 220.918 208.652C220.468 208.596 220.018 208.567 219.574 208.567C213.48 208.567 208.08 213.779 207.197 220.813C206.246 228.36 210.854 235.161 217.478 235.993C217.928 236.05 218.372 236.079 218.817 236.079C221.123 236.079 223.328 235.332 225.225 234.022C225.526 233.812 225.851 233.72 226.17 233.72C227.121 233.72 227.993 234.552 227.856 235.634L225.578 253.764C225.133 257.307 222.115 259.893 218.64 259.893C218.35 259.893 218.053 259.876 217.757 259.836L199.325 257.518C197.85 257.33 197.303 255.473 198.454 254.528C200.692 252.694 202.219 250.17 202.583 247.248C203.415 240.618 197.969 234.478 190.422 233.527C189.756 233.441 189.101 233.401 188.452 233.401C181.725 233.401 176 237.765 175.243 243.808C174.878 246.73 175.727 249.555 177.441 251.879C178.279 253.013 177.43 254.573 176.086 254.573C176.012 254.573 175.938 254.573 175.863 254.562L157.431 252.244C153.592 251.759 150.875 248.262 151.359 244.423L158.941 184.097C159.385 180.554 162.404 177.968 165.878 177.968M165.878 177.114C161.931 177.114 158.582 180.07 158.092 183.989L150.511 244.315C149.97 248.615 153.028 252.551 157.329 253.092L175.761 255.411C175.869 255.422 175.983 255.433 176.091 255.433C177.054 255.433 177.92 254.892 178.358 254.026C178.791 253.166 178.706 252.152 178.136 251.378C176.496 249.151 175.772 246.502 176.097 243.916C176.792 238.408 182.101 234.256 188.457 234.256C189.072 234.256 189.699 234.296 190.32 234.375C197.388 235.264 202.515 240.988 201.74 247.14C201.415 249.72 200.06 252.113 197.918 253.861C197.121 254.516 196.802 255.536 197.087 256.533C197.371 257.529 198.192 258.23 199.223 258.361L217.655 260.679C217.985 260.719 218.315 260.742 218.646 260.742C222.593 260.742 225.942 257.786 226.432 253.867L228.711 235.737C228.802 234.996 228.585 234.284 228.101 233.732C227.611 233.174 226.911 232.855 226.176 232.855C225.669 232.855 225.173 233.008 224.746 233.305C222.941 234.552 220.89 235.213 218.822 235.213C218.412 235.213 218.002 235.184 217.592 235.133C214.636 234.763 212.01 233.094 210.21 230.428C208.382 227.734 207.618 224.351 208.051 220.904C208.877 214.348 213.833 209.404 219.58 209.404C219.99 209.404 220.406 209.433 220.816 209.484C223.305 209.797 225.549 211.022 227.292 213.027C227.782 213.591 228.454 213.898 229.189 213.898C230.482 213.898 231.576 212.936 231.735 211.66L234.013 193.53C234.275 191.445 233.712 189.389 232.424 187.731C231.137 186.074 229.28 185.014 227.201 184.758L166.875 177.177C166.551 177.137 166.215 177.114 165.884 177.114H165.878Z" fill="white"/>
<mask id="mask1_462_3924" style="mask-type:luminance" maskUnits="userSpaceOnUse" x="151" y="177" width="83" height="83">
<path d="M217.49 235.987C210.86 235.156 206.258 228.361 207.209 220.808C208.16 213.261 214.3 207.815 220.93 208.647C223.716 208.994 226.142 210.401 227.948 212.475C228.905 213.574 230.716 213.01 230.898 211.563L233.177 193.433C233.661 189.594 230.938 186.097 227.105 185.612L166.779 178.031C162.94 177.547 159.443 180.27 158.958 184.103L151.377 244.429C150.893 248.268 153.616 251.765 157.449 252.249L175.881 254.568C177.356 254.756 178.342 253.087 177.465 251.885C175.75 249.555 174.896 246.73 175.266 243.814C176.097 237.184 182.893 232.581 190.446 233.532C197.993 234.484 203.438 240.624 202.606 247.254C202.242 250.176 200.715 252.699 198.477 254.533C197.326 255.473 197.873 257.336 199.348 257.524L217.78 259.842C221.62 260.326 225.117 257.604 225.601 253.77L227.879 235.64C228.062 234.193 226.444 233.196 225.248 234.022C222.987 235.583 220.292 236.346 217.501 235.999L217.49 235.987Z" fill="white"/>
</mask>
<g mask="url(#mask1_462_3924)">
<g opacity="0.25">
<path d="M158.719 219.486C177.864 219.486 193.384 203.966 193.384 184.821C193.384 165.675 177.864 150.155 158.719 150.155C139.574 150.155 124.053 165.675 124.053 184.821C124.053 203.966 139.574 219.486 158.719 219.486Z" stroke="white" stroke-width="11" stroke-miterlimit="10"/>
<path d="M157.99 207.718C171.035 207.718 181.611 197.143 181.611 184.097C181.611 171.052 171.035 160.476 157.99 160.476C144.944 160.476 134.369 171.052 134.369 184.097C134.369 197.143 144.944 207.718 157.99 207.718Z" stroke="white" stroke-width="11" stroke-miterlimit="10"/>
<path d="M158.719 196.287C165.051 196.287 170.185 191.153 170.185 184.821C170.185 178.488 165.051 173.355 158.719 173.355C152.386 173.355 147.253 178.488 147.253 184.821C147.253 191.153 152.386 196.287 158.719 196.287Z" stroke="white" stroke-width="11" stroke-miterlimit="10"/>
</g>
</g>
<path d="M273.84 279.322C270.057 279.282 266.509 277.949 263.855 275.568C261.183 273.176 259.731 270.009 259.765 266.654C259.793 263.709 261.007 260.862 263.177 258.634C263.604 258.196 263.593 257.643 263.439 257.273C263.285 256.897 262.898 256.498 262.277 256.487L243.679 256.293C241.697 256.271 239.835 255.479 238.451 254.061C237.061 252.642 236.309 250.768 236.332 248.786L236.52 230.793C236.52 230.354 236.326 230.058 236.161 229.887C235.916 229.642 235.586 229.5 235.244 229.5C234.959 229.5 234.691 229.596 234.463 229.784C232.31 231.556 229.77 232.49 227.11 232.49H226.996C223.641 232.456 220.503 230.935 218.167 228.218C215.843 225.512 214.585 221.941 214.624 218.159C214.704 210.395 220.337 204.084 227.178 204.084H227.298C229.998 204.113 232.561 205.104 234.708 206.944C234.942 207.143 235.215 207.246 235.512 207.246C236.121 207.246 236.782 206.761 236.793 205.981L236.981 187.988C237.021 183.932 240.353 180.634 244.409 180.634L305.287 181.266C307.269 181.289 309.132 182.081 310.516 183.499C311.906 184.917 312.657 186.791 312.635 188.774L312.002 249.572C311.963 253.628 308.63 256.926 304.575 256.926L285.898 256.732C285.271 256.732 284.878 257.125 284.719 257.495C284.514 257.968 284.599 258.481 284.952 258.857C287.077 261.129 288.228 264 288.199 266.945C288.131 273.769 281.774 279.322 274.033 279.322H273.862H273.84Z" fill="#B5C8F7"/>
<path d="M244.38 181.061C244.38 181.061 244.431 181.061 244.454 181.061L305.253 181.693C309.12 181.733 312.225 184.9 312.185 188.768L311.552 249.566C311.513 253.411 308.385 256.498 304.552 256.498C304.529 256.498 304.501 256.498 304.478 256.498L285.875 256.305C285.875 256.305 285.864 256.305 285.858 256.305C284.383 256.305 283.602 258.07 284.616 259.153C286.598 261.272 287.778 263.994 287.743 266.945C287.675 273.575 281.54 278.901 274.005 278.901C273.948 278.901 273.896 278.901 273.84 278.901C266.23 278.821 260.118 273.341 260.186 266.66C260.215 263.709 261.451 261.015 263.479 258.936C264.515 257.871 263.763 256.077 262.277 256.065L243.679 255.872C239.812 255.832 236.708 252.665 236.747 248.797L236.935 230.804C236.947 229.79 236.11 229.084 235.227 229.084C234.868 229.084 234.498 229.203 234.173 229.465C232.179 231.106 229.736 232.074 227.093 232.074C227.053 232.074 227.019 232.074 226.979 232.074C220.298 232.006 214.949 225.78 215.029 218.17C215.109 210.606 220.525 204.517 227.156 204.517C227.195 204.517 227.23 204.517 227.269 204.517C229.952 204.546 232.419 205.565 234.406 207.274C234.731 207.553 235.113 207.678 235.489 207.678C236.36 207.678 237.186 206.995 237.197 205.992L237.385 187.999C237.425 184.154 240.552 181.067 244.386 181.067M244.386 180.212C240.097 180.212 236.577 183.698 236.531 187.987L236.343 205.981C236.343 206.511 235.904 206.824 235.489 206.824C235.295 206.824 235.118 206.756 234.965 206.625C232.743 204.716 230.083 203.691 227.281 203.663H227.161C220.087 203.663 214.266 210.167 214.18 218.159C214.095 226.224 219.836 232.849 226.979 232.923H227.099C229.855 232.923 232.493 231.955 234.72 230.12C234.874 229.995 235.044 229.932 235.232 229.932C235.46 229.932 235.682 230.029 235.848 230.194C235.956 230.308 236.087 230.502 236.087 230.793L235.899 248.786C235.853 253.121 239.339 256.681 243.674 256.726L262.271 256.92C262.789 256.92 262.994 257.319 263.04 257.438C263.091 257.558 263.222 257.974 262.869 258.338C260.625 260.645 259.366 263.596 259.338 266.649C259.264 273.791 265.768 279.664 273.834 279.749H274.01C281.985 279.749 288.529 274.008 288.603 266.95C288.638 263.897 287.441 260.918 285.243 258.566C284.895 258.196 285.038 257.78 285.089 257.666C285.14 257.546 285.351 257.159 285.864 257.159L304.472 257.353H304.558C308.847 257.353 312.367 253.867 312.413 249.578L313.045 188.779C313.09 184.445 309.604 180.885 305.27 180.839L244.471 180.207H244.386V180.212Z" fill="white"/>
<mask id="mask2_462_3924" style="mask-type:luminance" maskUnits="userSpaceOnUse" x="215" y="181" width="98" height="98">
<path d="M305.253 181.693L244.454 181.061C240.587 181.021 237.42 184.126 237.38 187.993L237.192 205.987C237.175 207.422 235.495 208.202 234.407 207.268C232.419 205.559 229.953 204.54 227.27 204.511C220.588 204.443 215.109 210.555 215.029 218.165C214.949 225.774 220.304 232 226.979 232.068C229.662 232.097 232.151 231.123 234.173 229.46C235.278 228.548 236.947 229.363 236.936 230.798L236.748 248.792C236.708 252.659 239.812 255.826 243.68 255.866L262.277 256.06C263.764 256.077 264.516 257.865 263.479 258.931C261.451 261.01 260.221 263.704 260.187 266.654C260.118 273.336 266.23 278.815 273.84 278.895C281.45 278.975 287.675 273.62 287.744 266.945C287.772 263.989 286.599 261.272 284.617 259.153C283.603 258.065 284.389 256.288 285.875 256.305L304.478 256.498C308.346 256.538 311.513 253.434 311.553 249.566L312.185 188.768C312.225 184.9 309.121 181.733 305.253 181.693Z" fill="white"/>
</mask>
<g mask="url(#mask2_462_3924)">
<path d="M216.903 192.271C216.009 192.419 215.166 191.821 215.018 190.927C214.87 190.032 215.468 189.189 216.362 189.041C217.256 188.893 218.099 189.491 218.247 190.386C218.395 191.28 217.797 192.123 216.903 192.271Z" fill="white"/>
<path d="M232.14 189.702C231.246 189.85 230.403 189.252 230.254 188.358C230.106 187.463 230.704 186.62 231.599 186.472C232.493 186.324 233.336 186.922 233.484 187.816C233.632 188.711 233.034 189.554 232.14 189.702Z" fill="white"/>
<path d="M247.376 187.133C246.482 187.281 245.639 186.683 245.491 185.789C245.343 184.894 245.941 184.051 246.835 183.903C247.729 183.755 248.572 184.353 248.72 185.248C248.868 186.142 248.27 186.985 247.376 187.133Z" fill="white"/>
<path d="M262.613 184.564C261.719 184.712 260.876 184.114 260.728 183.22C260.579 182.326 261.178 181.483 262.072 181.335C262.966 181.186 263.809 181.784 263.957 182.679C264.105 183.573 263.507 184.416 262.613 184.564Z" fill="white"/>
<path d="M277.85 181.99C276.955 182.138 276.112 181.54 275.964 180.645C275.816 179.751 276.414 178.908 277.309 178.76C278.203 178.612 279.046 179.21 279.194 180.104C279.342 180.999 278.744 181.842 277.85 181.99Z" fill="white"/>
<path d="M219.016 204.779C218.122 204.927 217.279 204.329 217.131 203.435C216.983 202.54 217.581 201.697 218.475 201.549C219.369 201.401 220.212 201.999 220.36 202.894C220.509 203.788 219.911 204.631 219.016 204.779Z" fill="white"/>
<path d="M234.253 202.21C233.358 202.358 232.515 201.76 232.367 200.866C232.219 199.972 232.817 199.129 233.711 198.981C234.606 198.832 235.449 199.43 235.597 200.325C235.745 201.219 235.147 202.062 234.253 202.21Z" fill="white"/>
<path d="M249.489 199.641C248.595 199.789 247.752 199.191 247.604 198.297C247.456 197.403 248.054 196.56 248.948 196.412C249.843 196.264 250.686 196.862 250.834 197.756C250.982 198.65 250.384 199.493 249.489 199.641Z" fill="white"/>
<path d="M264.726 197.072C263.832 197.221 262.989 196.622 262.841 195.728C262.693 194.834 263.291 193.991 264.185 193.843C265.079 193.695 265.922 194.293 266.07 195.187C266.219 196.081 265.62 196.924 264.726 197.072Z" fill="white"/>
<path d="M279.963 194.504C279.068 194.652 278.225 194.054 278.077 193.159C277.929 192.265 278.527 191.422 279.421 191.274C280.316 191.126 281.159 191.724 281.307 192.618C281.455 193.512 280.857 194.355 279.963 194.504Z" fill="white"/>
<path d="M295.199 191.929C294.305 192.077 293.462 191.479 293.314 190.585C293.166 189.69 293.764 188.847 294.658 188.699C295.553 188.551 296.396 189.149 296.544 190.044C296.692 190.938 296.094 191.781 295.199 191.929Z" fill="white"/>
<path d="M310.436 189.36C309.542 189.508 308.699 188.91 308.551 188.016C308.403 187.122 309.001 186.279 309.895 186.13C310.789 185.982 311.632 186.58 311.78 187.475C311.929 188.369 311.33 189.212 310.436 189.36Z" fill="white"/>
<path d="M221.124 217.293C220.229 217.441 219.386 216.843 219.238 215.949C219.09 215.055 219.688 214.212 220.583 214.064C221.477 213.915 222.32 214.514 222.468 215.408C222.616 216.302 222.018 217.145 221.124 217.293Z" fill="white"/>
<path d="M236.361 214.718C235.466 214.867 234.623 214.268 234.475 213.374C234.327 212.48 234.925 211.637 235.819 211.489C236.714 211.341 237.557 211.939 237.705 212.833C237.853 213.727 237.255 214.57 236.361 214.718Z" fill="white"/>
<path d="M251.597 212.15C250.703 212.298 249.86 211.7 249.711 210.805C249.563 209.911 250.161 209.068 251.056 208.92C251.95 208.772 252.793 209.37 252.941 210.264C253.089 211.158 252.491 212.001 251.597 212.15Z" fill="white"/>
<path d="M266.834 209.581C265.939 209.729 265.096 209.131 264.948 208.236C264.8 207.342 265.398 206.499 266.293 206.351C267.187 206.203 268.03 206.801 268.178 207.695C268.326 208.59 267.728 209.433 266.834 209.581Z" fill="white"/>
<path d="M282.07 207.012C281.176 207.16 280.333 206.562 280.185 205.668C280.037 204.773 280.635 203.93 281.529 203.782C282.424 203.634 283.267 204.232 283.415 205.127C283.563 206.021 282.965 206.864 282.07 207.012Z" fill="white"/>
<path d="M297.307 204.443C296.413 204.591 295.57 203.993 295.422 203.099C295.274 202.205 295.872 201.362 296.766 201.213C297.66 201.065 298.503 201.663 298.652 202.558C298.8 203.452 298.202 204.295 297.307 204.443Z" fill="white"/>
<path d="M312.544 201.868C311.649 202.016 310.806 201.418 310.658 200.524C310.51 199.63 311.108 198.787 312.002 198.639C312.897 198.491 313.74 199.089 313.888 199.983C314.036 200.877 313.438 201.72 312.544 201.868Z" fill="white"/>
<path d="M223.231 229.801C222.337 229.95 221.494 229.351 221.346 228.457C221.198 227.563 221.796 226.72 222.69 226.572C223.584 226.424 224.427 227.022 224.575 227.916C224.723 228.81 224.125 229.653 223.231 229.801Z" fill="white"/>
<path d="M238.468 227.233C237.574 227.381 236.731 226.783 236.583 225.888C236.434 224.994 237.033 224.151 237.927 224.003C238.821 223.855 239.664 224.453 239.812 225.347C239.96 226.241 239.362 227.084 238.468 227.233Z" fill="white"/>
<path d="M253.704 224.658C252.81 224.806 251.967 224.208 251.819 223.314C251.671 222.419 252.269 221.576 253.163 221.428C254.057 221.28 254.9 221.878 255.049 222.773C255.197 223.667 254.599 224.51 253.704 224.658Z" fill="white"/>
<path d="M268.941 222.089C268.047 222.237 267.204 221.639 267.056 220.745C266.908 219.851 267.506 219.008 268.4 218.859C269.294 218.711 270.137 219.309 270.285 220.204C270.433 221.098 269.835 221.941 268.941 222.089Z" fill="white"/>
<path d="M284.178 219.52C283.284 219.668 282.441 219.07 282.293 218.176C282.144 217.282 282.742 216.439 283.637 216.291C284.531 216.142 285.374 216.741 285.522 217.635C285.67 218.529 285.072 219.372 284.178 219.52Z" fill="white"/>
<path d="M299.414 216.951C298.52 217.099 297.677 216.501 297.529 215.607C297.381 214.713 297.979 213.87 298.873 213.722C299.767 213.574 300.61 214.172 300.758 215.066C300.907 215.96 300.308 216.803 299.414 216.951Z" fill="white"/>
<path d="M225.344 242.31C224.45 242.458 223.607 241.86 223.459 240.965C223.311 240.071 223.909 239.228 224.803 239.08C225.698 238.932 226.541 239.53 226.689 240.424C226.837 241.319 226.239 242.162 225.344 242.31Z" fill="white"/>
<path d="M240.581 239.741C239.686 239.889 238.843 239.291 238.695 238.397C238.547 237.502 239.145 236.659 240.04 236.511C240.934 236.363 241.777 236.961 241.925 237.856C242.073 238.75 241.475 239.593 240.581 239.741Z" fill="white"/>
<path d="M255.818 237.172C254.923 237.32 254.08 236.722 253.932 235.828C253.784 234.933 254.382 234.09 255.276 233.942C256.171 233.794 257.014 234.392 257.162 235.286C257.31 236.181 256.712 237.024 255.818 237.172Z" fill="white"/>
<path d="M271.054 234.597C270.16 234.745 269.317 234.147 269.169 233.253C269.021 232.359 269.619 231.516 270.513 231.368C271.408 231.22 272.251 231.818 272.399 232.712C272.547 233.606 271.949 234.449 271.054 234.597Z" fill="white"/>
<path d="M286.291 232.028C285.396 232.177 284.553 231.579 284.405 230.684C284.257 229.79 284.855 228.947 285.75 228.799C286.644 228.651 287.487 229.249 287.635 230.143C287.783 231.037 287.185 231.88 286.291 232.028Z" fill="white"/>
<path d="M301.527 229.46C300.633 229.608 299.79 229.01 299.642 228.115C299.494 227.221 300.092 226.378 300.986 226.23C301.881 226.082 302.724 226.68 302.872 227.574C303.02 228.469 302.422 229.312 301.527 229.46Z" fill="white"/>
<path d="M227.452 254.818C226.558 254.966 225.715 254.368 225.566 253.474C225.418 252.58 226.016 251.737 226.911 251.588C227.805 251.44 228.648 252.038 228.796 252.933C228.944 253.827 228.346 254.67 227.452 254.818Z" fill="white"/>
<path d="M242.689 252.249C241.794 252.397 240.951 251.799 240.803 250.905C240.655 250.01 241.253 249.167 242.148 249.019C243.042 248.871 243.885 249.469 244.033 250.364C244.181 251.258 243.583 252.101 242.689 252.249Z" fill="white"/>
<path d="M257.925 249.68C257.031 249.828 256.188 249.23 256.04 248.336C255.892 247.442 256.49 246.599 257.384 246.451C258.278 246.303 259.121 246.901 259.269 247.795C259.417 248.689 258.819 249.532 257.925 249.68Z" fill="white"/>
<path d="M273.162 247.111C272.268 247.259 271.425 246.661 271.276 245.767C271.128 244.873 271.726 244.03 272.621 243.882C273.515 243.734 274.358 244.332 274.506 245.226C274.654 246.12 274.056 246.963 273.162 247.111Z" fill="white"/>
<path d="M288.399 244.537C287.504 244.685 286.661 244.087 286.513 243.193C286.365 242.298 286.963 241.455 287.857 241.307C288.752 241.159 289.595 241.757 289.743 242.651C289.891 243.546 289.293 244.389 288.399 244.537Z" fill="white"/>
<path d="M303.635 241.968C302.741 242.116 301.898 241.518 301.75 240.624C301.602 239.729 302.2 238.886 303.094 238.738C303.989 238.59 304.832 239.188 304.98 240.083C305.128 240.977 304.53 241.82 303.635 241.968Z" fill="white"/>
<path d="M229.565 267.326C228.671 267.474 227.828 266.876 227.68 265.982C227.532 265.088 228.13 264.245 229.024 264.097C229.918 263.949 230.761 264.547 230.909 265.441C231.057 266.335 230.459 267.178 229.565 267.326Z" fill="white"/>
<path d="M244.802 264.757C243.908 264.906 243.065 264.308 242.917 263.413C242.768 262.519 243.367 261.676 244.261 261.528C245.155 261.38 245.998 261.978 246.146 262.872C246.294 263.766 245.696 264.609 244.802 264.757Z" fill="white"/>
<path d="M260.038 262.189C259.144 262.337 258.301 261.739 258.153 260.844C258.005 259.95 258.603 259.107 259.497 258.959C260.391 258.811 261.234 259.409 261.382 260.303C261.531 261.198 260.932 262.041 260.038 262.189Z" fill="white"/>
<path d="M275.275 259.62C274.381 259.768 273.538 259.17 273.39 258.276C273.242 257.381 273.84 256.538 274.734 256.39C275.628 256.242 276.471 256.84 276.619 257.734C276.767 258.629 276.169 259.472 275.275 259.62Z" fill="white"/>
<path d="M290.512 257.051C289.618 257.199 288.775 256.601 288.627 255.707C288.478 254.812 289.076 253.969 289.971 253.821C290.865 253.673 291.708 254.271 291.856 255.166C292.004 256.06 291.406 256.903 290.512 257.051Z" fill="white"/>
<path d="M305.748 254.476C304.854 254.624 304.011 254.026 303.863 253.132C303.715 252.238 304.313 251.395 305.207 251.247C306.101 251.099 306.944 251.697 307.092 252.591C307.241 253.485 306.642 254.328 305.748 254.476Z" fill="white"/>
<path d="M231.673 279.84C230.778 279.988 229.935 279.39 229.787 278.496C229.639 277.602 230.237 276.759 231.131 276.611C232.026 276.463 232.869 277.061 233.017 277.955C233.165 278.849 232.567 279.692 231.673 279.84Z" fill="white"/>
<path d="M246.909 277.266C246.015 277.414 245.172 276.816 245.024 275.922C244.876 275.027 245.474 274.184 246.368 274.036C247.262 273.888 248.105 274.486 248.254 275.38C248.402 276.275 247.804 277.118 246.909 277.266Z" fill="white"/>
<path d="M262.146 274.697C261.252 274.845 260.409 274.247 260.261 273.353C260.113 272.458 260.711 271.615 261.605 271.467C262.499 271.319 263.342 271.917 263.49 272.812C263.638 273.706 263.04 274.549 262.146 274.697Z" fill="white"/>
<path d="M277.382 272.128C276.488 272.276 275.645 271.678 275.497 270.784C275.349 269.89 275.947 269.047 276.841 268.898C277.736 268.75 278.579 269.348 278.727 270.243C278.875 271.137 278.277 271.98 277.382 272.128Z" fill="white"/>
<path d="M292.619 269.559C291.725 269.707 290.882 269.109 290.734 268.215C290.586 267.321 291.184 266.478 292.078 266.33C292.972 266.182 293.815 266.78 293.964 267.674C294.112 268.568 293.514 269.411 292.619 269.559Z" fill="white"/>
<path d="M307.856 266.985C306.962 267.133 306.119 266.535 305.971 265.64C305.823 264.746 306.421 263.903 307.315 263.755C308.209 263.607 309.052 264.205 309.2 265.099C309.348 265.993 308.75 266.836 307.856 266.985Z" fill="white"/>
</g>
<path d="M162.66 341.049C158.725 341.049 155.472 337.967 155.25 334.037L151.85 273.33C151.622 269.24 154.76 265.726 158.85 265.498L177.356 264.461C177.971 264.427 178.341 264.011 178.478 263.63C178.655 263.14 178.541 262.639 178.165 262.28C175.932 260.166 174.616 257.398 174.451 254.488C174.064 247.596 180.113 241.626 187.933 241.188C188.241 241.17 188.543 241.165 188.85 241.165C196.312 241.165 202.452 246.32 202.823 252.898C202.988 255.809 201.985 258.703 200.003 261.055C199.678 261.437 199.61 261.938 199.827 262.394C199.992 262.752 200.379 263.128 200.971 263.128H201.051L219.557 262.086C219.7 262.08 219.842 262.075 219.979 262.075C223.915 262.075 227.173 265.156 227.389 269.086L228.409 287.256C228.449 288.014 229.092 288.464 229.69 288.464C229.918 288.464 230.254 288.401 230.556 288.105C232.652 286.043 235.233 284.87 238.029 284.716C238.24 284.705 238.451 284.699 238.656 284.699C245.337 284.699 250.902 290.628 251.324 298.198C251.534 301.975 250.441 305.603 248.242 308.411C246.032 311.236 242.968 312.894 239.618 313.082C239.408 313.093 239.203 313.099 238.992 313.099C236.423 313.099 233.94 312.216 231.815 310.547C231.593 310.371 231.325 310.279 231.052 310.279C230.699 310.279 230.357 310.428 230.112 310.69C229.941 310.866 229.747 311.174 229.776 311.629L230.795 329.799C230.904 331.782 230.237 333.684 228.916 335.165C227.594 336.646 225.772 337.523 223.789 337.631L163.082 341.032C162.94 341.038 162.797 341.043 162.66 341.043V341.049Z" fill="#9FBFFF"/>
<path d="M188.85 241.586C196.056 241.586 202.031 246.508 202.39 252.915C202.555 255.838 201.518 258.577 199.673 260.776C198.738 261.887 199.547 263.556 200.966 263.556C201 263.556 201.034 263.556 201.068 263.556L219.574 262.519C219.705 262.513 219.842 262.507 219.973 262.507C223.658 262.507 226.751 265.39 226.956 269.12L227.976 287.291C228.033 288.265 228.842 288.897 229.685 288.897C230.095 288.897 230.511 288.749 230.847 288.413C232.783 286.51 235.272 285.303 238.041 285.143C238.246 285.132 238.445 285.126 238.644 285.126C245.052 285.126 250.475 290.856 250.891 298.221C251.318 305.82 246.254 312.279 239.584 312.655C239.385 312.666 239.18 312.672 238.98 312.672C236.434 312.672 234.048 311.766 232.066 310.211C231.747 309.96 231.388 309.852 231.04 309.852C230.135 309.852 229.28 310.604 229.337 311.652L230.357 329.822C230.573 333.684 227.617 336.988 223.755 337.204L163.048 340.605C162.917 340.61 162.78 340.616 162.649 340.616C158.964 340.616 155.871 337.734 155.666 334.003L152.265 273.296C152.049 269.434 155.005 266.13 158.867 265.914L177.373 264.877C178.854 264.792 179.526 262.98 178.45 261.961C176.365 259.984 175.032 257.375 174.867 254.453C174.491 247.783 180.346 242.031 187.945 241.603C188.247 241.586 188.543 241.581 188.833 241.581M188.833 240.726C188.52 240.726 188.207 240.738 187.893 240.755C184.014 240.971 180.432 242.509 177.812 245.078C175.163 247.681 173.813 251.024 174.007 254.499C174.178 257.518 175.539 260.389 177.851 262.576C178.222 262.923 178.102 263.345 178.056 263.464C178.011 263.59 177.823 263.988 177.31 264.017L158.804 265.054C154.481 265.298 151.154 269.012 151.399 273.335L154.8 334.043C155.033 338.201 158.474 341.459 162.638 341.459C162.786 341.459 162.934 341.459 163.082 341.448L223.789 338.047C225.885 337.928 227.811 337.005 229.206 335.438C230.607 333.872 231.308 331.856 231.194 329.765L230.174 311.595C230.157 311.293 230.288 311.088 230.397 310.974C230.562 310.803 230.795 310.701 231.023 310.701C231.205 310.701 231.371 310.764 231.519 310.878C233.723 312.603 236.292 313.52 238.958 313.52C239.174 313.52 239.39 313.515 239.607 313.503C243.081 313.31 246.254 311.59 248.544 308.667C250.805 305.78 251.933 302.049 251.717 298.17C251.278 290.372 245.525 284.266 238.622 284.266C238.405 284.266 238.189 284.272 237.972 284.283C235.073 284.448 232.396 285.662 230.226 287.792C230.026 287.991 229.81 288.031 229.662 288.031C229.269 288.031 228.836 287.752 228.807 287.228L227.788 269.058C227.554 264.9 224.114 261.642 219.95 261.642C219.802 261.642 219.654 261.642 219.506 261.653L201 262.69C201 262.69 200.966 262.69 200.943 262.69C200.447 262.69 200.237 262.314 200.185 262.2C200.117 262.057 199.997 261.682 200.305 261.317C202.355 258.879 203.392 255.877 203.221 252.859C202.84 246.052 196.517 240.72 188.828 240.72L188.833 240.726Z" fill="white"/>
<mask id="mask3_462_3924" style="mask-type:luminance" maskUnits="userSpaceOnUse" x="152" y="241" width="99" height="100">
<path d="M238.052 285.149C235.284 285.303 232.789 286.51 230.858 288.418C229.821 289.438 228.067 288.743 227.987 287.291L226.968 269.121C226.751 265.259 223.448 262.303 219.586 262.519L201.08 263.556C199.599 263.641 198.727 261.915 199.684 260.776C201.535 258.577 202.566 255.838 202.401 252.916C202.025 246.246 195.566 241.182 187.967 241.609C180.369 242.036 174.514 247.789 174.89 254.459C175.055 257.381 176.388 259.99 178.472 261.966C179.549 262.986 178.877 264.797 177.396 264.883L158.89 265.919C155.028 266.136 152.072 269.44 152.288 273.301L155.689 334.009C155.905 337.871 159.209 340.827 163.07 340.61L223.778 337.21C227.64 336.994 230.596 333.69 230.38 329.828L229.36 311.658C229.28 310.206 230.943 309.323 232.088 310.217C234.224 311.892 236.833 312.814 239.601 312.66C246.271 312.285 251.335 305.825 250.908 298.227C250.481 290.629 244.728 284.773 238.058 285.149H238.052Z" fill="white"/>
</mask>
<g mask="url(#mask3_462_3924)">
<g opacity="0.35">
<path d="M164.922 304.783C164.044 304.999 163.156 304.47 162.934 303.592C162.717 302.715 163.247 301.827 164.124 301.605C165.001 301.388 165.89 301.918 166.112 302.795C166.328 303.672 165.799 304.561 164.922 304.783Z" fill="white"/>
<path d="M179.919 301.046C179.042 301.263 178.153 300.733 177.931 299.856C177.715 298.979 178.244 298.09 179.122 297.868C179.999 297.652 180.887 298.181 181.11 299.058C181.332 299.936 180.796 300.824 179.919 301.046Z" fill="white"/>
<path d="M194.911 297.304C194.034 297.521 193.145 296.991 192.923 296.114C192.706 295.236 193.236 294.348 194.113 294.126C194.991 293.909 195.879 294.439 196.101 295.316C196.318 296.193 195.788 297.082 194.911 297.304Z" fill="white"/>
<path d="M209.902 293.562C209.025 293.778 208.137 293.249 207.915 292.371C207.698 291.494 208.228 290.606 209.105 290.384C209.982 290.167 210.871 290.697 211.093 291.574C211.315 292.451 210.78 293.34 209.902 293.562Z" fill="white"/>
<path d="M153 320.834C152.123 321.051 151.234 320.521 151.012 319.644C150.796 318.767 151.326 317.878 152.203 317.656C153.08 317.439 153.968 317.969 154.191 318.846C154.407 319.723 153.877 320.612 153 320.834Z" fill="white"/>
<path d="M167.998 317.092C167.121 317.308 166.232 316.779 166.01 315.901C165.793 315.024 166.323 314.136 167.2 313.914C168.077 313.697 168.966 314.227 169.188 315.104C169.41 315.981 168.875 316.87 167.998 317.092Z" fill="white"/>
<path d="M182.989 313.355C182.112 313.572 181.223 313.042 181.001 312.165C180.785 311.288 181.314 310.399 182.191 310.177C183.069 309.961 183.957 310.49 184.179 311.367C184.401 312.245 183.866 313.133 182.989 313.355Z" fill="white"/>
<path d="M197.981 309.613C197.104 309.829 196.215 309.3 195.993 308.422C195.777 307.545 196.306 306.657 197.184 306.435C198.061 306.218 198.949 306.748 199.172 307.625C199.388 308.502 198.858 309.391 197.981 309.613Z" fill="white"/>
<path d="M212.973 305.871C212.096 306.087 211.207 305.558 210.985 304.68C210.768 303.803 211.298 302.915 212.175 302.692C213.053 302.476 213.941 303.006 214.163 303.883C214.385 304.76 213.85 305.649 212.973 305.871Z" fill="white"/>
<path d="M156.076 333.143C155.199 333.359 154.31 332.83 154.088 331.953C153.871 331.075 154.401 330.187 155.278 329.965C156.156 329.748 157.044 330.278 157.266 331.155C157.483 332.032 156.953 332.921 156.076 333.143Z" fill="white"/>
<path d="M171.068 329.401C170.19 329.617 169.302 329.088 169.08 328.21C168.863 327.333 169.393 326.445 170.27 326.222C171.147 326.006 172.036 326.536 172.258 327.413C172.474 328.29 171.945 329.179 171.068 329.401Z" fill="white"/>
<path d="M186.059 325.664C185.182 325.881 184.293 325.351 184.071 324.474C183.855 323.597 184.385 322.708 185.262 322.486C186.139 322.269 187.028 322.799 187.25 323.676C187.472 324.554 186.936 325.442 186.059 325.664Z" fill="white"/>
<path d="M201.051 321.922C200.174 322.138 199.285 321.609 199.063 320.732C198.847 319.854 199.376 318.966 200.253 318.744C201.131 318.527 202.019 319.057 202.241 319.934C202.464 320.811 201.928 321.7 201.051 321.922Z" fill="white"/>
<path d="M217.049 317.419C217.512 316.64 217.257 315.633 216.479 315.17C215.7 314.706 214.693 314.962 214.23 315.74C213.766 316.519 214.022 317.525 214.8 317.989C215.579 318.452 216.585 318.197 217.049 317.419Z" fill="white"/>
<path d="M174.138 341.71C173.261 341.926 172.372 341.397 172.15 340.519C171.933 339.642 172.463 338.754 173.34 338.532C174.218 338.315 175.106 338.845 175.328 339.722C175.55 340.599 175.015 341.488 174.138 341.71Z" fill="white"/>
<path d="M189.13 337.973C188.252 338.19 187.364 337.66 187.142 336.783C186.925 335.906 187.455 335.017 188.332 334.795C189.209 334.579 190.098 335.108 190.32 335.985C190.536 336.863 190.007 337.751 189.13 337.973Z" fill="white"/>
<path d="M204.121 334.231C203.244 334.447 202.355 333.918 202.133 333.041C201.917 332.163 202.447 331.275 203.324 331.053C204.201 330.831 205.09 331.366 205.312 332.243C205.534 333.12 204.998 334.009 204.121 334.231Z" fill="white"/>
<path d="M220.122 329.73C220.586 328.951 220.33 327.945 219.552 327.481C218.773 327.018 217.767 327.273 217.303 328.051C216.84 328.83 217.095 329.837 217.873 330.3C218.652 330.764 219.659 330.508 220.122 329.73Z" fill="white"/>
<path d="M222.183 342.798C221.306 343.014 220.417 342.484 220.195 341.607C219.978 340.73 220.508 339.842 221.385 339.619C222.262 339.403 223.151 339.933 223.373 340.81C223.59 341.687 223.06 342.576 222.183 342.798Z" fill="white"/>
</g>
</g>
<path d="M80.5591 254.174C80.5591 254.174 79.9952 279.06 78.4744 287.598C76.7713 297.162 62.52 316.465 62.52 316.465L65.818 319.729L70.7051 322.059C70.7051 322.059 83.1621 310.148 90.1853 295.248C96.2742 282.324 96.5419 255.49 96.5419 255.49" fill="#F777BA"/>
<path d="M77.0161 330.027C77.1699 329.435 77.2382 328.706 77.0275 328.393L71.9467 320.919C67.0938 320.025 62.856 315.645 62.856 315.645L58.6068 320.35C58.4986 320.526 58.5498 320.754 58.7264 320.868L75.8256 331.639C76.1674 331.856 77.0104 330.044 77.0161 330.027Z" fill="#00276F"/>
<path d="M73.268 322.184C72.5503 322.446 71.8611 322.793 71.2231 323.215" stroke="#1A3987" stroke-width="0.75" stroke-linejoin="round"/>
<path d="M73.8152 323.272C73.052 323.574 72.6817 323.796 72.1064 324.166" stroke="#1A3987" stroke-width="0.75" stroke-linejoin="round"/>
<path d="M74.3159 324.132C73.8033 324.325 73.2052 324.667 72.7324 324.941" stroke="#1A3987" stroke-width="0.75" stroke-linejoin="round"/>
<path d="M59.2217 319.587L76.7424 330.62" stroke="#1A3987" stroke-width="0.75" stroke-linejoin="round"/>
<path d="M61.3521 317.314C61.3521 317.314 65.4019 320.008 64.1772 322.708" stroke="#1A3987" stroke-width="0.75" stroke-linejoin="round"/>
<path d="M75.9852 326.86C75.9852 326.86 73.8321 327.749 73.1372 328.347" stroke="#1A3987" stroke-width="0.75" stroke-linejoin="round"/>
<path d="M98.8428 264.501C98.8428 264.501 99.794 279.049 100.46 290.173C101.121 301.297 102.42 326.695 102.42 326.695L107.233 327.834L112.576 326.946C112.576 326.946 113.96 305.022 113.96 290.492C113.96 275.961 113.379 254.174 113.379 254.174" fill="#F777BA"/>
<path d="M122.048 330.865C121.86 330.284 121.524 329.628 121.177 329.48L112.878 325.903C108.304 327.76 102.38 326.342 102.38 326.342L101.326 332.59C101.326 332.795 101.497 332.966 101.702 332.961L121.911 332.858C122.316 332.858 122.054 330.876 122.048 330.859V330.865Z" fill="#00276F"/>
<path d="M114.672 326.262C114.205 326.866 113.812 327.532 113.504 328.227" stroke="#1A3987" stroke-width="0.75" stroke-linejoin="round"/>
<path d="M115.72 326.889C115.236 327.555 115.048 327.943 114.757 328.558" stroke="#1A3987" stroke-width="0.75" stroke-linejoin="round"/>
<path d="M116.603 327.344C116.278 327.783 115.954 328.393 115.703 328.877" stroke="#1A3987" stroke-width="0.75" stroke-linejoin="round"/>
<path d="M101.429 331.617L122.134 331.508" stroke="#1A3987" stroke-width="0.75" stroke-linejoin="round"/>
<path d="M102.004 328.558C102.004 328.558 106.868 328.654 107.284 331.588" stroke="#1A3987" stroke-width="0.75" stroke-linejoin="round"/>
<path d="M119.473 328.751C119.473 328.751 118.135 330.66 117.867 331.537" stroke="#1A3987" stroke-width="0.75" stroke-linejoin="round"/>
<path d="M98.4896 182.229C95.8865 181.636 93.4031 183.391 92.2468 185.196C91.8823 185.772 91.5975 186.398 91.1874 186.939C88.5843 190.385 78.0981 189.315 80.1714 196.098C80.4106 196.879 80.8663 197.597 80.9346 198.411C81.0201 199.431 80.4847 200.382 80.2056 201.362C79.2942 204.546 81.5327 208.271 84.7737 208.96C86.2262 209.268 87.8438 209.062 89.097 209.854C90.2646 210.595 90.7943 211.996 91.6259 213.101C93.8872 216.131 98.3927 216.724 101.947 215.436C103.291 214.946 104.636 214.143 105.211 212.833C105.535 212.087 105.592 211.233 106.02 210.538C106.846 209.199 108.663 208.971 110.03 208.197C111.995 207.08 113.145 204.454 112.251 202.33C111.334 200.16 109.403 198.166 108.959 195.842C108.714 194.543 109.067 193.188 108.805 191.895C108.611 190.932 108.064 190.049 107.296 189.44C106.766 189.018 106.145 188.734 105.621 188.306C104.522 187.406 104.379 185.8 103.251 184.877C102.124 183.955 100.62 183.653 99.4066 182.867" fill="#FFE1AD"/>
<path d="M103.257 198.2C109.87 196.355 119.588 196.736 127.34 189.07C135.092 181.409 138.413 175.57 138.413 175.57L144.388 180.281C144.388 180.281 136.544 195.33 129.556 200.388C120.368 207.035 114.12 208.06 108.839 209.017" fill="#F777BA"/>
<path d="M136.784 178.071C138.418 175.57 142.366 168.405 142.918 168.485C143.471 168.564 142.206 171.071 142.668 171.053C143.135 171.031 145.339 167.305 145.874 167.528C146.592 167.835 144.126 171.532 144.126 171.532C144.126 171.532 144.769 170.871 145.316 171.315C145.704 171.629 145.242 172.745 145.242 172.745C145.242 172.745 145.983 172.01 146.376 172.346C146.769 172.677 146.239 174.004 146.239 174.004C146.239 174.004 146.791 173.702 147.167 173.998C147.543 174.289 145.607 178.749 142.001 184.536" fill="#F777BA"/>
<path d="M142.138 172.022C142.138 172.022 142.035 173.332 142.138 174.209C142.309 175.627 141.876 176.368 141.876 176.368" stroke="#CC328A" stroke-width="0.75" stroke-linejoin="round"/>
<path d="M143.909 171.828C143.755 172.249 143.607 172.671 143.482 173.098C143.419 173.315 143.368 173.525 143.328 173.742C143.288 173.952 143.254 174.18 143.288 174.357C143.323 174.448 143.322 174.459 143.397 174.459C143.459 174.459 143.55 174.431 143.636 174.38C143.807 174.277 143.966 174.135 144.12 173.975C144.416 173.662 144.707 173.32 144.957 172.967C145.02 172.882 145.14 172.865 145.219 172.927C145.299 172.984 145.322 173.087 145.276 173.172C145.071 173.559 144.877 173.952 144.712 174.351C144.633 174.551 144.553 174.756 144.496 174.955C144.439 175.149 144.399 175.371 144.422 175.502C144.45 175.564 144.41 175.536 144.467 175.547C144.519 175.564 144.598 175.536 144.672 175.502C144.832 175.428 144.991 175.285 145.134 175.137C145.424 174.835 145.675 174.471 145.897 174.112C145.948 174.021 146.062 173.992 146.153 174.044C146.233 174.095 146.262 174.197 146.222 174.283C146.051 174.642 145.874 175.006 145.72 175.376C145.572 175.747 145.424 176.128 145.379 176.499C145.367 176.59 145.373 176.687 145.396 176.738C145.413 176.783 145.453 176.795 145.538 176.783C145.698 176.743 145.863 176.618 146.005 176.487C146.296 176.219 146.552 175.9 146.797 175.576C146.598 175.929 146.376 176.271 146.102 176.584C145.96 176.732 145.817 176.892 145.584 176.977C145.521 176.988 145.458 177.005 145.379 176.988C145.305 176.966 145.225 176.909 145.196 176.846C145.128 176.715 145.134 176.595 145.134 176.487C145.162 176.049 145.293 175.661 145.424 175.268C145.561 174.881 145.709 174.499 145.886 174.123L146.21 174.294C145.977 174.693 145.732 175.063 145.413 175.411C145.253 175.582 145.083 175.747 144.843 175.872C144.724 175.929 144.581 175.986 144.41 175.957C144.336 175.957 144.222 175.918 144.143 175.844C144.069 175.769 144.023 175.667 144.006 175.593C143.949 175.28 144.029 175.063 144.091 174.835C144.16 174.613 144.245 174.402 144.336 174.192C144.519 173.776 144.718 173.377 144.94 172.984L145.259 173.189C144.98 173.554 144.69 173.901 144.348 174.214C144.177 174.368 143.995 174.522 143.772 174.636C143.664 174.693 143.533 174.744 143.374 174.733C143.3 174.721 143.203 174.704 143.14 174.625C143.078 174.556 143.055 174.476 143.043 174.408C142.998 173.884 143.191 173.474 143.345 173.053C143.51 172.631 143.698 172.227 143.915 171.828H143.909Z" fill="#CC328A"/>
<path d="M96.9461 182.753C96.6329 182.582 96.2171 182.633 95.9494 182.4C95.5051 182.007 95.4994 181.334 95.6873 180.81C95.9892 179.979 97.0601 179.614 97.8746 179.734C99.8226 180.024 99.5207 181.893 98.3303 182.599" fill="#FFE1AD"/>
<path d="M86.181 230.132C86.181 230.132 79.1864 237.588 77.8592 247.744C76.5321 257.9 76.5093 274.429 76.5093 274.429C76.5093 274.429 96.6502 278.12 114.957 274.036C114.256 265.595 114.957 241.957 108.566 230.132" fill="#2A2A68"/>
<path d="M80.1944 274.976C80.1944 274.976 79.5622 249.47 82.5184 240.863C84.8423 234.102 89.9516 227.569 89.9516 227.569" stroke="#5565AA" stroke-width="0.75" stroke-miterlimit="10"/>
<path d="M115.247 196.326L117.628 207.701C117.628 207.701 112.963 209.592 108.133 209.865C105.53 209.82 101.588 199.687 103.081 197.733C107.421 196.446 115.247 196.326 115.247 196.326Z" fill="#2E7EFA"/>
<path d="M85.6969 209.097C85.6969 209.097 85.3836 222.431 86.181 230.132C97.4248 232.621 108.566 230.132 108.566 230.132L109.346 218.022C114.963 212.258 110.036 204.79 110.036 204.79L103.087 197.739L96.1319 197.352L85.7026 209.097H85.6969Z" fill="#2E7EFA"/>
<path d="M96.1315 197.352C96.1315 197.352 89.9514 196.372 83.9707 201.287C82.6207 202.398 80.9461 204.711 79.562 207.502L89.1996 213.847L94.8841 207.502" fill="#2E7EFA"/>
<path d="M111.818 209.381C111.346 207.599 110.03 204.79 110.03 203.076" stroke="#1A3987" stroke-width="0.75" stroke-linejoin="round"/>
<path d="M113.43 196.389L116.153 208.231" stroke="#1A3987" stroke-width="0.75" stroke-linejoin="round"/>
<path d="M80.3994 205.93L87.3826 210.27" stroke="#1A3987" stroke-width="0.75" stroke-linejoin="round"/>
<path d="M103.599 184.974C103.599 184.974 106.157 191.616 104.237 193.638C103.24 194.692 99.7887 194.105 98.4843 193.114C97.5217 192.379 96.2458 187.959 96.7642 187.127C98.7521 183.943 103.599 184.98 103.599 184.98V184.974Z" fill="#F777BA"/>
<path d="M96.388 190.818L96.126 197.352C96.6443 198.998 102.192 200.564 103.081 197.739L102.528 192.84L96.388 190.824V190.818Z" fill="#F777BA"/>
<path d="M93.4492 190.072C93.2156 189.457 93.1701 188.785 93.1757 188.13C93.1814 187.298 93.2726 186.455 93.5517 185.669C94.0244 184.331 95.0554 183.203 96.337 182.599C97.6186 181.995 100.074 181.414 102.067 182.593C103.087 182.491 104.158 182.776 104.915 183.465C105.673 184.154 106.054 185.265 105.775 186.244C103.884 186.028 101.993 185.812 100.102 185.595C99.7204 186.62 99.0141 187.52 98.1084 188.136C97.2313 188.734 96.2687 189.48 96.6332 190.704C96.787 191.211 96.2345 191.308 96.2345 192.294C95.2149 192.185 93.7112 190.727 93.4719 190.14C93.4662 190.118 93.4549 190.101 93.4492 190.078V190.072Z" fill="#FFE1AD"/>
<path d="M97.2539 189.764C96.6501 188.83 96.0862 188.916 95.7387 189.366C95.2774 189.964 95.9609 191.359 96.314 191.621C97.0317 192.151 97.6583 192.162 97.7722 191.547" fill="#F777BA"/>
<path d="M102.682 194.378C100.227 194.481 98.4897 193.108 98.4897 193.108" stroke="#CC328A" stroke-width="0.75" stroke-linejoin="round"/>
<path d="M102.198 188.335C102.198 188.335 103.827 189.748 103.787 190.192C103.747 190.636 102.733 190.824 102.733 190.824" stroke="#CC328A" stroke-width="0.5" stroke-linejoin="round"/>
<path d="M103.924 191.206L101.178 191.969C101.178 191.969 101.902 193.342 103.383 192.818C104.436 192.448 103.924 191.206 103.924 191.206Z" fill="white"/>
<path d="M103.349 187.822C103.383 187.942 103.423 188.062 103.468 188.181C103.588 188.477 104.009 188.306 103.878 188.01C103.827 187.896 103.77 187.782 103.702 187.674C103.588 187.486 103.286 187.606 103.343 187.822H103.349Z" fill="#00276F"/>
<path d="M102.705 187.156C102.705 187.156 103.058 186.524 103.736 186.894" stroke="#00276F" stroke-width="0.5" stroke-linecap="round" stroke-linejoin="round"/>
<path d="M100.261 188.984C100.284 189.11 100.318 189.229 100.364 189.349C100.46 189.622 100.899 189.497 100.796 189.229C100.745 189.093 100.688 188.962 100.62 188.831C100.512 188.625 100.221 188.774 100.261 188.979V188.984Z" fill="#00276F"/>
<path d="M100.598 187.765C100.598 187.765 99.8855 187.623 99.2817 188.523" stroke="#00276F" stroke-width="0.5" stroke-linecap="round" stroke-linejoin="round"/>
<path d="M79.5621 207.502C76.5603 213.562 74.692 222.391 81.0259 225.08C87.6332 227.888 104.955 206.682 104.955 206.682L99.6061 202.079L85.3036 211.284" fill="#F777BA"/>
<path d="M85.3035 211.284L81.0259 214.616" stroke="#CC328A" stroke-width="0.75" stroke-linejoin="round"/>
<path d="M104.983 203.851C104.123 203.691 103.553 202.86 103.713 201.994L104.869 195.854L107.99 196.44L106.834 202.58C106.675 203.441 105.843 204.01 104.977 203.851H104.983Z" fill="#2A2A68"/>
<path d="M108.464 197.779L105.946 197.169C104.163 196.736 103.069 194.936 103.502 193.154C103.935 191.371 105.735 190.277 107.518 190.71L110.036 191.32C110.184 191.354 110.275 191.508 110.241 191.656L108.8 197.574C108.765 197.722 108.612 197.813 108.464 197.779Z" fill="#4376CF"/>
<path d="M110.354 194.817C109.922 196.6 109.079 197.927 108.475 197.779C107.871 197.631 107.734 196.064 108.167 194.282C108.6 192.499 109.443 191.172 110.047 191.32C110.651 191.468 110.787 193.034 110.354 194.817Z" fill="#9CD0FF"/>
<path d="M116.29 203.367C116.29 203.367 111.682 199.408 108.953 197.779C108.099 197.084 108.389 195.444 108.623 194.544C109.232 192.231 110.03 191.929 110.03 191.929C113.732 192.185 119.548 190.42 119.548 190.42" fill="#2A2A68"/>
<path d="M116.591 196.315C115.577 200.342 115.685 203.845 116.842 204.135C117.992 204.426 119.752 201.396 120.766 197.369C121.78 193.342 121.672 189.839 120.516 189.548C119.359 189.258 117.605 192.288 116.591 196.315Z" fill="#9CD0FF"/>
<path d="M117.269 196.497C116.409 199.903 116.42 202.842 117.286 203.065C118.152 203.281 119.553 200.701 120.413 197.289C121.273 193.883 121.262 190.944 120.396 190.721C119.53 190.505 118.129 193.085 117.269 196.497Z" fill="#4376CF"/>
<path d="M118.796 198.445C118.009 198.246 117.315 198.314 116.876 198.405C116.979 197.802 117.11 197.158 117.275 196.503C117.44 195.848 117.628 195.221 117.827 194.635C118.175 194.925 118.75 195.313 119.536 195.512L118.796 198.445Z" fill="#2A2A68"/>
<path d="M118.762 196.873C118.556 197.693 118.568 198.4 118.79 198.457C119.012 198.514 119.36 197.893 119.565 197.078C119.77 196.258 119.758 195.552 119.536 195.495C119.314 195.438 118.967 196.059 118.762 196.873Z" fill="#FFE1AD"/>
<path d="M97.0142 203.748C100.586 201.413 103.086 200.04 103.519 199.858C104.949 199.248 106.498 199.482 107.626 199.943C108.002 200.097 108.366 200.313 108.617 200.638C108.924 201.025 109.05 201.544 109.027 202.039C109.027 202.13 109.01 202.239 108.93 202.29C108.754 202.41 108.588 202.136 108.474 201.948C108.195 201.487 107.728 201.293 107.187 201.293C107.461 201.299 107.58 201.567 107.7 201.817C107.819 202.068 107.683 202.421 107.409 202.461C107.66 202.506 107.871 202.729 107.899 202.985C107.928 203.241 107.78 203.503 107.546 203.611C107.717 203.668 107.802 203.879 107.78 204.061C107.757 204.244 107.649 204.397 107.54 204.546C107.05 205.189 106.441 205.73 105.831 206.254C103.912 207.906 99.9419 212.383 99.9419 212.383" fill="#F777BA"/>
<path d="M118.784 329.953L102.653 328.751L97.3618 329.298L97.47 349.359C97.47 349.866 97.8858 350.276 98.3928 350.271C98.7744 350.271 99.1105 350.032 99.2472 349.678L103.36 340.73L120.174 342.752" fill="#F777BA"/>
<path d="M97.6926 351.177C98.359 350.966 99.1052 350.573 99.2704 350.185L103.354 340.696C101.235 335.467 102.853 328.695 102.853 328.695L95.7104 328.176C95.4769 328.176 95.2832 328.37 95.2832 328.609L95.4028 351.023C95.4028 351.49 97.6641 351.188 97.6869 351.182L97.6926 351.177Z" fill="#2E7EFA"/>
<path d="M102.95 342.747C102.255 342.217 101.503 341.767 100.706 341.408" stroke="#1A3987" stroke-width="0.75" stroke-linejoin="round"/>
<path d="M102.232 343.943C101.469 343.39 101.031 343.174 100.324 342.843" stroke="#1A3987" stroke-width="0.75" stroke-linejoin="round"/>
<path d="M101.714 344.951C101.213 344.575 100.518 344.21 99.9595 343.92" stroke="#1A3987" stroke-width="0.75" stroke-linejoin="round"/>
<path d="M96.8267 328.296L96.952 351.273" stroke="#1A3987" stroke-width="0.75" stroke-linejoin="round"/>
<path d="M100.25 328.507C100.25 328.507 100.21 333.827 96.8608 334.305" stroke="#1A3987" stroke-width="0.75" stroke-linejoin="round"/>
<path d="M100.107 348.237C100.107 348.237 97.9315 346.705 96.9233 346.403" stroke="#1A3987" stroke-width="0.75" stroke-linejoin="round"/>
<path d="M146.963 296.849C147.202 297.344 150.204 318.63 152.351 333.479C153.695 342.775 153.866 348.642 140.333 347.531C121.701 346.005 108.72 345.162 108.72 345.162L108.287 328.455L133.89 329.674L130.558 313.145C130.558 313.145 124.367 304.891 128.929 295.436" fill="#816FC2"/>
<path d="M111.055 328.581L111.727 345.156" stroke="#4C3F89" stroke-width="0.75" stroke-miterlimit="10"/>
<path d="M142.474 307.882L146.974 334.032C147.065 334.749 146.478 335.37 145.761 335.325L108.407 333.024" stroke="#4C3F89" stroke-width="0.75" stroke-miterlimit="10"/>
<path d="M166.272 327.778L162.866 343.908L162.723 349.2L183.474 349.092C183.98 349.092 184.391 348.676 184.385 348.169C184.385 347.787 184.146 347.451 183.792 347.315L174.844 343.202L179.071 326.388" fill="#F777BA"/>
<path d="M185.291 348.875C185.08 348.209 184.687 347.463 184.299 347.297L174.81 343.213C169.581 345.332 162.809 343.715 162.809 343.715L161.601 350.857C161.601 351.097 161.795 351.285 162.034 351.285L185.131 351.165C185.598 351.165 185.296 348.904 185.291 348.881V348.875Z" fill="#2E7EFA"/>
<path d="M176.866 343.618C176.337 344.313 175.887 345.065 175.528 345.862" stroke="#1A3987" stroke-width="0.75" stroke-linejoin="round"/>
<path d="M178.057 344.33C177.504 345.093 177.288 345.532 176.958 346.238" stroke="#1A3987" stroke-width="0.75" stroke-linejoin="round"/>
<path d="M179.071 344.854C178.695 345.355 178.33 346.05 178.04 346.608" stroke="#1A3987" stroke-width="0.75" stroke-linejoin="round"/>
<path d="M161.727 349.735L185.393 349.616" stroke="#1A3987" stroke-width="0.75" stroke-linejoin="round"/>
<path d="M162.381 346.238C162.381 346.238 167.941 346.352 168.419 349.701" stroke="#1A3987" stroke-width="0.75" stroke-linejoin="round"/>
<path d="M182.351 346.454C182.351 346.454 180.819 348.63 180.517 349.638" stroke="#1A3987" stroke-width="0.75" stroke-linejoin="round"/>
<path d="M155.592 291.984L156.777 296.638C156.947 297.304 157.546 297.766 158.229 297.766H174.292C178.222 297.766 182.368 297.868 184.613 301.274C186.452 304.065 185.803 308.719 184.271 314.062C182.955 318.647 178.307 339.545 178.307 339.545H161.783L166.448 314.597H147.378C147.378 314.597 135.041 314.7 136.744 302.328" fill="#816FC2"/>
<path d="M162.222 336.965H178.774" stroke="#4C3F89" stroke-width="0.75" stroke-miterlimit="10"/>
<path d="M149.639 314.597H147.378C147.378 314.597 135.559 314.597 135.405 302.328" stroke="#4C3F89" stroke-width="0.75" stroke-miterlimit="10"/>
<path d="M148.329 295.966C148.329 295.966 148.631 309.807 160.274 309.807H169.034C170.122 309.807 170.936 310.809 170.714 311.874L164.933 339.511" stroke="#4C3F89" stroke-width="0.75" stroke-miterlimit="10"/>
<path d="M149.469 301.707C149.56 301.952 154.362 300.608 154.27 295.966" stroke="#4C3F89" stroke-width="0.75" stroke-miterlimit="10"/>
<path d="M139.381 303.667C139.381 303.667 141.898 303.667 144.188 303" stroke="#4C3F89" stroke-width="0.75" stroke-miterlimit="10"/>
<path d="M127.283 303.667C127.283 303.667 129.607 303.735 131.367 303.667" stroke="#4C3F89" stroke-width="0.75" stroke-miterlimit="10"/>
<path d="M141.386 245.83C141.386 245.83 147.105 228.087 157.751 213.807L150.471 209.37C138.954 221.861 131.373 242.76 131.373 242.76" fill="#F777BA"/>
<path d="M126.907 275.956C126.907 275.956 124.526 254.066 133.543 235.708L144.188 239.183L141.38 253.217" fill="#FFE1AD"/>
<path d="M132.745 237.776L143.237 241.404" stroke="#D19B4B" stroke-width="0.75" stroke-miterlimit="10"/>
<path d="M156.224 215.852C157.944 213.226 164.164 206.442 163.862 205.873C163.561 205.303 161.339 207.667 161.18 207.154C161.02 206.642 164.193 202.78 163.737 202.296C163.122 201.635 160.086 205.765 160.086 205.765C160.086 205.765 163.185 201.077 162.49 200.661C161.994 200.365 159.465 203.834 158.332 205.035C159.397 203.577 160.832 201.003 160.314 200.706C159.801 200.41 158.024 202.734 156.572 204.443C157.38 203.292 158.736 201.117 158.269 200.82C157.802 200.524 151.895 206.795 147.242 213.169" fill="#F777BA"/>
<path d="M148.426 270.402C148.426 270.402 159.317 274.577 167.308 275.096C177.783 275.779 189.961 271.872 189.961 271.872C189.961 271.872 191.567 263.265 187.375 263.675C182.209 264.615 173.278 265.276 166.562 264.461C162.37 263.954 153.45 259.181 153.45 259.181" fill="#F777BA"/>
<path d="M185 264.137C188.11 263.727 196.922 261.049 197.303 261.568C197.685 262.086 194.598 263.066 194.991 263.43C195.384 263.795 200.237 262.61 200.476 263.225C200.806 264.063 195.771 265.014 195.771 265.014C195.771 265.014 201.336 264.245 201.41 265.054C201.461 265.629 197.241 266.409 195.663 266.911C197.44 266.586 200.379 266.398 200.425 266.996C200.465 267.588 197.605 268.181 195.435 268.75C196.825 268.523 199.371 268.238 199.434 268.785C199.496 269.331 192.638 271.257 186.105 272.817" fill="#F777BA"/>
<path d="M137.165 249.845L135.679 257.33C135.679 257.33 139.871 261.573 144.257 257.626L144.206 252.608L137.165 249.845Z" fill="#F777BA"/>
<path d="M145.094 242.794C145.094 242.794 148.671 249.948 146.455 252.318C145.305 253.548 143.619 254.015 142.098 252.87C140.97 252.021 136.647 246.889 137.245 245.915C139.535 242.202 145.088 242.794 145.088 242.794H145.094Z" fill="#F777BA"/>
<path d="M146.518 246.827C146.518 246.827 147.84 248.142 147.84 249.014C147.84 249.401 146.518 249.458 146.518 249.458" fill="#F777BA"/>
<path d="M146.455 250.187L144.131 249.845C144.017 250.728 145.749 252.927 146.455 250.187Z" fill="white"/>
<path d="M144.758 246.707C144.707 246.952 144.758 247.242 144.975 247.385C145.077 247.448 145.208 247.362 145.208 247.248C145.208 247.072 145.123 246.878 145.077 246.707C145.037 246.553 144.787 246.542 144.758 246.707Z" fill="#00276F"/>
<path d="M143.642 246.274C143.887 245.904 144.308 245.653 144.747 245.619C144.935 245.602 145.14 245.63 145.288 245.75" stroke="#00276F" stroke-width="0.5" stroke-linecap="round" stroke-linejoin="round"/>
<path d="M136.413 243.329C136.795 240.789 139.381 240.265 144.188 240.983C144.832 241.079 146.023 240.743 146.267 241.341C146.592 242.133 146.529 243.665 145.709 244.286C144.992 244.827 143.983 244.543 143.186 244.827C141.893 245.294 142.531 246.542 141.842 247.453C140.703 248.974 141.454 251.207 139.575 252.369C138.504 253.03 137.131 252.842 135.895 252.608C135.747 252.58 135.588 252.551 135.468 252.454C135.041 252.124 135.217 250.962 135.092 250.455C134.693 248.843 134.471 247.151 134.614 245.488C134.739 244.047 135.895 243.176 136.425 243.324L136.413 243.329Z" fill="#0B0B3A"/>
<path d="M141.893 247.812C141.642 246.32 140.526 246.838 140.127 247.356C139.592 248.057 140.395 249.675 140.811 249.977C141.654 250.586 142.377 250.592 142.508 249.88" fill="#F777BA"/>
<path d="M144.131 253.622C142.508 253.121 141.494 252.312 141.494 252.312" stroke="#CC328A" stroke-width="0.75" stroke-linejoin="round"/>
<path d="M135.639 255.04C135.639 255.04 129.14 257.791 127.135 268.061C126.246 272.629 127.955 297.19 127.961 297.173C142.03 299.919 157.175 295.863 157.175 295.863C157.175 295.863 155.438 279.852 154.652 273.82C152.829 259.905 143.243 255.485 143.243 255.485L135.645 255.04H135.639Z" fill="#FFE1AD"/>
<path d="M143.237 255.484C143.237 255.484 148.648 256.316 152.123 257.974C155.598 259.631 163.418 263.436 163.418 263.436L159.397 274.554L145.202 270.066" fill="#FFE1AD"/>
<path d="M154.498 272.823L146.524 270.488" stroke="#D19B4B" stroke-width="0.75" stroke-miterlimit="10"/>
<path d="M160.981 262.251L157.17 273.683" stroke="#D19B4B" stroke-width="0.75" stroke-miterlimit="10"/>
<path d="M127.818 295.436C127.818 295.436 141.517 297.509 156.902 294.371" stroke="#D19B4B" stroke-width="0.75" stroke-miterlimit="10"/>
<path d="M346.178 326.325L349.584 342.456L349.038 347.748L328.976 347.639C328.469 347.639 328.059 347.224 328.065 346.717C328.065 346.335 328.304 345.999 328.657 345.862L337.606 341.75L333.379 324.935" fill="#F777BA"/>
<path d="M327.159 347.423C327.37 346.757 327.763 346.01 328.15 345.845L337.64 341.761C342.869 343.88 349.641 342.262 349.641 342.262L350.159 349.405C350.159 349.639 349.966 349.832 349.727 349.832L327.313 349.713C326.846 349.713 327.148 347.451 327.153 347.429L327.159 347.423Z" fill="#18277A"/>
<path d="M335.583 342.166C336.113 342.86 336.563 343.612 336.922 344.41" stroke="#5565AA" stroke-width="0.75" stroke-miterlimit="10"/>
<path d="M334.393 342.877C334.946 343.641 335.162 344.079 335.492 344.786" stroke="#5565AA" stroke-width="0.75" stroke-miterlimit="10"/>
<path d="M333.379 343.402C333.755 343.903 334.119 344.598 334.41 345.156" stroke="#5565AA" stroke-width="0.75" stroke-miterlimit="10"/>
<path d="M350.034 348.283L327.057 348.163" stroke="#5565AA" stroke-width="0.75" stroke-miterlimit="10"/>
<path d="M349.829 344.865C349.829 344.865 344.509 344.905 344.031 348.255" stroke="#5565AA" stroke-width="0.75" stroke-miterlimit="10"/>
<path d="M330.093 345.008C330.093 345.008 331.625 347.184 331.927 348.192" stroke="#5565AA" stroke-width="0.75" stroke-miterlimit="10"/>
<path d="M338.99 267.742C338.99 267.742 326.157 296.444 326.829 306.611C327.461 316.078 334.638 340.052 334.638 340.052L350.028 337.233C350.028 337.233 342.669 307.62 343.051 304.561C343.432 301.496 352.831 280.421 352.831 280.421C352.831 280.421 356.47 275.455 355.223 266.911" fill="#2E7EFA"/>
<path d="M347.454 337.706C347.454 337.706 340.277 307.813 340.659 304.749C341.04 301.685 349.937 280.997 349.937 280.997" stroke="#1A3987" stroke-width="0.75" stroke-linejoin="round"/>
<path d="M349.334 334.408L333.897 337.518" stroke="#1A3987" stroke-width="0.75" stroke-linejoin="round"/>
<path d="M368.426 318.789L375.603 333.804L377.352 338.828L359.142 347.241C358.681 347.451 358.14 347.252 357.923 346.791C357.764 346.443 357.832 346.039 358.1 345.765L364.456 338.241L356.249 322.959" fill="#F777BA"/>
<path d="M357.399 347.81C357.308 347.121 357.348 346.278 357.627 345.959L364.485 338.235C370.118 337.939 375.564 333.599 375.564 333.599L379.061 339.847C379.158 340.064 379.061 340.314 378.85 340.417L358.504 349.815C358.083 350.009 357.394 347.833 357.394 347.816L357.399 347.81Z" fill="#18277A"/>
<path d="M362.805 339.477C363.579 339.881 364.308 340.371 364.969 340.947" stroke="#5565AA" stroke-width="0.75" stroke-miterlimit="10"/>
<path d="M362.024 340.628C362.845 341.083 363.232 341.391 363.83 341.892" stroke="#5565AA" stroke-width="0.75" stroke-miterlimit="10"/>
<path d="M361.329 341.528C361.882 341.824 362.508 342.297 363.004 342.678" stroke="#5565AA" stroke-width="0.75" stroke-miterlimit="10"/>
<path d="M378.486 338.89L357.627 348.522" stroke="#5565AA" stroke-width="0.75" stroke-miterlimit="10"/>
<path d="M376.845 335.883C376.845 335.883 372.043 338.173 373.029 341.408" stroke="#5565AA" stroke-width="0.75" stroke-miterlimit="10"/>
<path d="M359.034 344.375C359.034 344.375 361.347 345.697 362.047 346.477" stroke="#5565AA" stroke-width="0.75" stroke-miterlimit="10"/>
<path d="M349.134 268.614C349.134 268.614 344.241 295.721 346.548 305.643C349.134 316.744 360.264 335.558 360.264 335.558L374.134 328.666C374.134 328.666 362.167 305.797 362.184 300.864C362.195 297.777 364.923 278.752 364.923 278.752C364.923 278.752 367.663 273.239 364.986 265.037" fill="#2E7EFA"/>
<path d="M370.944 330.25C370.944 330.25 358.988 307.899 358.994 301.536C358.994 298.449 360.891 284.055 361.734 279.425C362.577 274.794 364.229 269.445 361.797 265.709" stroke="#1A3987" stroke-width="0.75" stroke-linejoin="round"/>
<path d="M345.961 296.433C346.691 288.817 347.551 278.593 348.713 269.485" stroke="#1A3987" stroke-width="0.75" stroke-linejoin="round"/>
<path d="M356.858 269.485C356.858 269.485 357.798 271.821 362.89 273.176" stroke="#1A3987" stroke-width="0.75" stroke-linejoin="round"/>
<path d="M346.491 270.038C346.491 270.038 345.728 275.626 346.178 276.36C346.383 276.696 347.995 277.004 347.995 277.004" stroke="#1A3987" stroke-width="0.75" stroke-linejoin="round"/>
<path d="M337.059 272.231C337.059 272.231 340.135 272.31 341.901 270.34" stroke="#1A3987" stroke-width="0.75" stroke-linejoin="round"/>
<path d="M372.898 326.251L358.834 333.058" stroke="#1A3987" stroke-width="0.75" stroke-linejoin="round"/>
<path d="M343.262 227.056C343.262 227.056 337.429 228.731 336.586 239.906C335.795 244.491 337.697 269.981 337.697 269.958C351.823 272.396 366.877 268.021 366.877 268.021C366.877 268.021 364.24 252.05 363.238 246.052C360.72 230.992 350.302 227.791 350.302 227.791L343.256 227.056H343.262Z" fill="#18277A"/>
<path d="M345.711 227.159C345.711 227.159 342.276 221.104 336.928 215.152C329.91 207.342 319.321 200.786 319.321 200.786C319.321 200.786 312.156 205.822 315.443 208.453C319.794 211.387 325.359 217.225 329.597 222.505C332.24 225.797 337.588 235.885 337.588 235.885" fill="#F777BA"/>
<path d="M317.459 209.786C314.947 207.906 306.773 203.663 306.865 203.025C306.956 202.387 309.849 203.845 309.826 203.31C309.804 202.774 305.503 200.234 305.76 199.619C306.113 198.787 310.379 201.629 310.379 201.629C310.379 201.629 305.862 198.286 306.375 197.659C306.739 197.215 310.305 199.601 311.78 200.348C310.282 199.339 308.049 197.414 308.437 196.959C308.818 196.509 311.279 198.081 313.233 199.191C312.082 198.388 310.06 196.81 310.396 196.372C310.732 195.933 317.009 199.106 322.927 203.19" fill="#F777BA"/>
<path d="M356.414 245.773C356.414 245.773 351.173 256.197 345.62 261.961C338.335 269.519 326.703 274.834 326.703 274.834C326.703 274.834 319.72 269.554 323.092 267.036C327.547 264.256 334.592 258.726 339.007 253.599C341.764 250.398 346.172 240.39 346.172 240.39" fill="#F777BA"/>
<path d="M325.16 265.777C322.585 267.566 314.269 271.524 314.338 272.162C314.406 272.8 317.345 271.445 317.305 271.98C317.26 272.515 312.874 274.902 313.113 275.523C313.432 276.366 317.795 273.677 317.795 273.677C317.795 273.677 313.164 276.861 313.654 277.511C314.002 277.972 317.647 275.705 319.151 275.01C317.618 275.967 315.317 277.813 315.688 278.28C316.052 278.747 318.57 277.254 320.558 276.218C319.379 276.981 317.305 278.49 317.624 278.94C317.943 279.39 324.317 276.195 330.189 272.948" fill="#F777BA"/>
<path d="M345.956 237.696C344.498 242.6 340.647 250.723 340.647 250.723L351.105 256.236C351.105 256.236 356.499 249.652 358.538 241.746" fill="#18277A"/>
<path d="M351.105 256.236C351.105 256.236 356.961 248.057 357.98 243.637" stroke="#5565AA" stroke-width="0.75" stroke-miterlimit="10"/>
<path d="M340.642 250.723C340.642 250.723 344.532 243.187 345.352 239.536" stroke="#5565AA" stroke-width="0.75" stroke-miterlimit="10"/>
<path d="M336.398 243.227C336.267 239.132 334.297 230.57 328.418 222.744L337.669 215.345C337.669 215.345 345.797 221.85 348.109 227.592" fill="#18277A"/>
<path d="M341.439 215.243C341.439 215.243 339.075 221.787 341.177 223.912C342.271 225.017 345.494 225.211 346.867 224.117C347.887 223.302 349.396 218.273 348.815 217.39C346.611 214.024 341.439 215.243 341.439 215.243Z" fill="#F777BA"/>
<path d="M342.755 218.33C342.755 218.33 341.49 219.873 341.542 220.352C341.593 220.825 342.686 221.001 342.686 221.001" stroke="#CC328A" stroke-width="0.5" stroke-linejoin="round"/>
<path d="M341.416 221.44L344.378 222.192C344.378 222.192 343.632 223.678 342.037 223.154C340.898 222.778 341.416 221.44 341.416 221.44Z" fill="white"/>
<path d="M341.587 217.646C341.513 217.783 341.445 217.92 341.388 218.062C341.28 218.324 341.719 218.45 341.821 218.182C341.872 218.057 341.912 217.926 341.946 217.795C341.998 217.584 341.701 217.447 341.587 217.646Z" fill="#00276F"/>
<path d="M342.635 217.071C342.635 217.071 342.242 216.399 341.519 216.815" stroke="#00276F" stroke-width="0.5" stroke-linecap="round" stroke-linejoin="round"/>
<path d="M344.919 218.825C344.851 218.962 344.794 219.104 344.743 219.252C344.646 219.526 345.09 219.645 345.176 219.372C345.215 219.241 345.25 219.11 345.278 218.979C345.318 218.774 345.028 218.614 344.919 218.831V218.825Z" fill="#00276F"/>
<path d="M344.908 217.669C344.908 217.669 345.671 217.498 346.337 218.45" stroke="#00276F" stroke-width="0.5" stroke-linecap="round" stroke-linejoin="round"/>
<path d="M349.015 221.229L350.308 227.791C350.308 227.791 345.358 231.505 342.618 227.552L342.533 223.262L349.015 221.229Z" fill="#F777BA"/>
<path d="M351.378 220.101C351.435 219.868 351.498 219.634 351.584 219.401C351.783 218.848 352.085 218.358 352.301 217.812C352.734 216.724 352.375 215.368 351.458 214.645C351.293 214.514 351.116 214.405 350.974 214.252C350.649 213.916 350.535 213.437 350.348 213.004C350.194 212.657 349.966 212.315 349.63 212.138C348.855 211.728 347.824 212.286 347.05 211.871C346.884 211.78 346.742 211.654 346.588 211.535C345.477 210.697 344.219 210.891 343.005 211.33C342.442 211.535 342.254 211.757 341.781 212.127C341.268 212.526 340.55 212.503 340.032 212.896C339.491 213.306 339.354 214.064 339.349 214.747C339.349 214.992 339.36 215.248 339.463 215.471C339.599 215.761 339.873 215.96 340.157 216.091C340.852 216.405 341.633 216.285 342.367 216.228C343.085 216.171 343.922 215.67 344.623 215.932C345.307 216.188 345.483 217.031 346.332 217.094C346.662 217.122 347.072 217.06 347.266 217.327C347.488 217.629 347.374 218.131 347.551 218.478C347.716 218.808 348.012 219.105 348.223 219.412C348.65 220.016 349.254 220.432 349.037 221.223C348.889 221.77 348.274 222.653 348.531 223.24C348.696 223.621 349.539 223.616 350.182 223.132C350.843 222.63 351.037 221.673 351.196 220.916C351.253 220.637 351.31 220.369 351.373 220.101H351.378Z" fill="#212237"/>
<path d="M348.354 220.232C348.98 219.218 349.59 219.298 349.972 219.771C350.484 220.403 349.778 221.913 349.408 222.203C348.65 222.784 347.978 222.813 347.841 222.158" fill="#F777BA"/>
<path d="M342.794 224.903C345.147 224.983 347.112 223.855 347.112 223.855" stroke="#CC328A" stroke-width="0.75" stroke-linejoin="round"/>
<path d="M336.284 241.717C336.284 241.717 336.438 235.321 335.709 233.367" stroke="#5565AA" stroke-width="0.75" stroke-miterlimit="10"/>
<path d="M341.986 228.719C341.986 228.719 343.148 230.741 346.298 230.673C349.863 230.593 351.339 228.207 351.339 228.207" stroke="#5565AA" stroke-width="0.75" stroke-miterlimit="10"/>
<path d="M280.06 194.845C279.706 197.87 277.462 204.882 277.901 205.167C278.339 205.451 279.393 202.757 279.712 203.053C280.025 203.35 278.841 207.428 279.365 207.604C280.071 207.844 281.005 203.811 281.005 203.811C281.005 203.811 280.242 208.254 280.92 208.294C281.398 208.322 282.213 205.11 282.589 203.868C282.361 205.263 282.013 207.462 282.515 207.479C283.01 207.496 283.574 205.599 283.995 203.896C283.836 204.984 283.329 207.143 283.79 207.183C284.246 207.223 285.921 202.319 286.986 196.207" fill="#F777BA"/>
<path d="M288.9 164.11C291.07 180.093 286.314 199.294 286.314 199.294L279.712 197.876C279.712 197.876 282.19 180.537 279.399 165.306" fill="#F777BA"/>
<path d="M274.99 149.87C278.117 149.87 281.364 150.884 284.24 153.14C288.643 156.597 289.748 164.566 289.748 164.566L279.336 166.65C279.336 166.65 278.789 159.929 278.704 157.622" fill="#FF9357"/>
<path d="M278.955 166.645C278.63 163.558 277.679 160.789 277.679 160.789" stroke="#A52F2D" stroke-width="0.75" stroke-miterlimit="10"/>
<path d="M360.532 157.8L357.087 145.136L344.424 148.582L347.869 161.245L360.532 157.8Z" stroke="#91ABE5" stroke-width="1.5" stroke-miterlimit="10"/>
<path d="M64.1475 299.715L64.9541 293.312L58.5512 292.506L57.7446 298.909L64.1475 299.715Z" stroke="#91ABE5" stroke-width="1.5" stroke-miterlimit="10"/>
<path d="M386.632 304.916C387.041 302.08 385.073 299.449 382.237 299.04C379.401 298.63 376.769 300.598 376.36 303.434C375.951 306.271 377.919 308.902 380.755 309.311C383.591 309.721 386.223 307.753 386.632 304.916Z" stroke="#FF9C94" stroke-width="1.5" stroke-miterlimit="10"/>
<path d="M177.669 126.636C177.669 128.072 176.507 129.234 175.072 129.234C173.637 129.234 172.475 128.072 172.475 126.636C172.475 125.201 173.637 124.039 175.072 124.039C176.507 124.039 177.669 125.201 177.669 126.636Z" stroke="#91ABE5" stroke-width="1.5" stroke-miterlimit="10"/>
<path d="M392.748 240.954C392.748 242.389 391.586 243.551 390.151 243.551C388.716 243.551 387.554 242.389 387.554 240.954C387.554 239.519 388.716 238.357 390.151 238.357C391.586 238.357 392.748 239.519 392.748 240.954Z" stroke="#91ABE5" stroke-width="1.5" stroke-miterlimit="10"/>
<path d="M395.346 294.502C395.346 295.937 394.184 297.099 392.749 297.099C391.313 297.099 390.151 295.937 390.151 294.502C390.151 293.066 391.313 291.904 392.749 291.904C394.184 291.904 395.346 293.066 395.346 294.502Z" stroke="#91ABE5" stroke-width="1.5" stroke-miterlimit="10"/>
<path d="M55.1947 275.671C55.1947 277.106 54.0327 278.268 52.5974 278.268C51.162 278.268 50 277.106 50 275.671C50 274.235 51.162 273.073 52.5974 273.073C54.0327 273.073 55.1947 274.235 55.1947 275.671Z" stroke="#FF9C94" stroke-width="1.5" stroke-miterlimit="10"/>
<path d="M117.913 136.211L118.192 137.937C118.317 138.706 118.984 139.264 119.759 139.247L120.903 139.224C121.678 139.207 122.35 139.765 122.47 140.534L122.652 141.668C122.777 142.437 123.444 142.995 124.219 142.978L125.369 142.955C126.144 142.938 126.816 143.496 126.935 144.265L127.118 145.404C127.243 146.168 127.909 146.726 128.684 146.715L130.04 146.686" stroke="#91ABE5" stroke-width="1.5" stroke-miterlimit="10"/>
<path d="M68.1477 249.697L67.6066 248.034C67.3673 247.294 66.6212 246.844 65.8579 246.98L64.7301 247.18C63.9668 247.316 63.2207 246.866 62.9814 246.126L62.6283 245.038C62.3891 244.298 61.6429 243.848 60.8796 243.984L59.7461 244.184C58.9829 244.32 58.2367 243.87 57.9975 243.13L57.6443 242.036C57.4051 241.296 56.6589 240.852 55.8957 240.983L54.5571 241.216" stroke="#91ABE5" stroke-width="1.5" stroke-miterlimit="10"/>
<path d="M334.206 180.947L335.949 180.799C336.723 180.731 337.327 180.104 337.373 179.33L337.435 178.185C337.475 177.41 338.085 176.784 338.859 176.715L339.998 176.618C340.773 176.55 341.377 175.923 341.422 175.149L341.485 174.004C341.525 173.229 342.134 172.603 342.903 172.534L344.048 172.437C344.823 172.369 345.427 171.743 345.466 170.968L345.54 169.612" stroke="#91ABE5" stroke-width="1.5" stroke-miterlimit="10"/>
<path d="M388.009 206.163L386.34 206.699C385.6 206.938 385.15 207.678 385.281 208.447L385.475 209.575C385.606 210.338 385.156 211.084 384.415 211.324L383.321 211.671C382.581 211.91 382.131 212.651 382.262 213.42L382.456 214.553C382.587 215.316 382.137 216.063 381.396 216.302L380.297 216.655C379.556 216.894 379.106 217.635 379.237 218.404L379.471 219.742" stroke="#91ABE5" stroke-width="1.5" stroke-miterlimit="10"/>
<path d="M397.47 281.885L398.923 282.865C399.566 283.298 400.432 283.189 400.95 282.614L401.714 281.76C402.232 281.179 403.098 281.076 403.741 281.509L404.693 282.147C405.336 282.58 406.202 282.472 406.72 281.897L407.489 281.042C408.008 280.467 408.873 280.359 409.517 280.792L410.474 281.435C411.118 281.868 411.983 281.76 412.502 281.185L413.407 280.171" stroke="#91ABE5" stroke-width="1.5" stroke-miterlimit="10"/>
<path d="M382.279 227.591L376.275 231.294" stroke="#FF9C94" stroke-width="1.5" stroke-miterlimit="10"/>
<path d="M321.709 149.779L316.195 154.176" stroke="#FF9C94" stroke-width="1.5" stroke-miterlimit="10"/>
<path d="M199.057 159.98L192.194 158.368" stroke="#FF9C94" stroke-width="1.5" stroke-miterlimit="10"/>
<path d="M69.0362 189.839L63.813 185.1" stroke="#FF9C94" stroke-width="1.5" stroke-miterlimit="10"/>
</svg>
