<svg width="102" height="118" viewBox="0 0 102 118" fill="none" xmlns="http://www.w3.org/2000/svg">
<g clip-path="url(#clip0_456_2330)">
<path d="M76.256 36.2733C76.256 36.2733 74.659 45.6959 72.4034 50.2829C71.9685 51.1717 71.5024 51.8802 71.024 52.3029C68.5509 54.4783 64.2447 55.2925 59.4352 55.9203C54.4082 51.8056 51.177 46.9887 47.9458 42.1779C49.1761 42.1531 50.8601 42.2028 52.6497 42.2277C56.0114 42.2712 59.7583 42.2152 61.6224 41.3948C63.9899 40.3506 66.6432 37.0502 67.9792 33.5571C70.6325 34.8499 76.256 36.2733 76.256 36.2733Z" fill="#FEC5A7"/>
<path d="M72.4034 50.2828C71.9685 51.1717 71.5024 51.8802 71.024 52.3029C68.5509 54.4783 64.2447 55.2925 59.4352 55.9202C54.4082 51.8056 51.177 46.9887 47.9458 42.1779C49.1761 42.1531 50.8601 42.2028 52.6497 42.2276C52.6497 42.8119 51.7052 44.1793 60.1435 48.7663C68.0351 53.0549 71.2042 50.8609 72.4034 50.2828Z" fill="#E89A84"/>
<path d="M67.4821 33.812C65.736 30.6359 65.7671 28.7651 67.9606 27.8141C68.1221 26.2602 68.787 22.9598 70.8189 22.3818C71.5149 22.1829 72.6893 22.7423 72.9627 23.4509C74.1682 22.8977 75.8521 23.9108 76.0137 25.2906C76.7966 25.0669 77.7287 25.359 78.2942 26.0116C78.8596 26.6642 79.0398 27.6338 78.7291 28.3983C80.0962 28.0751 81.1214 29.225 80.5933 31.0213C79.7917 33.7623 78.0953 35.3223 75.9826 36.7084C73.901 35.6393 68.6938 36.0123 67.4821 33.812Z" fill="#FEC5A7"/>
<path d="M75.7216 25.9929C75.4482 27.3044 75.1127 28.7153 74.0936 29.5917C73.7519 29.8838 73.3107 30.1013 72.8695 30.0205C72.5091 29.9522 72.2108 29.6911 72.0306 29.3679C71.8504 29.0509 71.7883 28.678 71.7634 28.3113C71.6702 26.9563 72.1363 25.6262 72.6396 24.3645" stroke="#C96B65" stroke-miterlimit="10" stroke-linecap="round"/>
<path d="M78.2753 28.8086C78.0268 29.3369 77.7782 29.8652 77.4365 30.3376C77.0947 30.81 76.6597 31.2264 76.1191 31.4502C75.5785 31.6739 74.9385 31.6801 74.4352 31.388C73.9319 31.0959 73.6149 30.4743 73.7641 29.9087" stroke="#C96B65" stroke-miterlimit="10" stroke-linecap="round"/>
<path d="M79.7418 31.5745C79.4373 32.1339 79.1266 32.7119 78.6419 33.1221C78.1572 33.5385 77.4551 33.7623 76.871 33.5137C76.5168 33.3645 76.2434 33.06 76.0942 32.7119C75.9451 32.3576 75.9203 31.966 75.9762 31.5869" stroke="#C96B65" stroke-miterlimit="10" stroke-linecap="round"/>
<path d="M71.7633 27.4162C71.7136 27.7767 71.4961 28.1186 71.1916 28.3175C70.8872 28.5164 70.4895 28.5847 70.1353 28.4853C69.719 28.3734 69.3834 28.0564 69.1784 27.6773C68.9733 27.2981 68.8925 26.8631 68.8677 26.4342" stroke="#C96B65" stroke-miterlimit="10" stroke-linecap="round"/>
<path d="M68.501 27.7084C69.6754 27.323 70.9492 27.2298 72.1734 27.4349C72.6394 27.5157 73.1365 27.6711 73.385 28.0688C73.7082 28.5785 73.4534 29.2933 72.9874 29.6786C72.5213 30.064 71.9062 30.2007 71.3718 30.3748C71.8751 31.3506 71.7384 32.6123 71.0424 33.4576" fill="#FEC5A7"/>
<path d="M68.501 27.7084C69.6754 27.323 70.9492 27.2298 72.1734 27.4349C72.6394 27.5157 73.1365 27.6711 73.385 28.0688C73.7082 28.5785 73.4534 29.2933 72.9874 29.6786C72.5213 30.064 71.9062 30.2007 71.3718 30.3748C71.8751 31.3506 71.7384 32.6123 71.0424 33.4576" stroke="#C96B65" stroke-miterlimit="10" stroke-linecap="round"/>
<path d="M35.1452 66.6357C34.1572 67.9658 33.1257 69.3145 31.9761 70.5327C30.3854 72.2358 28.5833 73.684 26.4085 74.4671C23.0593 75.6853 19.2688 75.1197 16.0066 73.6964C12.7381 72.2731 9.89215 70.0541 7.0835 67.8601C8.18956 65.4361 10.1096 61.8436 11.4891 59.4879C13.7385 60.3954 18.6164 61.1909 20.0145 60.5445C20.3749 60.3767 21.2013 59.8733 22.2452 59.2082C24.0162 58.0832 26.4085 56.4796 28.1919 55.2241C30.7271 59.1336 33.2561 63.0494 35.1452 66.6357Z" fill="#FEC5A7"/>
<path d="M35.145 66.6357C34.157 67.9658 33.1255 69.3145 31.976 70.5327C32.2183 67.2137 30.4784 61.5017 27.6263 59.5563C26.048 58.481 24.5629 58.5432 22.2451 59.2082C24.0161 58.0832 26.4084 56.4796 28.1918 55.2241C30.727 59.1336 33.256 63.0494 35.145 66.6357Z" fill="#E89A84"/>
<path d="M13.4591 61.1226C13.1794 57.5052 12.1231 55.9638 9.76804 56.3678C8.78004 55.1558 6.41879 52.7628 4.39929 53.3968C3.70956 53.6143 3.03225 54.7207 3.19381 55.4665C1.88269 55.6654 1.0314 57.4368 1.65278 58.6799C0.876051 58.9223 0.260882 59.6806 0.142819 60.5321C0.0247563 61.3836 0.410014 62.2973 1.09353 62.7697C-0.223797 63.2482 -0.453709 64.771 0.969258 65.983C3.1441 67.8352 5.41836 68.2082 7.94117 68.2082C9.09695 66.1695 13.6579 63.6212 13.4591 61.1226Z" fill="#FEC5A7"/>
<path d="M2.28662 59.1026C3.23734 60.0473 4.28747 61.048 5.61723 61.2158C6.05842 61.2717 6.55552 61.2158 6.87243 60.905C7.13341 60.6502 7.24526 60.2648 7.21419 59.8981C7.18933 59.5314 7.0402 59.1896 6.86 58.8664C6.19512 57.6854 5.07663 56.8277 3.96435 56.0508" stroke="#C96B65" stroke-miterlimit="10" stroke-linecap="round"/>
<path d="M1.68994 62.8566C2.18705 63.1611 2.68415 63.4657 3.22476 63.677C3.76536 63.8821 4.36189 63.994 4.93356 63.8821C5.50523 63.7765 6.04584 63.4284 6.30682 62.9063C6.5678 62.3842 6.48702 61.6943 6.05826 61.2965" stroke="#C96B65" stroke-miterlimit="10" stroke-linecap="round"/>
<path d="M1.98193 65.9705C2.54118 66.2751 3.11906 66.5858 3.74666 66.6666C4.37426 66.7474 5.08885 66.5486 5.44304 66.0202C5.65431 65.7033 5.71644 65.2992 5.64809 64.9201C5.57974 64.5472 5.38711 64.1991 5.13234 63.9132" stroke="#C96B65" stroke-miterlimit="10" stroke-linecap="round"/>
<path d="M6.375 58.1205C6.61734 58.3939 6.97774 58.5618 7.34436 58.5618C7.71097 58.5618 8.07759 58.4002 8.31993 58.1267C8.60576 57.8035 8.71761 57.3497 8.68033 56.9209C8.64305 56.492 8.47527 56.0818 8.25779 55.7151" stroke="#C96B65" stroke-miterlimit="10" stroke-linecap="round"/>
<path d="M9.26484 56.5729C8.06557 56.8961 6.95329 57.5114 6.04607 58.3629C5.70431 58.6861 5.36877 59.0901 5.38119 59.5563C5.39362 60.1592 5.99636 60.6129 6.59289 60.6813C7.18942 60.7496 7.77973 60.5259 8.32655 60.3767C8.4384 61.4644 9.2462 62.4527 10.2901 62.7759" fill="#FEC5A7"/>
<path d="M9.26484 56.5729C8.06557 56.8961 6.95329 57.5114 6.04607 58.3629C5.70431 58.6861 5.36877 59.0901 5.38119 59.5563C5.39362 60.1592 5.99636 60.6129 6.59289 60.6813C7.18942 60.7496 7.77973 60.5259 8.32655 60.3767C8.4384 61.4644 9.2462 62.4527 10.2901 62.7759" stroke="#C96B65" stroke-miterlimit="10" stroke-linecap="round"/>
<path d="M57.3973 117.969C54.8 117.18 56.2416 111.928 56.2416 111.928C56.2416 111.928 48.959 109.006 43.3417 105.507C38.7994 102.673 41.4775 90.4408 42.6644 85.8724C42.7265 85.63 42.7886 85.4063 42.8446 85.2136C43.0248 84.5361 43.1428 84.1445 43.1428 84.1445L43.7766 84.1756L64.7421 85.1701C64.7421 85.1701 63.7106 86.8918 62.5672 89.0982C60.9268 92.3054 59.0564 96.5319 59.8269 97.9739C61.1319 100.41 66.8486 100.87 67.7993 102.971C68.7438 105.078 59.9885 118.752 57.3973 117.969Z" fill="#FEC5A7"/>
<path d="M64.7423 85.1701C64.7423 85.1701 63.7108 86.8918 62.5674 89.0983C62.4991 88.918 62.4059 88.7502 62.294 88.5948C61.6416 87.6936 60.5107 87.2274 59.4046 87.1093C58.2923 86.985 57.1738 87.1529 56.0616 87.2647C51.5628 87.7185 46.9707 87.2461 42.6646 85.8725C42.7267 85.6301 42.7888 85.4063 42.8447 85.2136C43.1554 84.8469 43.4661 84.4989 43.7768 84.1757L64.7423 85.1701Z" fill="#E89A84"/>
<path d="M102 90.2916C101.851 93.9959 86.7266 97.3461 84.8314 94.3005C82.9361 91.2487 81.0347 85.8537 78.8164 84.7722C77.8222 84.2874 74.4418 84.4677 71.0242 84.8095C67.9732 85.1141 64.885 85.5554 63.4434 85.7729C62.9152 85.8475 62.6045 85.8972 62.6045 85.8972L62.7785 85.1762L67.8676 63.7889C67.8676 63.7889 68.7189 63.8884 70.0797 64.0811C75.0508 64.8083 86.8571 66.8594 89.0941 70.3649C91.94 74.8213 94.8543 84.7722 94.8543 84.7722C94.8543 84.7722 102.149 86.5809 102 90.2916Z" fill="#FEC5A7"/>
<path d="M71.0241 84.8095C67.9731 85.1141 64.8848 85.5554 63.4432 85.7729C63.2071 85.5927 62.9834 85.3938 62.7783 85.1762L67.8674 63.7889C67.8674 63.7889 68.7187 63.8884 70.0796 64.0811C71.981 69.5444 72.0307 75.648 70.1604 81.1238C69.8932 81.9069 69.5825 82.7522 69.8372 83.5416C70.0236 84.1196 70.4773 84.5423 71.0241 84.8095Z" fill="#E89A84"/>
<path d="M71.0239 64.3235C70.9928 68.2143 70.9555 72.1425 70.1104 75.9401C69.2716 79.7378 67.5503 83.4546 64.5553 85.9345C56.906 86.6307 49.99 86.842 42.4962 86.3323C37.5686 78.1839 32.8772 68.1335 29.3974 58.9036C28.9625 57.7475 28.5461 56.5977 28.1484 55.4727C33.0139 49.5991 39.3271 44.9251 46.4792 42.3457C48.1073 42.8927 49.698 43.5453 51.2452 44.2973C59.8017 48.4617 66.9103 55.6716 71.0239 64.3235Z" fill="#F2E2D3"/>
<path d="M51.2452 44.2973C49.1512 48.4617 45.9759 52.0791 42.0798 54.6398C38.308 57.1136 33.89 58.5742 29.3974 58.9036C28.9625 57.7475 28.5461 56.5977 28.1484 55.4727C33.0139 49.5991 39.3271 44.9251 46.4792 42.3457C48.1073 42.8927 49.698 43.5453 51.2452 44.2973Z" fill="#EDD9C7"/>
<path d="M61.4482 79.3337C58.1176 72.0306 48.1568 57.53 38.7056 49.0273C38.9417 48.6419 38.6621 48.6357 39.2835 48.53C48.8093 57.2565 59.9009 73.5658 61.4482 79.3337Z" fill="#C9B09D"/>
<path d="M47.1127 54.6025C47.8403 54.6025 48.4301 54.0126 48.4301 53.2848C48.4301 52.5571 47.8403 51.9672 47.1127 51.9672C46.3852 51.9672 45.7954 52.5571 45.7954 53.2848C45.7954 54.0126 46.3852 54.6025 47.1127 54.6025Z" fill="#FFFAF5"/>
<path d="M53.0097 61.5389C53.7373 61.5389 54.327 60.949 54.327 60.2212C54.327 59.4935 53.7373 58.9036 53.0097 58.9036C52.2822 58.9036 51.6924 59.4935 51.6924 60.2212C51.6924 60.949 52.2822 61.5389 53.0097 61.5389Z" fill="#FFFAF5"/>
<path d="M58.602 69.5195C59.3295 69.5195 59.9193 68.9296 59.9193 68.2018C59.9193 67.4741 59.3295 66.8842 58.602 66.8842C57.8745 66.8842 57.2847 67.4741 57.2847 68.2018C57.2847 68.9296 57.8745 69.5195 58.602 69.5195Z" fill="#FFFAF5"/>
<path d="M12.6639 44.8195C16.0878 44.2477 19.2195 45.9072 19.6607 48.5301C20.1019 51.153 17.6785 53.7449 14.2547 54.3229C10.8309 54.8947 7.69908 53.2352 7.2579 50.6123C6.81672 47.9894 9.24011 45.3976 12.6639 44.8195Z" fill="#E89A84"/>
<path d="M53.8553 33.6379C51.5997 44.5895 40.8933 52.1785 30.4665 56.2123C26.9494 57.5735 23.0285 58.4748 19.4307 57.3435C15.8329 56.2123 12.8689 52.4334 13.7823 48.7725C8.05319 41.3885 5.54902 37.9265 3.834 32.9666C1.73373 26.8817 2.35511 24.9363 3.4301 19.8085C4.81579 13.2202 9.69985 8.66427 15.5719 5.37631C23.4262 0.981998 33.6914 -0.453767 41.7694 3.50546C56.4589 10.7029 55.2037 27.093 53.8553 33.6379Z" fill="#FEC5A7"/>
<path d="M51.1523 23.0965C46.2061 15.0288 37.5502 9.33549 28.1425 8.11726C27.5336 10.5164 26.6077 12.9094 24.8865 14.6932C23.1652 16.477 20.5368 17.5274 18.0637 16.8251C18.654 15.9238 19.0765 14.9107 19.3127 13.8603C18.6229 15.4328 17.144 16.5765 15.516 17.1234C13.888 17.6704 12.1233 17.6828 10.4145 17.4653C11.6386 16.129 12.5644 14.5192 13.1175 12.7913C12.5707 13.9784 11.2036 14.7243 9.91113 14.5502C12.1108 11.6787 14.4969 8.95013 16.7463 6.47639C21.7858 4.24505 27.2912 3.07033 32.952 3.00818C38.7868 5.42598 43.9629 9.41007 47.946 14.4508C49.6237 16.7505 50.6863 19.4853 51.1523 23.0965Z" fill="#E89A84"/>
<path d="M55.0795 24.4267C54.8185 26.3348 54.3587 28.1124 53.8989 29.8962C51.7178 23.8424 48.9837 17.6518 44.3855 12.9716C39.7935 8.28517 33.0391 5.32041 26.614 6.62565C26.8811 8.80727 26.2038 11.8218 24.4702 14.0593C22.7427 16.2907 19.99 17.7016 17.4175 17.5524C19.3376 15.7064 20.425 13.0275 20.3504 10.0814C20.2137 12.5614 18.5298 14.7741 16.3922 16.0358C14.2546 17.3038 11.7256 17.7326 9.2463 17.8259C11.9804 16.2098 13.5401 13.9226 13.9005 10.616C12.6639 13.1146 11.4522 14.6746 8.13403 15.2713C9.68127 13.7237 10.4642 12.5552 10.8308 10.7776C10.4891 10.9765 10.166 11.1878 9.84904 11.4053C5.31916 14.5441 3.58551 19.4419 3.61036 24.0724C3.63522 29.0199 4.44923 33.5696 8.27073 41.3948C3.97698 36.6711 0.857634 27.1801 1.91399 21.0827C2.97655 14.9854 6.79184 9.73958 12.0674 6.51377C17.7468 3.03935 24.4826 0.0932315 31.3116 0H31.9019C38.5445 0.0745852 45.2865 2.77208 49.4373 7.95575C53.1221 12.5427 54.4954 18.5655 55.0795 24.4267Z" fill="#703B26"/>
<path d="M31.9019 0C27.1421 0.609112 22.4818 2.18162 18.2688 4.48133C15.2613 6.1222 12.4216 8.16708 10.2778 10.8397C10.1287 11.0262 9.98575 11.2126 9.84904 11.4053C5.31916 14.5441 3.58551 19.4419 3.61036 24.0724C3.63522 29.0199 4.44923 33.5696 8.27073 41.3948C3.97698 36.6711 0.857634 27.1801 1.91399 21.0827C2.97655 14.9854 6.79184 9.73958 12.0674 6.51377C17.7468 3.03935 24.4826 0.0932315 31.3116 0H31.9019Z" fill="#9E6747"/>
<path d="M59.5412 32.1374C62.0577 29.6203 62.6222 26.1041 60.8022 24.2836C58.9823 22.4631 55.4669 23.0279 52.9505 25.545C50.434 28.062 49.8694 31.5783 51.6894 33.3988C53.5094 35.2192 57.0248 34.6545 59.5412 32.1374Z" fill="#FEC5A7"/>
<path d="M29.3668 51.6564C28.646 51.2897 28.2794 50.4196 28.5714 49.6986C29.0312 48.5736 31.1067 48.1136 31.9207 48.7227C34.0582 50.3263 30.5039 52.2345 29.3668 51.6564Z" fill="white"/>
<path d="M25.2966 44.2539C25.1723 45.2297 25.7689 46.2428 26.6947 46.6344" stroke="#C96B65" stroke-miterlimit="10" stroke-linecap="round"/>
<path d="M43.1114 27.1925C41.9246 26.6705 40.7315 26.1484 39.4701 25.8687C38.2087 25.589 36.8541 25.5641 35.6486 26.0365C34.4431 26.5088 33.4116 27.5282 33.1631 29.1069C35.5181 27.9446 38.0969 27.2423 43.1114 27.1925Z" fill="#703B26"/>
<path d="M16.4232 35.0489C15.3979 34.2533 13.9066 34.2222 12.7322 34.7692C11.5515 35.3161 10.6692 36.3603 10.0664 37.5164C9.46991 38.6725 9.13436 39.9342 9.11572 41.2022C10.868 38.486 13.5213 36.3603 16.4232 35.0489Z" fill="#703B26"/>
<path d="M35.0898 40.6116C38.3707 40.5557 41.5522 38.5978 43.2983 35.6517C42.9814 37.3858 41.9188 38.9708 40.4275 39.9217C38.9486 40.8727 37.0596 41.1648 35.0898 40.6116Z" fill="#303E52"/>
<path d="M14.814 49.3941C17.4735 49.7981 20.3132 48.4369 21.7486 45.8202C21.6554 47.3927 20.6922 48.8906 19.3003 49.6302C17.9022 50.3699 16.1251 50.3264 14.814 49.3941Z" fill="#303E52"/>
</g>
<defs>
<clipPath id="clip0_456_2330">
<rect width="102" height="118" fill="white"/>
</clipPath>
</defs>
</svg>
