<svg width="464" height="464" viewBox="0 0 464 464" fill="none" xmlns="http://www.w3.org/2000/svg">
<rect width="464" height="464" fill="#EBE0FD"/>
<ellipse cx="232" cy="232.5" rx="134.5" ry="132" fill="white"/>
<path d="M180.256 312.058C179.86 311.63 179.556 311.125 179.362 310.576C179.169 310.026 179.089 309.443 179.129 308.862C179.129 306.183 180.804 303.626 179.616 300.993C179.314 300.299 178.85 299.688 178.262 299.211C177.674 298.734 176.979 298.406 176.238 298.254C175.561 298.192 174.881 298.32 174.273 298.624C173.666 298.928 173.155 299.395 172.798 299.973C172.052 300.993 171.778 302.606 170.606 303.291C168.963 304.25 167.289 303.124 166.238 301.845C165.843 301.393 165.525 300.879 165.295 300.323C165.003 297.401 165.459 294.453 166.619 291.755C167.64 289.567 169.089 287.606 170.88 285.987C168.709 283.443 166.773 280.708 165.097 277.814L164.93 277.555C153.226 256.461 164.93 237.376 173.529 223.389C175.811 218.345 177.709 213.135 179.205 207.804C182.249 197.927 185.735 186.741 193.77 177.289C203.555 164.841 217.562 156.41 233.143 153.593C248.849 150.565 265.115 153.887 278.375 162.831C285.303 166.897 291.215 172.484 295.666 179.171C300.116 185.857 302.989 193.468 304.066 201.427C307.46 223.48 298.922 250.404 282.759 268.545C273.828 279.472 262.633 288.331 249.945 294.51C238.222 300.579 225.262 303.875 212.064 304.143C210.664 304.143 209.203 304.143 207.696 303.991C202.043 303.639 196.475 302.434 191.183 300.415L190.559 301.937C189.95 303.725 189.176 305.452 188.246 307.096C186.8 309.563 184.556 311.464 181.884 312.484C181.307 312.553 180.725 312.4 180.256 312.058Z" fill="#FBBFA4"/>
<path d="M170.744 274.251V274.343C173.243 278.684 176.407 282.607 180.12 285.97C178.035 288.877 174.032 291.191 172.677 294.31C171.155 297.765 171.536 302.544 174.443 305.192C177.35 307.841 180.698 306.714 182.524 303.747C184.609 300.261 185.325 294.097 189.251 292.286C195.123 295.251 201.542 296.976 208.108 297.354C209.402 297.354 210.711 297.476 212.035 297.476C224.203 297.223 236.15 294.171 246.948 288.558C258.826 282.771 269.298 274.46 277.631 264.206C292.607 247.465 300.551 222.642 297.416 202.385C296.468 195.393 293.942 188.707 290.029 182.835C286.116 176.963 280.919 172.058 274.83 168.491C268.967 164.511 262.374 161.73 255.431 160.309C248.488 158.888 241.333 158.855 234.377 160.212C220.345 162.706 207.728 170.294 198.946 181.519C191.717 189.936 188.582 200.041 185.553 209.812C183.943 215.582 181.866 221.211 179.343 226.645C171.079 239.916 160.898 256.521 170.744 274.251Z" fill="#F5928E"/>
<path d="M174.716 272.061C197.058 310.216 252.061 289.685 274.221 261.407C295.878 237.239 304.675 191.322 272.379 172.252C250.342 156.91 218.503 163.211 202.461 184.275C191.564 196.907 190.59 214.303 183.315 228.777C175.127 241.987 166.178 256.583 174.716 272.061Z" fill="#EB6C7F"/>
<path d="M181.899 256.291C181.697 256.88 181.584 257.496 181.564 258.118C181.529 259.072 181.718 260.021 182.118 260.888C182.517 261.755 183.114 262.516 183.862 263.11C185.081 264.038 186.594 264.497 188.123 264.403C188.2 264.662 188.276 264.921 188.367 265.18C190.833 271.861 195.671 277.403 201.958 280.749C209.264 284.488 217.607 285.688 225.67 284.158C233.655 282.644 241.188 279.323 247.692 274.448C254.297 269.774 259.935 263.867 264.297 257.052C268.555 250.386 270.99 242.719 271.359 234.817C271.724 233.888 272.238 233.024 272.881 232.26C274.589 230.46 276.553 228.922 278.71 227.694C280.833 226.431 282.782 224.896 284.508 223.128C287.683 219.564 289.723 215.134 290.368 210.405C291.035 205.285 290.369 200.079 288.435 195.292C286.86 191.314 284.506 187.692 281.51 184.638C278.544 181.583 274.986 179.165 271.054 177.531C267.013 175.911 262.659 175.224 258.316 175.522C253.94 175.796 249.682 177.043 245.851 179.175C242.055 181.28 238.843 184.298 236.506 187.956C234.192 191.602 232.768 195.742 232.351 200.04C232.054 203.723 232.446 207.429 233.508 210.968C232.184 212.064 230.844 213.51 231.408 215.351C231.733 216.246 232.253 217.056 232.93 217.725C233.311 218.127 233.723 218.499 234.162 218.836C233.678 220.054 233.475 221.365 233.569 222.672C233.052 222.778 232.544 222.921 232.047 223.098C229.177 224.138 226.767 226.16 225.244 228.805C223.794 228.43 222.258 228.588 220.914 229.25C219.571 229.912 218.51 231.034 217.923 232.412C217.335 231.935 216.697 231.521 216.021 231.179C212.655 229.559 208.79 229.313 205.245 230.494C201.565 231.779 198.177 233.781 195.277 236.384C195.121 236.077 194.927 235.79 194.698 235.532C194.308 235.12 193.835 234.794 193.311 234.577C192.786 234.359 192.222 234.254 191.654 234.269C190.506 234.364 189.396 234.723 188.409 235.317C187.422 235.911 186.585 236.724 185.962 237.693C184.47 239.663 183.208 241.797 182.203 244.055C181.691 245.198 181.239 246.366 180.849 247.555C180.407 248.79 180.116 250.072 179.981 251.376C179.875 252.289 179.994 253.215 180.328 254.072C180.663 254.929 181.202 255.691 181.899 256.291Z" fill="#FCCBB2"/>
<path d="M233.508 223.112C233.371 222.747 233.934 222.503 234.056 222.869C234.757 224.744 236.043 226.345 237.723 227.435C237.758 227.461 237.788 227.492 237.815 227.526C241.861 226.677 245.959 226.092 250.082 225.776C254.589 225.703 259.024 226.917 262.866 229.276C265.014 230.587 266.937 232.237 268.558 234.162C268.817 234.451 268.345 234.846 268.101 234.542C265.249 231.197 261.508 228.728 257.311 227.419C255.198 226.75 252.998 226.396 250.782 226.369C248.188 226.409 245.605 226.694 243.065 227.221C240.207 227.822 237.315 228.249 234.406 228.5C234.025 228.5 233.934 227.922 234.314 227.906C235.167 227.906 236.019 227.769 236.856 227.663V227.526C235.339 226.407 234.177 224.874 233.508 223.112Z" fill="#EDA57B"/>
<path d="M265.698 225.139C266.575 225.602 267.552 225.845 268.544 225.845C269.537 225.845 270.514 225.602 271.39 225.139C273.073 224.247 274.463 222.889 275.393 221.227C276.468 219.473 276.997 217.439 276.915 215.383C276.832 213.362 275.977 211.45 274.526 210.041C273.829 209.321 272.884 208.894 271.883 208.846C270.882 208.798 269.901 209.133 269.138 209.782C268.864 210.056 268.484 209.584 268.758 209.31C269.475 208.678 270.38 208.298 271.334 208.229C272.288 208.16 273.238 208.406 274.039 208.93C274.907 209.532 275.643 210.306 276.2 211.204C276.758 212.102 277.126 213.105 277.28 214.15C277.632 216.332 277.329 218.568 276.411 220.578C275.493 222.588 274 224.281 272.121 225.443C271.102 226.076 269.934 226.431 268.735 226.471C267.535 226.511 266.347 226.235 265.287 225.671C264.998 225.443 265.364 224.956 265.698 225.139Z" fill="#EDA57B"/>
<path d="M225.124 228.912C225.276 228.562 225.839 228.775 225.687 229.141C224.909 230.975 224.697 233 225.08 234.956C225.462 236.911 226.421 238.708 227.833 240.114C231.288 243.249 236.341 243.158 240.693 243.386C243.397 243.423 246.065 244.013 248.531 245.121C248.881 245.289 248.653 245.852 248.318 245.684C243.752 243.386 238.578 244.284 233.768 243.401C231.543 243.066 229.444 242.153 227.681 240.753C226.156 239.415 225.091 237.631 224.637 235.655C224.088 233.412 224.258 231.053 225.124 228.912Z" fill="#EDA57B"/>
<path d="M185.964 248.409C187.879 243.547 191.026 239.267 195.096 235.99C195.4 235.746 195.796 236.218 195.476 236.462C191.461 239.663 188.354 243.861 186.466 248.637C186.422 248.675 186.369 248.699 186.311 248.707C186.254 248.715 186.195 248.707 186.143 248.683C186.09 248.659 186.045 248.62 186.013 248.572C185.982 248.523 185.965 248.467 185.964 248.409Z" fill="#EDA57B"/>
<path d="M182.478 256.275C183.195 257.026 184.123 257.541 185.139 257.753C186.156 257.965 187.213 257.864 188.17 257.462C188.613 255.321 189.399 253.265 190.499 251.375C190.696 251.04 191.183 251.375 191.001 251.725C189.932 253.55 189.176 255.54 188.764 257.615C188.79 257.661 188.804 257.713 188.804 257.767C188.804 257.82 188.79 257.873 188.764 257.919C188.251 260.622 188.318 263.402 188.961 266.077C189.053 266.457 188.444 266.548 188.353 266.168C187.735 263.564 187.647 260.862 188.094 258.223C187.04 258.582 185.905 258.63 184.826 258.36C183.746 258.09 182.767 257.514 182.006 256.701C181.747 256.382 182.204 256.001 182.478 256.275Z" fill="#EDA57B"/>
<path d="M242.155 209.145C242.797 209.638 243.534 209.994 244.319 210.193C245.104 210.392 245.921 210.429 246.721 210.302C247.101 210.302 247.192 210.834 246.812 210.895C245.928 211.046 245.023 211.011 244.153 210.793C243.283 210.576 242.468 210.181 241.759 209.632C241.5 209.404 241.85 208.917 242.155 209.145Z" fill="#596A85"/>
<path d="M209.096 261.679C210.767 259.957 212.327 258.132 213.768 256.215C214.174 257.576 214.414 258.981 214.484 260.4C214.484 260.796 215.092 260.689 215.077 260.309C214.993 258.705 214.702 257.119 214.21 255.591C215.419 253.903 216.473 252.11 217.36 250.234C217.741 249.396 218.091 248.559 218.395 247.692C218.719 246.775 218.988 245.84 219.202 244.892C219.556 243.272 219.729 241.618 219.719 239.96C220.737 240.463 221.879 240.659 223.007 240.524H223.448C224.11 240.399 224.738 240.134 225.29 239.747C225.577 239.57 225.806 239.313 225.949 239.008C226.092 238.702 226.143 238.362 226.096 238.028C226.096 237.632 225.442 237.738 225.503 238.119C225.533 238.311 225.512 238.508 225.443 238.689C225.373 238.871 225.258 239.031 225.107 239.154C224.51 239.61 223.799 239.895 223.052 239.976H222.839C221.787 240.101 220.723 239.893 219.795 239.382H219.674C219.625 236.978 219.098 234.608 218.121 232.412C218.081 232.352 218.022 232.309 217.953 232.289C217.884 232.269 217.81 232.274 217.745 232.303C217.68 232.332 217.626 232.384 217.595 232.448C217.564 232.512 217.556 232.586 217.573 232.655C218.532 234.798 219.05 237.111 219.095 239.458C219.181 242.298 218.705 245.127 217.695 247.783C217.406 248.605 217.056 249.412 216.691 250.203C214.615 254.277 211.914 258 208.685 261.237C208.442 261.481 208.792 261.953 209.096 261.679Z" fill="#EDA57B"/>
<path d="M183.421 218.231C183.37 218.867 183.484 219.507 183.75 220.087C184.016 220.668 184.427 221.171 184.943 221.548C184.98 221.575 185.023 221.592 185.069 221.599C185.114 221.606 185.16 221.603 185.204 221.59C185.248 221.577 185.288 221.554 185.322 221.523C185.356 221.492 185.382 221.454 185.399 221.411C185.663 220.833 185.958 220.269 186.282 219.722C189.096 215.504 192.887 212.027 197.331 209.586C201.73 206.877 206.463 204.64 210.618 201.626C212.709 200.186 214.611 198.488 216.28 196.573C218.053 194.459 219.495 192.088 220.556 189.542C221.043 188.416 221.469 187.259 221.865 186.117C222.87 183.561 223.798 180.973 224.909 178.508C226.443 175.14 228.532 172.053 231.088 169.376C233.85 166.683 236.915 164.319 240.22 162.329C240.433 162.192 240.326 161.903 240.22 161.812C239.571 161.507 238.877 161.306 238.165 161.218C235.121 160.884 232.214 162.284 229.505 163.364C226.796 164.445 223.859 165.632 221.104 166.895C215.585 169.256 210.397 172.326 205.672 176.027C201.214 179.772 197.452 184.275 194.561 189.329C191.694 194.405 189.3 199.734 187.408 205.248C186.419 208.033 185.506 210.834 184.593 213.634C183.986 215.103 183.591 216.651 183.421 218.231Z" fill="#F5928E"/>
<path d="M207.681 195.065C210.464 195.629 213.018 197.004 215.022 199.016C217.026 201.028 218.39 203.588 218.943 206.373C219.545 209.309 219.472 212.343 218.73 215.246C217.907 218.223 216.612 221.05 214.895 223.617C211.653 228.746 207.711 234.103 208.137 240.511C208.442 245.259 211.881 249.825 216.721 250.175H217.375H217.923C219.259 250.076 220.551 249.655 221.688 248.947C222.826 248.239 223.774 247.266 224.452 246.111C225.584 244.137 225.891 241.796 225.305 239.597C224.753 239.984 224.125 240.249 223.463 240.374H223.022C223.221 241.145 223.259 241.95 223.134 242.737C223.01 243.524 222.724 244.277 222.296 244.95C221.868 245.622 221.306 246.199 220.645 246.645C219.985 247.091 219.24 247.396 218.456 247.542C218.23 247.587 218.001 247.618 217.771 247.633C216.446 247.749 215.122 247.399 214.027 246.644C212.222 245.302 211.024 243.299 210.694 241.074C210.369 238.281 210.872 235.455 212.14 232.947C214.56 227.528 218.776 223.115 220.617 217.407C221.564 214.746 221.962 211.92 221.787 209.1C221.612 206.28 220.867 203.525 219.597 201.001C218.426 198.805 216.773 196.903 214.762 195.438C212.751 193.972 210.434 192.981 207.985 192.539C206.402 192.417 206.144 194.822 207.681 195.065Z" fill="#F5928E"/>
<path d="M193.206 206.967C193.628 207.121 194.083 207.16 194.524 207.08C194.965 206.999 195.377 206.803 195.718 206.511C196.631 205.856 197.437 204.989 198.32 204.334C199.203 203.68 200.207 202.919 201.181 202.265C204.743 199.875 208.943 198.277 212.033 195.233C215.122 192.189 216.294 187.974 217.451 183.94C217.755 182.905 218.075 181.84 218.44 180.79C219.235 179.177 220.189 177.648 221.286 176.224C221.971 175.357 222.717 174.565 223.478 173.759C223.846 173.44 224.143 173.048 224.35 172.607C224.557 172.167 224.669 171.688 224.68 171.202C224.513 168.858 221.636 169.391 220.114 169.756C217.97 170.28 215.917 171.127 214.027 172.267C210.18 174.708 206.786 177.797 203.997 181.399C201.168 184.789 198.694 188.461 196.616 192.357C194.558 196.208 193.115 200.357 192.339 204.654C192.232 205.552 192.278 206.541 193.206 206.967Z" fill="#EB6C7F"/>
<mask id="path-16-inside-1_461_437" fill="white">
<path d="M232 91.5C309.596 91.5 372.5 154.404 372.5 232C372.5 309.596 309.596 372.5 232 372.5C154.404 372.5 91.5 309.596 91.5 232C91.5 154.404 154.404 91.5 232 91.5ZM232 360.599C303.024 360.599 360.599 303.024 360.599 232C360.599 160.976 303.024 103.4 232 103.4C160.976 103.4 103.4 160.976 103.4 232C103.4 303.024 160.976 360.599 232 360.599Z"/>
</mask>
<path d="M232 91.5C309.596 91.5 372.5 154.404 372.5 232C372.5 309.596 309.596 372.5 232 372.5C154.404 372.5 91.5 309.596 91.5 232C91.5 154.404 154.404 91.5 232 91.5ZM232 360.599C303.024 360.599 360.599 303.024 360.599 232C360.599 160.976 303.024 103.4 232 103.4C160.976 103.4 103.4 160.976 103.4 232C103.4 303.024 160.976 360.599 232 360.599Z" fill="white" stroke="#FEEDF1" stroke-width="1.56111" mask="url(#path-16-inside-1_461_437)"/>
<path d="M232 91.5C262.482 91.5 292.137 101.413 316.492 119.744C340.846 138.075 358.579 163.829 367.014 193.121C375.449 222.413 374.129 253.653 363.253 282.129C352.377 310.605 332.535 334.772 306.722 350.983L300.393 340.905C324.02 326.067 342.181 303.947 352.136 277.883C362.09 251.819 363.298 223.225 355.578 196.414C347.857 169.603 331.627 146.031 309.335 129.252C287.044 112.474 259.9 103.4 232 103.4L232 91.5Z" fill="url(#paint0_linear_461_437)"/>
<rect x="288.842" y="325.5" width="34.3158" height="34.3451" rx="17.1579" fill="#FA4C75"/>
<path d="M302.179 343.88H297.093C296.558 343.88 296.29 343.215 296.668 342.826L298.342 341.106C298.649 340.786 299.018 340.532 299.426 340.358C299.834 340.184 300.273 340.095 300.717 340.095C301.161 340.095 301.6 340.184 302.008 340.358C302.416 340.532 302.785 340.786 303.092 341.106L303.626 341.655L303.633 341.639L303.672 341.657C304.437 339.649 304.491 338.734 304.488 336.446L304.486 336.159C304.478 334.305 304.467 332.064 306.531 331.767C309.241 331.377 311.219 336.159 311.543 340.405C312.145 340.182 312.798 340.14 313.423 340.283C314.047 340.426 314.617 340.748 315.061 341.21L316.736 342.931C317.115 343.321 316.846 343.985 316.312 343.985H313.553C313.627 344.258 313.667 344.547 313.667 344.845V350.74C313.667 351.692 312.633 352.085 312.001 351.339C311.763 351.059 310.89 350.039 309.757 348.716C306.718 353.07 299.073 355.443 296.915 351.845C296.898 351.846 296.881 351.846 296.863 351.846H296.09C295.821 351.839 295.566 351.727 295.379 351.534C295.191 351.342 295.086 351.084 295.086 350.815C295.086 350.546 295.191 350.288 295.379 350.095C295.566 349.903 295.821 349.791 296.09 349.783H296.345C296.36 348.027 297.625 346.507 299.308 345.846C300.402 345.417 301.384 344.744 302.179 343.879V343.88ZM310.029 341.648C310.029 341.515 310.028 341.381 310.024 341.243C309.98 339.855 309.759 338.477 309.366 337.145C308.97 335.81 308.443 334.72 307.883 334.03C307.317 333.332 306.94 333.285 306.754 333.312C306.522 333.346 306.45 333.413 306.419 333.446C306.367 333.501 306.279 333.629 306.201 333.915C306.043 334.505 306.045 335.253 306.048 336.19V336.443C306.051 337.624 306.039 338.555 305.898 339.482C305.789 340.193 305.61 340.871 305.338 341.647H310.029V341.648ZM306.42 344.828C304.717 348.123 301.235 349.729 297.97 349.897C297.893 349.901 297.818 349.92 297.748 349.952C297.678 349.985 297.615 350.032 297.564 350.089C297.512 350.146 297.472 350.213 297.446 350.285C297.42 350.358 297.409 350.435 297.413 350.512C297.416 350.589 297.436 350.665 297.469 350.734C297.502 350.804 297.549 350.866 297.606 350.918C297.664 350.969 297.731 351.009 297.803 351.034C297.876 351.06 297.953 351.071 298.03 351.067C301.459 350.891 305.234 349.246 307.236 345.777L306.42 344.828Z" fill="white"/>
<defs>
<linearGradient id="paint0_linear_461_437" x1="308.5" y1="348.5" x2="196.5" y2="30" gradientUnits="userSpaceOnUse">
<stop stop-color="#FA5D82"/>
<stop offset="1" stop-color="#FFE1E8"/>
<stop offset="1" stop-color="#FB6E90"/>
</linearGradient>
</defs>
</svg>
