<svg width="690" height="692" viewBox="0 0 690 692" fill="none" xmlns="http://www.w3.org/2000/svg">
<mask id="mask0_447_2168" style="mask-type:alpha" maskUnits="userSpaceOnUse" x="0" y="0" width="690" height="692">
<ellipse cx="345" cy="346" rx="345" ry="346" fill="#D9D9D9"/>
</mask>
<g mask="url(#mask0_447_2168)">
<path d="M1.01392 0H690.254V689.24H1.01392V0Z" fill="#E1E5F8"/>
<g style="mix-blend-mode:multiply" opacity="0.21">
<path d="M662.533 0H690.254V689.24H662.533V0Z" fill="#E1E5F8"/>
<path d="M589.032 0H616.753V689.24H589.032V0Z" fill="#E1E5F8"/>
<path d="M515.531 0H543.252V689.24H515.531V0Z" fill="#E1E5F8"/>
<path d="M442.031 0H469.752V689.24H442.031V0Z" fill="#E1E5F8"/>
<path d="M368.531 0H396.252V689.24H368.531V0Z" fill="#E1E5F8"/>
<path d="M295.03 0H322.751V689.24H295.03V0Z" fill="#E1E5F8"/>
<path d="M221.529 0H249.25V689.24H221.529V0Z" fill="#E1E5F8"/>
<path d="M148.015 0H175.736V689.24H148.015V0Z" fill="#E1E5F8"/>
<path d="M74.5146 0H102.236V689.24H74.5146V0Z" fill="#E1E5F8"/>
<path d="M1.01365 0H28.7349V689.24H1.01365V0Z" fill="#E1E5F8"/>
</g>
<path d="M1.01392 604.284H690.254V689.24H1.01392V604.284Z" fill="#687FDD"/>
<mask id="mask1_447_2168" style="mask-type:luminance" maskUnits="userSpaceOnUse" x="1" y="0" width="690" height="690">
<path d="M1.01392 0H690.254V689.24H1.01392V0Z" fill="white"/>
</mask>
<g mask="url(#mask1_447_2168)">
<path d="M222.549 322.096C68.4513 322.096 -56.4694 197.175 -56.4694 43.0775C-56.4694 -111.02 68.4513 -235.941 222.549 -235.941C376.646 -235.941 501.567 -111.02 501.567 43.0775C501.567 197.175 376.646 322.096 222.549 322.096Z" fill="white"/>
<path d="M222.549 338.941C59.1483 338.941 -73.3141 206.478 -73.3141 43.0775C-73.3141 -120.323 59.1483 -252.786 222.549 -252.786C385.95 -252.786 518.412 -120.323 518.412 43.0775C518.412 206.478 385.95 338.941 222.549 338.941Z" stroke="white" stroke-width="2" stroke-miterlimit="10"/>
</g>
<path d="M1.01321 446.379C33.89 437.213 69.3307 435.614 101.849 442.575C105.626 439.363 109.872 436.702 114.407 434.717C116.034 434.001 118.019 433.394 119.507 434.373C121.52 435.696 121.079 438.77 120.155 441.003C118.57 444.877 116.516 448.737 113.676 451.838C134.147 503.007 131.183 563.026 105.778 611.935C108.921 616.732 108.921 623.569 106.219 628.628C100.346 625.982 92.8889 621.171 88.4778 616.47C59.9157 622.659 29.6167 622.894 0.999412 616.498V446.366L1.01321 446.379Z" fill="#F97A7C"/>
<path d="M317.347 565.149C320.063 497.659 292.094 429.507 242.73 383.397C244.26 378.489 244.522 373.141 244.274 367.999C244.122 365.049 243.033 361.396 240.097 360.983C237.933 360.679 236.058 362.375 234.611 364.015C230.613 368.592 227.277 373.747 224.769 379.275C163.964 393.363 106.04 433.284 70.9164 484.867C66.1607 484.37 62.7697 486.287 58.0139 485.804C56.0565 485.597 53.9887 485.418 52.2105 486.259C47.9786 488.258 48.3094 494.957 51.7142 498.169C55.1191 501.381 60.1367 502.029 64.796 502.525C64.3549 526.083 77.2437 551.282 87.9958 572.262C98.748 593.229 113.511 611.935 129.819 628.945C128.096 632.819 128.95 638.788 129.888 642.923C130.825 647.059 135.87 650.422 139.413 648.093C140.805 647.169 141.646 645.625 142.418 644.136C144.886 639.422 147.353 634.708 149.821 629.993C203.623 631.647 257.728 611.839 300.502 579.169C307.836 582.077 318.629 583.538 326.514 583.414C326.873 576.384 323.33 568.802 317.334 565.122L317.347 565.149Z" fill="#FDB9B9"/>
<path d="M200.08 390.909C200.08 389.352 199.68 387.932 199.184 386.553C198.646 385.189 198.026 383.865 196.992 382.68C196.992 384.238 197.392 385.657 197.888 387.036C198.426 388.401 199.046 389.724 200.08 390.909Z" fill="#22304D"/>
<path d="M191.354 396.051C190.872 394.232 190.031 392.619 189.121 391.061C188.156 389.531 187.109 388.056 185.703 386.788C186.185 388.621 187.012 390.22 187.936 391.778C188.901 393.308 189.948 394.783 191.354 396.051Z" fill="#22304D"/>
<path d="M183.635 397.595C183.111 396.134 182.256 394.935 181.333 393.804C180.382 392.701 179.334 391.668 177.983 390.909C178.507 392.371 179.361 393.57 180.285 394.7C181.25 395.803 182.284 396.837 183.635 397.595Z" fill="#22304D"/>
<path d="M254.571 418.148C253.276 418.231 252.187 418.769 251.208 419.458C250.257 420.175 249.388 421.057 248.92 422.256C250.146 421.843 251.084 421.222 252.007 420.574C252.917 419.885 253.799 419.182 254.571 418.148Z" fill="#22304D"/>
<path d="M240.18 420.726C240.98 419.651 241.352 418.465 241.641 417.28C241.889 416.081 242.027 414.854 241.751 413.544C240.952 414.619 240.58 415.791 240.29 416.99C240.056 418.19 239.904 419.417 240.18 420.726Z" fill="#22304D"/>
<path d="M231.95 419.182C232.295 417.707 232.143 416.246 231.813 414.854C231.44 413.461 230.903 412.111 229.896 410.966C229.869 412.483 230.158 413.834 230.475 415.185C230.834 416.535 231.22 417.859 231.95 419.182Z" fill="#22304D"/>
<path d="M169.243 546.126C168.306 547.091 167.823 548.29 167.534 549.517C167.286 550.758 167.231 552.054 167.699 553.322C168.32 552.136 168.609 550.978 168.885 549.807C169.119 548.621 169.326 547.463 169.243 546.126Z" fill="#22304D"/>
<path d="M161.496 546.623C160.531 547.284 159.883 548.015 159.222 548.773C158.587 549.545 157.981 550.317 157.512 551.378C158.67 551.172 159.566 550.469 160.283 549.655C160.958 548.814 161.496 547.808 161.496 546.623Z" fill="#22304D"/>
<path d="M155.886 539.964C154.728 540.35 153.874 541.04 153.088 541.784C152.33 542.57 151.641 543.424 151.268 544.582C152.426 544.196 153.281 543.507 154.067 542.763C154.825 541.977 155.5 541.122 155.886 539.964Z" fill="#22304D"/>
<path d="M155.376 583.649C154.466 584.421 153.997 585.454 153.708 586.502C153.46 587.563 153.391 588.694 153.832 589.81C154.48 588.804 154.769 587.839 155.045 586.833C155.279 585.827 155.472 584.834 155.376 583.635V583.649Z" fill="#22304D"/>
<path d="M215.05 613.424C215.16 615.092 215.657 616.581 216.249 618.042C216.883 619.489 217.6 620.881 218.717 622.122C218.607 620.454 218.11 618.965 217.518 617.504C216.883 616.057 216.153 614.664 215.05 613.424Z" fill="#22304D"/>
<path d="M210.984 628.353C211.343 626.919 211.287 625.527 211.136 624.148C210.943 622.784 210.639 621.433 209.923 620.123C209.564 621.557 209.619 622.949 209.771 624.328C209.978 625.692 210.267 627.043 210.984 628.353Z" fill="#22304D"/>
<path d="M203.168 629.387C203.816 627.87 203.954 626.285 203.885 624.714C203.775 623.142 203.471 621.571 202.658 620.137C202.396 621.75 202.451 623.266 202.52 624.782C202.63 626.299 202.741 627.801 203.182 629.387H203.168Z" fill="#22304D"/>
<path d="M126.469 616.443C125.214 617.035 124.291 617.917 123.436 618.855C122.609 619.82 121.865 620.867 121.437 622.177C122.692 621.584 123.615 620.702 124.47 619.765C125.297 618.786 126.041 617.752 126.469 616.443Z" fill="#22304D"/>
<path d="M146.044 589.81C146.747 588.294 147.119 586.791 147.505 585.289C147.849 583.773 148.18 582.27 148.235 580.588C147.16 581.87 146.554 583.4 146.168 584.972C145.823 586.543 145.671 588.184 146.057 589.81H146.044Z" fill="#22304D"/>
<path d="M142.004 579.017C141.053 579.375 140.447 579.982 139.909 580.657C139.413 581.36 138.999 582.119 138.917 583.125C139.868 582.766 140.474 582.16 141.012 581.485C141.508 580.781 141.922 580.023 142.004 579.017Z" fill="#22304D"/>
<path d="M212.927 574.909C211.549 574.826 210.308 575.143 209.095 575.543C207.91 575.984 206.738 576.536 205.732 577.473C207.11 577.556 208.351 577.252 209.564 576.839C210.749 576.384 211.907 575.846 212.927 574.909Z" fill="#22304D"/>
<path d="M213.975 583.814C212.968 583.373 212.003 583.345 211.052 583.428C210.101 583.552 209.164 583.759 208.268 584.407C209.274 584.848 210.239 584.875 211.19 584.793C212.141 584.669 213.079 584.448 213.975 583.814Z" fill="#22304D"/>
<path d="M211.397 596.979C210.584 596.22 209.661 595.862 208.723 595.6C207.772 595.38 206.793 595.269 205.718 595.559C206.531 596.331 207.455 596.675 208.392 596.937C209.344 597.144 210.322 597.268 211.397 596.979Z" fill="#22304D"/>
<mask id="mask2_447_2168" style="mask-type:luminance" maskUnits="userSpaceOnUse" x="0" y="433" width="128" height="196">
<path d="M1.01321 446.379C33.89 437.213 69.3307 435.614 101.849 442.575C105.626 439.363 109.872 436.702 114.407 434.717C116.034 434.001 118.019 433.394 119.507 434.373C121.52 435.696 121.079 438.77 120.155 441.003C118.57 444.877 116.516 448.737 113.676 451.838C134.147 503.007 131.183 563.026 105.778 611.935C108.921 616.732 108.921 623.569 106.219 628.628C100.346 625.982 92.8889 621.171 88.4778 616.47C59.9157 622.659 29.6167 622.894 0.999412 616.498V446.366L1.01321 446.379Z" fill="white"/>
</mask>
<g mask="url(#mask2_447_2168)">
<path d="M102.938 422.242C100.526 493.013 93.3851 563.619 81.544 633.439" stroke="#22304D" stroke-miterlimit="10"/>
<path d="M71.3152 427.412C71.3428 498.073 68.9166 568.72 64.0368 639.201" stroke="#22304D" stroke-miterlimit="10"/>
<path d="M53.9741 432.539C51.2585 510.658 48.5429 588.776 45.8411 666.895" stroke="#22304D" stroke-miterlimit="10"/>
<path d="M29.9888 436.647C29.5891 508.425 29.9475 580.216 31.0503 651.994" stroke="#22304D" stroke-miterlimit="10"/>
<path d="M11.986 439.735C11.7103 509.5 13.4748 579.279 17.2656 648.933" stroke="#22304D" stroke-miterlimit="10"/>
<path d="M154.341 458.4C89.9387 456.677 25.5223 455.877 -38.9079 455.973" stroke="#22304D" stroke-miterlimit="10"/>
<path d="M168.747 483.86C102.111 482.427 35.4614 481.655 -31.2019 481.558" stroke="#22304D" stroke-miterlimit="10"/>
<path d="M171.311 515.276C101.628 512.285 31.8635 511.458 -37.8738 512.753" stroke="#22304D" stroke-miterlimit="10"/>
<path d="M156.396 537.111C91.7999 536.284 27.2181 535.112 -37.3637 533.623" stroke="#22304D" stroke-miterlimit="10"/>
<path d="M154.341 566.266C92.6681 566.156 30.9949 566.045 -30.6783 565.935" stroke="#22304D" stroke-miterlimit="10"/>
<path d="M159.483 597.103C94.3222 596.138 29.189 593.574 -35.8339 589.411" stroke="#22304D" stroke-miterlimit="10"/>
</g>
<path d="M690.254 641.71V250.042C665.731 234.259 638.74 232.012 609.668 229.544C575.468 226.65 541.02 224.899 506.847 228.166C481.786 230.565 456.726 235.748 434.05 246.679C389.938 267.963 357.365 311.647 349.549 360.004C304.569 386.236 262.443 429.424 231.496 471.289C202.934 509.927 177.735 554.976 180.533 602.947C180.768 607.055 181.25 611.273 183.194 614.912C185.551 619.324 189.797 622.384 194.015 625.072C229.69 647.83 272.864 655.192 314.949 659.644C437.896 672.657 566.604 641.71 690.24 641.71H690.254Z" fill="#F97A7C"/>
<path d="M506.833 284.573C521.707 273.311 520.811 254.454 520.811 254.454C520.811 254.454 494.854 267.894 484.708 257.404C473.474 245.783 470.152 228.759 470.152 228.759C470.152 228.759 463.907 227.766 458.421 224.017C452.934 220.267 448.192 214.781 448.192 214.781C448.192 214.781 462.666 193.07 463.659 189.072C464.651 185.075 459.661 173.606 458.173 166.369C456.67 159.132 457.18 149.648 457.18 148.903L474.287 128.281L530.005 145.057C530.005 145.057 556.968 222.955 564.164 242.723C565.694 246.927 568.796 252.703 572.462 260.257C561.807 270.389 548.628 277.874 534.444 281.706C525.47 284.132 516.124 285.07 506.847 284.587L506.833 284.573Z" fill="#FDB9B9"/>
<path d="M326.873 401.496C362.231 373.94 424.483 366.51 424.483 366.51C424.483 366.51 409.761 347.791 420.995 332.82C432.23 317.85 487.383 297.131 504.6 286.159C505.386 285.662 506.13 285.125 506.847 284.587C516.124 285.07 525.47 284.132 534.444 281.706C548.642 277.874 561.807 270.389 572.463 260.257C586.096 288.295 607.697 340.953 586.937 429.672C560.566 542.322 447.931 604.629 447.931 604.629L278.957 488.382C278.957 488.382 291.542 429.066 326.886 401.496H326.873Z" fill="#687FDD"/>
<path d="M455.595 139.447C457.47 127.206 461.964 118.673 469.049 110.513C480.105 97.7756 496.026 89.3669 512.775 87.4233C529.523 85.4796 546.947 90.0286 560.622 99.9123C571.553 107.811 579.907 118.784 586.923 130.308C593.912 141.791 599.702 153.949 605.409 166.121C608.855 173.482 612.411 181.022 618.201 186.729C623.99 192.422 633.488 196.599 641.249 194.173C633.419 208.192 623.15 220.97 610.44 230.785C609.902 231.199 609.351 231.612 608.8 232.012C600.529 226.553 592.685 220.46 587.268 212.272C591.431 220.833 596.586 228.91 602.596 236.313C600.584 237.595 598.53 238.794 596.448 239.924C591.679 235.679 587.433 230.84 583.684 225.657C586.234 231.268 588.894 236.823 591.61 242.337C583.946 245.893 575.813 248.333 567.266 249.326C554.529 222.942 541.668 195.51 528.93 169.14C506.199 171.207 482.82 158.47 471.724 138.524C468.925 146.794 464.969 157.243 457.58 161.903C456.45 155.424 454.589 145.94 455.595 139.433V139.447Z" fill="#22304D"/>
<path d="M520.812 254.454C533.714 248.319 540.427 228.276 540.965 212.63C541.31 223.286 540.083 234.521 536.416 244.528C533.232 253.213 527.966 261.911 519.392 265.385" fill="#22304D"/>
<path d="M495.048 188.962C493.641 190.561 492.125 192.022 490.457 193.291C488.831 194.586 487.066 195.689 485.219 196.613C483.372 197.55 481.387 198.06 479.54 198.887C477.665 199.701 475.763 200.431 473.736 201.41L473.764 201.686C475.969 202.223 478.244 202.03 480.408 201.506C482.6 200.996 484.502 199.742 486.336 198.529C488.169 197.302 489.864 195.896 491.381 194.324C492.87 192.725 494.207 191.016 495.268 189.141L495.048 188.976V188.962Z" fill="#22304D"/>
<path d="M479.954 200.831C478.437 194.311 476.218 187.997 473.351 182.001C475.791 188.176 477.555 194.586 478.603 201.093L479.954 200.831Z" fill="#22304D"/>
<path d="M505.165 177.893C502.657 175.467 499.776 173.399 496.715 171.635C493.628 169.898 490.319 168.505 486.887 167.527C483.468 166.548 479.898 165.569 476.259 165.831C472.661 166.065 469.049 166.879 465.906 168.754L465.989 169.153C469.587 169.525 472.909 169.65 476.217 169.967C479.498 170.311 482.834 170.173 486.142 170.752C489.423 171.345 492.676 172.255 495.833 173.495C499.004 174.709 502.022 176.321 504.917 178.21L505.179 177.893H505.165Z" fill="#22304D"/>
<path d="M477.072 246.555C481.883 241.317 485.095 234.741 486.294 227.877C484.654 234.645 481.042 240.862 476.093 245.59L477.072 246.555Z" fill="#22304D"/>
<g opacity="0.19">
<path d="M468.347 120.81C471.117 124.78 474.412 128.405 478.051 131.631C481.704 134.843 485.702 137.655 489.865 140.178C494.028 142.714 498.411 144.837 502.878 146.781C507.344 148.697 511.907 150.42 516.593 151.771C525.953 154.404 535.837 155.755 545.555 154.555C550.394 153.949 555.191 152.805 559.712 150.985C564.22 149.152 568.479 146.67 572.188 143.555C568.286 146.436 564.013 148.766 559.478 150.365C554.97 152.033 550.228 153.053 545.445 153.508C535.878 154.459 526.188 153.149 516.979 150.447C507.73 147.801 498.797 143.982 490.402 139.268C486.225 136.883 482.2 134.195 478.492 131.121C474.729 128.102 471.365 124.601 468.347 120.81Z" fill="#ECF1FC"/>
<path d="M487.177 112.043C492.994 116.84 499.693 120.576 506.806 123.195C513.919 125.814 521.487 127.22 529.082 127.454C536.678 127.578 544.301 126.531 551.538 124.242C555.149 123.098 558.678 121.665 562.056 119.983C565.419 118.246 568.658 116.289 571.664 114.028C568.479 116.04 565.185 117.86 561.766 119.376C558.361 120.934 554.832 122.23 551.234 123.236C544.053 125.276 536.581 126.31 529.124 126.09C521.666 125.965 514.25 124.587 507.164 122.216C500.079 119.845 493.338 116.399 487.19 112.057L487.177 112.043Z" fill="#ECF1FC"/>
<path d="M512.761 103.097C516.166 104.447 519.75 105.33 523.389 105.867C527.028 106.419 530.736 106.543 534.417 106.336C538.097 106.102 541.764 105.536 545.307 104.544L547.954 103.744L550.545 102.821L553.068 101.732C553.895 101.332 554.708 100.932 555.521 100.505C554.653 100.794 553.785 101.084 552.93 101.387L550.325 102.173L547.705 102.89L545.059 103.496C541.516 104.227 537.932 104.737 534.334 104.944C530.736 105.178 527.111 105.095 523.513 104.806C519.902 104.489 516.318 103.882 512.761 103.083V103.097Z" fill="#ECF1FC"/>
<path d="M543.446 162.936C546.093 169.498 548.905 175.977 551.786 182.428C554.667 188.879 557.686 195.262 560.691 201.672C563.792 208.026 566.88 214.381 570.106 220.667L574.999 230.068C576.681 233.17 578.335 236.299 580.072 239.373L575.592 229.765L571.043 220.198L561.918 201.079L552.723 181.987C549.649 175.632 546.589 169.264 543.418 162.936H543.446Z" fill="#ECF1FC"/>
<path d="M559.547 167.554C560.719 171.194 562.111 174.75 563.586 178.279C565.047 181.808 566.687 185.268 568.383 188.686C570.106 192.091 571.912 195.469 573.869 198.749C574.848 200.39 575.84 202.016 576.861 203.643C577.922 205.242 578.942 206.841 580.059 208.399L574.793 198.239C573.056 194.848 571.305 191.471 569.61 188.066C567.887 184.675 566.232 181.243 564.537 177.838L559.533 167.554H559.547Z" fill="#ECF1FC"/>
<path d="M570.878 160.29C573.277 165.473 576.006 170.477 578.97 175.37C581.92 180.264 585.187 184.964 588.578 189.555C592.051 194.09 595.663 198.529 599.537 202.719L602.473 205.835L605.478 208.881C607.546 210.852 609.613 212.824 611.764 214.684C610.799 213.637 609.82 212.589 608.841 211.569L605.96 208.412L603.107 205.242L600.322 202.016C596.642 197.688 593.044 193.29 589.667 188.728C586.207 184.22 582.995 179.547 579.852 174.805C576.723 170.063 573.759 165.197 570.864 160.29H570.878Z" fill="#ECF1FC"/>
<path d="M632.193 199.204C626.417 198.625 620.93 196.558 616.092 193.525C611.254 190.492 606.939 186.619 603.396 182.139C599.757 177.714 596.807 172.751 594.174 167.637C592.851 165.087 591.61 162.468 590.438 159.835C589.212 157.216 588.095 154.541 586.91 151.909C587.806 154.666 588.798 157.381 589.818 160.097C590.88 162.799 591.996 165.473 593.223 168.106C595.69 173.372 598.696 178.417 602.335 183.007C606.057 187.515 610.468 191.526 615.568 194.435C618.118 195.882 620.806 197.081 623.605 197.922C626.417 198.722 629.312 199.218 632.22 199.204H632.193Z" fill="#ECF1FC"/>
</g>
<path d="M418.473 398.091C418.473 398.091 398.389 382.432 357.558 384.486C335.461 385.588 295.278 414.426 294.258 425.316C293.238 436.206 332.029 415.791 332.029 415.791C332.029 415.791 354.484 423.952 365.043 423.276C375.589 422.601 389.883 417.486 389.883 417.486L405.543 425.992L418.473 398.091Z" fill="#FDB9B9"/>
<path d="M405.542 425.992L394.997 448.116L399.077 422.587L405.542 425.992Z" fill="#22304D"/>
<path d="M558.347 314.032C552.764 317.505 548.105 322.344 544.176 327.651C540.289 333.013 537.174 338.886 534.555 344.937C529.289 357.068 525.939 369.819 522.383 382.404C518.964 395.059 515.849 407.796 513.133 420.629C510.39 433.449 508.074 446.352 506.199 459.323C509.135 446.559 512.141 433.822 515.228 421.112C518.371 408.416 521.583 395.748 525.043 383.135C526.739 376.821 528.489 370.522 530.323 364.263C532.128 357.991 534.155 351.816 536.54 345.764C538.952 339.74 541.75 333.854 545.293 328.423C547.057 325.707 549.001 323.088 551.165 320.662C553.357 318.264 555.742 316.017 558.347 314.032Z" fill="#22304D"/>
<path d="M406.232 369.846C412.642 368.812 419.01 367.916 425.42 367.31C431.816 366.717 438.226 366.359 444.636 366.359C451.046 366.303 457.456 366.593 463.866 367.131C470.276 367.668 476.658 368.509 483.068 369.474C476.92 367.392 470.552 365.945 464.114 364.994C457.677 364.029 451.143 363.602 444.623 363.615C438.102 363.671 431.582 364.153 425.145 365.201C418.707 366.221 412.352 367.723 406.232 369.86V369.846Z" fill="#22304D"/>
<path d="M330.264 400.641C328.72 401.179 327.217 401.813 325.701 402.42L321.221 404.405C318.243 405.756 315.349 407.258 312.481 408.816C309.628 410.415 306.788 412.014 304.059 413.834C302.694 414.757 301.371 415.722 300.103 416.783C298.876 417.872 297.69 419.03 296.698 420.34C297.911 419.251 299.165 418.217 300.516 417.321C301.839 416.384 303.204 415.543 304.61 414.743C307.422 413.158 310.29 411.587 313.129 410.029L321.69 405.342C324.543 403.784 327.41 402.254 330.25 400.628L330.264 400.641Z" fill="#22304D"/>
<path d="M331.684 407.313C328.348 408.485 325.067 409.808 321.828 411.201C318.575 412.593 315.39 414.137 312.275 415.805C309.173 417.5 306.113 419.334 303.246 421.415C301.812 422.463 300.406 423.552 299.042 424.682C297.718 425.854 296.395 427.039 295.182 428.321C295.899 427.798 296.602 427.274 297.305 426.736L299.455 425.22C300.889 424.214 302.35 423.235 303.839 422.297C306.816 420.436 309.835 418.672 312.937 417.018C316.011 415.336 319.154 413.765 322.283 412.152C325.426 410.553 328.583 408.995 331.684 407.3V407.313Z" fill="#22304D"/>
<path d="M447.917 604.615C447.917 604.615 373.41 653.606 318.092 636.706C262.759 619.806 142.887 501.45 142.887 501.45C142.887 501.45 130.15 519.025 115.869 534.602C101.588 550.179 1.02744 619.02 1.02744 619.02V542.17C1.02744 542.17 104.786 403.371 157.485 409.987C285.821 426.129 447.931 604.601 447.931 604.601L447.917 604.615Z" fill="#22304D"/>
<path d="M428.812 405.466C422.843 424.131 416.116 442.547 408.631 460.66" stroke="#ECF1FC" stroke-miterlimit="10"/>
<path d="M434.822 409.285C428.853 427.949 421.34 447.551 413.855 465.651" stroke="#ECF1FC" stroke-miterlimit="10"/>
<path d="M440.28 414.068C434.311 432.732 426.799 452.334 419.314 470.434" stroke="#ECF1FC" stroke-miterlimit="10"/>
<path d="M418.473 398.091C426.592 404.46 434.808 410.677 443.12 416.742C451.418 422.849 459.8 428.818 468.208 434.773C476.645 440.686 485.095 446.559 493.655 452.307C502.188 458.083 510.817 463.721 519.543 469.207C511.424 462.839 503.208 456.622 494.896 450.542C486.597 444.436 478.216 438.467 469.807 432.512C461.371 426.612 452.907 420.726 444.361 414.978C435.828 409.202 427.212 403.564 418.473 398.078V398.091Z" fill="#22304D"/>
<path d="M394.997 448.116C404.936 458.138 415.04 467.966 425.324 477.616C435.58 487.293 446.001 496.804 456.588 506.136C461.895 510.782 467.257 515.372 472.744 519.852C475.514 522.072 478.299 524.222 481.083 526.386C483.868 528.551 486.68 530.701 489.533 532.782C495.254 536.89 501.182 541.067 508.088 543.3C511.534 544.334 515.311 544.665 518.799 543.645C520.536 543.149 522.176 542.377 523.651 541.398C525.126 540.392 526.463 539.22 527.704 537.979C525.043 540.268 521.997 542.211 518.619 542.942C515.242 543.714 511.741 543.19 508.515 542.018C505.276 540.847 502.243 539.123 499.334 537.221C496.426 535.305 493.6 533.237 490.829 531.073C485.329 526.731 479.788 522.32 474.398 517.854C469.008 513.36 463.673 508.769 458.407 504.096C447.807 494.819 437.317 485.418 426.771 476.072C416.254 466.698 405.653 457.393 394.997 448.144V448.116Z" fill="#22304D"/>
<path d="M575.027 264.503C566.232 274.345 554.736 281.747 542.15 285.69C529.565 289.632 515.904 288.736 503.056 285.69" stroke="#ECF1FC" stroke-miterlimit="10"/>
<path d="M577.908 272.153C568.327 282.037 556.059 289.122 542.991 293.396C535.368 295.891 527.373 297.462 519.364 297.297C511.355 297.131 503.291 294.278 496.426 290.129" stroke="#ECF1FC" stroke-width="3" stroke-miterlimit="10"/>
<path d="M132.838 514.256C135.471 511.954 137.8 509.335 139.909 506.564C142.032 503.793 143.907 500.829 145.589 497.769C147.229 494.681 148.69 491.497 149.848 488.202C151.02 484.908 151.93 481.531 152.412 478.071C150.841 481.186 149.379 484.301 147.863 487.375C146.333 490.436 144.803 493.482 143.163 496.46C141.563 499.465 139.854 502.415 138.131 505.365L132.838 514.256Z" fill="#687FDD"/>
<path d="M561.669 181.38C562.717 188.259 560.663 195.551 556.183 200.872C554.777 202.54 553.109 204.056 551.069 204.828C546.478 206.579 541.089 204.015 538.304 199.962C535.519 195.91 534.885 190.768 534.954 185.861C535.051 179.52 536.746 172.365 542.246 169.209C551.124 164.108 560.36 172.861 561.655 181.38H561.669Z" fill="#FDB9B9"/>
<g style="mix-blend-mode:multiply">
<path d="M543.832 200.762C545.693 199.521 547.195 197.743 548.119 195.717C548.298 195.303 548.463 194.862 548.408 194.421C548.298 193.566 547.443 193.043 546.685 192.629C545.155 191.816 543.625 190.989 542.081 190.175C541.778 190.01 541.461 189.831 541.268 189.541C541.061 189.224 541.061 188.811 541.061 188.425C541.061 183.559 541.185 178.279 544.245 174.488C545.072 173.468 546.12 172.572 547.36 172.172C549.221 171.58 551.289 172.131 552.916 173.206C554.542 174.281 555.797 175.812 557.01 177.355C557.01 177.355 560.87 186.619 555.976 194.366C551.069 202.113 543.818 200.762 543.818 200.762H543.832Z" fill="#FDB9B9"/>
</g>
<path d="M557.024 177.355C555.976 175.632 554.763 173.964 553.067 172.669C551.372 171.442 549.001 170.697 546.713 171.524C545.61 171.924 544.673 172.627 543.914 173.44C543.17 174.254 542.522 175.136 542.026 176.115C541.02 178.045 540.523 180.167 540.261 182.235C540.027 184.317 540.027 186.371 540.055 188.383C540.055 188.631 540.055 188.948 540.151 189.334C540.22 189.707 540.496 190.23 540.827 190.506C541.502 191.044 541.888 191.126 542.343 191.388C543.239 191.843 544.149 192.284 545.058 192.712C545.954 193.166 546.975 193.552 547.485 194.021C547.733 194.269 547.843 194.476 547.802 194.821C547.774 195.165 547.554 195.648 547.374 196.089C546.644 197.881 545.389 199.452 543.859 200.776C545.679 199.852 547.195 198.35 548.325 196.585C548.587 196.13 548.863 195.703 549.029 195.069C549.222 194.435 548.987 193.566 548.546 193.084C548.119 192.574 547.622 192.27 547.168 191.995L545.858 191.223C544.99 190.713 544.121 190.203 543.253 189.707C542.839 189.472 542.274 189.169 542.177 189.059C542.136 188.99 542.164 189.059 542.136 188.935C542.122 188.838 542.122 188.645 542.136 188.383C542.164 186.384 542.191 184.399 542.439 182.483C542.646 180.567 543.073 178.692 543.873 177.024C544.645 175.357 545.844 173.813 547.374 173.082C548.891 172.365 550.876 172.655 552.53 173.565C554.239 174.433 555.631 175.935 557.051 177.369L557.024 177.355Z" fill="#181818"/>
<path d="M548.257 216.408C544.686 216.408 541.792 213.513 541.792 209.942C541.792 206.372 544.686 203.477 548.257 203.477C551.827 203.477 554.722 206.372 554.722 209.942C554.722 213.513 551.827 216.408 548.257 216.408Z" fill="white"/>
<path d="M690.254 604.284C663.953 636.086 621.413 636.899 580.775 644.081C538.621 651.525 495.116 654.502 453.1 646.3C436.931 643.144 419.755 637.395 410.671 623.652C430.314 613.051 449.13 600.921 466.899 587.412C472.371 583.249 477.789 578.906 482.145 573.585C489.52 564.57 493.421 553.308 497.542 542.432C520.839 480.924 554.873 423.166 599.274 374.643C631.476 339.451 690.254 332.09 690.254 332.09V604.27V604.284Z" fill="#F97A7C"/>
<path d="M646.735 330.201C625.7 349.665 604.375 368.812 584.566 389.614C579.617 394.81 574.779 400.131 570.147 405.618C565.488 411.09 561.008 416.715 556.762 422.518C548.174 434.042 540.262 446.09 533.19 458.607C519.019 483.626 507.536 510.065 497.694 537.001C492.828 550.496 488.265 564.088 483.964 577.762C479.774 591.464 475.666 605.194 471.779 618.993C476.245 605.373 480.615 591.74 485.246 578.176C489.795 564.598 494.579 551.103 499.665 537.731C509.894 511.03 521.294 484.715 535.561 459.957C549.47 434.993 566.646 412 586.096 391.047C595.773 380.516 605.891 370.398 616.119 360.362L646.735 330.201Z" fill="#22304D"/>
</g>
</svg>
